<?xml version="1.0" encoding="utf-8" standalone="no"?>
<!DOCTYPE svg PUBLIC "-//W3C//DTD SVG 1.1//EN"
  "http://www.w3.org/Graphics/SVG/1.1/DTD/svg11.dtd">
<svg xmlns:xlink="http://www.w3.org/1999/xlink" width="504pt" height="234pt" viewBox="0 0 504 234" xmlns="http://www.w3.org/2000/svg" version="1.1">
 <metadata>
  <rdf:RDF xmlns:dc="http://purl.org/dc/elements/1.1/" xmlns:cc="http://creativecommons.org/ns#" xmlns:rdf="http://www.w3.org/1999/02/22-rdf-syntax-ns#">
   <cc:Work>
    <dc:type rdf:resource="http://purl.org/dc/dcmitype/StillImage"/>
    <dc:date>2023-01-24T01:52:30.692822</dc:date>
    <dc:format>image/svg+xml</dc:format>
    <dc:creator>
     <cc:Agent>
      <dc:title>Matplotlib v3.6.3, https://matplotlib.org/</dc:title>
     </cc:Agent>
    </dc:creator>
   </cc:Work>
  </rdf:RDF>
 </metadata>
 <defs>
  <style type="text/css">*{stroke-linejoin: round; stroke-linecap: butt}</style>
 </defs>
 <g id="figure_1">
  <g id="patch_1">
   <path d="M 0 234 
L 504 234 
L 504 0 
L 0 0 
z
" style="fill: #ffffff"/>
  </g>
  <g id="axes_1">
   <g id="patch_2">
    <path d="M 156.670865 70.420367 
L 411.216398 70.420367 
L 411.216398 36.275999 
L 156.670865 36.275999 
z
" style="fill: #ffffff"/>
   </g>
   <g id="line2d_1">
    <path d="M 156.670865 53.348183 
L 411.216398 53.348183 
" clip-path="url(#p38833ca6ad)" style="fill: none; stroke: #5a5758; stroke-opacity: 0.5; stroke-width: 3; stroke-linecap: square"/>
   </g>
   <g id="PathCollection_1">
    <defs>
     <path id="m2f3794969b" d="M 0 5 
C 1.326016 5 2.597899 4.473168 3.535534 3.535534 
C 4.473168 2.597899 5 1.326016 5 0 
C 5 -1.326016 4.473168 -2.597899 3.535534 -3.535534 
C 2.597899 -4.473168 1.326016 -5 0 -5 
C -1.326016 -5 -2.597899 -4.473168 -3.535534 -3.535534 
C -4.473168 -2.597899 -5 -1.326016 -5 0 
C -5 1.326016 -4.473168 2.597899 -3.535534 3.535534 
C -2.597899 4.473168 -1.326016 5 0 5 
z
"/>
    </defs>
    <g>
     <use xlink:href="#m2f3794969b" x="208.570155" y="53.348183" style="fill: #e29400"/>
    </g>
   </g>
   <g id="matplotlib.axis_1">
    <g id="xtick_1"/>
    <g id="xtick_2"/>
    <g id="xtick_3"/>
    <g id="xtick_4"/>
    <g id="xtick_5"/>
   </g>
   <g id="matplotlib.axis_2">
    <g id="ytick_1"/>
    <g id="ytick_2"/>
    <g id="ytick_3"/>
    <g id="text_1">
     <!-- Analytic Forward -->
     <g style="fill: #5a5758" transform="translate(17.540865 58.099902) scale(0.18 -0.18)">
      <defs>
       <path id="CMUBright-SemiBold-41" d="M 186 0 
L 1798 4499 
L 2522 4499 
L 4128 0 
L 3430 0 
L 3046 1088 
L 1184 1088 
L 800 0 
L 186 0 
z
M 1370 1594 
L 2867 1594 
Q 2163 3584 2118 3827 
Q 2067 3622 1929 3203 
Q 1792 2784 1590 2214 
Q 1389 1645 1370 1594 
z
" transform="scale(0.015625)"/>
       <path id="CMUBright-SemiBold-6e" d="M 410 0 
L 410 3021 
L 998 3021 
L 998 2714 
L 1005 2496 
Q 1344 3072 1971 3072 
Q 2227 3072 2409 2995 
Q 2592 2918 2681 2816 
Q 2771 2714 2822 2547 
Q 2874 2381 2880 2275 
Q 2886 2170 2886 2016 
L 2886 0 
L 2272 0 
L 2272 2022 
Q 2272 2131 2259 2204 
Q 2246 2278 2192 2380 
Q 2138 2483 2000 2537 
Q 1862 2592 1651 2592 
Q 1453 2592 1315 2493 
Q 1178 2394 1120 2237 
Q 1062 2080 1043 1961 
Q 1024 1843 1024 1728 
L 1024 0 
L 410 0 
z
" transform="scale(0.015625)"/>
       <path id="CMUBright-SemiBold-61" d="M 250 851 
Q 250 1274 771 1498 
Q 1293 1722 2112 1747 
L 2112 1971 
Q 2112 2234 2048 2355 
Q 1894 2650 1568 2650 
Q 1242 2643 1037 2566 
Q 832 2490 557 2291 
L 512 2829 
Q 1043 3104 1581 3104 
Q 2061 3104 2377 2822 
Q 2694 2541 2726 2144 
L 2733 1933 
L 2733 0 
L 2131 0 
L 2131 230 
L 2125 410 
Q 1946 186 1648 67 
Q 1350 -51 1043 -51 
Q 666 -51 458 233 
Q 250 518 250 851 
z
M 845 864 
Q 845 672 1008 550 
Q 1171 429 1408 429 
Q 1626 429 1811 525 
Q 1997 621 2074 781 
Q 2112 864 2112 1043 
L 2112 1446 
Q 1523 1421 1184 1270 
Q 845 1120 845 864 
z
" transform="scale(0.015625)"/>
       <path id="CMUBright-SemiBold-6c" d="M 416 0 
L 416 4448 
L 1018 4448 
L 1018 0 
L 416 0 
z
" transform="scale(0.015625)"/>
       <path id="CMUBright-SemiBold-79" d="M 90 3021 
L 704 3021 
Q 1344 1344 1440 979 
Q 1485 787 1510 614 
Q 1536 979 2138 2733 
Q 2208 2925 2240 3021 
L 2835 3021 
L 1722 -128 
Q 1562 -576 1331 -848 
Q 1101 -1120 685 -1120 
Q 538 -1120 205 -1075 
L 154 -544 
Q 480 -640 691 -640 
Q 749 -640 797 -630 
Q 845 -621 883 -608 
Q 922 -595 960 -563 
Q 998 -531 1020 -512 
Q 1043 -493 1075 -441 
Q 1107 -390 1120 -368 
Q 1133 -346 1158 -282 
Q 1184 -218 1193 -195 
Q 1203 -173 1228 -96 
Q 1254 -19 1261 0 
L 90 3021 
z
" transform="scale(0.015625)"/>
       <path id="CMUBright-SemiBold-74" d="M 122 2541 
L 122 3021 
L 646 3021 
L 646 3885 
L 1222 3885 
L 1222 3021 
L 2118 3021 
L 2118 2541 
L 1222 2541 
L 1222 1075 
Q 1222 448 1555 448 
Q 1805 448 2106 672 
L 2234 211 
Q 1754 -51 1197 -51 
Q 634 -51 634 1005 
L 634 2541 
L 122 2541 
z
" transform="scale(0.015625)"/>
       <path id="CMUBright-SemiBold-69" d="M 414 3859 
L 414 4461 
L 1016 4461 
L 1016 3859 
L 414 3859 
z
M 416 0 
L 416 3021 
L 1018 3021 
L 1018 0 
L 416 0 
z
" transform="scale(0.015625)"/>
       <path id="CMUBright-SemiBold-63" d="M 224 1517 
Q 224 2163 643 2633 
Q 1062 3104 1715 3104 
Q 2048 3104 2249 3046 
Q 2451 2989 2758 2829 
L 2669 2304 
Q 2400 2477 2217 2541 
Q 2035 2605 1715 2605 
Q 1562 2605 1427 2560 
Q 1293 2515 1149 2406 
Q 1005 2298 921 2067 
Q 838 1837 838 1510 
Q 838 941 1100 694 
Q 1363 448 1696 448 
Q 2234 448 2752 800 
L 2797 269 
Q 2266 -51 1702 -51 
Q 1062 -51 643 416 
Q 224 883 224 1517 
z
" transform="scale(0.015625)"/>
       <path id="CMUBright-SemiBold-20" transform="scale(0.015625)"/>
       <path id="CMUBright-SemiBold-46" d="M 512 0 
L 512 4429 
L 3526 4429 
L 3526 3923 
L 1184 3923 
L 1184 2470 
L 3245 2470 
L 3245 1958 
L 1184 1958 
L 1184 0 
L 512 0 
z
" transform="scale(0.015625)"/>
       <path id="CMUBright-SemiBold-6f" d="M 630 390 
Q 186 832 186 1504 
Q 186 2176 627 2637 
Q 1069 3098 1677 3098 
Q 2310 3098 2739 2618 
Q 3168 2138 3168 1498 
Q 3168 838 2726 393 
Q 2285 -51 1677 -51 
Q 1075 -51 630 390 
z
M 800 1594 
Q 800 998 1037 717 
Q 1267 448 1677 448 
Q 2061 448 2291 685 
Q 2554 954 2554 1606 
Q 2554 2150 2307 2384 
Q 2061 2618 1677 2618 
Q 800 2618 800 1594 
z
" transform="scale(0.015625)"/>
       <path id="CMUBright-SemiBold-72" d="M 416 0 
L 416 3021 
L 992 3021 
L 992 2368 
Q 1370 3059 2112 3072 
L 2112 2528 
Q 1939 2528 1769 2480 
Q 1600 2432 1421 2326 
Q 1242 2221 1130 2013 
Q 1018 1805 1018 1517 
L 1018 0 
L 416 0 
z
" transform="scale(0.015625)"/>
       <path id="CMUBright-SemiBold-77" d="M 90 3021 
L 685 3021 
L 1178 1210 
L 1280 781 
L 1306 614 
Q 1325 928 1920 3021 
L 2470 3021 
L 2912 1440 
Q 3078 800 3110 614 
Q 3136 883 3744 3021 
L 4326 3021 
L 3462 -19 
L 2778 -19 
L 2381 1414 
L 2272 1862 
L 2189 2259 
L 2170 2406 
Q 2144 2048 1568 -19 
L 954 -19 
L 90 3021 
z
" transform="scale(0.015625)"/>
       <path id="CMUBright-SemiBold-64" d="M 224 1517 
Q 224 2150 544 2611 
Q 864 3072 1350 3072 
Q 1856 3072 2285 2701 
L 2285 4448 
L 2886 4448 
L 2886 0 
L 2272 0 
L 2272 378 
Q 1856 -51 1344 -51 
Q 864 -51 544 409 
Q 224 870 224 1517 
z
M 838 1427 
Q 851 966 1024 730 
Q 1248 429 1670 429 
Q 1830 429 1971 505 
Q 2112 582 2157 633 
Q 2202 685 2272 774 
L 2272 2349 
Q 2042 2592 1741 2592 
Q 1331 2592 1082 2336 
Q 838 2086 838 1562 
L 838 1427 
z
" transform="scale(0.015625)"/>
      </defs>
      <use xlink:href="#CMUBright-SemiBold-41"/>
      <use xlink:href="#CMUBright-SemiBold-6e" x="67.499985"/>
      <use xlink:href="#CMUBright-SemiBold-61" x="119.199982"/>
      <use xlink:href="#CMUBright-SemiBold-6c" x="168.399979"/>
      <use xlink:href="#CMUBright-SemiBold-79" x="190.899963"/>
      <use xlink:href="#CMUBright-SemiBold-74" x="236.699951"/>
      <use xlink:href="#CMUBright-SemiBold-69" x="274.599945"/>
      <use xlink:href="#CMUBright-SemiBold-63" x="297.09993"/>
      <use xlink:href="#CMUBright-SemiBold-20" x="343.799927"/>
      <use xlink:href="#CMUBright-SemiBold-46" x="377.099915"/>
      <use xlink:href="#CMUBright-SemiBold-6f" x="436.699905"/>
      <use xlink:href="#CMUBright-SemiBold-72" x="489.19989"/>
      <use xlink:href="#CMUBright-SemiBold-77" x="523.799881"/>
      <use xlink:href="#CMUBright-SemiBold-61" x="592.999863"/>
      <use xlink:href="#CMUBright-SemiBold-72" x="642.19986"/>
      <use xlink:href="#CMUBright-SemiBold-64" x="676.79985"/>
     </g>
    </g>
   </g>
   <g id="text_2">
    <!-- 0.0046 -->
    <g style="fill: #5a5758" transform="translate(417.216398 58.099902) scale(0.18 -0.18)">
     <defs>
      <path id="CMUBright-Roman-30" d="M 333 1984 
L 333 2086 
Q 333 2291 339 2438 
Q 346 2586 371 2832 
Q 397 3078 461 3267 
Q 525 3456 621 3657 
Q 717 3859 880 4006 
Q 1043 4154 1261 4230 
Q 1446 4301 1677 4301 
Q 1856 4301 2025 4256 
Q 2195 4211 2380 4070 
Q 2566 3930 2704 3709 
Q 2842 3488 2931 3104 
Q 3021 2720 3021 2214 
Q 3021 1683 2982 1347 
Q 2944 1011 2803 685 
Q 2618 250 2307 70 
Q 1997 -109 1677 -109 
Q 1498 -109 1328 -64 
Q 1158 -19 972 121 
Q 787 262 649 483 
Q 512 704 422 1091 
Q 333 1478 333 1984 
z
M 742 2413 
Q 742 2374 745 2326 
Q 749 2278 749 2272 
L 749 2150 
Q 749 1779 758 1548 
Q 768 1318 838 1014 
Q 909 710 1037 538 
Q 1286 218 1677 218 
Q 2086 218 2330 557 
Q 2451 730 2518 1037 
Q 2586 1344 2595 1568 
Q 2605 1792 2605 2163 
L 2605 2272 
Q 2605 2278 2608 2323 
Q 2611 2368 2611 2406 
Q 2611 3302 2336 3661 
Q 2099 3981 1677 3981 
Q 1242 3981 1005 3642 
Q 742 3264 742 2413 
z
" transform="scale(0.015625)"/>
      <path id="CMUBright-Roman-2e" d="M 678 0 
L 678 499 
L 1178 499 
L 1178 0 
L 678 0 
z
" transform="scale(0.015625)"/>
      <path id="CMUBright-Roman-34" d="M 186 1158 
L 186 1504 
L 1952 4250 
L 2438 4250 
L 2438 1498 
L 3168 1498 
L 3168 1158 
L 2438 1158 
L 2438 0 
L 2035 0 
L 2035 1158 
L 186 1158 
z
M 602 1498 
L 2054 1498 
L 2054 3885 
Q 1971 3667 1606 3085 
L 602 1498 
z
" transform="scale(0.015625)"/>
      <path id="CMUBright-Roman-36" d="M 346 2061 
Q 346 3072 864 3686 
Q 1382 4301 2074 4301 
L 2086 4301 
Q 2426 4301 2797 4179 
L 2797 3846 
Q 2374 3981 2074 3981 
L 2061 3981 
Q 1478 3981 1123 3491 
Q 768 3002 768 2208 
Q 768 2195 771 2166 
Q 774 2138 774 2125 
Q 928 2445 1238 2665 
Q 1549 2886 1952 2886 
Q 2387 2886 2682 2483 
Q 3008 2029 3008 1408 
Q 3008 768 2618 326 
Q 2240 -109 1690 -109 
Q 1510 -109 1340 -57 
Q 1171 -6 985 141 
Q 800 288 662 521 
Q 525 755 435 1152 
Q 346 1549 346 2061 
z
M 794 1389 
Q 813 1171 854 1004 
Q 896 838 985 643 
Q 1075 448 1254 336 
Q 1434 224 1690 224 
Q 2138 224 2381 550 
Q 2515 736 2550 921 
Q 2586 1107 2586 1434 
Q 2586 1645 2573 1776 
Q 2560 1907 2480 2089 
Q 2400 2272 2253 2400 
Q 2054 2566 1728 2566 
Q 1325 2566 1062 2265 
Q 800 1965 800 1555 
Q 800 1440 806 1389 
L 794 1389 
z
" transform="scale(0.015625)"/>
     </defs>
     <use xlink:href="#CMUBright-Roman-30"/>
     <use xlink:href="#CMUBright-Roman-2e" x="52.499985"/>
     <use xlink:href="#CMUBright-Roman-30" x="81.699982"/>
     <use xlink:href="#CMUBright-Roman-30" x="134.199966"/>
     <use xlink:href="#CMUBright-Roman-34" x="186.699951"/>
     <use xlink:href="#CMUBright-Roman-36" x="239.199936"/>
    </g>
   </g>
   <g id="text_3">
    <!-- Method -->
    <g style="fill: #5a5758" transform="translate(85.56299 19.203815) scale(0.216 -0.216)">
     <defs>
      <path id="CMUBright-SemiBold-4d" d="M 550 0 
L 550 4448 
L 1434 4448 
Q 2778 973 2822 723 
Q 2867 973 4211 4448 
L 5094 4448 
L 5094 0 
L 4493 0 
L 4493 3827 
Q 4358 3379 4051 2586 
L 3104 109 
L 2528 109 
L 1600 2541 
Q 1203 3603 1152 3827 
L 1152 0 
L 550 0 
z
" transform="scale(0.015625)"/>
      <path id="CMUBright-SemiBold-65" d="M 186 1530 
Q 186 2189 605 2646 
Q 1024 3104 1606 3104 
Q 1766 3104 1920 3069 
Q 2074 3034 2243 2931 
Q 2413 2829 2534 2669 
Q 2656 2509 2739 2233 
Q 2822 1958 2822 1600 
L 762 1600 
L 762 1536 
Q 762 1062 1040 745 
Q 1318 429 1709 429 
Q 2240 429 2739 794 
L 2784 275 
Q 2278 -51 1709 -51 
Q 1043 -51 614 419 
Q 186 890 186 1530 
z
M 838 1978 
L 2298 1978 
Q 2144 2618 1600 2618 
Q 1363 2618 1148 2448 
Q 934 2278 838 1978 
z
" transform="scale(0.015625)"/>
      <path id="CMUBright-SemiBold-68" d="M 410 0 
L 410 4448 
L 1011 4448 
L 1011 2784 
L 1018 2515 
Q 1370 3072 1971 3072 
Q 2227 3072 2409 2995 
Q 2592 2918 2681 2816 
Q 2771 2714 2822 2547 
Q 2874 2381 2880 2275 
Q 2886 2170 2886 2016 
L 2886 0 
L 2272 0 
L 2272 2022 
Q 2272 2131 2259 2204 
Q 2246 2278 2192 2380 
Q 2138 2483 2000 2537 
Q 1862 2592 1651 2592 
Q 1453 2592 1315 2493 
Q 1178 2394 1120 2237 
Q 1062 2080 1043 1961 
Q 1024 1843 1024 1728 
L 1024 0 
L 410 0 
z
" transform="scale(0.015625)"/>
     </defs>
     <use xlink:href="#CMUBright-SemiBold-4d"/>
     <use xlink:href="#CMUBright-SemiBold-65" x="88.299988"/>
     <use xlink:href="#CMUBright-SemiBold-74" x="135.399979"/>
     <use xlink:href="#CMUBright-SemiBold-68" x="173.299973"/>
     <use xlink:href="#CMUBright-SemiBold-6f" x="224.999969"/>
     <use xlink:href="#CMUBright-SemiBold-64" x="277.499954"/>
    </g>
   </g>
   <g id="text_4">
    <!-- Time (sec) -->
    <g style="fill: #5a5758" transform="translate(399.095182 19.203815) scale(0.216 -0.216)">
     <defs>
      <path id="CMUBright-SemiBold-54" d="M 237 3910 
L 237 4416 
L 4390 4416 
L 4390 3910 
L 2650 3910 
L 2650 0 
L 1978 0 
L 1978 3910 
L 237 3910 
z
" transform="scale(0.015625)"/>
      <path id="CMUBright-SemiBold-6d" d="M 410 0 
L 410 3021 
L 998 3021 
L 998 2714 
L 1005 2496 
Q 1344 3072 1971 3072 
Q 2080 3072 2176 3059 
Q 2272 3046 2345 3024 
Q 2419 3002 2483 2966 
Q 2547 2931 2592 2899 
Q 2637 2867 2675 2819 
Q 2714 2771 2736 2739 
Q 2758 2707 2784 2656 
Q 2810 2605 2816 2582 
Q 2822 2560 2838 2518 
Q 2854 2477 2854 2470 
Q 3187 3072 3840 3072 
Q 4090 3072 4272 2995 
Q 4454 2918 4544 2819 
Q 4634 2720 4685 2557 
Q 4736 2394 4745 2285 
Q 4755 2176 4755 2016 
L 4755 0 
L 4141 0 
L 4141 1984 
Q 4128 2278 4045 2394 
Q 3898 2592 3507 2592 
Q 3264 2592 3078 2390 
Q 2893 2189 2893 1728 
L 2893 0 
L 2272 0 
L 2272 1984 
Q 2266 2266 2195 2374 
Q 2054 2592 1645 2592 
Q 1402 2592 1213 2390 
Q 1024 2189 1024 1728 
L 1024 0 
L 410 0 
z
" transform="scale(0.015625)"/>
      <path id="CMUBright-SemiBold-28" d="M 1747 -1421 
Q 499 -358 499 1690 
Q 499 3738 1747 4800 
L 2234 4800 
Q 2086 4653 1990 4544 
Q 1894 4435 1708 4147 
Q 1523 3859 1411 3552 
Q 1299 3245 1206 2752 
Q 1114 2259 1114 1689 
Q 1114 1120 1206 627 
Q 1299 134 1411 -173 
Q 1523 -480 1708 -768 
Q 1894 -1056 1990 -1165 
Q 2086 -1274 2234 -1421 
L 1747 -1421 
z
" transform="scale(0.015625)"/>
      <path id="CMUBright-SemiBold-73" d="M 186 250 
L 282 800 
Q 787 448 1318 448 
Q 1613 448 1737 569 
Q 1862 691 1862 838 
Q 1862 986 1753 1078 
Q 1645 1171 1517 1206 
Q 1389 1242 1190 1280 
Q 992 1318 902 1350 
Q 634 1440 429 1661 
Q 224 1882 224 2202 
Q 224 2349 269 2486 
Q 314 2624 422 2774 
Q 531 2925 764 3014 
Q 998 3104 1331 3104 
Q 1818 3104 2323 2886 
L 2227 2362 
Q 1747 2624 1261 2624 
Q 998 2624 889 2515 
Q 781 2406 781 2272 
Q 781 2170 857 2077 
Q 934 1984 1062 1939 
Q 1069 1939 1408 1865 
Q 1747 1792 1914 1702 
Q 2419 1421 2419 890 
Q 2419 525 2172 237 
Q 1926 -51 1325 -51 
Q 730 -51 186 250 
z
" transform="scale(0.015625)"/>
      <path id="CMUBright-SemiBold-29" d="M 371 -1421 
Q 525 -1267 614 -1164 
Q 704 -1062 893 -768 
Q 1082 -474 1194 -173 
Q 1306 128 1398 624 
Q 1491 1120 1491 1690 
Q 1491 2246 1404 2732 
Q 1318 3219 1206 3523 
Q 1094 3827 921 4105 
Q 749 4384 646 4502 
Q 544 4621 416 4755 
Q 384 4787 371 4800 
L 851 4800 
Q 2106 3731 2106 1689 
Q 2106 -352 851 -1421 
L 371 -1421 
z
" transform="scale(0.015625)"/>
     </defs>
     <use xlink:href="#CMUBright-SemiBold-54"/>
     <use xlink:href="#CMUBright-SemiBold-69" x="72.499985"/>
     <use xlink:href="#CMUBright-SemiBold-6d" x="94.999969"/>
     <use xlink:href="#CMUBright-SemiBold-65" x="175.799957"/>
     <use xlink:href="#CMUBright-SemiBold-20" x="222.899948"/>
     <use xlink:href="#CMUBright-SemiBold-28" x="256.199936"/>
     <use xlink:href="#CMUBright-SemiBold-73" x="296.999924"/>
     <use xlink:href="#CMUBright-SemiBold-65" x="337.199921"/>
     <use xlink:href="#CMUBright-SemiBold-63" x="384.299911"/>
     <use xlink:href="#CMUBright-SemiBold-29" x="430.999908"/>
    </g>
   </g>
  </g>
  <g id="axes_2">
   <g id="patch_3">
    <path d="M 156.670865 110.565215 
L 411.216398 110.565215 
L 411.216398 76.420847 
L 156.670865 76.420847 
z
" style="fill: #ffffff"/>
   </g>
   <g id="line2d_2">
    <path d="M 156.670865 93.493031 
L 411.216398 93.493031 
" clip-path="url(#p841a9e3f97)" style="fill: none; stroke: #5a5758; stroke-opacity: 0.5; stroke-width: 3; stroke-linecap: square"/>
   </g>
   <g id="PathCollection_2">
    <g>
     <use xlink:href="#m2f3794969b" x="253.071521" y="93.493031" style="fill: #e29400"/>
    </g>
   </g>
   <g id="matplotlib.axis_3">
    <g id="xtick_6"/>
    <g id="xtick_7"/>
    <g id="xtick_8"/>
    <g id="xtick_9"/>
    <g id="xtick_10"/>
   </g>
   <g id="matplotlib.axis_4">
    <g id="ytick_4"/>
    <g id="ytick_5"/>
    <g id="ytick_6"/>
    <g id="text_5">
     <!-- Analytic Adjoint -->
     <g style="fill: #5a5758" transform="translate(25.131802 98.24475) scale(0.18 -0.18)">
      <defs>
       <path id="CMUBright-SemiBold-6a" d="M -478 -934 
L -350 -448 
Q -88 -614 149 -614 
Q 507 -614 597 -442 
Q 616 -403 616 -314 
L 616 3021 
L 1218 3021 
L 1218 -294 
Q 1211 -544 1112 -723 
Q 1013 -902 865 -979 
Q 718 -1056 596 -1088 
Q 475 -1120 354 -1120 
Q -56 -1120 -478 -934 
z
M 610 3840 
L 610 4442 
L 1211 4442 
L 1211 3840 
L 610 3840 
z
" transform="scale(0.015625)"/>
      </defs>
      <use xlink:href="#CMUBright-SemiBold-41"/>
      <use xlink:href="#CMUBright-SemiBold-6e" x="67.499985"/>
      <use xlink:href="#CMUBright-SemiBold-61" x="119.199982"/>
      <use xlink:href="#CMUBright-SemiBold-6c" x="168.399979"/>
      <use xlink:href="#CMUBright-SemiBold-79" x="190.899963"/>
      <use xlink:href="#CMUBright-SemiBold-74" x="236.699951"/>
      <use xlink:href="#CMUBright-SemiBold-69" x="274.599945"/>
      <use xlink:href="#CMUBright-SemiBold-63" x="297.09993"/>
      <use xlink:href="#CMUBright-SemiBold-20" x="343.799927"/>
      <use xlink:href="#CMUBright-SemiBold-41" x="377.099915"/>
      <use xlink:href="#CMUBright-SemiBold-64" x="444.599899"/>
      <use xlink:href="#CMUBright-SemiBold-6a" x="496.299896"/>
      <use xlink:href="#CMUBright-SemiBold-6f" x="521.69989"/>
      <use xlink:href="#CMUBright-SemiBold-69" x="574.199875"/>
      <use xlink:href="#CMUBright-SemiBold-6e" x="596.69986"/>
      <use xlink:href="#CMUBright-SemiBold-74" x="648.399857"/>
     </g>
    </g>
   </g>
   <g id="text_6">
    <!-- 0.0085 -->
    <g style="fill: #5a5758" transform="translate(417.216398 98.24475) scale(0.18 -0.18)">
     <defs>
      <path id="CMUBright-Roman-38" d="M 275 1158 
Q 275 1517 518 1817 
Q 762 2118 1248 2266 
Q 909 2349 640 2598 
Q 371 2848 371 3206 
Q 371 3642 745 3971 
Q 1120 4301 1677 4301 
Q 2221 4301 2601 3981 
Q 2982 3661 2982 3213 
Q 2982 2918 2787 2684 
Q 2592 2451 2285 2323 
L 2099 2266 
Q 2464 2176 2768 1885 
Q 3072 1594 3072 1158 
Q 3072 646 2665 268 
Q 2259 -109 1670 -109 
Q 1075 -109 675 275 
Q 275 659 275 1158 
z
M 698 1158 
Q 698 704 970 464 
Q 1242 224 1670 224 
Q 2118 224 2384 470 
Q 2650 717 2650 1165 
Q 2650 1619 2371 1862 
Q 2093 2106 1670 2106 
Q 1280 2106 989 1878 
Q 698 1651 698 1158 
z
M 755 3206 
Q 755 2886 982 2656 
Q 1210 2426 1670 2426 
Q 2093 2426 2342 2634 
Q 2592 2842 2592 3206 
Q 2592 3507 2387 3744 
Q 2182 3981 1683 3981 
Q 1171 3981 963 3744 
Q 755 3507 755 3206 
z
" transform="scale(0.015625)"/>
      <path id="CMUBright-Roman-35" d="M 301 518 
L 486 819 
Q 896 224 1581 224 
Q 1971 224 2268 473 
Q 2566 723 2566 1312 
Q 2566 1626 2489 1846 
Q 2413 2067 2285 2176 
Q 2157 2285 2032 2329 
Q 1907 2374 1773 2374 
Q 1210 2374 941 1901 
L 582 1901 
L 582 4192 
L 2797 4192 
L 2797 3853 
L 973 3853 
L 973 2381 
Q 1325 2701 1779 2701 
Q 2285 2701 2653 2291 
Q 3021 1882 3021 1306 
Q 3021 723 2601 307 
Q 2182 -109 1574 -109 
Q 813 -109 301 518 
z
" transform="scale(0.015625)"/>
     </defs>
     <use xlink:href="#CMUBright-Roman-30"/>
     <use xlink:href="#CMUBright-Roman-2e" x="52.499985"/>
     <use xlink:href="#CMUBright-Roman-30" x="81.699982"/>
     <use xlink:href="#CMUBright-Roman-30" x="134.199966"/>
     <use xlink:href="#CMUBright-Roman-38" x="186.699951"/>
     <use xlink:href="#CMUBright-Roman-35" x="239.199936"/>
    </g>
   </g>
  </g>
  <g id="axes_3">
   <g id="patch_4">
    <path d="M 156.670865 150.710064 
L 411.216398 150.710064 
L 411.216398 116.565695 
L 156.670865 116.565695 
z
" style="fill: #ffffff"/>
   </g>
   <g id="line2d_3">
    <path d="M 156.670865 133.63788 
L 411.216398 133.63788 
" clip-path="url(#p1a7a08f9c2)" style="fill: none; stroke: #5a5758; stroke-opacity: 0.5; stroke-width: 3; stroke-linecap: square"/>
   </g>
   <g id="PathCollection_3">
    <g>
     <use xlink:href="#m2f3794969b" x="281.866522" y="133.63788" style="fill: #e29400"/>
    </g>
   </g>
   <g id="matplotlib.axis_5">
    <g id="xtick_11"/>
    <g id="xtick_12"/>
    <g id="xtick_13"/>
    <g id="xtick_14"/>
    <g id="xtick_15"/>
   </g>
   <g id="matplotlib.axis_6">
    <g id="ytick_7"/>
    <g id="ytick_8"/>
    <g id="ytick_9"/>
    <g id="text_7">
     <!-- FD Forward Diff. -->
     <g style="fill: #5a5758" transform="translate(14.99274 138.389598) scale(0.18 -0.18)">
      <defs>
       <path id="CMUBright-SemiBold-44" d="M 518 0 
L 518 4448 
L 2272 4448 
Q 2771 4448 3180 4249 
Q 3590 4051 3849 3724 
Q 4109 3398 4249 3001 
Q 4390 2605 4390 2189 
Q 4390 1306 3846 701 
Q 3302 96 2566 13 
Q 2451 0 2221 0 
L 518 0 
z
M 1171 512 
L 1914 512 
Q 1946 512 2006 509 
Q 2067 506 2099 506 
Q 2566 506 2902 653 
Q 3238 800 3411 1056 
Q 3584 1312 3661 1590 
Q 3738 1869 3738 2189 
Q 3738 2522 3661 2810 
Q 3584 3098 3411 3363 
Q 3238 3629 2902 3782 
Q 2566 3936 2093 3936 
L 1178 3936 
L 1171 3757 
L 1171 512 
z
" transform="scale(0.015625)"/>
       <path id="CMUBright-SemiBold-66" d="M 179 2541 
L 179 3021 
L 627 3021 
L 627 3360 
Q 627 3654 700 3852 
Q 774 4051 1005 4237 
Q 1318 4499 1792 4499 
Q 2022 4499 2323 4448 
L 2323 3904 
Q 2010 4013 1779 4013 
Q 1562 4013 1389 3920 
Q 1216 3827 1216 3610 
L 1216 3021 
L 1920 3021 
L 1920 2541 
L 1229 2541 
L 1229 0 
L 627 0 
L 627 2541 
L 179 2541 
z
" transform="scale(0.015625)"/>
       <path id="CMUBright-SemiBold-2e" d="M 557 0 
L 557 749 
L 1306 749 
L 1306 0 
L 557 0 
z
" transform="scale(0.015625)"/>
      </defs>
      <use xlink:href="#CMUBright-SemiBold-46"/>
      <use xlink:href="#CMUBright-SemiBold-44" x="59.599991"/>
      <use xlink:href="#CMUBright-SemiBold-20" x="134.199982"/>
      <use xlink:href="#CMUBright-SemiBold-46" x="167.499969"/>
      <use xlink:href="#CMUBright-SemiBold-6f" x="227.09996"/>
      <use xlink:href="#CMUBright-SemiBold-72" x="279.599945"/>
      <use xlink:href="#CMUBright-SemiBold-77" x="314.199936"/>
      <use xlink:href="#CMUBright-SemiBold-61" x="383.399918"/>
      <use xlink:href="#CMUBright-SemiBold-72" x="432.599915"/>
      <use xlink:href="#CMUBright-SemiBold-64" x="467.199905"/>
      <use xlink:href="#CMUBright-SemiBold-20" x="518.899902"/>
      <use xlink:href="#CMUBright-SemiBold-44" x="552.19989"/>
      <use xlink:href="#CMUBright-SemiBold-69" x="626.799881"/>
      <use xlink:href="#CMUBright-SemiBold-66" x="649.299866"/>
      <use xlink:href="#CMUBright-SemiBold-66" x="681.399857"/>
      <use xlink:href="#CMUBright-SemiBold-2e" x="713.499847"/>
     </g>
    </g>
   </g>
   <g id="text_8">
    <!-- 0.0110 -->
    <g style="fill: #5a5758" transform="translate(417.216398 138.389598) scale(0.18 -0.18)">
     <defs>
      <path id="CMUBright-Roman-31" d="M 672 3558 
L 672 3885 
Q 1427 3885 1862 4301 
L 1965 4301 
L 1965 320 
L 2803 320 
L 2803 0 
L 710 0 
L 710 320 
L 1549 320 
L 1549 3744 
Q 1178 3558 672 3558 
z
" transform="scale(0.015625)"/>
     </defs>
     <use xlink:href="#CMUBright-Roman-30"/>
     <use xlink:href="#CMUBright-Roman-2e" x="52.499985"/>
     <use xlink:href="#CMUBright-Roman-30" x="81.699982"/>
     <use xlink:href="#CMUBright-Roman-31" x="134.199966"/>
     <use xlink:href="#CMUBright-Roman-31" x="186.699951"/>
     <use xlink:href="#CMUBright-Roman-30" x="239.199936"/>
    </g>
   </g>
  </g>
  <g id="axes_4">
   <g id="patch_5">
    <path d="M 156.670865 190.854912 
L 411.216398 190.854912 
L 411.216398 156.710544 
L 156.670865 156.710544 
z
" style="fill: #ffffff"/>
   </g>
   <g id="line2d_4">
    <path d="M 156.670865 173.782728 
L 411.216398 173.782728 
" clip-path="url(#pb55ed49f4d)" style="fill: none; stroke: #5a5758; stroke-opacity: 0.5; stroke-width: 3; stroke-linecap: square"/>
   </g>
   <g id="PathCollection_4">
    <g>
     <use xlink:href="#m2f3794969b" x="399.095182" y="173.782728" style="fill: #e29400"/>
    </g>
   </g>
   <g id="matplotlib.axis_7">
    <g id="xtick_16"/>
    <g id="xtick_17"/>
    <g id="xtick_18"/>
    <g id="xtick_19"/>
    <g id="xtick_20"/>
   </g>
   <g id="matplotlib.axis_8">
    <g id="ytick_10"/>
    <g id="ytick_11"/>
    <g id="ytick_12"/>
    <g id="text_9">
     <!-- FD Central Diff. -->
     <g style="fill: #5a5758" transform="translate(22.426177 178.534446) scale(0.18 -0.18)">
      <defs>
       <path id="CMUBright-SemiBold-43" d="M 410 2221 
Q 410 3200 1059 3875 
Q 1709 4550 2618 4550 
Q 3264 4550 3878 4333 
L 3763 3667 
Q 3565 3795 3456 3856 
Q 3347 3917 3123 3981 
Q 2899 4045 2637 4045 
Q 1971 4045 1526 3507 
Q 1082 2970 1082 2221 
Q 1082 1485 1520 944 
Q 1958 403 2643 403 
Q 2963 403 3216 470 
Q 3469 538 3561 592 
Q 3654 646 3904 806 
L 3955 250 
Q 3725 115 3590 54 
Q 3456 -6 3209 -57 
Q 2963 -109 2643 -109 
Q 1670 -109 1040 588 
Q 410 1286 410 2221 
z
" transform="scale(0.015625)"/>
      </defs>
      <use xlink:href="#CMUBright-SemiBold-46"/>
      <use xlink:href="#CMUBright-SemiBold-44" x="59.599991"/>
      <use xlink:href="#CMUBright-SemiBold-20" x="134.199982"/>
      <use xlink:href="#CMUBright-SemiBold-43" x="167.499969"/>
      <use xlink:href="#CMUBright-SemiBold-65" x="234.59996"/>
      <use xlink:href="#CMUBright-SemiBold-6e" x="281.699951"/>
      <use xlink:href="#CMUBright-SemiBold-74" x="333.399948"/>
      <use xlink:href="#CMUBright-SemiBold-72" x="371.299942"/>
      <use xlink:href="#CMUBright-SemiBold-61" x="405.899933"/>
      <use xlink:href="#CMUBright-SemiBold-6c" x="455.09993"/>
      <use xlink:href="#CMUBright-SemiBold-20" x="477.599915"/>
      <use xlink:href="#CMUBright-SemiBold-44" x="510.899902"/>
      <use xlink:href="#CMUBright-SemiBold-69" x="585.499893"/>
      <use xlink:href="#CMUBright-SemiBold-66" x="607.999878"/>
      <use xlink:href="#CMUBright-SemiBold-66" x="640.099869"/>
      <use xlink:href="#CMUBright-SemiBold-2e" x="672.19986"/>
     </g>
    </g>
   </g>
   <g id="text_10">
    <!-- 0.0213 -->
    <g style="fill: #5a5758" transform="translate(417.216398 178.534446) scale(0.18 -0.18)">
     <defs>
      <path id="CMUBright-Roman-32" d="M 275 3226 
Q 595 4301 1587 4301 
L 1594 4301 
Q 2214 4294 2617 3923 
Q 3021 3552 3021 2989 
Q 3021 2746 2937 2531 
Q 2854 2317 2668 2115 
Q 2483 1914 2384 1821 
Q 2285 1728 2061 1549 
Q 1754 1299 1642 1203 
Q 1530 1107 698 358 
L 3021 358 
L 3021 0 
L 333 0 
L 333 339 
L 1683 1562 
Q 2144 1965 2368 2278 
Q 2592 2592 2592 2982 
Q 2592 3418 2278 3690 
Q 1965 3962 1498 3962 
Q 1069 3962 854 3693 
Q 640 3424 512 2938 
L 275 3226 
z
" transform="scale(0.015625)"/>
      <path id="CMUBright-Roman-33" d="M 282 653 
Q 282 666 285 685 
Q 288 704 304 774 
Q 320 845 339 941 
Q 557 640 861 464 
Q 1165 288 1341 256 
Q 1517 224 1683 224 
Q 2112 224 2368 486 
Q 2624 749 2624 1165 
Q 2624 1574 2381 1824 
Q 2138 2074 1773 2099 
L 1555 2106 
L 1114 2106 
L 1114 2426 
Q 1709 2470 1862 2528 
Q 2099 2618 2281 2838 
Q 2464 3059 2464 3360 
Q 2464 3642 2256 3811 
Q 2048 3981 1702 3981 
Q 973 3981 570 3258 
L 371 3539 
Q 845 4301 1702 4301 
Q 2202 4301 2544 4025 
Q 2886 3750 2886 3360 
Q 2886 3059 2704 2761 
Q 2522 2464 2106 2272 
Q 2579 2144 2825 1833 
Q 3072 1523 3072 1158 
Q 3072 666 2685 278 
Q 2298 -109 1690 -109 
Q 1402 -109 1126 -9 
Q 851 90 675 221 
Q 499 352 390 473 
Q 282 595 282 653 
z
" transform="scale(0.015625)"/>
     </defs>
     <use xlink:href="#CMUBright-Roman-30"/>
     <use xlink:href="#CMUBright-Roman-2e" x="52.499985"/>
     <use xlink:href="#CMUBright-Roman-30" x="81.699982"/>
     <use xlink:href="#CMUBright-Roman-32" x="134.199966"/>
     <use xlink:href="#CMUBright-Roman-31" x="186.699951"/>
     <use xlink:href="#CMUBright-Roman-33" x="239.199936"/>
    </g>
   </g>
  </g>
  <g id="axes_5">
   <g id="patch_6">
    <path d="M 156.670865 230.99976 
L 411.216398 230.99976 
L 411.216398 196.855392 
L 156.670865 196.855392 
z
" style="fill: #ffffff"/>
   </g>
   <g id="line2d_5">
    <path d="M 156.670865 213.927576 
L 411.216398 213.927576 
" clip-path="url(#p07f06439f9)" style="fill: none; stroke: #5a5758; stroke-opacity: 0.5; stroke-width: 3; stroke-linecap: square"/>
   </g>
   <g id="PathCollection_5">
    <g>
     <use xlink:href="#m2f3794969b" x="281.866522" y="213.927576" style="fill: #e29400"/>
    </g>
   </g>
   <g id="matplotlib.axis_9">
    <g id="xtick_21"/>
    <g id="xtick_22"/>
    <g id="xtick_23"/>
    <g id="xtick_24"/>
    <g id="xtick_25"/>
   </g>
   <g id="matplotlib.axis_10">
    <g id="ytick_13"/>
    <g id="ytick_14"/>
    <g id="ytick_15"/>
    <g id="text_11">
     <!-- FD Backward Diff. -->
     <g style="fill: #5a5758" transform="translate(3.00024 218.679295) scale(0.18 -0.18)">
      <defs>
       <path id="CMUBright-SemiBold-42" d="M 525 0 
L 525 4448 
L 2061 4448 
Q 2733 4448 3174 4211 
Q 3482 4051 3658 3808 
Q 3834 3565 3834 3309 
Q 3834 2835 3283 2528 
Q 3117 2438 2758 2330 
Q 3328 2227 3673 1920 
Q 4019 1613 4019 1229 
Q 4019 768 3600 422 
Q 3181 77 2573 13 
Q 2464 0 2234 0 
L 525 0 
z
M 1165 512 
L 1939 512 
Q 1965 512 2013 509 
Q 2061 506 2086 506 
Q 2752 506 3069 739 
Q 3386 973 3386 1235 
Q 3386 1523 3085 1766 
Q 2784 2010 2272 2061 
Q 2163 2074 1952 2074 
L 1171 2074 
L 1165 1850 
L 1165 512 
z
M 1165 2554 
L 1939 2554 
Q 2515 2554 2864 2778 
Q 3213 3002 3213 3296 
Q 3213 3578 2841 3757 
Q 2470 3936 1907 3936 
L 1171 3936 
L 1165 3731 
L 1165 2554 
z
" transform="scale(0.015625)"/>
       <path id="CMUBright-SemiBold-6b" d="M 429 0 
L 429 4448 
L 998 4448 
L 998 1818 
L 2118 3021 
L 2848 3021 
L 1786 1869 
L 3002 0 
L 2349 0 
L 1395 1466 
L 986 1024 
L 986 0 
L 429 0 
z
" transform="scale(0.015625)"/>
      </defs>
      <use xlink:href="#CMUBright-SemiBold-46"/>
      <use xlink:href="#CMUBright-SemiBold-44" x="59.599991"/>
      <use xlink:href="#CMUBright-SemiBold-20" x="134.199982"/>
      <use xlink:href="#CMUBright-SemiBold-42" x="167.499969"/>
      <use xlink:href="#CMUBright-SemiBold-61" x="236.199951"/>
      <use xlink:href="#CMUBright-SemiBold-63" x="285.399948"/>
      <use xlink:href="#CMUBright-SemiBold-6b" x="332.099945"/>
      <use xlink:href="#CMUBright-SemiBold-77" x="380.799942"/>
      <use xlink:href="#CMUBright-SemiBold-61" x="449.999924"/>
      <use xlink:href="#CMUBright-SemiBold-72" x="499.199921"/>
      <use xlink:href="#CMUBright-SemiBold-64" x="533.799911"/>
      <use xlink:href="#CMUBright-SemiBold-20" x="585.499908"/>
      <use xlink:href="#CMUBright-SemiBold-44" x="618.799896"/>
      <use xlink:href="#CMUBright-SemiBold-69" x="693.399887"/>
      <use xlink:href="#CMUBright-SemiBold-66" x="715.899872"/>
      <use xlink:href="#CMUBright-SemiBold-66" x="747.999863"/>
      <use xlink:href="#CMUBright-SemiBold-2e" x="780.099854"/>
     </g>
    </g>
   </g>
   <g id="text_12">
    <!-- 0.0110 -->
    <g style="fill: #5a5758" transform="translate(417.216398 218.679295) scale(0.18 -0.18)">
     <use xlink:href="#CMUBright-Roman-30"/>
     <use xlink:href="#CMUBright-Roman-2e" x="52.499985"/>
     <use xlink:href="#CMUBright-Roman-30" x="81.699982"/>
     <use xlink:href="#CMUBright-Roman-31" x="134.199966"/>
     <use xlink:href="#CMUBright-Roman-31" x="186.699951"/>
     <use xlink:href="#CMUBright-Roman-30" x="239.199936"/>
    </g>
   </g>
  </g>
 </g>
 <defs>
  <clipPath id="p38833ca6ad">
   <rect x="156.670865" y="36.275999" width="254.545533" height="34.144368"/>
  </clipPath>
  <clipPath id="p841a9e3f97">
   <rect x="156.670865" y="76.420847" width="254.545533" height="34.144368"/>
  </clipPath>
  <clipPath id="p1a7a08f9c2">
   <rect x="156.670865" y="116.565695" width="254.545533" height="34.144368"/>
  </clipPath>
  <clipPath id="pb55ed49f4d">
   <rect x="156.670865" y="156.710544" width="254.545533" height="34.144368"/>
  </clipPath>
  <clipPath id="p07f06439f9">
   <rect x="156.670865" y="196.855392" width="254.545533" height="34.144368"/>
  </clipPath>
 </defs>
</svg>
