<?xml version="1.0" encoding="utf-8" standalone="no"?>
<!DOCTYPE svg PUBLIC "-//W3C//DTD SVG 1.1//EN"
  "http://www.w3.org/Graphics/SVG/1.1/DTD/svg11.dtd">
<svg xmlns:xlink="http://www.w3.org/1999/xlink" width="460.8pt" height="345.6pt" viewBox="0 0 460.8 345.6" xmlns="http://www.w3.org/2000/svg" version="1.1">
 <metadata>
  <rdf:RDF xmlns:dc="http://purl.org/dc/elements/1.1/" xmlns:cc="http://creativecommons.org/ns#" xmlns:rdf="http://www.w3.org/1999/02/22-rdf-syntax-ns#">
   <cc:Work>
    <dc:type rdf:resource="http://purl.org/dc/dcmitype/StillImage"/>
    <dc:date>2023-01-24T01:52:43.595138</dc:date>
    <dc:format>image/svg+xml</dc:format>
    <dc:creator>
     <cc:Agent>
      <dc:title>Matplotlib v3.6.3, https://matplotlib.org/</dc:title>
     </cc:Agent>
    </dc:creator>
   </cc:Work>
  </rdf:RDF>
 </metadata>
 <defs>
  <style type="text/css">*{stroke-linejoin: round; stroke-linecap: butt}</style>
 </defs>
 <g id="figure_1">
  <g id="patch_1">
   <path d="M 0 345.6 
L 460.8 345.6 
L 460.8 0 
L 0 0 
z
" style="fill: #ffffff"/>
  </g>
  <g id="axes_1">
   <g id="patch_2">
    <path d="M 118.367385 301.48 
L 450 301.48 
L 450 39.232642 
L 118.367385 39.232642 
z
" style="fill: #ffffff"/>
   </g>
   <g id="PolyCollection_1">
    <path d="M 233.936327 301.48 
L 233.936327 142.839542 
L 234.238113 141.886758 
L 234.539899 140.934043 
L 234.841685 139.981466 
L 235.143471 139.029097 
L 235.445257 138.077007 
L 235.747043 137.125265 
L 236.048829 136.173943 
L 236.350615 135.223112 
L 236.652401 134.272843 
L 236.954187 133.323209 
L 237.255973 132.374281 
L 237.557759 131.426133 
L 237.859545 130.478837 
L 238.16133 129.532467 
L 238.463116 128.587096 
L 238.764902 127.642798 
L 239.066688 126.699648 
L 239.368474 125.757719 
L 239.67026 124.817087 
L 239.972046 123.877826 
L 240.273832 122.940012 
L 240.575618 122.00372 
L 240.877404 121.069026 
L 241.17919 120.136006 
L 241.480976 119.204735 
L 241.782762 118.275291 
L 242.084548 117.34775 
L 242.386334 116.422188 
L 242.68812 115.498683 
L 242.989906 114.577311 
L 243.291692 113.658149 
L 243.593478 112.741276 
L 243.895264 111.826769 
L 244.19705 110.914704 
L 244.498836 110.00516 
L 244.800622 109.098215 
L 245.102408 108.193946 
L 245.404194 107.292432 
L 245.70598 106.39375 
L 246.007766 105.497979 
L 246.309552 104.605197 
L 246.611338 103.715481 
L 246.913124 102.828911 
L 247.21491 101.945564 
L 247.516696 101.065518 
L 247.818482 100.188852 
L 248.120268 99.315644 
L 248.422054 98.445972 
L 248.72384 97.579914 
L 249.025626 96.717548 
L 249.327412 95.858952 
L 249.629198 95.004204 
L 249.930984 94.153382 
L 250.23277 93.306563 
L 250.534556 92.463826 
L 250.836342 91.625246 
L 251.138128 90.790903 
L 251.439914 89.960872 
L 251.7417 89.135231 
L 252.043486 88.314057 
L 252.345272 87.497426 
L 252.647058 86.685415 
L 252.948844 85.8781 
L 253.25063 85.075557 
L 253.552416 84.277861 
L 253.854202 83.485089 
L 254.155987 82.697316 
L 254.457773 81.914616 
L 254.759559 81.137064 
L 255.061345 80.364735 
L 255.363131 79.597703 
L 255.664917 78.836041 
L 255.966703 78.079823 
L 256.268489 77.329123 
L 256.570275 76.584012 
L 256.872061 75.844564 
L 257.173847 75.110851 
L 257.475633 74.382944 
L 257.777419 73.660914 
L 258.079205 72.944832 
L 258.380991 72.234769 
L 258.682777 71.530795 
L 258.984563 70.832979 
L 259.286349 70.141391 
L 259.588135 69.456098 
L 259.889921 68.77717 
L 260.191707 68.104673 
L 260.493493 67.438676 
L 260.795279 66.779244 
L 261.097065 66.126445 
L 261.398851 65.480342 
L 261.700637 64.841002 
L 262.002423 64.20849 
L 262.304209 63.582868 
L 262.605995 62.9642 
L 262.907781 62.35255 
L 263.209567 61.747979 
L 263.511353 61.150548 
L 263.813139 60.56032 
L 264.114925 59.977353 
L 264.416711 59.401709 
L 264.718497 58.833445 
L 265.020283 58.272621 
L 265.322069 57.719293 
L 265.623855 57.173519 
L 265.925641 56.635356 
L 266.227427 56.104858 
L 266.529213 55.582081 
L 266.830999 55.067079 
L 267.132785 54.559906 
L 267.434571 54.060614 
L 267.736357 53.569255 
L 268.038143 53.085881 
L 268.339929 52.610541 
L 268.641715 52.143286 
L 268.943501 51.684165 
L 269.245287 51.233225 
L 269.547073 50.790515 
L 269.848859 50.356079 
L 270.150645 49.929966 
L 270.45243 49.512218 
L 270.754216 49.10288 
L 271.056002 48.701996 
L 271.357788 48.309608 
L 271.659574 47.925757 
L 271.96136 47.550484 
L 272.263146 47.183828 
L 272.564932 46.825829 
L 272.866718 46.476525 
L 273.168504 46.135953 
L 273.47029 45.804149 
L 273.772076 45.481148 
L 274.073862 45.166986 
L 274.375648 44.861694 
L 274.677434 44.565307 
L 274.97922 44.277855 
L 275.281006 43.99937 
L 275.582792 43.72988 
L 275.884578 43.469416 
L 276.186364 43.218005 
L 276.48815 42.975674 
L 276.789936 42.742449 
L 277.091722 42.518355 
L 277.393508 42.303416 
L 277.695294 42.097656 
L 277.99708 41.901095 
L 278.298866 41.713757 
L 278.600652 41.53566 
L 278.902438 41.366824 
L 279.204224 41.207267 
L 279.50601 41.057006 
L 279.807796 40.916058 
L 280.109582 40.784437 
L 280.411368 40.662158 
L 280.713154 40.549235 
L 281.01494 40.445679 
L 281.316726 40.351501 
L 281.618512 40.266713 
L 281.920298 40.191322 
L 282.222084 40.125337 
L 282.52387 40.068765 
L 282.825656 40.021612 
L 283.127442 39.983884 
L 283.429228 39.955584 
L 283.731014 39.936716 
L 284.0328 39.927282 
L 284.334586 39.927282 
L 284.636372 39.936716 
L 284.938158 39.955584 
L 285.239944 39.983884 
L 285.54173 40.021612 
L 285.843516 40.068765 
L 286.145302 40.125337 
L 286.447087 40.191322 
L 286.748873 40.266713 
L 287.050659 40.351501 
L 287.352445 40.445679 
L 287.654231 40.549235 
L 287.956017 40.662158 
L 288.257803 40.784437 
L 288.559589 40.916058 
L 288.861375 41.057006 
L 289.163161 41.207267 
L 289.464947 41.366824 
L 289.766733 41.53566 
L 290.068519 41.713757 
L 290.370305 41.901095 
L 290.672091 42.097656 
L 290.973877 42.303416 
L 291.275663 42.518355 
L 291.577449 42.742449 
L 291.879235 42.975674 
L 292.181021 43.218005 
L 292.482807 43.469416 
L 292.784593 43.72988 
L 293.086379 43.99937 
L 293.388165 44.277855 
L 293.689951 44.565307 
L 293.991737 44.861694 
L 294.293523 45.166986 
L 294.595309 45.481148 
L 294.897095 45.804149 
L 295.198881 46.135953 
L 295.500667 46.476525 
L 295.802453 46.825829 
L 296.104239 47.183828 
L 296.406025 47.550484 
L 296.707811 47.925757 
L 297.009597 48.309608 
L 297.311383 48.701996 
L 297.613169 49.10288 
L 297.914955 49.512218 
L 298.216741 49.929966 
L 298.518527 50.356079 
L 298.820313 50.790515 
L 299.122099 51.233225 
L 299.423885 51.684165 
L 299.725671 52.143286 
L 300.027457 52.610541 
L 300.329243 53.085881 
L 300.631029 53.569255 
L 300.932815 54.060614 
L 301.234601 54.559906 
L 301.536387 55.067079 
L 301.838173 55.582081 
L 302.139959 56.104858 
L 302.441744 56.635356 
L 302.74353 57.173519 
L 303.045316 57.719293 
L 303.347102 58.272621 
L 303.648888 58.833445 
L 303.950674 59.401709 
L 304.25246 59.977353 
L 304.554246 60.56032 
L 304.856032 61.150548 
L 305.157818 61.747979 
L 305.459604 62.35255 
L 305.76139 62.9642 
L 306.063176 63.582868 
L 306.364962 64.20849 
L 306.666748 64.841002 
L 306.968534 65.480342 
L 307.27032 66.126445 
L 307.572106 66.779244 
L 307.873892 67.438676 
L 308.175678 68.104673 
L 308.477464 68.77717 
L 308.77925 69.456098 
L 309.081036 70.141391 
L 309.382822 70.832979 
L 309.684608 71.530795 
L 309.986394 72.234769 
L 310.28818 72.944832 
L 310.589966 73.660914 
L 310.891752 74.382944 
L 311.193538 75.110851 
L 311.495324 75.844564 
L 311.79711 76.584012 
L 312.098896 77.329123 
L 312.400682 78.079823 
L 312.702468 78.836041 
L 313.004254 79.597703 
L 313.30604 80.364735 
L 313.607826 81.137064 
L 313.909612 81.914616 
L 314.211398 82.697316 
L 314.513184 83.485089 
L 314.81497 84.277861 
L 315.116756 85.075557 
L 315.418542 85.8781 
L 315.720328 86.685415 
L 316.022114 87.497426 
L 316.3239 88.314057 
L 316.625686 89.135231 
L 316.927472 89.960872 
L 317.229258 90.790903 
L 317.531044 91.625246 
L 317.83283 92.463826 
L 318.134616 93.306563 
L 318.436401 94.153382 
L 318.738187 95.004204 
L 319.039973 95.858952 
L 319.341759 96.717548 
L 319.643545 97.579914 
L 319.945331 98.445972 
L 320.247117 99.315644 
L 320.548903 100.188852 
L 320.850689 101.065518 
L 321.152475 101.945564 
L 321.454261 102.828911 
L 321.756047 103.715481 
L 322.057833 104.605197 
L 322.359619 105.497979 
L 322.661405 106.39375 
L 322.963191 107.292432 
L 323.264977 108.193946 
L 323.566763 109.098215 
L 323.868549 110.00516 
L 324.170335 110.914704 
L 324.472121 111.826769 
L 324.773907 112.741276 
L 325.075693 113.658149 
L 325.377479 114.577311 
L 325.679265 115.498683 
L 325.981051 116.422188 
L 326.282837 117.34775 
L 326.584623 118.275291 
L 326.886409 119.204735 
L 327.188195 120.136006 
L 327.489981 121.069026 
L 327.791767 122.00372 
L 328.093553 122.940012 
L 328.395339 123.877826 
L 328.697125 124.817087 
L 328.998911 125.757719 
L 329.300697 126.699648 
L 329.602483 127.642798 
L 329.904269 128.587096 
L 330.206055 129.532467 
L 330.507841 130.478837 
L 330.809627 131.426133 
L 331.111413 132.374281 
L 331.413199 133.323209 
L 331.714985 134.272843 
L 332.016771 135.223112 
L 332.318557 136.173943 
L 332.620343 137.125265 
L 332.922129 138.077007 
L 333.223915 139.029097 
L 333.525701 139.981466 
L 333.827487 140.934043 
L 334.129273 141.886758 
L 334.431058 142.839542 
L 334.431058 301.48 
L 334.431058 301.48 
L 334.129273 301.48 
L 333.827487 301.48 
L 333.525701 301.48 
L 333.223915 301.48 
L 332.922129 301.48 
L 332.620343 301.48 
L 332.318557 301.48 
L 332.016771 301.48 
L 331.714985 301.48 
L 331.413199 301.48 
L 331.111413 301.48 
L 330.809627 301.48 
L 330.507841 301.48 
L 330.206055 301.48 
L 329.904269 301.48 
L 329.602483 301.48 
L 329.300697 301.48 
L 328.998911 301.48 
L 328.697125 301.48 
L 328.395339 301.48 
L 328.093553 301.48 
L 327.791767 301.48 
L 327.489981 301.48 
L 327.188195 301.48 
L 326.886409 301.48 
L 326.584623 301.48 
L 326.282837 301.48 
L 325.981051 301.48 
L 325.679265 301.48 
L 325.377479 301.48 
L 325.075693 301.48 
L 324.773907 301.48 
L 324.472121 301.48 
L 324.170335 301.48 
L 323.868549 301.48 
L 323.566763 301.48 
L 323.264977 301.48 
L 322.963191 301.48 
L 322.661405 301.48 
L 322.359619 301.48 
L 322.057833 301.48 
L 321.756047 301.48 
L 321.454261 301.48 
L 321.152475 301.48 
L 320.850689 301.48 
L 320.548903 301.48 
L 320.247117 301.48 
L 319.945331 301.48 
L 319.643545 301.48 
L 319.341759 301.48 
L 319.039973 301.48 
L 318.738187 301.48 
L 318.436401 301.48 
L 318.134616 301.48 
L 317.83283 301.48 
L 317.531044 301.48 
L 317.229258 301.48 
L 316.927472 301.48 
L 316.625686 301.48 
L 316.3239 301.48 
L 316.022114 301.48 
L 315.720328 301.48 
L 315.418542 301.48 
L 315.116756 301.48 
L 314.81497 301.48 
L 314.513184 301.48 
L 314.211398 301.48 
L 313.909612 301.48 
L 313.607826 301.48 
L 313.30604 301.48 
L 313.004254 301.48 
L 312.702468 301.48 
L 312.400682 301.48 
L 312.098896 301.48 
L 311.79711 301.48 
L 311.495324 301.48 
L 311.193538 301.48 
L 310.891752 301.48 
L 310.589966 301.48 
L 310.28818 301.48 
L 309.986394 301.48 
L 309.684608 301.48 
L 309.382822 301.48 
L 309.081036 301.48 
L 308.77925 301.48 
L 308.477464 301.48 
L 308.175678 301.48 
L 307.873892 301.48 
L 307.572106 301.48 
L 307.27032 301.48 
L 306.968534 301.48 
L 306.666748 301.48 
L 306.364962 301.48 
L 306.063176 301.48 
L 305.76139 301.48 
L 305.459604 301.48 
L 305.157818 301.48 
L 304.856032 301.48 
L 304.554246 301.48 
L 304.25246 301.48 
L 303.950674 301.48 
L 303.648888 301.48 
L 303.347102 301.48 
L 303.045316 301.48 
L 302.74353 301.48 
L 302.441744 301.48 
L 302.139959 301.48 
L 301.838173 301.48 
L 301.536387 301.48 
L 301.234601 301.48 
L 300.932815 301.48 
L 300.631029 301.48 
L 300.329243 301.48 
L 300.027457 301.48 
L 299.725671 301.48 
L 299.423885 301.48 
L 299.122099 301.48 
L 298.820313 301.48 
L 298.518527 301.48 
L 298.216741 301.48 
L 297.914955 301.48 
L 297.613169 301.48 
L 297.311383 301.48 
L 297.009597 301.48 
L 296.707811 301.48 
L 296.406025 301.48 
L 296.104239 301.48 
L 295.802453 301.48 
L 295.500667 301.48 
L 295.198881 301.48 
L 294.897095 301.48 
L 294.595309 301.48 
L 294.293523 301.48 
L 293.991737 301.48 
L 293.689951 301.48 
L 293.388165 301.48 
L 293.086379 301.48 
L 292.784593 301.48 
L 292.482807 301.48 
L 292.181021 301.48 
L 291.879235 301.48 
L 291.577449 301.48 
L 291.275663 301.48 
L 290.973877 301.48 
L 290.672091 301.48 
L 290.370305 301.48 
L 290.068519 301.48 
L 289.766733 301.48 
L 289.464947 301.48 
L 289.163161 301.48 
L 288.861375 301.48 
L 288.559589 301.48 
L 288.257803 301.48 
L 287.956017 301.48 
L 287.654231 301.48 
L 287.352445 301.48 
L 287.050659 301.48 
L 286.748873 301.48 
L 286.447087 301.48 
L 286.145302 301.48 
L 285.843516 301.48 
L 285.54173 301.48 
L 285.239944 301.48 
L 284.938158 301.48 
L 284.636372 301.48 
L 284.334586 301.48 
L 284.0328 301.48 
L 283.731014 301.48 
L 283.429228 301.48 
L 283.127442 301.48 
L 282.825656 301.48 
L 282.52387 301.48 
L 282.222084 301.48 
L 281.920298 301.48 
L 281.618512 301.48 
L 281.316726 301.48 
L 281.01494 301.48 
L 280.713154 301.48 
L 280.411368 301.48 
L 280.109582 301.48 
L 279.807796 301.48 
L 279.50601 301.48 
L 279.204224 301.48 
L 278.902438 301.48 
L 278.600652 301.48 
L 278.298866 301.48 
L 277.99708 301.48 
L 277.695294 301.48 
L 277.393508 301.48 
L 277.091722 301.48 
L 276.789936 301.48 
L 276.48815 301.48 
L 276.186364 301.48 
L 275.884578 301.48 
L 275.582792 301.48 
L 275.281006 301.48 
L 274.97922 301.48 
L 274.677434 301.48 
L 274.375648 301.48 
L 274.073862 301.48 
L 273.772076 301.48 
L 273.47029 301.48 
L 273.168504 301.48 
L 272.866718 301.48 
L 272.564932 301.48 
L 272.263146 301.48 
L 271.96136 301.48 
L 271.659574 301.48 
L 271.357788 301.48 
L 271.056002 301.48 
L 270.754216 301.48 
L 270.45243 301.48 
L 270.150645 301.48 
L 269.848859 301.48 
L 269.547073 301.48 
L 269.245287 301.48 
L 268.943501 301.48 
L 268.641715 301.48 
L 268.339929 301.48 
L 268.038143 301.48 
L 267.736357 301.48 
L 267.434571 301.48 
L 267.132785 301.48 
L 266.830999 301.48 
L 266.529213 301.48 
L 266.227427 301.48 
L 265.925641 301.48 
L 265.623855 301.48 
L 265.322069 301.48 
L 265.020283 301.48 
L 264.718497 301.48 
L 264.416711 301.48 
L 264.114925 301.48 
L 263.813139 301.48 
L 263.511353 301.48 
L 263.209567 301.48 
L 262.907781 301.48 
L 262.605995 301.48 
L 262.304209 301.48 
L 262.002423 301.48 
L 261.700637 301.48 
L 261.398851 301.48 
L 261.097065 301.48 
L 260.795279 301.48 
L 260.493493 301.48 
L 260.191707 301.48 
L 259.889921 301.48 
L 259.588135 301.48 
L 259.286349 301.48 
L 258.984563 301.48 
L 258.682777 301.48 
L 258.380991 301.48 
L 258.079205 301.48 
L 257.777419 301.48 
L 257.475633 301.48 
L 257.173847 301.48 
L 256.872061 301.48 
L 256.570275 301.48 
L 256.268489 301.48 
L 255.966703 301.48 
L 255.664917 301.48 
L 255.363131 301.48 
L 255.061345 301.48 
L 254.759559 301.48 
L 254.457773 301.48 
L 254.155987 301.48 
L 253.854202 301.48 
L 253.552416 301.48 
L 253.25063 301.48 
L 252.948844 301.48 
L 252.647058 301.48 
L 252.345272 301.48 
L 252.043486 301.48 
L 251.7417 301.48 
L 251.439914 301.48 
L 251.138128 301.48 
L 250.836342 301.48 
L 250.534556 301.48 
L 250.23277 301.48 
L 249.930984 301.48 
L 249.629198 301.48 
L 249.327412 301.48 
L 249.025626 301.48 
L 248.72384 301.48 
L 248.422054 301.48 
L 248.120268 301.48 
L 247.818482 301.48 
L 247.516696 301.48 
L 247.21491 301.48 
L 246.913124 301.48 
L 246.611338 301.48 
L 246.309552 301.48 
L 246.007766 301.48 
L 245.70598 301.48 
L 245.404194 301.48 
L 245.102408 301.48 
L 244.800622 301.48 
L 244.498836 301.48 
L 244.19705 301.48 
L 243.895264 301.48 
L 243.593478 301.48 
L 243.291692 301.48 
L 242.989906 301.48 
L 242.68812 301.48 
L 242.386334 301.48 
L 242.084548 301.48 
L 241.782762 301.48 
L 241.480976 301.48 
L 241.17919 301.48 
L 240.877404 301.48 
L 240.575618 301.48 
L 240.273832 301.48 
L 239.972046 301.48 
L 239.67026 301.48 
L 239.368474 301.48 
L 239.066688 301.48 
L 238.764902 301.48 
L 238.463116 301.48 
L 238.16133 301.48 
L 237.859545 301.48 
L 237.557759 301.48 
L 237.255973 301.48 
L 236.954187 301.48 
L 236.652401 301.48 
L 236.350615 301.48 
L 236.048829 301.48 
L 235.747043 301.48 
L 235.445257 301.48 
L 235.143471 301.48 
L 234.841685 301.48 
L 234.539899 301.48 
L 234.238113 301.48 
L 233.936327 301.48 
z
" clip-path="url(#p480a705cd0)" style="fill: #808080; fill-opacity: 0.2"/>
   </g>
   <g id="matplotlib.axis_1">
    <g id="xtick_1">
     <g id="line2d_1">
      <defs>
       <path id="m00c9c04f1f" d="M 0 0 
L 0 3.5 
" style="stroke: #000000; stroke-width: 0.8"/>
      </defs>
      <g>
       <use xlink:href="#m00c9c04f1f" x="133.441595" y="301.48" style="stroke: #000000; stroke-width: 0.8"/>
      </g>
     </g>
     <g id="text_1">
      <!-- −3 -->
      <g transform="translate(126.070501 316.078437) scale(0.1 -0.1)">
       <defs>
        <path id="DejaVuSans-2212" d="M 678 2272 
L 4684 2272 
L 4684 1741 
L 678 1741 
L 678 2272 
z
" transform="scale(0.015625)"/>
        <path id="DejaVuSans-33" d="M 2597 2516 
Q 3050 2419 3304 2112 
Q 3559 1806 3559 1356 
Q 3559 666 3084 287 
Q 2609 -91 1734 -91 
Q 1441 -91 1130 -33 
Q 819 25 488 141 
L 488 750 
Q 750 597 1062 519 
Q 1375 441 1716 441 
Q 2309 441 2620 675 
Q 2931 909 2931 1356 
Q 2931 1769 2642 2001 
Q 2353 2234 1838 2234 
L 1294 2234 
L 1294 2753 
L 1863 2753 
Q 2328 2753 2575 2939 
Q 2822 3125 2822 3475 
Q 2822 3834 2567 4026 
Q 2313 4219 1838 4219 
Q 1578 4219 1281 4162 
Q 984 4106 628 3988 
L 628 4550 
Q 988 4650 1302 4700 
Q 1616 4750 1894 4750 
Q 2613 4750 3031 4423 
Q 3450 4097 3450 3541 
Q 3450 3153 3228 2886 
Q 3006 2619 2597 2516 
z
" transform="scale(0.015625)"/>
       </defs>
       <use xlink:href="#DejaVuSans-2212"/>
       <use xlink:href="#DejaVuSans-33" x="83.789062"/>
      </g>
     </g>
    </g>
    <g id="xtick_2">
     <g id="line2d_2">
      <g>
       <use xlink:href="#m00c9c04f1f" x="233.936327" y="301.48" style="stroke: #000000; stroke-width: 0.8"/>
      </g>
     </g>
     <g id="text_2">
      <!-- −1 -->
      <g transform="translate(226.565233 316.078437) scale(0.1 -0.1)">
       <defs>
        <path id="DejaVuSans-31" d="M 794 531 
L 1825 531 
L 1825 4091 
L 703 3866 
L 703 4441 
L 1819 4666 
L 2450 4666 
L 2450 531 
L 3481 531 
L 3481 0 
L 794 0 
L 794 531 
z
" transform="scale(0.015625)"/>
       </defs>
       <use xlink:href="#DejaVuSans-2212"/>
       <use xlink:href="#DejaVuSans-31" x="83.789062"/>
      </g>
     </g>
    </g>
    <g id="xtick_3">
     <g id="line2d_3">
      <g>
       <use xlink:href="#m00c9c04f1f" x="284.183693" y="301.48" style="stroke: #000000; stroke-width: 0.8"/>
      </g>
     </g>
     <g id="text_3">
      <!-- 0 -->
      <g transform="translate(281.002443 316.078437) scale(0.1 -0.1)">
       <defs>
        <path id="DejaVuSans-30" d="M 2034 4250 
Q 1547 4250 1301 3770 
Q 1056 3291 1056 2328 
Q 1056 1369 1301 889 
Q 1547 409 2034 409 
Q 2525 409 2770 889 
Q 3016 1369 3016 2328 
Q 3016 3291 2770 3770 
Q 2525 4250 2034 4250 
z
M 2034 4750 
Q 2819 4750 3233 4129 
Q 3647 3509 3647 2328 
Q 3647 1150 3233 529 
Q 2819 -91 2034 -91 
Q 1250 -91 836 529 
Q 422 1150 422 2328 
Q 422 3509 836 4129 
Q 1250 4750 2034 4750 
z
" transform="scale(0.015625)"/>
       </defs>
       <use xlink:href="#DejaVuSans-30"/>
      </g>
     </g>
    </g>
    <g id="xtick_4">
     <g id="line2d_4">
      <g>
       <use xlink:href="#m00c9c04f1f" x="334.431058" y="301.48" style="stroke: #000000; stroke-width: 0.8"/>
      </g>
     </g>
     <g id="text_4">
      <!-- 1 -->
      <g transform="translate(331.249808 316.078437) scale(0.1 -0.1)">
       <use xlink:href="#DejaVuSans-31"/>
      </g>
     </g>
    </g>
    <g id="xtick_5">
     <g id="line2d_5">
      <g>
       <use xlink:href="#m00c9c04f1f" x="434.92579" y="301.48" style="stroke: #000000; stroke-width: 0.8"/>
      </g>
     </g>
     <g id="text_5">
      <!-- 3 -->
      <g transform="translate(431.74454 316.078437) scale(0.1 -0.1)">
       <use xlink:href="#DejaVuSans-33"/>
      </g>
     </g>
    </g>
    <g id="text_6">
     <!-- Some variable, $x$ -->
     <g transform="translate(242.083693 329.756562) scale(0.1 -0.1)">
      <defs>
       <path id="DejaVuSans-53" d="M 3425 4513 
L 3425 3897 
Q 3066 4069 2747 4153 
Q 2428 4238 2131 4238 
Q 1616 4238 1336 4038 
Q 1056 3838 1056 3469 
Q 1056 3159 1242 3001 
Q 1428 2844 1947 2747 
L 2328 2669 
Q 3034 2534 3370 2195 
Q 3706 1856 3706 1288 
Q 3706 609 3251 259 
Q 2797 -91 1919 -91 
Q 1588 -91 1214 -16 
Q 841 59 441 206 
L 441 856 
Q 825 641 1194 531 
Q 1563 422 1919 422 
Q 2459 422 2753 634 
Q 3047 847 3047 1241 
Q 3047 1584 2836 1778 
Q 2625 1972 2144 2069 
L 1759 2144 
Q 1053 2284 737 2584 
Q 422 2884 422 3419 
Q 422 4038 858 4394 
Q 1294 4750 2059 4750 
Q 2388 4750 2728 4690 
Q 3069 4631 3425 4513 
z
" transform="scale(0.015625)"/>
       <path id="DejaVuSans-6f" d="M 1959 3097 
Q 1497 3097 1228 2736 
Q 959 2375 959 1747 
Q 959 1119 1226 758 
Q 1494 397 1959 397 
Q 2419 397 2687 759 
Q 2956 1122 2956 1747 
Q 2956 2369 2687 2733 
Q 2419 3097 1959 3097 
z
M 1959 3584 
Q 2709 3584 3137 3096 
Q 3566 2609 3566 1747 
Q 3566 888 3137 398 
Q 2709 -91 1959 -91 
Q 1206 -91 779 398 
Q 353 888 353 1747 
Q 353 2609 779 3096 
Q 1206 3584 1959 3584 
z
" transform="scale(0.015625)"/>
       <path id="DejaVuSans-6d" d="M 3328 2828 
Q 3544 3216 3844 3400 
Q 4144 3584 4550 3584 
Q 5097 3584 5394 3201 
Q 5691 2819 5691 2113 
L 5691 0 
L 5113 0 
L 5113 2094 
Q 5113 2597 4934 2840 
Q 4756 3084 4391 3084 
Q 3944 3084 3684 2787 
Q 3425 2491 3425 1978 
L 3425 0 
L 2847 0 
L 2847 2094 
Q 2847 2600 2669 2842 
Q 2491 3084 2119 3084 
Q 1678 3084 1418 2786 
Q 1159 2488 1159 1978 
L 1159 0 
L 581 0 
L 581 3500 
L 1159 3500 
L 1159 2956 
Q 1356 3278 1631 3431 
Q 1906 3584 2284 3584 
Q 2666 3584 2933 3390 
Q 3200 3197 3328 2828 
z
" transform="scale(0.015625)"/>
       <path id="DejaVuSans-65" d="M 3597 1894 
L 3597 1613 
L 953 1613 
Q 991 1019 1311 708 
Q 1631 397 2203 397 
Q 2534 397 2845 478 
Q 3156 559 3463 722 
L 3463 178 
Q 3153 47 2828 -22 
Q 2503 -91 2169 -91 
Q 1331 -91 842 396 
Q 353 884 353 1716 
Q 353 2575 817 3079 
Q 1281 3584 2069 3584 
Q 2775 3584 3186 3129 
Q 3597 2675 3597 1894 
z
M 3022 2063 
Q 3016 2534 2758 2815 
Q 2500 3097 2075 3097 
Q 1594 3097 1305 2825 
Q 1016 2553 972 2059 
L 3022 2063 
z
" transform="scale(0.015625)"/>
       <path id="DejaVuSans-20" transform="scale(0.015625)"/>
       <path id="DejaVuSans-76" d="M 191 3500 
L 800 3500 
L 1894 563 
L 2988 3500 
L 3597 3500 
L 2284 0 
L 1503 0 
L 191 3500 
z
" transform="scale(0.015625)"/>
       <path id="DejaVuSans-61" d="M 2194 1759 
Q 1497 1759 1228 1600 
Q 959 1441 959 1056 
Q 959 750 1161 570 
Q 1363 391 1709 391 
Q 2188 391 2477 730 
Q 2766 1069 2766 1631 
L 2766 1759 
L 2194 1759 
z
M 3341 1997 
L 3341 0 
L 2766 0 
L 2766 531 
Q 2569 213 2275 61 
Q 1981 -91 1556 -91 
Q 1019 -91 701 211 
Q 384 513 384 1019 
Q 384 1609 779 1909 
Q 1175 2209 1959 2209 
L 2766 2209 
L 2766 2266 
Q 2766 2663 2505 2880 
Q 2244 3097 1772 3097 
Q 1472 3097 1187 3025 
Q 903 2953 641 2809 
L 641 3341 
Q 956 3463 1253 3523 
Q 1550 3584 1831 3584 
Q 2591 3584 2966 3190 
Q 3341 2797 3341 1997 
z
" transform="scale(0.015625)"/>
       <path id="DejaVuSans-72" d="M 2631 2963 
Q 2534 3019 2420 3045 
Q 2306 3072 2169 3072 
Q 1681 3072 1420 2755 
Q 1159 2438 1159 1844 
L 1159 0 
L 581 0 
L 581 3500 
L 1159 3500 
L 1159 2956 
Q 1341 3275 1631 3429 
Q 1922 3584 2338 3584 
Q 2397 3584 2469 3576 
Q 2541 3569 2628 3553 
L 2631 2963 
z
" transform="scale(0.015625)"/>
       <path id="DejaVuSans-69" d="M 603 3500 
L 1178 3500 
L 1178 0 
L 603 0 
L 603 3500 
z
M 603 4863 
L 1178 4863 
L 1178 4134 
L 603 4134 
L 603 4863 
z
" transform="scale(0.015625)"/>
       <path id="DejaVuSans-62" d="M 3116 1747 
Q 3116 2381 2855 2742 
Q 2594 3103 2138 3103 
Q 1681 3103 1420 2742 
Q 1159 2381 1159 1747 
Q 1159 1113 1420 752 
Q 1681 391 2138 391 
Q 2594 391 2855 752 
Q 3116 1113 3116 1747 
z
M 1159 2969 
Q 1341 3281 1617 3432 
Q 1894 3584 2278 3584 
Q 2916 3584 3314 3078 
Q 3713 2572 3713 1747 
Q 3713 922 3314 415 
Q 2916 -91 2278 -91 
Q 1894 -91 1617 61 
Q 1341 213 1159 525 
L 1159 0 
L 581 0 
L 581 4863 
L 1159 4863 
L 1159 2969 
z
" transform="scale(0.015625)"/>
       <path id="DejaVuSans-6c" d="M 603 4863 
L 1178 4863 
L 1178 0 
L 603 0 
L 603 4863 
z
" transform="scale(0.015625)"/>
       <path id="DejaVuSans-2c" d="M 750 794 
L 1409 794 
L 1409 256 
L 897 -744 
L 494 -744 
L 750 256 
L 750 794 
z
" transform="scale(0.015625)"/>
       <path id="DejaVuSans-Oblique-78" d="M 3841 3500 
L 2234 1784 
L 3219 0 
L 2559 0 
L 1819 1388 
L 531 0 
L -166 0 
L 1556 1844 
L 641 3500 
L 1300 3500 
L 1972 2234 
L 3144 3500 
L 3841 3500 
z
" transform="scale(0.015625)"/>
      </defs>
      <use xlink:href="#DejaVuSans-53" transform="translate(0 0.015625)"/>
      <use xlink:href="#DejaVuSans-6f" transform="translate(63.476562 0.015625)"/>
      <use xlink:href="#DejaVuSans-6d" transform="translate(124.658203 0.015625)"/>
      <use xlink:href="#DejaVuSans-65" transform="translate(222.070312 0.015625)"/>
      <use xlink:href="#DejaVuSans-20" transform="translate(283.59375 0.015625)"/>
      <use xlink:href="#DejaVuSans-76" transform="translate(315.380859 0.015625)"/>
      <use xlink:href="#DejaVuSans-61" transform="translate(374.560547 0.015625)"/>
      <use xlink:href="#DejaVuSans-72" transform="translate(435.839844 0.015625)"/>
      <use xlink:href="#DejaVuSans-69" transform="translate(476.953125 0.015625)"/>
      <use xlink:href="#DejaVuSans-61" transform="translate(504.736328 0.015625)"/>
      <use xlink:href="#DejaVuSans-62" transform="translate(566.015625 0.015625)"/>
      <use xlink:href="#DejaVuSans-6c" transform="translate(629.492188 0.015625)"/>
      <use xlink:href="#DejaVuSans-65" transform="translate(657.275391 0.015625)"/>
      <use xlink:href="#DejaVuSans-2c" transform="translate(718.798828 0.015625)"/>
      <use xlink:href="#DejaVuSans-20" transform="translate(750.585938 0.015625)"/>
      <use xlink:href="#DejaVuSans-Oblique-78" transform="translate(782.373047 0.015625)"/>
     </g>
    </g>
   </g>
   <g id="matplotlib.axis_2">
    <g id="ytick_1">
     <g id="line2d_6">
      <defs>
       <path id="m9a1ff95ed7" d="M 0 0 
L -3.5 0 
" style="stroke: #000000; stroke-width: 0.8"/>
      </defs>
      <g>
       <use xlink:href="#m9a1ff95ed7" x="118.367385" y="301.48" style="stroke: #000000; stroke-width: 0.8"/>
      </g>
     </g>
     <g id="text_7">
      <!-- 0.0 -->
      <g transform="translate(95.46426 305.279219) scale(0.1 -0.1)">
       <defs>
        <path id="DejaVuSans-2e" d="M 684 794 
L 1344 794 
L 1344 0 
L 684 0 
L 684 794 
z
" transform="scale(0.015625)"/>
       </defs>
       <use xlink:href="#DejaVuSans-30"/>
       <use xlink:href="#DejaVuSans-2e" x="63.623047"/>
       <use xlink:href="#DejaVuSans-30" x="95.410156"/>
      </g>
     </g>
    </g>
    <g id="ytick_2">
     <g id="line2d_7">
      <g>
       <use xlink:href="#m9a1ff95ed7" x="118.367385" y="39.232642" style="stroke: #000000; stroke-width: 0.8"/>
      </g>
     </g>
     <g id="text_8">
      <!-- 0.4 -->
      <g transform="translate(95.46426 43.031861) scale(0.1 -0.1)">
       <defs>
        <path id="DejaVuSans-34" d="M 2419 4116 
L 825 1625 
L 2419 1625 
L 2419 4116 
z
M 2253 4666 
L 3047 4666 
L 3047 1625 
L 3713 1625 
L 3713 1100 
L 3047 1100 
L 3047 0 
L 2419 0 
L 2419 1100 
L 313 1100 
L 313 1709 
L 2253 4666 
z
" transform="scale(0.015625)"/>
       </defs>
       <use xlink:href="#DejaVuSans-30"/>
       <use xlink:href="#DejaVuSans-2e" x="63.623047"/>
       <use xlink:href="#DejaVuSans-34" x="95.410156"/>
      </g>
     </g>
    </g>
    <g id="text_9">
     <!-- $\mathbb{E}(x,\mu=0, \sigma=1)$ -->
     <g transform="translate(11.06426 168.256321) scale(0.1 -0.1)">
      <defs>
       <path id="STIXNonUnicode-Italic-e156" d="M 4250 4179 
L 4192 3942 
L 2150 3942 
L 1709 2266 
L 3514 2266 
L 3443 2029 
L 1645 2029 
L 1165 237 
L 3443 237 
L 3392 0 
L 109 0 
L 1229 4179 
L 4250 4179 
z
M 1914 3942 
L 1414 3942 
L 416 237 
L 928 237 
L 1914 3942 
z
" transform="scale(0.015625)"/>
       <path id="DejaVuSans-28" d="M 1984 4856 
Q 1566 4138 1362 3434 
Q 1159 2731 1159 2009 
Q 1159 1288 1364 580 
Q 1569 -128 1984 -844 
L 1484 -844 
Q 1016 -109 783 600 
Q 550 1309 550 2009 
Q 550 2706 781 3412 
Q 1013 4119 1484 4856 
L 1984 4856 
z
" transform="scale(0.015625)"/>
       <path id="DejaVuSans-Oblique-3bc" d="M -84 -1331 
L 856 3500 
L 1434 3500 
L 1009 1322 
Q 997 1256 987 1175 
Q 978 1094 978 1013 
Q 978 722 1161 565 
Q 1344 409 1684 409 
Q 2147 409 2431 671 
Q 2716 934 2816 1459 
L 3213 3500 
L 3788 3500 
L 3266 809 
Q 3253 750 3248 706 
Q 3244 663 3244 628 
Q 3244 531 3283 486 
Q 3322 441 3406 441 
Q 3438 441 3492 456 
Q 3547 472 3647 513 
L 3559 50 
Q 3422 -19 3297 -55 
Q 3172 -91 3053 -91 
Q 2847 -91 2730 40 
Q 2613 172 2613 403 
Q 2438 153 2195 31 
Q 1953 -91 1625 -91 
Q 1334 -91 1117 43 
Q 900 178 831 397 
L 494 -1331 
L -84 -1331 
z
" transform="scale(0.015625)"/>
       <path id="DejaVuSans-3d" d="M 678 2906 
L 4684 2906 
L 4684 2381 
L 678 2381 
L 678 2906 
z
M 678 1631 
L 4684 1631 
L 4684 1100 
L 678 1100 
L 678 1631 
z
" transform="scale(0.015625)"/>
       <path id="DejaVuSans-Oblique-3c3" d="M 2219 3044 
Q 1744 3044 1422 2700 
Q 1081 2341 969 1747 
Q 844 1119 1044 756 
Q 1241 397 1706 397 
Q 2166 397 2503 759 
Q 2844 1122 2966 1747 
Q 3075 2319 2881 2700 
Q 2700 3044 2219 3044 
z
M 2309 3503 
L 4219 3500 
L 4106 2925 
L 3463 2925 
Q 3706 2438 3575 1747 
Q 3406 888 2884 400 
Q 2359 -91 1609 -91 
Q 856 -91 525 400 
Q 194 888 363 1747 
Q 528 2609 1050 3097 
Q 1484 3503 2309 3503 
z
" transform="scale(0.015625)"/>
       <path id="DejaVuSans-29" d="M 513 4856 
L 1013 4856 
Q 1481 4119 1714 3412 
Q 1947 2706 1947 2009 
Q 1947 1309 1714 600 
Q 1481 -109 1013 -844 
L 513 -844 
Q 928 -128 1133 580 
Q 1338 1288 1338 2009 
Q 1338 2731 1133 3434 
Q 928 4138 513 4856 
z
" transform="scale(0.015625)"/>
      </defs>
      <use xlink:href="#STIXNonUnicode-Italic-e156" transform="translate(0 0.125)"/>
      <use xlink:href="#DejaVuSans-28" transform="translate(63.899994 0.125)"/>
      <use xlink:href="#DejaVuSans-Oblique-78" transform="translate(102.913666 0.125)"/>
      <use xlink:href="#DejaVuSans-2c" transform="translate(162.093353 0.125)"/>
      <use xlink:href="#DejaVuSans-Oblique-3bc" transform="translate(213.362885 0.125)"/>
      <use xlink:href="#DejaVuSans-3d" transform="translate(296.468353 0.125)"/>
      <use xlink:href="#DejaVuSans-30" transform="translate(399.739838 0.125)"/>
      <use xlink:href="#DejaVuSans-2c" transform="translate(463.362885 0.125)"/>
      <use xlink:href="#DejaVuSans-Oblique-3c3" transform="translate(514.632416 0.125)"/>
      <use xlink:href="#DejaVuSans-3d" transform="translate(597.493744 0.125)"/>
      <use xlink:href="#DejaVuSans-31" transform="translate(700.765228 0.125)"/>
      <use xlink:href="#DejaVuSans-29" transform="translate(764.388275 0.125)"/>
     </g>
    </g>
   </g>
   <g id="line2d_8">
    <path d="M 133.441595 298.574399 
L 138.270171 297.621373 
L 142.495174 296.571598 
L 146.418392 295.381356 
L 150.039824 294.068208 
L 153.661256 292.518983 
L 156.980902 290.864508 
L 160.300547 288.959336 
L 163.318407 286.987188 
L 166.336267 284.764808 
L 169.354127 282.271057 
L 172.371987 279.484746 
L 175.389846 276.384959 
L 178.407706 272.951413 
L 181.425566 269.164863 
L 184.443426 265.007532 
L 187.461286 260.463584 
L 190.479145 255.519612 
L 193.497005 250.16515 
L 196.816651 243.792866 
L 200.136297 236.911709 
L 203.455943 229.524492 
L 207.077374 220.900663 
L 210.698806 211.710781 
L 214.622024 201.158472 
L 218.847028 189.171456 
L 223.675603 174.809847 
L 230.013109 155.201228 
L 244.800622 109.098215 
L 249.327412 95.858952 
L 253.25063 85.075557 
L 256.570275 76.584012 
L 259.588135 69.456098 
L 262.304209 63.582868 
L 264.718497 58.833445 
L 267.132785 54.559906 
L 269.245287 51.233225 
L 271.357788 48.309608 
L 273.168504 46.135953 
L 274.97922 44.277855 
L 276.789936 42.742449 
L 278.600652 41.53566 
L 280.109582 40.784437 
L 281.618512 40.266713 
L 283.127442 39.983884 
L 284.636372 39.936716 
L 286.145302 40.125337 
L 287.654231 40.549235 
L 289.163161 41.207267 
L 290.672091 42.097656 
L 292.181021 43.218005 
L 293.991737 44.861694 
L 295.802453 46.825829 
L 297.613169 49.10288 
L 299.725671 52.143286 
L 301.838173 55.582081 
L 304.25246 59.977353 
L 306.666748 64.841002 
L 309.382822 70.832979 
L 312.400682 78.079823 
L 315.720328 86.685415 
L 319.341759 96.717548 
L 323.566763 109.098215 
L 328.998911 125.757719 
L 348.011428 184.751924 
L 352.840003 198.641289 
L 357.065007 210.126452 
L 360.988225 220.156044 
L 364.609657 228.828123 
L 368.231088 236.911709 
L 371.550734 243.792866 
L 374.87038 250.16515 
L 378.190026 256.032334 
L 381.207886 260.93578 
L 384.225745 265.440419 
L 387.243605 269.559924 
L 390.261465 273.310346 
L 393.279325 276.709628 
L 396.297185 279.777142 
L 399.315044 282.533249 
L 402.332904 284.998908 
L 405.350764 287.195317 
L 408.67041 289.325578 
L 411.990056 291.183197 
L 415.309701 292.794897 
L 418.931133 294.302637 
L 422.854351 295.676255 
L 426.777569 296.81551 
L 431.002572 297.81867 
L 434.92579 298.574399 
L 434.92579 298.574399 
" style="fill: none; stroke: #1f77b4; stroke-width: 1.5; stroke-linecap: square"/>
   </g>
   <g id="line2d_9">
    <defs>
     <path id="mb1ef1bf8ba" d="M 0 3 
C 0.795609 3 1.55874 2.683901 2.12132 2.12132 
C 2.683901 1.55874 3 0.795609 3 0 
C 3 -0.795609 2.683901 -1.55874 2.12132 -2.12132 
C 1.55874 -2.683901 0.795609 -3 0 -3 
C -0.795609 -3 -1.55874 -2.683901 -2.12132 -2.12132 
C -2.683901 -1.55874 -3 -0.795609 -3 0 
C -3 0.795609 -2.683901 1.55874 -2.12132 2.12132 
C -1.55874 2.683901 -0.795609 3 0 3 
z
" style="stroke: #ff7f0e"/>
    </defs>
    <g>
     <use xlink:href="#mb1ef1bf8ba" x="298.900193" y="65.144309" style="fill: #ff7f0e; stroke: #ff7f0e"/>
     <use xlink:href="#mb1ef1bf8ba" x="349.059886" y="179.441492" style="fill: #ff7f0e; stroke: #ff7f0e"/>
     <use xlink:href="#mb1ef1bf8ba" x="315.165226" y="90.263713" style="fill: #ff7f0e; stroke: #ff7f0e"/>
     <use xlink:href="#mb1ef1bf8ba" x="297.715263" y="59.412496" style="fill: #ff7f0e; stroke: #ff7f0e"/>
     <use xlink:href="#mb1ef1bf8ba" x="261.166821" y="52.920371" style="fill: #ff7f0e; stroke: #ff7f0e"/>
     <use xlink:href="#mb1ef1bf8ba" x="328.168462" y="148.521549" style="fill: #ff7f0e; stroke: #ff7f0e"/>
     <use xlink:href="#mb1ef1bf8ba" x="265.367223" y="54.378325" style="fill: #ff7f0e; stroke: #ff7f0e"/>
     <use xlink:href="#mb1ef1bf8ba" x="402.29706" y="285.380945" style="fill: #ff7f0e; stroke: #ff7f0e"/>
     <use xlink:href="#mb1ef1bf8ba" x="423.970687" y="297.851592" style="fill: #ff7f0e; stroke: #ff7f0e"/>
     <use xlink:href="#mb1ef1bf8ba" x="249.043153" y="99.16753" style="fill: #ff7f0e; stroke: #ff7f0e"/>
     <use xlink:href="#mb1ef1bf8ba" x="372.134181" y="239.066964" style="fill: #ff7f0e; stroke: #ff7f0e"/>
     <use xlink:href="#mb1ef1bf8ba" x="292.895054" y="56.840579" style="fill: #ff7f0e; stroke: #ff7f0e"/>
     <use xlink:href="#mb1ef1bf8ba" x="304.698052" y="63.803275" style="fill: #ff7f0e; stroke: #ff7f0e"/>
     <use xlink:href="#mb1ef1bf8ba" x="412.494353" y="280.35765" style="fill: #ff7f0e; stroke: #ff7f0e"/>
     <use xlink:href="#mb1ef1bf8ba" x="154.857844" y="300.33814" style="fill: #ff7f0e; stroke: #ff7f0e"/>
     <use xlink:href="#mb1ef1bf8ba" x="159.709702" y="295.604278" style="fill: #ff7f0e; stroke: #ff7f0e"/>
     <use xlink:href="#mb1ef1bf8ba" x="139.537122" y="293.246851" style="fill: #ff7f0e; stroke: #ff7f0e"/>
     <use xlink:href="#mb1ef1bf8ba" x="384.463319" y="275.953953" style="fill: #ff7f0e; stroke: #ff7f0e"/>
     <use xlink:href="#mb1ef1bf8ba" x="368.043557" y="240.538101" style="fill: #ff7f0e; stroke: #ff7f0e"/>
     <use xlink:href="#mb1ef1bf8ba" x="395.736507" y="284.037409" style="fill: #ff7f0e; stroke: #ff7f0e"/>
     <use xlink:href="#mb1ef1bf8ba" x="428.479558" y="282.563358" style="fill: #ff7f0e; stroke: #ff7f0e"/>
     <use xlink:href="#mb1ef1bf8ba" x="374.375272" y="255.251413" style="fill: #ff7f0e; stroke: #ff7f0e"/>
     <use xlink:href="#mb1ef1bf8ba" x="272.570329" y="41.241592" style="fill: #ff7f0e; stroke: #ff7f0e"/>
     <use xlink:href="#mb1ef1bf8ba" x="368.758806" y="238.406346" style="fill: #ff7f0e; stroke: #ff7f0e"/>
     <use xlink:href="#mb1ef1bf8ba" x="169.099465" y="263.138777" style="fill: #ff7f0e; stroke: #ff7f0e"/>
     <use xlink:href="#mb1ef1bf8ba" x="326.367669" y="109.127467" style="fill: #ff7f0e; stroke: #ff7f0e"/>
     <use xlink:href="#mb1ef1bf8ba" x="176.660346" y="279.758562" style="fill: #ff7f0e; stroke: #ff7f0e"/>
     <use xlink:href="#mb1ef1bf8ba" x="418.244343" y="270.154834" style="fill: #ff7f0e; stroke: #ff7f0e"/>
     <use xlink:href="#mb1ef1bf8ba" x="290.770616" y="46.800719" style="fill: #ff7f0e; stroke: #ff7f0e"/>
     <use xlink:href="#mb1ef1bf8ba" x="258.455616" y="81.773076" style="fill: #ff7f0e; stroke: #ff7f0e"/>
     <use xlink:href="#mb1ef1bf8ba" x="213.200931" y="213.900176" style="fill: #ff7f0e; stroke: #ff7f0e"/>
     <use xlink:href="#mb1ef1bf8ba" x="366.860816" y="235.664481" style="fill: #ff7f0e; stroke: #ff7f0e"/>
     <use xlink:href="#mb1ef1bf8ba" x="270.963711" y="40.696634" style="fill: #ff7f0e; stroke: #ff7f0e"/>
     <use xlink:href="#mb1ef1bf8ba" x="304.815447" y="37.584291" style="fill: #ff7f0e; stroke: #ff7f0e"/>
     <use xlink:href="#mb1ef1bf8ba" x="139.106423" y="295.18865" style="fill: #ff7f0e; stroke: #ff7f0e"/>
     <use xlink:href="#mb1ef1bf8ba" x="319.648936" y="120.222988" style="fill: #ff7f0e; stroke: #ff7f0e"/>
     <use xlink:href="#mb1ef1bf8ba" x="317.978781" y="90.764268" style="fill: #ff7f0e; stroke: #ff7f0e"/>
     <use xlink:href="#mb1ef1bf8ba" x="319.437445" y="108.253899" style="fill: #ff7f0e; stroke: #ff7f0e"/>
     <use xlink:href="#mb1ef1bf8ba" x="417.966725" y="296.631604" style="fill: #ff7f0e; stroke: #ff7f0e"/>
     <use xlink:href="#mb1ef1bf8ba" x="338.999639" y="150.820194" style="fill: #ff7f0e; stroke: #ff7f0e"/>
     <use xlink:href="#mb1ef1bf8ba" x="241.827545" y="129.130033" style="fill: #ff7f0e; stroke: #ff7f0e"/>
     <use xlink:href="#mb1ef1bf8ba" x="265.199822" y="52.944568" style="fill: #ff7f0e; stroke: #ff7f0e"/>
     <use xlink:href="#mb1ef1bf8ba" x="343.766375" y="184.984241" style="fill: #ff7f0e; stroke: #ff7f0e"/>
     <use xlink:href="#mb1ef1bf8ba" x="151.598623" y="280.085284" style="fill: #ff7f0e; stroke: #ff7f0e"/>
     <use xlink:href="#mb1ef1bf8ba" x="334.461222" y="138.455753" style="fill: #ff7f0e; stroke: #ff7f0e"/>
    </g>
   </g>
   <g id="patch_3">
    <path d="M 118.367385 301.48 
L 118.367385 39.232642 
" style="fill: none; stroke: #000000; stroke-width: 0.8; stroke-linejoin: miter; stroke-linecap: square"/>
   </g>
   <g id="patch_4">
    <path d="M 450 301.48 
L 450 39.232642 
" style="fill: none; stroke: #000000; stroke-width: 0.8; stroke-linejoin: miter; stroke-linecap: square"/>
   </g>
   <g id="patch_5">
    <path d="M 118.367385 301.48 
L 450 301.48 
" style="fill: none; stroke: #000000; stroke-width: 0.8; stroke-linejoin: miter; stroke-linecap: square"/>
   </g>
   <g id="patch_6">
    <path d="M 118.367385 39.232642 
L 450 39.232642 
" style="fill: none; stroke: #000000; stroke-width: 0.8; stroke-linejoin: miter; stroke-linecap: square"/>
   </g>
   <g id="text_10">
    <!-- Calculated -->
    <g style="fill: #1f77b4" transform="translate(170.833729 168.276633) scale(0.1 -0.1)">
     <defs>
      <path id="DejaVuSans-43" d="M 4122 4306 
L 4122 3641 
Q 3803 3938 3442 4084 
Q 3081 4231 2675 4231 
Q 1875 4231 1450 3742 
Q 1025 3253 1025 2328 
Q 1025 1406 1450 917 
Q 1875 428 2675 428 
Q 3081 428 3442 575 
Q 3803 722 4122 1019 
L 4122 359 
Q 3791 134 3420 21 
Q 3050 -91 2638 -91 
Q 1578 -91 968 557 
Q 359 1206 359 2328 
Q 359 3453 968 4101 
Q 1578 4750 2638 4750 
Q 3056 4750 3426 4639 
Q 3797 4528 4122 4306 
z
" transform="scale(0.015625)"/>
      <path id="DejaVuSans-63" d="M 3122 3366 
L 3122 2828 
Q 2878 2963 2633 3030 
Q 2388 3097 2138 3097 
Q 1578 3097 1268 2742 
Q 959 2388 959 1747 
Q 959 1106 1268 751 
Q 1578 397 2138 397 
Q 2388 397 2633 464 
Q 2878 531 3122 666 
L 3122 134 
Q 2881 22 2623 -34 
Q 2366 -91 2075 -91 
Q 1284 -91 818 406 
Q 353 903 353 1747 
Q 353 2603 823 3093 
Q 1294 3584 2113 3584 
Q 2378 3584 2631 3529 
Q 2884 3475 3122 3366 
z
" transform="scale(0.015625)"/>
      <path id="DejaVuSans-75" d="M 544 1381 
L 544 3500 
L 1119 3500 
L 1119 1403 
Q 1119 906 1312 657 
Q 1506 409 1894 409 
Q 2359 409 2629 706 
Q 2900 1003 2900 1516 
L 2900 3500 
L 3475 3500 
L 3475 0 
L 2900 0 
L 2900 538 
Q 2691 219 2414 64 
Q 2138 -91 1772 -91 
Q 1169 -91 856 284 
Q 544 659 544 1381 
z
M 1991 3584 
L 1991 3584 
z
" transform="scale(0.015625)"/>
      <path id="DejaVuSans-74" d="M 1172 4494 
L 1172 3500 
L 2356 3500 
L 2356 3053 
L 1172 3053 
L 1172 1153 
Q 1172 725 1289 603 
Q 1406 481 1766 481 
L 2356 481 
L 2356 0 
L 1766 0 
Q 1100 0 847 248 
Q 594 497 594 1153 
L 594 3053 
L 172 3053 
L 172 3500 
L 594 3500 
L 594 4494 
L 1172 4494 
z
" transform="scale(0.015625)"/>
      <path id="DejaVuSans-64" d="M 2906 2969 
L 2906 4863 
L 3481 4863 
L 3481 0 
L 2906 0 
L 2906 525 
Q 2725 213 2448 61 
Q 2172 -91 1784 -91 
Q 1150 -91 751 415 
Q 353 922 353 1747 
Q 353 2572 751 3078 
Q 1150 3584 1784 3584 
Q 2172 3584 2448 3432 
Q 2725 3281 2906 2969 
z
M 947 1747 
Q 947 1113 1208 752 
Q 1469 391 1925 391 
Q 2381 391 2643 752 
Q 2906 1113 2906 1747 
Q 2906 2381 2643 2742 
Q 2381 3103 1925 3103 
Q 1469 3103 1208 2742 
Q 947 2381 947 1747 
z
" transform="scale(0.015625)"/>
     </defs>
     <use xlink:href="#DejaVuSans-43"/>
     <use xlink:href="#DejaVuSans-61" x="69.824219"/>
     <use xlink:href="#DejaVuSans-6c" x="131.103516"/>
     <use xlink:href="#DejaVuSans-63" x="158.886719"/>
     <use xlink:href="#DejaVuSans-75" x="213.867188"/>
     <use xlink:href="#DejaVuSans-6c" x="277.246094"/>
     <use xlink:href="#DejaVuSans-61" x="305.029297"/>
     <use xlink:href="#DejaVuSans-74" x="366.308594"/>
     <use xlink:href="#DejaVuSans-65" x="405.517578"/>
     <use xlink:href="#DejaVuSans-64" x="467.041016"/>
    </g>
   </g>
   <g id="text_11">
    <!-- Measured -->
    <g style="fill: #ff7f0e" transform="translate(319.356849 50.109171) scale(0.1 -0.1)">
     <defs>
      <path id="DejaVuSans-4d" d="M 628 4666 
L 1569 4666 
L 2759 1491 
L 3956 4666 
L 4897 4666 
L 4897 0 
L 4281 0 
L 4281 4097 
L 3078 897 
L 2444 897 
L 1241 4097 
L 1241 0 
L 628 0 
L 628 4666 
z
" transform="scale(0.015625)"/>
      <path id="DejaVuSans-73" d="M 2834 3397 
L 2834 2853 
Q 2591 2978 2328 3040 
Q 2066 3103 1784 3103 
Q 1356 3103 1142 2972 
Q 928 2841 928 2578 
Q 928 2378 1081 2264 
Q 1234 2150 1697 2047 
L 1894 2003 
Q 2506 1872 2764 1633 
Q 3022 1394 3022 966 
Q 3022 478 2636 193 
Q 2250 -91 1575 -91 
Q 1294 -91 989 -36 
Q 684 19 347 128 
L 347 722 
Q 666 556 975 473 
Q 1284 391 1588 391 
Q 1994 391 2212 530 
Q 2431 669 2431 922 
Q 2431 1156 2273 1281 
Q 2116 1406 1581 1522 
L 1381 1569 
Q 847 1681 609 1914 
Q 372 2147 372 2553 
Q 372 3047 722 3315 
Q 1072 3584 1716 3584 
Q 2034 3584 2315 3537 
Q 2597 3491 2834 3397 
z
" transform="scale(0.015625)"/>
     </defs>
     <use xlink:href="#DejaVuSans-4d"/>
     <use xlink:href="#DejaVuSans-65" x="86.279297"/>
     <use xlink:href="#DejaVuSans-61" x="147.802734"/>
     <use xlink:href="#DejaVuSans-73" x="209.082031"/>
     <use xlink:href="#DejaVuSans-75" x="261.181641"/>
     <use xlink:href="#DejaVuSans-72" x="324.560547"/>
     <use xlink:href="#DejaVuSans-65" x="363.423828"/>
     <use xlink:href="#DejaVuSans-64" x="424.947266"/>
    </g>
   </g>
   <g id="text_12">
    <!-- 68.27% -->
    <g style="fill: #808080" transform="translate(265.118849 250.228933) scale(0.1 -0.1)">
     <defs>
      <path id="DejaVuSans-36" d="M 2113 2584 
Q 1688 2584 1439 2293 
Q 1191 2003 1191 1497 
Q 1191 994 1439 701 
Q 1688 409 2113 409 
Q 2538 409 2786 701 
Q 3034 994 3034 1497 
Q 3034 2003 2786 2293 
Q 2538 2584 2113 2584 
z
M 3366 4563 
L 3366 3988 
Q 3128 4100 2886 4159 
Q 2644 4219 2406 4219 
Q 1781 4219 1451 3797 
Q 1122 3375 1075 2522 
Q 1259 2794 1537 2939 
Q 1816 3084 2150 3084 
Q 2853 3084 3261 2657 
Q 3669 2231 3669 1497 
Q 3669 778 3244 343 
Q 2819 -91 2113 -91 
Q 1303 -91 875 529 
Q 447 1150 447 2328 
Q 447 3434 972 4092 
Q 1497 4750 2381 4750 
Q 2619 4750 2861 4703 
Q 3103 4656 3366 4563 
z
" transform="scale(0.015625)"/>
      <path id="DejaVuSans-38" d="M 2034 2216 
Q 1584 2216 1326 1975 
Q 1069 1734 1069 1313 
Q 1069 891 1326 650 
Q 1584 409 2034 409 
Q 2484 409 2743 651 
Q 3003 894 3003 1313 
Q 3003 1734 2745 1975 
Q 2488 2216 2034 2216 
z
M 1403 2484 
Q 997 2584 770 2862 
Q 544 3141 544 3541 
Q 544 4100 942 4425 
Q 1341 4750 2034 4750 
Q 2731 4750 3128 4425 
Q 3525 4100 3525 3541 
Q 3525 3141 3298 2862 
Q 3072 2584 2669 2484 
Q 3125 2378 3379 2068 
Q 3634 1759 3634 1313 
Q 3634 634 3220 271 
Q 2806 -91 2034 -91 
Q 1263 -91 848 271 
Q 434 634 434 1313 
Q 434 1759 690 2068 
Q 947 2378 1403 2484 
z
M 1172 3481 
Q 1172 3119 1398 2916 
Q 1625 2713 2034 2713 
Q 2441 2713 2670 2916 
Q 2900 3119 2900 3481 
Q 2900 3844 2670 4047 
Q 2441 4250 2034 4250 
Q 1625 4250 1398 4047 
Q 1172 3844 1172 3481 
z
" transform="scale(0.015625)"/>
      <path id="DejaVuSans-32" d="M 1228 531 
L 3431 531 
L 3431 0 
L 469 0 
L 469 531 
Q 828 903 1448 1529 
Q 2069 2156 2228 2338 
Q 2531 2678 2651 2914 
Q 2772 3150 2772 3378 
Q 2772 3750 2511 3984 
Q 2250 4219 1831 4219 
Q 1534 4219 1204 4116 
Q 875 4013 500 3803 
L 500 4441 
Q 881 4594 1212 4672 
Q 1544 4750 1819 4750 
Q 2544 4750 2975 4387 
Q 3406 4025 3406 3419 
Q 3406 3131 3298 2873 
Q 3191 2616 2906 2266 
Q 2828 2175 2409 1742 
Q 1991 1309 1228 531 
z
" transform="scale(0.015625)"/>
      <path id="DejaVuSans-37" d="M 525 4666 
L 3525 4666 
L 3525 4397 
L 1831 0 
L 1172 0 
L 2766 4134 
L 525 4134 
L 525 4666 
z
" transform="scale(0.015625)"/>
      <path id="DejaVuSans-25" d="M 4653 2053 
Q 4381 2053 4226 1822 
Q 4072 1591 4072 1178 
Q 4072 772 4226 539 
Q 4381 306 4653 306 
Q 4919 306 5073 539 
Q 5228 772 5228 1178 
Q 5228 1588 5073 1820 
Q 4919 2053 4653 2053 
z
M 4653 2450 
Q 5147 2450 5437 2106 
Q 5728 1763 5728 1178 
Q 5728 594 5436 251 
Q 5144 -91 4653 -91 
Q 4153 -91 3862 251 
Q 3572 594 3572 1178 
Q 3572 1766 3864 2108 
Q 4156 2450 4653 2450 
z
M 1428 4353 
Q 1159 4353 1004 4120 
Q 850 3888 850 3481 
Q 850 3069 1003 2837 
Q 1156 2606 1428 2606 
Q 1700 2606 1854 2837 
Q 2009 3069 2009 3481 
Q 2009 3884 1853 4118 
Q 1697 4353 1428 4353 
z
M 4250 4750 
L 4750 4750 
L 1831 -91 
L 1331 -91 
L 4250 4750 
z
M 1428 4750 
Q 1922 4750 2215 4408 
Q 2509 4066 2509 3481 
Q 2509 2891 2217 2550 
Q 1925 2209 1428 2209 
Q 931 2209 642 2551 
Q 353 2894 353 3481 
Q 353 4063 643 4406 
Q 934 4750 1428 4750 
z
" transform="scale(0.015625)"/>
     </defs>
     <use xlink:href="#DejaVuSans-36"/>
     <use xlink:href="#DejaVuSans-38" x="63.623047"/>
     <use xlink:href="#DejaVuSans-2e" x="127.246094"/>
     <use xlink:href="#DejaVuSans-32" x="159.033203"/>
     <use xlink:href="#DejaVuSans-37" x="222.65625"/>
     <use xlink:href="#DejaVuSans-25" x="286.279297"/>
    </g>
   </g>
   <g id="patch_7">
    <path d="M 331.310368 255.586712 
Q 284.181773 255.586712 237.053178 255.586712 
" style="fill: none; stroke: #808080; stroke-linecap: round"/>
    <path d="M 327.310368 253.586712 
L 331.310368 255.586712 
L 327.310368 257.586712 
L 327.310368 253.586712 
z
" style="fill: #808080; stroke: #808080; stroke-linecap: round"/>
    <path d="M 241.053178 257.586712 
L 237.053178 255.586712 
L 241.053178 253.586712 
L 241.053178 257.586712 
z
" style="fill: #808080; stroke: #808080; stroke-linecap: round"/>
   </g>
  </g>
  <g id="text_13">
   <!-- default style -->
   <g transform="translate(192.99375 16.030125) scale(0.12 -0.12)">
    <defs>
     <path id="DejaVuSans-66" d="M 2375 4863 
L 2375 4384 
L 1825 4384 
Q 1516 4384 1395 4259 
Q 1275 4134 1275 3809 
L 1275 3500 
L 2222 3500 
L 2222 3053 
L 1275 3053 
L 1275 0 
L 697 0 
L 697 3053 
L 147 3053 
L 147 3500 
L 697 3500 
L 697 3744 
Q 697 4328 969 4595 
Q 1241 4863 1831 4863 
L 2375 4863 
z
" transform="scale(0.015625)"/>
     <path id="DejaVuSans-79" d="M 2059 -325 
Q 1816 -950 1584 -1140 
Q 1353 -1331 966 -1331 
L 506 -1331 
L 506 -850 
L 844 -850 
Q 1081 -850 1212 -737 
Q 1344 -625 1503 -206 
L 1606 56 
L 191 3500 
L 800 3500 
L 1894 763 
L 2988 3500 
L 3597 3500 
L 2059 -325 
z
" transform="scale(0.015625)"/>
    </defs>
    <use xlink:href="#DejaVuSans-64"/>
    <use xlink:href="#DejaVuSans-65" x="63.476562"/>
    <use xlink:href="#DejaVuSans-66" x="125"/>
    <use xlink:href="#DejaVuSans-61" x="160.205078"/>
    <use xlink:href="#DejaVuSans-75" x="221.484375"/>
    <use xlink:href="#DejaVuSans-6c" x="284.863281"/>
    <use xlink:href="#DejaVuSans-74" x="312.646484"/>
    <use xlink:href="#DejaVuSans-20" x="351.855469"/>
    <use xlink:href="#DejaVuSans-73" x="383.642578"/>
    <use xlink:href="#DejaVuSans-74" x="435.742188"/>
    <use xlink:href="#DejaVuSans-79" x="474.951172"/>
    <use xlink:href="#DejaVuSans-6c" x="534.130859"/>
    <use xlink:href="#DejaVuSans-65" x="561.914062"/>
   </g>
  </g>
 </g>
 <defs>
  <clipPath id="p480a705cd0">
   <rect x="118.367385" y="39.232642" width="331.632615" height="262.247358"/>
  </clipPath>
 </defs>
</svg>
