<?xml version="1.0" encoding="utf-8" standalone="no"?>
<!DOCTYPE svg PUBLIC "-//W3C//DTD SVG 1.1//EN"
  "http://www.w3.org/Graphics/SVG/1.1/DTD/svg11.dtd">
<svg xmlns:xlink="http://www.w3.org/1999/xlink" width="460.8pt" height="345.6pt" viewBox="0 0 460.8 345.6" xmlns="http://www.w3.org/2000/svg" version="1.1">
 <metadata>
  <rdf:RDF xmlns:dc="http://purl.org/dc/elements/1.1/" xmlns:cc="http://creativecommons.org/ns#" xmlns:rdf="http://www.w3.org/1999/02/22-rdf-syntax-ns#">
   <cc:Work>
    <dc:type rdf:resource="http://purl.org/dc/dcmitype/StillImage"/>
    <dc:date>2023-01-24T01:57:59.649866</dc:date>
    <dc:format>image/svg+xml</dc:format>
    <dc:creator>
     <cc:Agent>
      <dc:title>Matplotlib v3.6.3, https://matplotlib.org/</dc:title>
     </cc:Agent>
    </dc:creator>
   </cc:Work>
  </rdf:RDF>
 </metadata>
 <defs>
  <style type="text/css">*{stroke-linejoin: round; stroke-linecap: butt}</style>
 </defs>
 <g id="figure_1">
  <g id="patch_1">
   <path d="M 0 345.6 
L 460.8 345.6 
L 460.8 0 
L 0 0 
z
"/>
  </g>
  <g id="axes_1">
   <g id="patch_2">
    <path d="M 179.182657 287.157901 
L 453.863835 287.157901 
L 453.863835 33.003135 
L 179.182657 33.003135 
z
"/>
   </g>
   <g id="PolyCollection_1">
    <path d="M 270.743049 287.157901 
L 270.743049 133.412869 
L 271.018006 132.489486 
L 271.292962 131.566171 
L 271.567918 130.642989 
L 271.842874 129.720009 
L 272.11783 128.797299 
L 272.392786 127.874927 
L 272.667742 126.952961 
L 272.942698 126.031471 
L 273.217655 125.110526 
L 273.492611 124.190196 
L 273.767567 123.270551 
L 274.042523 122.351662 
L 274.317479 121.433598 
L 274.592435 120.516432 
L 274.867391 119.600234 
L 275.142348 118.685076 
L 275.417304 117.77103 
L 275.69226 116.858168 
L 275.967216 115.946562 
L 276.242172 115.036286 
L 276.517128 114.127411 
L 276.792084 113.220012 
L 277.06704 112.314161 
L 277.341997 111.409932 
L 277.616953 110.5074 
L 277.891909 109.606637 
L 278.166865 108.707718 
L 278.441821 107.810718 
L 278.716777 106.915711 
L 278.991733 106.022771 
L 279.26669 105.131974 
L 279.541646 104.243394 
L 279.816602 103.357107 
L 280.091558 102.473187 
L 280.366514 101.591711 
L 280.64147 100.712753 
L 280.916426 99.836388 
L 281.191382 98.962694 
L 281.466339 98.091744 
L 281.741295 97.223615 
L 282.016251 96.358383 
L 282.291207 95.496123 
L 282.566163 94.63691 
L 282.841119 93.780822 
L 283.116075 92.927934 
L 283.391032 92.07832 
L 283.665988 91.232058 
L 283.940944 90.389223 
L 284.2159 89.54989 
L 284.490856 88.714136 
L 284.765812 87.882035 
L 285.040768 87.053664 
L 285.315725 86.229097 
L 285.590681 85.40841 
L 285.865637 84.591678 
L 286.140593 83.778976 
L 286.415549 82.970379 
L 286.690505 82.165962 
L 286.965461 81.365799 
L 287.240417 80.569965 
L 287.515374 79.778535 
L 287.79033 78.991581 
L 288.065286 78.209179 
L 288.340242 77.431401 
L 288.615198 76.658321 
L 288.890154 75.890013 
L 289.16511 75.126549 
L 289.440067 74.368002 
L 289.715023 73.614444 
L 289.989979 72.865948 
L 290.264935 72.122585 
L 290.539891 71.384428 
L 290.814847 70.651546 
L 291.089803 69.924011 
L 291.364759 69.201894 
L 291.639716 68.485264 
L 291.914672 67.774192 
L 292.189628 67.068747 
L 292.464584 66.368998 
L 292.73954 65.675013 
L 293.014496 64.986862 
L 293.289452 64.304612 
L 293.564409 63.628329 
L 293.839365 62.958082 
L 294.114321 62.293937 
L 294.389277 61.63596 
L 294.664233 60.984215 
L 294.939189 60.33877 
L 295.214145 59.699687 
L 295.489101 59.067032 
L 295.764058 58.440868 
L 296.039014 57.821257 
L 296.31397 57.208262 
L 296.588926 56.601946 
L 296.863882 56.00237 
L 297.138838 55.409594 
L 297.413794 54.823679 
L 297.688751 54.244685 
L 297.963707 53.67267 
L 298.238663 53.107693 
L 298.513619 52.549812 
L 298.788575 51.999084 
L 299.063531 51.455566 
L 299.338487 50.919313 
L 299.613444 50.390381 
L 299.8884 49.868825 
L 300.163356 49.354698 
L 300.438312 48.848053 
L 300.713268 48.348943 
L 300.988224 47.857421 
L 301.26318 47.373536 
L 301.538136 46.89734 
L 301.813093 46.428882 
L 302.088049 45.968211 
L 302.363005 45.515375 
L 302.637961 45.070421 
L 302.912917 44.633397 
L 303.187873 44.204348 
L 303.462829 43.783319 
L 303.737786 43.370354 
L 304.012742 42.965497 
L 304.287698 42.568791 
L 304.562654 42.180278 
L 304.83761 41.799998 
L 305.112566 41.427992 
L 305.387522 41.0643 
L 305.662478 40.708959 
L 305.937435 40.362007 
L 306.212391 40.023482 
L 306.487347 39.69342 
L 306.762303 39.371855 
L 307.037259 39.058821 
L 307.312215 38.754353 
L 307.587171 38.458482 
L 307.862128 38.171241 
L 308.137084 37.89266 
L 308.41204 37.622768 
L 308.686996 37.361595 
L 308.961952 37.109168 
L 309.236908 36.865516 
L 309.511864 36.630663 
L 309.78682 36.404635 
L 310.061777 36.187456 
L 310.336733 35.97915 
L 310.611689 35.779738 
L 310.886645 35.589244 
L 311.161601 35.407686 
L 311.436557 35.235085 
L 311.711513 35.071459 
L 311.98647 34.916825 
L 312.261426 34.771202 
L 312.536382 34.634603 
L 312.811338 34.507044 
L 313.086294 34.388539 
L 313.36125 34.2791 
L 313.636206 34.178739 
L 313.911163 34.087468 
L 314.186119 34.005296 
L 314.461075 33.932231 
L 314.736031 33.868282 
L 315.010987 33.813456 
L 315.285943 33.767759 
L 315.560899 33.731195 
L 315.835855 33.703769 
L 316.110812 33.685483 
L 316.385768 33.676339 
L 316.660724 33.676339 
L 316.93568 33.685483 
L 317.210636 33.703769 
L 317.485592 33.731195 
L 317.760548 33.767759 
L 318.035505 33.813456 
L 318.310461 33.868282 
L 318.585417 33.932231 
L 318.860373 34.005296 
L 319.135329 34.087468 
L 319.410285 34.178739 
L 319.685241 34.2791 
L 319.960197 34.388539 
L 320.235154 34.507044 
L 320.51011 34.634603 
L 320.785066 34.771202 
L 321.060022 34.916825 
L 321.334978 35.071459 
L 321.609934 35.235085 
L 321.88489 35.407686 
L 322.159847 35.589244 
L 322.434803 35.779738 
L 322.709759 35.97915 
L 322.984715 36.187456 
L 323.259671 36.404635 
L 323.534627 36.630663 
L 323.809583 36.865516 
L 324.084539 37.109168 
L 324.359496 37.361595 
L 324.634452 37.622768 
L 324.909408 37.89266 
L 325.184364 38.171241 
L 325.45932 38.458482 
L 325.734276 38.754353 
L 326.009232 39.058821 
L 326.284189 39.371855 
L 326.559145 39.69342 
L 326.834101 40.023482 
L 327.109057 40.362007 
L 327.384013 40.708959 
L 327.658969 41.0643 
L 327.933925 41.427992 
L 328.208882 41.799998 
L 328.483838 42.180278 
L 328.758794 42.568791 
L 329.03375 42.965497 
L 329.308706 43.370354 
L 329.583662 43.783319 
L 329.858618 44.204348 
L 330.133574 44.633397 
L 330.408531 45.070421 
L 330.683487 45.515375 
L 330.958443 45.968211 
L 331.233399 46.428882 
L 331.508355 46.89734 
L 331.783311 47.373536 
L 332.058267 47.857421 
L 332.333224 48.348943 
L 332.60818 48.848053 
L 332.883136 49.354698 
L 333.158092 49.868825 
L 333.433048 50.390381 
L 333.708004 50.919313 
L 333.98296 51.455566 
L 334.257916 51.999084 
L 334.532873 52.549812 
L 334.807829 53.107693 
L 335.082785 53.67267 
L 335.357741 54.244685 
L 335.632697 54.823679 
L 335.907653 55.409594 
L 336.182609 56.00237 
L 336.457566 56.601946 
L 336.732522 57.208262 
L 337.007478 57.821257 
L 337.282434 58.440868 
L 337.55739 59.067032 
L 337.832346 59.699687 
L 338.107302 60.33877 
L 338.382258 60.984215 
L 338.657215 61.63596 
L 338.932171 62.293937 
L 339.207127 62.958082 
L 339.482083 63.628329 
L 339.757039 64.304612 
L 340.031995 64.986862 
L 340.306951 65.675013 
L 340.581908 66.368998 
L 340.856864 67.068747 
L 341.13182 67.774192 
L 341.406776 68.485264 
L 341.681732 69.201894 
L 341.956688 69.924011 
L 342.231644 70.651546 
L 342.5066 71.384428 
L 342.781557 72.122585 
L 343.056513 72.865948 
L 343.331469 73.614444 
L 343.606425 74.368002 
L 343.881381 75.126549 
L 344.156337 75.890013 
L 344.431293 76.658321 
L 344.70625 77.431401 
L 344.981206 78.209179 
L 345.256162 78.991581 
L 345.531118 79.778535 
L 345.806074 80.569965 
L 346.08103 81.365799 
L 346.355986 82.165962 
L 346.630943 82.970379 
L 346.905899 83.778976 
L 347.180855 84.591678 
L 347.455811 85.40841 
L 347.730767 86.229097 
L 348.005723 87.053664 
L 348.280679 87.882035 
L 348.555635 88.714136 
L 348.830592 89.54989 
L 349.105548 90.389223 
L 349.380504 91.232058 
L 349.65546 92.07832 
L 349.930416 92.927934 
L 350.205372 93.780822 
L 350.480328 94.63691 
L 350.755285 95.496123 
L 351.030241 96.358383 
L 351.305197 97.223615 
L 351.580153 98.091744 
L 351.855109 98.962694 
L 352.130065 99.836388 
L 352.405021 100.712753 
L 352.679977 101.591711 
L 352.954934 102.473187 
L 353.22989 103.357107 
L 353.504846 104.243394 
L 353.779802 105.131974 
L 354.054758 106.022771 
L 354.329714 106.915711 
L 354.60467 107.810718 
L 354.879627 108.707718 
L 355.154583 109.606637 
L 355.429539 110.5074 
L 355.704495 111.409932 
L 355.979451 112.314161 
L 356.254407 113.220012 
L 356.529363 114.127411 
L 356.804319 115.036286 
L 357.079276 115.946562 
L 357.354232 116.858168 
L 357.629188 117.77103 
L 357.904144 118.685076 
L 358.1791 119.600234 
L 358.454056 120.516432 
L 358.729012 121.433598 
L 359.003969 122.351662 
L 359.278925 123.270551 
L 359.553881 124.190196 
L 359.828837 125.110526 
L 360.103793 126.031471 
L 360.378749 126.952961 
L 360.653705 127.874927 
L 360.928662 128.797299 
L 361.203618 129.720009 
L 361.478574 130.642989 
L 361.75353 131.566171 
L 362.028486 132.489486 
L 362.303442 133.412869 
L 362.303442 287.157901 
L 362.303442 287.157901 
L 362.028486 287.157901 
L 361.75353 287.157901 
L 361.478574 287.157901 
L 361.203618 287.157901 
L 360.928662 287.157901 
L 360.653705 287.157901 
L 360.378749 287.157901 
L 360.103793 287.157901 
L 359.828837 287.157901 
L 359.553881 287.157901 
L 359.278925 287.157901 
L 359.003969 287.157901 
L 358.729012 287.157901 
L 358.454056 287.157901 
L 358.1791 287.157901 
L 357.904144 287.157901 
L 357.629188 287.157901 
L 357.354232 287.157901 
L 357.079276 287.157901 
L 356.804319 287.157901 
L 356.529363 287.157901 
L 356.254407 287.157901 
L 355.979451 287.157901 
L 355.704495 287.157901 
L 355.429539 287.157901 
L 355.154583 287.157901 
L 354.879627 287.157901 
L 354.60467 287.157901 
L 354.329714 287.157901 
L 354.054758 287.157901 
L 353.779802 287.157901 
L 353.504846 287.157901 
L 353.22989 287.157901 
L 352.954934 287.157901 
L 352.679977 287.157901 
L 352.405021 287.157901 
L 352.130065 287.157901 
L 351.855109 287.157901 
L 351.580153 287.157901 
L 351.305197 287.157901 
L 351.030241 287.157901 
L 350.755285 287.157901 
L 350.480328 287.157901 
L 350.205372 287.157901 
L 349.930416 287.157901 
L 349.65546 287.157901 
L 349.380504 287.157901 
L 349.105548 287.157901 
L 348.830592 287.157901 
L 348.555635 287.157901 
L 348.280679 287.157901 
L 348.005723 287.157901 
L 347.730767 287.157901 
L 347.455811 287.157901 
L 347.180855 287.157901 
L 346.905899 287.157901 
L 346.630943 287.157901 
L 346.355986 287.157901 
L 346.08103 287.157901 
L 345.806074 287.157901 
L 345.531118 287.157901 
L 345.256162 287.157901 
L 344.981206 287.157901 
L 344.70625 287.157901 
L 344.431293 287.157901 
L 344.156337 287.157901 
L 343.881381 287.157901 
L 343.606425 287.157901 
L 343.331469 287.157901 
L 343.056513 287.157901 
L 342.781557 287.157901 
L 342.5066 287.157901 
L 342.231644 287.157901 
L 341.956688 287.157901 
L 341.681732 287.157901 
L 341.406776 287.157901 
L 341.13182 287.157901 
L 340.856864 287.157901 
L 340.581908 287.157901 
L 340.306951 287.157901 
L 340.031995 287.157901 
L 339.757039 287.157901 
L 339.482083 287.157901 
L 339.207127 287.157901 
L 338.932171 287.157901 
L 338.657215 287.157901 
L 338.382258 287.157901 
L 338.107302 287.157901 
L 337.832346 287.157901 
L 337.55739 287.157901 
L 337.282434 287.157901 
L 337.007478 287.157901 
L 336.732522 287.157901 
L 336.457566 287.157901 
L 336.182609 287.157901 
L 335.907653 287.157901 
L 335.632697 287.157901 
L 335.357741 287.157901 
L 335.082785 287.157901 
L 334.807829 287.157901 
L 334.532873 287.157901 
L 334.257916 287.157901 
L 333.98296 287.157901 
L 333.708004 287.157901 
L 333.433048 287.157901 
L 333.158092 287.157901 
L 332.883136 287.157901 
L 332.60818 287.157901 
L 332.333224 287.157901 
L 332.058267 287.157901 
L 331.783311 287.157901 
L 331.508355 287.157901 
L 331.233399 287.157901 
L 330.958443 287.157901 
L 330.683487 287.157901 
L 330.408531 287.157901 
L 330.133574 287.157901 
L 329.858618 287.157901 
L 329.583662 287.157901 
L 329.308706 287.157901 
L 329.03375 287.157901 
L 328.758794 287.157901 
L 328.483838 287.157901 
L 328.208882 287.157901 
L 327.933925 287.157901 
L 327.658969 287.157901 
L 327.384013 287.157901 
L 327.109057 287.157901 
L 326.834101 287.157901 
L 326.559145 287.157901 
L 326.284189 287.157901 
L 326.009232 287.157901 
L 325.734276 287.157901 
L 325.45932 287.157901 
L 325.184364 287.157901 
L 324.909408 287.157901 
L 324.634452 287.157901 
L 324.359496 287.157901 
L 324.084539 287.157901 
L 323.809583 287.157901 
L 323.534627 287.157901 
L 323.259671 287.157901 
L 322.984715 287.157901 
L 322.709759 287.157901 
L 322.434803 287.157901 
L 322.159847 287.157901 
L 321.88489 287.157901 
L 321.609934 287.157901 
L 321.334978 287.157901 
L 321.060022 287.157901 
L 320.785066 287.157901 
L 320.51011 287.157901 
L 320.235154 287.157901 
L 319.960197 287.157901 
L 319.685241 287.157901 
L 319.410285 287.157901 
L 319.135329 287.157901 
L 318.860373 287.157901 
L 318.585417 287.157901 
L 318.310461 287.157901 
L 318.035505 287.157901 
L 317.760548 287.157901 
L 317.485592 287.157901 
L 317.210636 287.157901 
L 316.93568 287.157901 
L 316.660724 287.157901 
L 316.385768 287.157901 
L 316.110812 287.157901 
L 315.835855 287.157901 
L 315.560899 287.157901 
L 315.285943 287.157901 
L 315.010987 287.157901 
L 314.736031 287.157901 
L 314.461075 287.157901 
L 314.186119 287.157901 
L 313.911163 287.157901 
L 313.636206 287.157901 
L 313.36125 287.157901 
L 313.086294 287.157901 
L 312.811338 287.157901 
L 312.536382 287.157901 
L 312.261426 287.157901 
L 311.98647 287.157901 
L 311.711513 287.157901 
L 311.436557 287.157901 
L 311.161601 287.157901 
L 310.886645 287.157901 
L 310.611689 287.157901 
L 310.336733 287.157901 
L 310.061777 287.157901 
L 309.78682 287.157901 
L 309.511864 287.157901 
L 309.236908 287.157901 
L 308.961952 287.157901 
L 308.686996 287.157901 
L 308.41204 287.157901 
L 308.137084 287.157901 
L 307.862128 287.157901 
L 307.587171 287.157901 
L 307.312215 287.157901 
L 307.037259 287.157901 
L 306.762303 287.157901 
L 306.487347 287.157901 
L 306.212391 287.157901 
L 305.937435 287.157901 
L 305.662478 287.157901 
L 305.387522 287.157901 
L 305.112566 287.157901 
L 304.83761 287.157901 
L 304.562654 287.157901 
L 304.287698 287.157901 
L 304.012742 287.157901 
L 303.737786 287.157901 
L 303.462829 287.157901 
L 303.187873 287.157901 
L 302.912917 287.157901 
L 302.637961 287.157901 
L 302.363005 287.157901 
L 302.088049 287.157901 
L 301.813093 287.157901 
L 301.538136 287.157901 
L 301.26318 287.157901 
L 300.988224 287.157901 
L 300.713268 287.157901 
L 300.438312 287.157901 
L 300.163356 287.157901 
L 299.8884 287.157901 
L 299.613444 287.157901 
L 299.338487 287.157901 
L 299.063531 287.157901 
L 298.788575 287.157901 
L 298.513619 287.157901 
L 298.238663 287.157901 
L 297.963707 287.157901 
L 297.688751 287.157901 
L 297.413794 287.157901 
L 297.138838 287.157901 
L 296.863882 287.157901 
L 296.588926 287.157901 
L 296.31397 287.157901 
L 296.039014 287.157901 
L 295.764058 287.157901 
L 295.489101 287.157901 
L 295.214145 287.157901 
L 294.939189 287.157901 
L 294.664233 287.157901 
L 294.389277 287.157901 
L 294.114321 287.157901 
L 293.839365 287.157901 
L 293.564409 287.157901 
L 293.289452 287.157901 
L 293.014496 287.157901 
L 292.73954 287.157901 
L 292.464584 287.157901 
L 292.189628 287.157901 
L 291.914672 287.157901 
L 291.639716 287.157901 
L 291.364759 287.157901 
L 291.089803 287.157901 
L 290.814847 287.157901 
L 290.539891 287.157901 
L 290.264935 287.157901 
L 289.989979 287.157901 
L 289.715023 287.157901 
L 289.440067 287.157901 
L 289.16511 287.157901 
L 288.890154 287.157901 
L 288.615198 287.157901 
L 288.340242 287.157901 
L 288.065286 287.157901 
L 287.79033 287.157901 
L 287.515374 287.157901 
L 287.240417 287.157901 
L 286.965461 287.157901 
L 286.690505 287.157901 
L 286.415549 287.157901 
L 286.140593 287.157901 
L 285.865637 287.157901 
L 285.590681 287.157901 
L 285.315725 287.157901 
L 285.040768 287.157901 
L 284.765812 287.157901 
L 284.490856 287.157901 
L 284.2159 287.157901 
L 283.940944 287.157901 
L 283.665988 287.157901 
L 283.391032 287.157901 
L 283.116075 287.157901 
L 282.841119 287.157901 
L 282.566163 287.157901 
L 282.291207 287.157901 
L 282.016251 287.157901 
L 281.741295 287.157901 
L 281.466339 287.157901 
L 281.191382 287.157901 
L 280.916426 287.157901 
L 280.64147 287.157901 
L 280.366514 287.157901 
L 280.091558 287.157901 
L 279.816602 287.157901 
L 279.541646 287.157901 
L 279.26669 287.157901 
L 278.991733 287.157901 
L 278.716777 287.157901 
L 278.441821 287.157901 
L 278.166865 287.157901 
L 277.891909 287.157901 
L 277.616953 287.157901 
L 277.341997 287.157901 
L 277.06704 287.157901 
L 276.792084 287.157901 
L 276.517128 287.157901 
L 276.242172 287.157901 
L 275.967216 287.157901 
L 275.69226 287.157901 
L 275.417304 287.157901 
L 275.142348 287.157901 
L 274.867391 287.157901 
L 274.592435 287.157901 
L 274.317479 287.157901 
L 274.042523 287.157901 
L 273.767567 287.157901 
L 273.492611 287.157901 
L 273.217655 287.157901 
L 272.942698 287.157901 
L 272.667742 287.157901 
L 272.392786 287.157901 
L 272.11783 287.157901 
L 271.842874 287.157901 
L 271.567918 287.157901 
L 271.292962 287.157901 
L 271.018006 287.157901 
L 270.743049 287.157901 
z
" clip-path="url(#p04004b9774)" style="fill: #ebebeb; fill-opacity: 0.2"/>
   </g>
   <g id="matplotlib.axis_1">
    <g id="xtick_1">
     <g id="line2d_1">
      <defs>
       <path id="m70cb271cf0" d="M 0 0 
L 0 3.5 
" style="stroke: #ebebeb; stroke-width: 0.8"/>
      </defs>
      <g>
       <use xlink:href="#m70cb271cf0" x="179.182657" y="299.157901" style="fill: #ebebeb; stroke: #ebebeb; stroke-width: 0.8"/>
      </g>
     </g>
     <g id="text_1">
      <!-- -3 -->
      <g style="fill: #ebebeb" transform="translate(172.622782 316.578731) scale(0.14994 -0.14994)">
       <defs>
        <path id="CMUBright-Roman-2d" d="M 70 1350 
L 70 1670 
L 1862 1670 
L 1862 1350 
L 70 1350 
z
" transform="scale(0.015625)"/>
        <path id="CMUBright-Roman-33" d="M 282 653 
Q 282 666 285 685 
Q 288 704 304 774 
Q 320 845 339 941 
Q 557 640 861 464 
Q 1165 288 1341 256 
Q 1517 224 1683 224 
Q 2112 224 2368 486 
Q 2624 749 2624 1165 
Q 2624 1574 2381 1824 
Q 2138 2074 1773 2099 
L 1555 2106 
L 1114 2106 
L 1114 2426 
Q 1709 2470 1862 2528 
Q 2099 2618 2281 2838 
Q 2464 3059 2464 3360 
Q 2464 3642 2256 3811 
Q 2048 3981 1702 3981 
Q 973 3981 570 3258 
L 371 3539 
Q 845 4301 1702 4301 
Q 2202 4301 2544 4025 
Q 2886 3750 2886 3360 
Q 2886 3059 2704 2761 
Q 2522 2464 2106 2272 
Q 2579 2144 2825 1833 
Q 3072 1523 3072 1158 
Q 3072 666 2685 278 
Q 2298 -109 1690 -109 
Q 1402 -109 1126 -9 
Q 851 90 675 221 
Q 499 352 390 473 
Q 282 595 282 653 
z
" transform="scale(0.015625)"/>
       </defs>
       <use xlink:href="#CMUBright-Roman-2d"/>
       <use xlink:href="#CMUBright-Roman-33" x="34.999985"/>
      </g>
     </g>
    </g>
    <g id="xtick_2">
     <g id="line2d_2">
      <g>
       <use xlink:href="#m70cb271cf0" x="270.743049" y="299.157901" style="fill: #ebebeb; stroke: #ebebeb; stroke-width: 0.8"/>
      </g>
     </g>
     <g id="text_2">
      <!-- -1 -->
      <g style="fill: #ebebeb" transform="translate(264.183174 316.578731) scale(0.14994 -0.14994)">
       <defs>
        <path id="CMUBright-Roman-31" d="M 672 3558 
L 672 3885 
Q 1427 3885 1862 4301 
L 1965 4301 
L 1965 320 
L 2803 320 
L 2803 0 
L 710 0 
L 710 320 
L 1549 320 
L 1549 3744 
Q 1178 3558 672 3558 
z
" transform="scale(0.015625)"/>
       </defs>
       <use xlink:href="#CMUBright-Roman-2d"/>
       <use xlink:href="#CMUBright-Roman-31" x="34.999985"/>
      </g>
     </g>
    </g>
    <g id="xtick_3">
     <g id="line2d_3">
      <g>
       <use xlink:href="#m70cb271cf0" x="316.523246" y="299.157901" style="fill: #ebebeb; stroke: #ebebeb; stroke-width: 0.8"/>
      </g>
     </g>
     <g id="text_3">
      <!-- 0 -->
      <g style="fill: #ebebeb" transform="translate(312.587321 316.578731) scale(0.14994 -0.14994)">
       <defs>
        <path id="CMUBright-Roman-30" d="M 333 1984 
L 333 2086 
Q 333 2291 339 2438 
Q 346 2586 371 2832 
Q 397 3078 461 3267 
Q 525 3456 621 3657 
Q 717 3859 880 4006 
Q 1043 4154 1261 4230 
Q 1446 4301 1677 4301 
Q 1856 4301 2025 4256 
Q 2195 4211 2380 4070 
Q 2566 3930 2704 3709 
Q 2842 3488 2931 3104 
Q 3021 2720 3021 2214 
Q 3021 1683 2982 1347 
Q 2944 1011 2803 685 
Q 2618 250 2307 70 
Q 1997 -109 1677 -109 
Q 1498 -109 1328 -64 
Q 1158 -19 972 121 
Q 787 262 649 483 
Q 512 704 422 1091 
Q 333 1478 333 1984 
z
M 742 2413 
Q 742 2374 745 2326 
Q 749 2278 749 2272 
L 749 2150 
Q 749 1779 758 1548 
Q 768 1318 838 1014 
Q 909 710 1037 538 
Q 1286 218 1677 218 
Q 2086 218 2330 557 
Q 2451 730 2518 1037 
Q 2586 1344 2595 1568 
Q 2605 1792 2605 2163 
L 2605 2272 
Q 2605 2278 2608 2323 
Q 2611 2368 2611 2406 
Q 2611 3302 2336 3661 
Q 2099 3981 1677 3981 
Q 1242 3981 1005 3642 
Q 742 3264 742 2413 
z
" transform="scale(0.015625)"/>
       </defs>
       <use xlink:href="#CMUBright-Roman-30"/>
      </g>
     </g>
    </g>
    <g id="xtick_4">
     <g id="line2d_4">
      <g>
       <use xlink:href="#m70cb271cf0" x="362.303442" y="299.157901" style="fill: #ebebeb; stroke: #ebebeb; stroke-width: 0.8"/>
      </g>
     </g>
     <g id="text_4">
      <!-- 1 -->
      <g style="fill: #ebebeb" transform="translate(358.367517 316.578731) scale(0.14994 -0.14994)">
       <use xlink:href="#CMUBright-Roman-31"/>
      </g>
     </g>
    </g>
    <g id="xtick_5">
     <g id="line2d_5">
      <g>
       <use xlink:href="#m70cb271cf0" x="453.863835" y="299.157901" style="fill: #ebebeb; stroke: #ebebeb; stroke-width: 0.8"/>
      </g>
     </g>
     <g id="text_5">
      <!-- 3 -->
      <g style="fill: #ebebeb" transform="translate(449.92791 316.578731) scale(0.14994 -0.14994)">
       <use xlink:href="#CMUBright-Roman-33"/>
      </g>
     </g>
    </g>
    <g id="text_6">
     <!-- Some variable, $x$ -->
     <g style="fill: #ebebeb" transform="translate(253.253246 339.593197) scale(0.18 -0.18)">
      <defs>
       <path id="CMUBright-SemiBold-53" d="M 294 339 
L 410 998 
Q 1075 435 1837 435 
Q 2246 435 2496 665 
Q 2746 896 2746 1190 
Q 2746 1440 2586 1616 
Q 2426 1792 2227 1869 
Q 2131 1907 1737 1987 
Q 1344 2067 1049 2217 
Q 755 2368 557 2662 
Q 365 2950 365 3283 
Q 365 3776 784 4163 
Q 1203 4550 1882 4550 
Q 2534 4550 3130 4243 
L 3014 3578 
Q 2694 3834 2490 3917 
Q 2221 4026 1882 4026 
Q 1485 4026 1229 3827 
Q 973 3629 973 3354 
Q 973 3136 1126 2982 
Q 1280 2829 1472 2758 
Q 1562 2726 1942 2636 
Q 2323 2547 2445 2502 
Q 2810 2362 3082 2032 
Q 3354 1702 3354 1254 
Q 3354 723 2934 307 
Q 2515 -109 1830 -109 
Q 1030 -109 294 339 
z
" transform="scale(0.015625)"/>
       <path id="CMUBright-SemiBold-6f" d="M 630 390 
Q 186 832 186 1504 
Q 186 2176 627 2637 
Q 1069 3098 1677 3098 
Q 2310 3098 2739 2618 
Q 3168 2138 3168 1498 
Q 3168 838 2726 393 
Q 2285 -51 1677 -51 
Q 1075 -51 630 390 
z
M 800 1594 
Q 800 998 1037 717 
Q 1267 448 1677 448 
Q 2061 448 2291 685 
Q 2554 954 2554 1606 
Q 2554 2150 2307 2384 
Q 2061 2618 1677 2618 
Q 800 2618 800 1594 
z
" transform="scale(0.015625)"/>
       <path id="CMUBright-SemiBold-6d" d="M 410 0 
L 410 3021 
L 998 3021 
L 998 2714 
L 1005 2496 
Q 1344 3072 1971 3072 
Q 2080 3072 2176 3059 
Q 2272 3046 2345 3024 
Q 2419 3002 2483 2966 
Q 2547 2931 2592 2899 
Q 2637 2867 2675 2819 
Q 2714 2771 2736 2739 
Q 2758 2707 2784 2656 
Q 2810 2605 2816 2582 
Q 2822 2560 2838 2518 
Q 2854 2477 2854 2470 
Q 3187 3072 3840 3072 
Q 4090 3072 4272 2995 
Q 4454 2918 4544 2819 
Q 4634 2720 4685 2557 
Q 4736 2394 4745 2285 
Q 4755 2176 4755 2016 
L 4755 0 
L 4141 0 
L 4141 1984 
Q 4128 2278 4045 2394 
Q 3898 2592 3507 2592 
Q 3264 2592 3078 2390 
Q 2893 2189 2893 1728 
L 2893 0 
L 2272 0 
L 2272 1984 
Q 2266 2266 2195 2374 
Q 2054 2592 1645 2592 
Q 1402 2592 1213 2390 
Q 1024 2189 1024 1728 
L 1024 0 
L 410 0 
z
" transform="scale(0.015625)"/>
       <path id="CMUBright-SemiBold-65" d="M 186 1530 
Q 186 2189 605 2646 
Q 1024 3104 1606 3104 
Q 1766 3104 1920 3069 
Q 2074 3034 2243 2931 
Q 2413 2829 2534 2669 
Q 2656 2509 2739 2233 
Q 2822 1958 2822 1600 
L 762 1600 
L 762 1536 
Q 762 1062 1040 745 
Q 1318 429 1709 429 
Q 2240 429 2739 794 
L 2784 275 
Q 2278 -51 1709 -51 
Q 1043 -51 614 419 
Q 186 890 186 1530 
z
M 838 1978 
L 2298 1978 
Q 2144 2618 1600 2618 
Q 1363 2618 1148 2448 
Q 934 2278 838 1978 
z
" transform="scale(0.015625)"/>
       <path id="CMUBright-SemiBold-20" transform="scale(0.015625)"/>
       <path id="CMUBright-SemiBold-76" d="M 90 3021 
L 691 3021 
Q 1389 934 1466 614 
L 1562 960 
L 2240 3021 
L 2835 3021 
L 1811 -19 
L 1114 -19 
L 90 3021 
z
" transform="scale(0.015625)"/>
       <path id="CMUBright-SemiBold-61" d="M 250 851 
Q 250 1274 771 1498 
Q 1293 1722 2112 1747 
L 2112 1971 
Q 2112 2234 2048 2355 
Q 1894 2650 1568 2650 
Q 1242 2643 1037 2566 
Q 832 2490 557 2291 
L 512 2829 
Q 1043 3104 1581 3104 
Q 2061 3104 2377 2822 
Q 2694 2541 2726 2144 
L 2733 1933 
L 2733 0 
L 2131 0 
L 2131 230 
L 2125 410 
Q 1946 186 1648 67 
Q 1350 -51 1043 -51 
Q 666 -51 458 233 
Q 250 518 250 851 
z
M 845 864 
Q 845 672 1008 550 
Q 1171 429 1408 429 
Q 1626 429 1811 525 
Q 1997 621 2074 781 
Q 2112 864 2112 1043 
L 2112 1446 
Q 1523 1421 1184 1270 
Q 845 1120 845 864 
z
" transform="scale(0.015625)"/>
       <path id="CMUBright-SemiBold-72" d="M 416 0 
L 416 3021 
L 992 3021 
L 992 2368 
Q 1370 3059 2112 3072 
L 2112 2528 
Q 1939 2528 1769 2480 
Q 1600 2432 1421 2326 
Q 1242 2221 1130 2013 
Q 1018 1805 1018 1517 
L 1018 0 
L 416 0 
z
" transform="scale(0.015625)"/>
       <path id="CMUBright-SemiBold-69" d="M 414 3859 
L 414 4461 
L 1016 4461 
L 1016 3859 
L 414 3859 
z
M 416 0 
L 416 3021 
L 1018 3021 
L 1018 0 
L 416 0 
z
" transform="scale(0.015625)"/>
       <path id="CMUBright-SemiBold-62" d="M 416 0 
L 416 4448 
L 1018 4448 
L 1018 2675 
Q 1466 3072 2074 3072 
Q 2509 3072 2793 2611 
Q 3078 2150 3078 1530 
Q 3078 851 2720 400 
Q 2362 -51 1856 -51 
Q 1414 -51 1030 333 
L 1030 0 
L 416 0 
z
M 1030 832 
Q 1030 659 1193 544 
Q 1357 429 1562 429 
Q 1690 429 1821 457 
Q 1952 486 2118 601 
Q 2285 717 2368 909 
Q 2464 1133 2464 1530 
Q 2464 2118 2227 2362 
Q 2003 2592 1632 2592 
Q 1555 2592 1488 2582 
Q 1421 2573 1366 2550 
Q 1312 2528 1270 2509 
Q 1229 2490 1184 2454 
Q 1139 2419 1120 2403 
Q 1101 2387 1062 2355 
L 1030 2323 
L 1030 832 
z
" transform="scale(0.015625)"/>
       <path id="CMUBright-SemiBold-6c" d="M 416 0 
L 416 4448 
L 1018 4448 
L 1018 0 
L 416 0 
z
" transform="scale(0.015625)"/>
       <path id="CMUBright-SemiBold-2c" d="M 550 0 
L 550 749 
L 1306 749 
L 1306 109 
Q 1299 32 1283 -22 
Q 1267 -77 1238 -128 
Q 1210 -179 1117 -348 
Q 1024 -518 928 -710 
L 550 -710 
L 781 0 
L 550 0 
z
" transform="scale(0.015625)"/>
       <path id="CMUBright-SemiBold-78" d="M 0 0 
L 1184 1562 
L 1184 1568 
L 38 3021 
L 698 3021 
L 1446 2022 
L 2163 3021 
L 2816 3021 
L 1709 1568 
L 1709 1562 
L 2931 0 
L 2272 0 
L 1446 1197 
L 1440 1197 
L 653 0 
L 0 0 
z
" transform="scale(0.015625)"/>
      </defs>
      <use xlink:href="#CMUBright-SemiBold-53" transform="translate(0 0.90625)"/>
      <use xlink:href="#CMUBright-SemiBold-6f" transform="translate(58.299988 0.90625)"/>
      <use xlink:href="#CMUBright-SemiBold-6d" transform="translate(110.799973 0.90625)"/>
      <use xlink:href="#CMUBright-SemiBold-65" transform="translate(191.59996 0.90625)"/>
      <use xlink:href="#CMUBright-SemiBold-20" transform="translate(238.699951 0.90625)"/>
      <use xlink:href="#CMUBright-SemiBold-76" transform="translate(271.999939 0.90625)"/>
      <use xlink:href="#CMUBright-SemiBold-61" transform="translate(317.799927 0.90625)"/>
      <use xlink:href="#CMUBright-SemiBold-72" transform="translate(366.999924 0.90625)"/>
      <use xlink:href="#CMUBright-SemiBold-69" transform="translate(401.599915 0.90625)"/>
      <use xlink:href="#CMUBright-SemiBold-61" transform="translate(424.099899 0.90625)"/>
      <use xlink:href="#CMUBright-SemiBold-62" transform="translate(473.299896 0.90625)"/>
      <use xlink:href="#CMUBright-SemiBold-6c" transform="translate(524.999893 0.90625)"/>
      <use xlink:href="#CMUBright-SemiBold-65" transform="translate(547.499878 0.90625)"/>
      <use xlink:href="#CMUBright-SemiBold-2c" transform="translate(594.599869 0.90625)"/>
      <use xlink:href="#CMUBright-SemiBold-20" transform="translate(623.799866 0.90625)"/>
      <use xlink:href="#CMUBright-SemiBold-78" transform="translate(657.099854 0.90625)"/>
     </g>
    </g>
   </g>
   <g id="matplotlib.axis_2">
    <g id="ytick_1">
     <g id="line2d_6">
      <defs>
       <path id="mf65ad827d6" d="M 0 0 
L -3.5 0 
" style="stroke: #ebebeb; stroke-width: 0.8"/>
      </defs>
      <g>
       <use xlink:href="#mf65ad827d6" x="167.182657" y="287.157901" style="fill: #ebebeb; stroke: #ebebeb; stroke-width: 0.8"/>
      </g>
     </g>
     <g id="text_7">
      <!-- 0.0 -->
      <g style="fill: #ebebeb" transform="translate(140.06024 292.368316) scale(0.14994 -0.14994)">
       <defs>
        <path id="CMUBright-Roman-2e" d="M 678 0 
L 678 499 
L 1178 499 
L 1178 0 
L 678 0 
z
" transform="scale(0.015625)"/>
       </defs>
       <use xlink:href="#CMUBright-Roman-30"/>
       <use xlink:href="#CMUBright-Roman-2e" x="52.499985"/>
       <use xlink:href="#CMUBright-Roman-30" x="81.699982"/>
      </g>
     </g>
    </g>
    <g id="ytick_2">
     <g id="line2d_7">
      <g>
       <use xlink:href="#mf65ad827d6" x="167.182657" y="33.003135" style="fill: #ebebeb; stroke: #ebebeb; stroke-width: 0.8"/>
      </g>
     </g>
     <g id="text_8">
      <!-- 0.4 -->
      <g style="fill: #ebebeb" transform="translate(140.06024 38.21355) scale(0.14994 -0.14994)">
       <defs>
        <path id="CMUBright-Roman-34" d="M 186 1158 
L 186 1504 
L 1952 4250 
L 2438 4250 
L 2438 1498 
L 3168 1498 
L 3168 1158 
L 2438 1158 
L 2438 0 
L 2035 0 
L 2035 1158 
L 186 1158 
z
M 602 1498 
L 2054 1498 
L 2054 3885 
Q 1971 3667 1606 3085 
L 602 1498 
z
" transform="scale(0.015625)"/>
       </defs>
       <use xlink:href="#CMUBright-Roman-30"/>
       <use xlink:href="#CMUBright-Roman-2e" x="52.499985"/>
       <use xlink:href="#CMUBright-Roman-34" x="81.699982"/>
      </g>
     </g>
    </g>
    <g id="text_9">
     <!-- $\mathbb{E}(x,\mu=0, \sigma=1)$ -->
     <g style="fill: #ebebeb" transform="translate(3.00024 155.940518) scale(0.18 -0.18)">
      <defs>
       <path id="STIXGeneral-Regular-1d53c" d="M 3629 0 
L 448 0 
L 448 4237 
L 3629 4237 
L 3629 3955 
L 1510 3955 
L 1510 2323 
L 3424 2323 
L 3424 2042 
L 1510 2042 
L 1510 282 
L 3629 282 
L 3629 0 
z
M 1229 282 
L 1229 3955 
L 730 3955 
L 730 282 
L 1229 282 
z
" transform="scale(0.015625)"/>
       <path id="CMUBright-SemiBold-28" d="M 1747 -1421 
Q 499 -358 499 1690 
Q 499 3738 1747 4800 
L 2234 4800 
Q 2086 4653 1990 4544 
Q 1894 4435 1708 4147 
Q 1523 3859 1411 3552 
Q 1299 3245 1206 2752 
Q 1114 2259 1114 1689 
Q 1114 1120 1206 627 
Q 1299 134 1411 -173 
Q 1523 -480 1708 -768 
Q 1894 -1056 1990 -1165 
Q 2086 -1274 2234 -1421 
L 1747 -1421 
z
" transform="scale(0.015625)"/>
       <path id="CMUBright-SemiBold-3bc" d="M 275 -1069 
L 275 3027 
L 890 3027 
L 890 1325 
Q 890 947 1082 755 
Q 1274 563 1504 563 
Q 1741 563 1891 720 
Q 2042 877 2093 1062 
Q 2125 1171 2125 1402 
L 2125 3027 
L 2739 3027 
L 2739 877 
Q 2739 538 2995 499 
Q 3104 506 3171 579 
Q 3238 653 3238 749 
L 3232 826 
L 3661 826 
Q 3661 806 3664 774 
Q 3667 742 3667 723 
Q 3667 621 3638 515 
Q 3610 410 3536 278 
Q 3462 147 3296 57 
Q 3130 -32 2893 -58 
Q 2682 -38 2518 51 
Q 2355 141 2214 397 
Q 1971 -19 1504 -58 
Q 1389 -51 1321 -35 
Q 1254 -19 1129 51 
Q 1005 122 890 256 
L 890 -1069 
L 275 -1069 
z
" transform="scale(0.015625)"/>
       <path id="CMUBright-SemiBold-3d" d="M 371 1069 
Q 371 1146 425 1216 
Q 480 1286 576 1306 
Q 627 1312 730 1312 
L 3437 1312 
Q 3725 1312 3725 1069 
Q 3725 826 3424 826 
L 666 826 
Q 493 832 432 909 
Q 371 986 371 1069 
z
M 371 2310 
Q 371 2554 691 2554 
L 3424 2554 
Q 3731 2554 3731 2310 
Q 3731 2259 3715 2214 
Q 3699 2170 3628 2122 
Q 3558 2074 3437 2074 
L 659 2074 
Q 544 2074 473 2125 
Q 403 2176 387 2221 
Q 371 2266 371 2310 
z
" transform="scale(0.015625)"/>
       <path id="CMUBright-SemiBold-30" d="M 256 2061 
Q 256 2317 265 2505 
Q 275 2694 329 2992 
Q 384 3290 477 3504 
Q 570 3718 762 3923 
Q 954 4128 1222 4224 
Q 1440 4301 1677 4301 
Q 2234 4301 2592 3923 
Q 3091 3411 3091 2106 
Q 3091 1901 3081 1744 
Q 3072 1587 3046 1347 
Q 3021 1107 2953 918 
Q 2886 730 2787 534 
Q 2688 339 2518 192 
Q 2349 45 2125 -32 
Q 1907 -109 1670 -109 
Q 1114 -109 742 282 
Q 256 794 256 2061 
z
M 870 1997 
Q 870 966 1114 653 
Q 1325 378 1670 378 
Q 1882 378 2080 506 
Q 2278 634 2368 934 
Q 2470 1274 2470 2131 
L 2470 2323 
Q 2470 3232 2265 3526 
Q 2061 3821 1670 3821 
Q 1267 3821 1069 3514 
Q 870 3219 870 2342 
L 870 1997 
z
" transform="scale(0.015625)"/>
       <path id="CMUBright-SemiBold-3c3" d="M 275 1485 
Q 275 2067 646 2502 
Q 1018 2938 1581 3008 
Q 1677 3021 1875 3021 
L 3635 3021 
L 3635 2406 
L 2963 2406 
Q 3258 1978 3258 1491 
Q 3258 845 2816 397 
Q 2374 -51 1766 -51 
Q 1158 -51 716 390 
Q 275 832 275 1485 
z
M 896 1485 
Q 896 1114 1142 838 
Q 1389 563 1766 563 
Q 2118 563 2380 828 
Q 2643 1094 2643 1485 
Q 2643 1882 2380 2144 
Q 2118 2406 1766 2406 
Q 1414 2406 1155 2144 
Q 896 1882 896 1485 
z
" transform="scale(0.015625)"/>
       <path id="CMUBright-SemiBold-31" d="M 570 3398 
L 570 3885 
Q 1459 3885 1914 4301 
L 2067 4301 
L 2067 480 
L 2893 480 
L 2893 0 
L 608 0 
L 608 480 
L 1446 480 
L 1446 3533 
Q 1062 3398 570 3398 
z
" transform="scale(0.015625)"/>
       <path id="CMUBright-SemiBold-29" d="M 371 -1421 
Q 525 -1267 614 -1164 
Q 704 -1062 893 -768 
Q 1082 -474 1194 -173 
Q 1306 128 1398 624 
Q 1491 1120 1491 1690 
Q 1491 2246 1404 2732 
Q 1318 3219 1206 3523 
Q 1094 3827 921 4105 
Q 749 4384 646 4502 
Q 544 4621 416 4755 
Q 384 4787 371 4800 
L 851 4800 
Q 2106 3731 2106 1689 
Q 2106 -352 851 -1421 
L 371 -1421 
z
" transform="scale(0.015625)"/>
      </defs>
      <use xlink:href="#STIXGeneral-Regular-1d53c"/>
      <use xlink:href="#CMUBright-SemiBold-28" transform="translate(62.199997 0)"/>
      <use xlink:href="#CMUBright-SemiBold-78" transform="translate(102.999985 0)"/>
      <use xlink:href="#CMUBright-SemiBold-2c" transform="translate(148.799973 0)"/>
      <use xlink:href="#CMUBright-SemiBold-3bc" transform="translate(197.482391 0)"/>
      <use xlink:href="#CMUBright-SemiBold-3d" transform="translate(275.264801 0)"/>
      <use xlink:href="#CMUBright-SemiBold-30" transform="translate(358.94722 0)"/>
      <use xlink:href="#CMUBright-SemiBold-2c" transform="translate(411.447205 0)"/>
      <use xlink:href="#CMUBright-SemiBold-3c3" transform="translate(460.129623 0)"/>
      <use xlink:href="#CMUBright-SemiBold-3d" transform="translate(539.412033 0)"/>
      <use xlink:href="#CMUBright-SemiBold-31" transform="translate(623.094452 0)"/>
      <use xlink:href="#CMUBright-SemiBold-29" transform="translate(675.594437 0)"/>
     </g>
    </g>
   </g>
   <g id="line2d_8">
    <path d="M 179.182657 284.341962 
L 183.581955 283.418346 
L 187.706297 282.319804 
L 191.280726 281.149428 
L 194.855156 279.741281 
L 198.15463 278.198806 
L 201.179147 276.553106 
L 204.203665 274.659775 
L 207.228182 272.492569 
L 209.977744 270.262029 
L 212.727305 267.762322 
L 215.476866 264.972959 
L 218.226428 261.873816 
L 220.975989 258.445494 
L 223.72555 254.669722 
L 226.475112 250.529788 
L 229.224673 246.011 
L 232.249191 240.588295 
L 235.273708 234.680488 
L 238.298225 228.280763 
L 241.597699 220.737394 
L 244.897173 212.615772 
L 248.471602 203.186644 
L 252.320988 192.342738 
L 256.44533 180.009608 
L 261.119585 165.283475 
L 266.893663 146.310584 
L 281.191382 98.962694 
L 285.315725 86.229097 
L 288.890154 75.890013 
L 291.914672 67.774192 
L 294.664233 60.984215 
L 297.138838 55.409594 
L 299.613444 50.390381 
L 301.813093 46.428882 
L 303.737786 43.370354 
L 305.662478 40.708959 
L 307.587171 38.458482 
L 309.236908 36.865516 
L 310.886645 35.589244 
L 312.261426 34.771202 
L 313.636206 34.178739 
L 315.010987 33.813456 
L 316.385768 33.676339 
L 317.760548 33.767759 
L 319.135329 34.087468 
L 320.51011 34.634603 
L 321.88489 35.407686 
L 323.259671 36.404635 
L 324.909408 37.89266 
L 326.559145 39.69342 
L 328.208882 41.799998 
L 330.133574 44.633397 
L 332.058267 47.857421 
L 334.257916 51.999084 
L 336.457566 56.601946 
L 338.932171 62.293937 
L 341.681732 69.201894 
L 344.70625 77.431401 
L 348.005723 87.053664 
L 351.855109 98.962694 
L 356.804319 115.036286 
L 375.776293 177.463675 
L 380.175591 190.73894 
L 384.024977 201.67998 
L 387.599407 211.207092 
L 391.173836 220.082494 
L 394.47331 227.674497 
L 397.497827 234.11908 
L 400.522345 240.071409 
L 403.546862 245.53779 
L 406.57138 250.529788 
L 409.595897 255.063425 
L 412.345459 258.80367 
L 415.09502 262.19823 
L 417.844581 265.265508 
L 420.594143 268.024991 
L 423.343704 270.496856 
L 426.368222 272.908187 
L 429.392739 275.023607 
L 432.417257 276.869989 
L 435.71673 278.608 
L 439.016204 280.089209 
L 442.590633 281.439348 
L 446.440019 282.63735 
L 450.564361 283.671344 
L 453.863835 284.341962 
L 453.863835 284.341962 
" style="fill: none; stroke: #e29400; stroke-width: 2; stroke-linecap: square"/>
   </g>
   <g id="line2d_9">
    <defs>
     <path id="m32b190bbd4" d="M 0 3 
C 0.795609 3 1.55874 2.683901 2.12132 2.12132 
C 2.683901 1.55874 3 0.795609 3 0 
C 3 -0.795609 2.683901 -1.55874 2.12132 -2.12132 
C 1.55874 -2.683901 0.795609 -3 0 -3 
C -0.795609 -3 -1.55874 -2.683901 -2.12132 -2.12132 
C -2.683901 -1.55874 -3 -0.795609 -3 0 
C -3 0.795609 -2.683901 1.55874 -2.12132 2.12132 
C -1.55874 2.683901 -0.795609 3 0 3 
z
" style="stroke: #000000"/>
    </defs>
    <g>
     <use xlink:href="#m32b190bbd4" x="329.931397" y="58.115204" style="fill: #1e90ff; stroke: #000000"/>
     <use xlink:href="#m32b190bbd4" x="375.631715" y="168.885333" style="fill: #1e90ff; stroke: #000000"/>
     <use xlink:href="#m32b190bbd4" x="344.750411" y="82.459457" style="fill: #1e90ff; stroke: #000000"/>
     <use xlink:href="#m32b190bbd4" x="328.851811" y="52.560267" style="fill: #1e90ff; stroke: #000000"/>
     <use xlink:href="#m32b190bbd4" x="295.552656" y="46.268479" style="fill: #1e90ff; stroke: #000000"/>
     <use xlink:href="#m32b190bbd4" x="356.597613" y="138.919537" style="fill: #1e90ff; stroke: #000000"/>
     <use xlink:href="#m32b190bbd4" x="299.379627" y="47.681443" style="fill: #1e90ff; stroke: #000000"/>
     <use xlink:href="#m32b190bbd4" x="424.135915" y="271.555641" style="fill: #1e90ff; stroke: #000000"/>
     <use xlink:href="#m32b190bbd4" x="443.882679" y="283.64146" style="fill: #1e90ff; stroke: #000000"/>
     <use xlink:href="#m32b190bbd4" x="284.506825" y="91.088515" style="fill: #1e90ff; stroke: #000000"/>
     <use xlink:href="#m32b190bbd4" x="396.654623" y="226.670845" style="fill: #1e90ff; stroke: #000000"/>
     <use xlink:href="#m32b190bbd4" x="324.460136" y="50.067715" style="fill: #1e90ff; stroke: #000000"/>
     <use xlink:href="#m32b190bbd4" x="335.213806" y="56.815553" style="fill: #1e90ff; stroke: #000000"/>
     <use xlink:href="#m32b190bbd4" x="433.426632" y="266.687358" style="fill: #1e90ff; stroke: #000000"/>
     <use xlink:href="#m32b190bbd4" x="198.694925" y="286.051277" style="fill: #1e90ff; stroke: #000000"/>
     <use xlink:href="#m32b190bbd4" x="203.115435" y="281.463496" style="fill: #1e90ff; stroke: #000000"/>
     <use xlink:href="#m32b190bbd4" x="184.73627" y="279.178816" style="fill: #1e90ff; stroke: #000000"/>
     <use xlink:href="#m32b190bbd4" x="407.887657" y="262.419553" style="fill: #1e90ff; stroke: #000000"/>
     <use xlink:href="#m32b190bbd4" x="392.92767" y="228.096585" style="fill: #1e90ff; stroke: #000000"/>
     <use xlink:href="#m32b190bbd4" x="418.158619" y="270.253564" style="fill: #1e90ff; stroke: #000000"/>
     <use xlink:href="#m32b190bbd4" x="447.990696" y="268.825" style="fill: #1e90ff; stroke: #000000"/>
     <use xlink:href="#m32b190bbd4" x="398.696473" y="242.355864" style="fill: #1e90ff; stroke: #000000"/>
     <use xlink:href="#m32b190bbd4" x="305.942352" y="34.950091" style="fill: #1e90ff; stroke: #000000"/>
     <use xlink:href="#m32b190bbd4" x="393.579331" y="226.030613" style="fill: #1e90ff; stroke: #000000"/>
     <use xlink:href="#m32b190bbd4" x="211.670415" y="249.999836" style="fill: #1e90ff; stroke: #000000"/>
     <use xlink:href="#m32b190bbd4" x="354.956917" y="100.741102" style="fill: #1e90ff; stroke: #000000"/>
     <use xlink:href="#m32b190bbd4" x="218.559106" y="266.106756" style="fill: #1e90ff; stroke: #000000"/>
     <use xlink:href="#m32b190bbd4" x="438.665428" y="256.799386" style="fill: #1e90ff; stroke: #000000"/>
     <use xlink:href="#m32b190bbd4" x="322.524569" y="40.337672" style="fill: #1e90ff; stroke: #000000"/>
     <use xlink:href="#m32b190bbd4" x="293.082487" y="74.23083" style="fill: #1e90ff; stroke: #000000"/>
     <use xlink:href="#m32b190bbd4" x="251.851104" y="202.28067" style="fill: #1e90ff; stroke: #000000"/>
     <use xlink:href="#m32b190bbd4" x="391.850079" y="223.373359" style="fill: #1e90ff; stroke: #000000"/>
     <use xlink:href="#m32b190bbd4" x="304.478567" y="34.421951" style="fill: #1e90ff; stroke: #000000"/>
     <use xlink:href="#m32b190bbd4" x="335.320764" y="31.40565" style="fill: #1e90ff; stroke: #000000"/>
     <use xlink:href="#m32b190bbd4" x="184.343861" y="281.060694" style="fill: #1e90ff; stroke: #000000"/>
     <use xlink:href="#m32b190bbd4" x="348.835503" y="111.494231" style="fill: #1e90ff; stroke: #000000"/>
     <use xlink:href="#m32b190bbd4" x="347.313831" y="82.944566" style="fill: #1e90ff; stroke: #000000"/>
     <use xlink:href="#m32b190bbd4" x="348.642814" y="99.894491" style="fill: #1e90ff; stroke: #000000"/>
     <use xlink:href="#m32b190bbd4" x="438.412491" y="282.45912" style="fill: #1e90ff; stroke: #000000"/>
     <use xlink:href="#m32b190bbd4" x="366.46586" y="141.147249" style="fill: #1e90ff; stroke: #000000"/>
     <use xlink:href="#m32b190bbd4" x="277.93271" y="120.126416" style="fill: #1e90ff; stroke: #000000"/>
     <use xlink:href="#m32b190bbd4" x="299.227109" y="46.29193" style="fill: #1e90ff; stroke: #000000"/>
     <use xlink:href="#m32b190bbd4" x="370.808816" y="174.25704" style="fill: #1e90ff; stroke: #000000"/>
     <use xlink:href="#m32b190bbd4" x="195.72546" y="266.423397" style="fill: #1e90ff; stroke: #000000"/>
     <use xlink:href="#m32b190bbd4" x="362.330924" y="129.164358" style="fill: #1e90ff; stroke: #000000"/>
    </g>
   </g>
   <g id="patch_3">
    <path d="M 167.182657 287.157901 
L 167.182657 33.003135 
" style="fill: none; stroke: #ebebeb; stroke-width: 0.8; stroke-linejoin: miter; stroke-linecap: square"/>
   </g>
   <g id="patch_4">
    <path d="M 179.182657 299.157901 
L 453.863835 299.157901 
" style="fill: none; stroke: #ebebeb; stroke-width: 0.8; stroke-linejoin: miter; stroke-linecap: square"/>
   </g>
   <g id="text_10">
    <!-- Calculated -->
    <g style="fill: #e29400" transform="translate(181.447635 157.073955) scale(0.18 -0.18)">
     <defs>
      <path id="CMUBright-Roman-43" d="M 777 1085 
Q 518 1613 518 2221 
Q 518 2829 777 3357 
Q 1037 3885 1533 4217 
Q 2029 4550 2643 4550 
Q 3251 4550 3878 4333 
L 3795 3891 
Q 3597 4000 3485 4051 
Q 3373 4102 3136 4156 
Q 2899 4211 2637 4211 
Q 1920 4211 1443 3625 
Q 966 3040 966 2221 
Q 966 1414 1440 822 
Q 1914 230 2643 230 
Q 2970 230 3222 297 
Q 3475 365 3568 413 
Q 3661 461 3917 621 
L 3949 250 
Q 3718 122 3590 61 
Q 3462 0 3212 -54 
Q 2963 -109 2643 -109 
Q 2029 -109 1533 224 
Q 1037 557 777 1085 
z
" transform="scale(0.015625)"/>
      <path id="CMUBright-Roman-61" d="M 352 736 
Q 352 896 435 1046 
Q 518 1197 707 1347 
Q 896 1498 1283 1590 
Q 1670 1683 2214 1696 
L 2214 1965 
Q 2214 2381 2042 2579 
Q 1856 2803 1568 2803 
Q 1331 2803 1107 2736 
Q 883 2669 809 2624 
Q 736 2579 557 2470 
L 525 2829 
Q 1043 3104 1574 3104 
Q 2054 3104 2326 2806 
Q 2598 2509 2624 2144 
L 2630 1926 
L 2630 0 
L 2227 0 
L 2227 442 
Q 1830 -51 1107 -51 
L 1062 -51 
Q 710 -51 531 205 
Q 352 461 352 736 
z
M 749 749 
Q 749 518 950 393 
Q 1152 269 1408 269 
Q 1523 269 1644 297 
Q 1766 326 1904 390 
Q 2042 454 2128 595 
Q 2214 736 2214 928 
L 2214 1498 
Q 1568 1491 1158 1286 
Q 749 1082 749 749 
z
" transform="scale(0.015625)"/>
      <path id="CMUBright-Roman-6c" d="M 512 0 
L 512 4448 
L 915 4448 
L 915 0 
L 512 0 
z
" transform="scale(0.015625)"/>
      <path id="CMUBright-Roman-63" d="M 294 1517 
Q 294 2157 691 2630 
Q 1088 3104 1709 3104 
Q 2042 3104 2250 3046 
Q 2458 2989 2758 2829 
L 2694 2477 
Q 2502 2592 2403 2640 
Q 2304 2688 2125 2729 
Q 1946 2771 1709 2771 
Q 1254 2771 982 2432 
Q 710 2093 710 1523 
Q 717 915 1008 598 
Q 1299 282 1696 282 
Q 1958 282 2192 365 
Q 2426 448 2525 518 
Q 2624 589 2765 710 
L 2797 352 
Q 2304 -51 1690 -51 
Q 1107 -51 700 403 
Q 294 858 294 1517 
z
" transform="scale(0.015625)"/>
      <path id="CMUBright-Roman-75" d="M 512 851 
L 512 3021 
L 928 3021 
L 928 781 
Q 928 486 1037 368 
Q 1146 250 1517 250 
Q 1875 250 2124 477 
Q 2374 704 2374 1120 
L 2374 3021 
L 2784 3021 
L 2784 0 
L 2381 0 
L 2381 550 
Q 2214 269 1910 109 
Q 1606 -51 1254 -51 
Q 1005 -51 845 29 
Q 685 109 617 262 
Q 550 416 531 541 
Q 512 666 512 851 
z
" transform="scale(0.015625)"/>
      <path id="CMUBright-Roman-74" d="M 122 2701 
L 122 3021 
L 736 3021 
L 736 3885 
L 1126 3885 
L 1126 3021 
L 2118 3021 
L 2118 2701 
L 1126 2701 
L 1126 883 
Q 1126 282 1491 282 
Q 1568 282 1638 291 
Q 1709 301 1769 323 
Q 1830 346 1878 365 
Q 1926 384 1974 416 
Q 2022 448 2048 464 
Q 2074 480 2109 512 
Q 2144 544 2150 544 
L 2234 230 
Q 1779 -51 1261 -51 
Q 730 -51 730 838 
L 730 2701 
L 122 2701 
z
" transform="scale(0.015625)"/>
      <path id="CMUBright-Roman-65" d="M 269 1536 
Q 269 2163 646 2630 
Q 1024 3098 1587 3098 
Q 1786 3098 1968 3037 
Q 2150 2976 2342 2829 
Q 2534 2682 2652 2365 
Q 2771 2048 2771 1600 
L 653 1600 
L 653 1549 
Q 653 966 966 617 
Q 1280 269 1690 269 
Q 2234 269 2726 710 
L 2758 358 
Q 2266 -51 1690 -51 
Q 1101 -51 685 406 
Q 269 864 269 1536 
z
M 685 1856 
L 2426 1856 
Q 2381 2342 2134 2560 
Q 1888 2778 1587 2778 
Q 1261 2778 1008 2515 
Q 755 2253 685 1856 
z
" transform="scale(0.015625)"/>
      <path id="CMUBright-Roman-64" d="M 294 1510 
Q 294 2189 659 2630 
Q 1024 3072 1504 3072 
Q 2016 3072 2381 2624 
L 2381 4448 
L 2784 4448 
L 2784 0 
L 2374 0 
L 2374 269 
L 2368 467 
Q 2016 -51 1459 -51 
Q 966 -51 630 413 
Q 294 877 294 1510 
z
M 710 1510 
Q 710 1139 809 876 
Q 909 614 1065 492 
Q 1222 371 1369 320 
Q 1517 269 1664 269 
Q 2022 269 2259 582 
Q 2278 614 2304 652 
Q 2330 691 2339 707 
Q 2349 723 2358 752 
Q 2368 781 2371 816 
Q 2374 851 2374 902 
L 2374 2253 
Q 2374 2438 2179 2595 
Q 1984 2752 1722 2752 
Q 1619 2752 1504 2726 
Q 1389 2701 1241 2621 
Q 1094 2541 982 2413 
Q 870 2285 790 2048 
Q 710 1811 710 1510 
z
" transform="scale(0.015625)"/>
     </defs>
     <use xlink:href="#CMUBright-Roman-43"/>
     <use xlink:href="#CMUBright-Roman-61" x="67.099991"/>
     <use xlink:href="#CMUBright-Roman-6c" x="116.299988"/>
     <use xlink:href="#CMUBright-Roman-63" x="138.799973"/>
     <use xlink:href="#CMUBright-Roman-75" x="185.499969"/>
     <use xlink:href="#CMUBright-Roman-6c" x="237.199966"/>
     <use xlink:href="#CMUBright-Roman-61" x="259.699951"/>
     <use xlink:href="#CMUBright-Roman-74" x="308.899948"/>
     <use xlink:href="#CMUBright-Roman-65" x="346.799942"/>
     <use xlink:href="#CMUBright-Roman-64" x="393.499939"/>
    </g>
   </g>
   <g id="text_11">
    <!-- Measured -->
    <g style="fill: #1e90ff" transform="translate(348.569383 48.69007) scale(0.18 -0.18)">
     <defs>
      <path id="CMUBright-Roman-4d" d="M 646 0 
L 646 4448 
L 1235 4448 
L 2528 1274 
L 2822 518 
L 2912 774 
L 4397 4448 
L 4992 4448 
L 4992 0 
L 4589 0 
L 4589 4032 
L 4090 2752 
L 3008 109 
L 2624 109 
L 1280 3418 
L 1050 4032 
L 1050 0 
L 646 0 
z
" transform="scale(0.015625)"/>
      <path id="CMUBright-Roman-73" d="M 186 250 
L 250 621 
Q 787 282 1325 282 
Q 1715 282 1881 442 
Q 2048 602 2048 806 
Q 2048 998 1910 1120 
Q 1773 1242 1606 1299 
Q 1536 1318 1235 1372 
Q 934 1427 726 1523 
Q 518 1619 371 1818 
Q 224 2022 224 2253 
Q 224 2400 272 2531 
Q 320 2662 429 2800 
Q 538 2938 765 3021 
Q 992 3104 1312 3104 
L 1331 3104 
Q 1818 3104 2304 2886 
L 2240 2534 
Q 1747 2784 1267 2784 
Q 890 2784 742 2633 
Q 595 2483 595 2304 
Q 595 2163 697 2038 
Q 800 1914 998 1856 
Q 1037 1843 1344 1782 
Q 1651 1722 1760 1683 
Q 2029 1587 2224 1372 
Q 2419 1158 2419 845 
Q 2419 499 2172 224 
Q 1926 -51 1331 -51 
Q 736 -51 186 250 
z
" transform="scale(0.015625)"/>
      <path id="CMUBright-Roman-72" d="M 512 0 
L 512 3021 
L 896 3021 
L 896 2534 
L 902 2234 
Q 954 2362 1043 2490 
Q 1133 2618 1273 2755 
Q 1414 2893 1632 2979 
Q 1850 3066 2112 3072 
L 2112 2714 
Q 1907 2707 1708 2643 
Q 1510 2579 1324 2444 
Q 1139 2310 1027 2070 
Q 915 1830 915 1510 
L 915 0 
L 512 0 
z
" transform="scale(0.015625)"/>
     </defs>
     <use xlink:href="#CMUBright-Roman-4d"/>
     <use xlink:href="#CMUBright-Roman-65" x="88.299988"/>
     <use xlink:href="#CMUBright-Roman-61" x="134.999985"/>
     <use xlink:href="#CMUBright-Roman-73" x="184.199982"/>
     <use xlink:href="#CMUBright-Roman-75" x="224.399979"/>
     <use xlink:href="#CMUBright-Roman-72" x="276.099976"/>
     <use xlink:href="#CMUBright-Roman-65" x="310.699966"/>
     <use xlink:href="#CMUBright-Roman-64" x="357.399963"/>
    </g>
   </g>
   <g id="text_12">
    <!-- 68.27% -->
    <g style="fill: #ebebeb" transform="translate(287.119965 236.49732) scale(0.18 -0.18)">
     <defs>
      <path id="CMUBright-Roman-36" d="M 346 2061 
Q 346 3072 864 3686 
Q 1382 4301 2074 4301 
L 2086 4301 
Q 2426 4301 2797 4179 
L 2797 3846 
Q 2374 3981 2074 3981 
L 2061 3981 
Q 1478 3981 1123 3491 
Q 768 3002 768 2208 
Q 768 2195 771 2166 
Q 774 2138 774 2125 
Q 928 2445 1238 2665 
Q 1549 2886 1952 2886 
Q 2387 2886 2682 2483 
Q 3008 2029 3008 1408 
Q 3008 768 2618 326 
Q 2240 -109 1690 -109 
Q 1510 -109 1340 -57 
Q 1171 -6 985 141 
Q 800 288 662 521 
Q 525 755 435 1152 
Q 346 1549 346 2061 
z
M 794 1389 
Q 813 1171 854 1004 
Q 896 838 985 643 
Q 1075 448 1254 336 
Q 1434 224 1690 224 
Q 2138 224 2381 550 
Q 2515 736 2550 921 
Q 2586 1107 2586 1434 
Q 2586 1645 2573 1776 
Q 2560 1907 2480 2089 
Q 2400 2272 2253 2400 
Q 2054 2566 1728 2566 
Q 1325 2566 1062 2265 
Q 800 1965 800 1555 
Q 800 1440 806 1389 
L 794 1389 
z
" transform="scale(0.015625)"/>
      <path id="CMUBright-Roman-38" d="M 275 1158 
Q 275 1517 518 1817 
Q 762 2118 1248 2266 
Q 909 2349 640 2598 
Q 371 2848 371 3206 
Q 371 3642 745 3971 
Q 1120 4301 1677 4301 
Q 2221 4301 2601 3981 
Q 2982 3661 2982 3213 
Q 2982 2918 2787 2684 
Q 2592 2451 2285 2323 
L 2099 2266 
Q 2464 2176 2768 1885 
Q 3072 1594 3072 1158 
Q 3072 646 2665 268 
Q 2259 -109 1670 -109 
Q 1075 -109 675 275 
Q 275 659 275 1158 
z
M 698 1158 
Q 698 704 970 464 
Q 1242 224 1670 224 
Q 2118 224 2384 470 
Q 2650 717 2650 1165 
Q 2650 1619 2371 1862 
Q 2093 2106 1670 2106 
Q 1280 2106 989 1878 
Q 698 1651 698 1158 
z
M 755 3206 
Q 755 2886 982 2656 
Q 1210 2426 1670 2426 
Q 2093 2426 2342 2634 
Q 2592 2842 2592 3206 
Q 2592 3507 2387 3744 
Q 2182 3981 1683 3981 
Q 1171 3981 963 3744 
Q 755 3507 755 3206 
z
" transform="scale(0.015625)"/>
      <path id="CMUBright-Roman-32" d="M 275 3226 
Q 595 4301 1587 4301 
L 1594 4301 
Q 2214 4294 2617 3923 
Q 3021 3552 3021 2989 
Q 3021 2746 2937 2531 
Q 2854 2317 2668 2115 
Q 2483 1914 2384 1821 
Q 2285 1728 2061 1549 
Q 1754 1299 1642 1203 
Q 1530 1107 698 358 
L 3021 358 
L 3021 0 
L 333 0 
L 333 339 
L 1683 1562 
Q 2144 1965 2368 2278 
Q 2592 2592 2592 2982 
Q 2592 3418 2278 3690 
Q 1965 3962 1498 3962 
Q 1069 3962 854 3693 
Q 640 3424 512 2938 
L 275 3226 
z
" transform="scale(0.015625)"/>
      <path id="CMUBright-Roman-37" d="M 275 3840 
L 275 4192 
L 3072 4192 
L 3072 3853 
Q 2400 3149 1958 2147 
Q 1517 1146 1517 -51 
L 1088 -51 
Q 1088 1030 1523 2048 
Q 1958 3066 2797 3840 
L 275 3840 
z
" transform="scale(0.015625)"/>
      <path id="CMUBright-Roman-25" d="M 371 3514 
Q 371 4083 656 4441 
Q 941 4800 1306 4800 
Q 1690 4800 1965 4425 
Q 2240 4051 2240 3507 
Q 2240 2976 1968 2598 
Q 1696 2221 1312 2221 
Q 941 2221 656 2585 
Q 371 2950 371 3514 
z
M 762 3514 
Q 762 2944 954 2720 
Q 1094 2547 1306 2547 
Q 1549 2547 1705 2835 
Q 1862 3123 1862 3514 
Q 1862 3936 1699 4205 
Q 1536 4474 1306 4474 
Q 1165 4474 1037 4374 
Q 909 4275 845 4096 
Q 762 3878 762 3514 
z
M 1190 -224 
Q 1190 -198 1248 -83 
L 4166 4710 
Q 4230 4794 4294 4794 
Q 4346 4794 4381 4758 
Q 4416 4723 4416 4672 
Q 4416 4627 4326 4480 
L 1427 -282 
Q 1382 -352 1312 -352 
Q 1261 -352 1225 -313 
Q 1190 -275 1190 -224 
z
M 3354 934 
Q 3354 1466 3629 1843 
Q 3904 2221 4288 2221 
Q 4672 2221 4947 1843 
Q 5222 1466 5222 928 
Q 5222 397 4950 22 
Q 4678 -352 4294 -352 
Q 3923 -352 3638 9 
Q 3354 371 3354 934 
z
M 3750 934 
Q 3750 365 3942 141 
Q 4083 -32 4288 -32 
Q 4531 -32 4691 256 
Q 4851 544 4851 934 
Q 4851 1357 4684 1629 
Q 4518 1901 4288 1901 
Q 4147 1901 4019 1801 
Q 3891 1702 3827 1523 
Q 3750 1318 3750 934 
z
" transform="scale(0.015625)"/>
     </defs>
     <use xlink:href="#CMUBright-Roman-36"/>
     <use xlink:href="#CMUBright-Roman-38" x="52.499985"/>
     <use xlink:href="#CMUBright-Roman-2e" x="104.999969"/>
     <use xlink:href="#CMUBright-Roman-32" x="134.199966"/>
     <use xlink:href="#CMUBright-Roman-37" x="186.699951"/>
     <use xlink:href="#CMUBright-Roman-25" x="239.199936"/>
    </g>
   </g>
   <g id="patch_5">
    <path d="M 359.187554 242.680817 
Q 316.523315 242.680817 273.859076 242.680817 
" style="fill: none; stroke: #ebebeb; stroke-linecap: round"/>
    <path d="M 351.987554 239.080817 
L 359.187554 242.680817 
L 351.987554 246.280817 
L 351.987554 239.080817 
z
" style="fill: #ebebeb; stroke: #ebebeb; stroke-linecap: round"/>
    <path d="M 281.059076 246.280817 
L 273.859076 242.680817 
L 281.059076 239.080817 
L 281.059076 246.280817 
z
" style="fill: #ebebeb; stroke: #ebebeb; stroke-linecap: round"/>
   </g>
  </g>
  <g id="text_13">
   <!-- doumont-dark style -->
   <g style="fill: #ebebeb" transform="translate(141.362437 18.01224) scale(0.216 -0.216)">
    <defs>
     <path id="CMUBright-Roman-6f" d="M 256 1510 
Q 256 2182 675 2640 
Q 1094 3098 1677 3098 
Q 2272 3098 2681 2627 
Q 3091 2157 3091 1510 
Q 3091 838 2668 393 
Q 2246 -51 1677 -51 
Q 1088 -51 672 406 
Q 256 864 256 1510 
z
M 666 1587 
Q 666 1190 771 915 
Q 877 640 1046 512 
Q 1216 384 1369 333 
Q 1523 282 1677 282 
Q 1843 282 2006 342 
Q 2170 403 2330 537 
Q 2490 672 2586 937 
Q 2682 1203 2682 1568 
Q 2682 1914 2586 2163 
Q 2490 2413 2330 2541 
Q 2170 2669 2006 2723 
Q 1843 2778 1676 2778 
Q 1510 2778 1347 2723 
Q 1184 2669 1024 2544 
Q 864 2419 765 2172 
Q 666 1926 666 1587 
z
" transform="scale(0.015625)"/>
     <path id="CMUBright-Roman-6d" d="M 512 0 
L 512 3021 
L 909 3021 
L 909 2400 
Q 1011 2650 1251 2861 
Q 1491 3072 1875 3072 
Q 2138 3072 2320 2998 
Q 2502 2925 2592 2797 
Q 2682 2669 2710 2595 
Q 2739 2522 2765 2413 
Q 2771 2394 2771 2387 
Q 2886 2650 3123 2861 
Q 3360 3072 3744 3072 
Q 4000 3072 4182 2992 
Q 4365 2912 4454 2813 
Q 4544 2714 4592 2544 
Q 4640 2374 4646 2272 
Q 4653 2170 4653 2016 
L 4653 0 
L 4243 0 
L 4243 1990 
Q 4243 2106 4236 2176 
Q 4230 2246 4192 2368 
Q 4154 2490 4083 2563 
Q 4013 2637 3869 2694 
Q 3725 2752 3520 2752 
Q 3174 2752 2982 2470 
Q 2790 2189 2790 1728 
L 2790 0 
L 2374 0 
L 2374 1990 
Q 2374 2106 2371 2176 
Q 2368 2246 2329 2368 
Q 2291 2490 2220 2563 
Q 2150 2637 2006 2694 
Q 1862 2752 1658 2752 
Q 1312 2752 1117 2470 
Q 922 2189 922 1728 
Q 922 1715 925 1702 
Q 928 1690 928 1677 
L 928 0 
L 512 0 
z
" transform="scale(0.015625)"/>
     <path id="CMUBright-Roman-6e" d="M 512 0 
L 512 3021 
L 909 3021 
L 909 2400 
Q 1030 2682 1273 2877 
Q 1517 3072 1869 3072 
Q 2125 3072 2307 2992 
Q 2490 2912 2579 2809 
Q 2669 2707 2720 2540 
Q 2771 2374 2777 2272 
Q 2784 2170 2784 2016 
L 2784 0 
L 2374 0 
L 2374 1990 
Q 2374 2106 2371 2176 
Q 2368 2246 2329 2368 
Q 2291 2490 2220 2563 
Q 2150 2637 2006 2694 
Q 1862 2752 1658 2752 
Q 1370 2752 1149 2518 
Q 928 2285 928 1677 
L 928 0 
L 512 0 
z
" transform="scale(0.015625)"/>
     <path id="CMUBright-Roman-6b" d="M 525 0 
L 525 4448 
L 909 4448 
L 909 1568 
L 2349 3021 
L 2854 3021 
L 1722 1882 
L 3002 0 
L 2560 0 
L 1459 1613 
L 902 1056 
L 902 0 
L 525 0 
z
" transform="scale(0.015625)"/>
     <path id="CMUBright-Roman-20" transform="scale(0.015625)"/>
     <path id="CMUBright-Roman-79" d="M 90 3021 
L 506 3021 
L 1171 1370 
Q 1446 640 1498 416 
Q 1542 723 2432 3021 
L 2835 3021 
L 1574 -250 
Q 1504 -435 1443 -553 
Q 1382 -672 1276 -819 
Q 1171 -966 1020 -1043 
Q 870 -1120 685 -1120 
Q 454 -1120 186 -1075 
L 154 -717 
Q 448 -794 685 -794 
Q 787 -794 873 -749 
Q 960 -704 1008 -665 
Q 1056 -627 1120 -499 
Q 1184 -371 1200 -326 
Q 1216 -282 1286 -102 
Q 1312 -32 1312 6 
Q 1312 38 1274 128 
L 90 3021 
z
" transform="scale(0.015625)"/>
    </defs>
    <use xlink:href="#CMUBright-Roman-64"/>
    <use xlink:href="#CMUBright-Roman-6f" x="51.699997"/>
    <use xlink:href="#CMUBright-Roman-75" x="104.199982"/>
    <use xlink:href="#CMUBright-Roman-6d" x="155.899979"/>
    <use xlink:href="#CMUBright-Roman-6f" x="236.699966"/>
    <use xlink:href="#CMUBright-Roman-6e" x="289.199951"/>
    <use xlink:href="#CMUBright-Roman-74" x="340.899948"/>
    <use xlink:href="#CMUBright-Roman-2d" x="378.799942"/>
    <use xlink:href="#CMUBright-Roman-64" x="413.799927"/>
    <use xlink:href="#CMUBright-Roman-61" x="465.499924"/>
    <use xlink:href="#CMUBright-Roman-72" x="514.699921"/>
    <use xlink:href="#CMUBright-Roman-6b" x="549.299911"/>
    <use xlink:href="#CMUBright-Roman-20" x="597.999908"/>
    <use xlink:href="#CMUBright-Roman-73" x="631.299896"/>
    <use xlink:href="#CMUBright-Roman-74" x="671.499893"/>
    <use xlink:href="#CMUBright-Roman-79" x="709.399887"/>
    <use xlink:href="#CMUBright-Roman-6c" x="755.199875"/>
    <use xlink:href="#CMUBright-Roman-65" x="777.69986"/>
   </g>
  </g>
 </g>
 <defs>
  <clipPath id="p04004b9774">
   <rect x="179.182657" y="33.003135" width="274.681178" height="254.154766"/>
  </clipPath>
 </defs>
</svg>
