<?xml version="1.0" encoding="utf-8" standalone="no"?>
<!DOCTYPE svg PUBLIC "-//W3C//DTD SVG 1.1//EN"
  "http://www.w3.org/Graphics/SVG/1.1/DTD/svg11.dtd">
<svg xmlns:xlink="http://www.w3.org/1999/xlink" width="460.8pt" height="345.6pt" viewBox="0 0 460.8 345.6" xmlns="http://www.w3.org/2000/svg" version="1.1">
 <metadata>
  <rdf:RDF xmlns:dc="http://purl.org/dc/elements/1.1/" xmlns:cc="http://creativecommons.org/ns#" xmlns:rdf="http://www.w3.org/1999/02/22-rdf-syntax-ns#">
   <cc:Work>
    <dc:type rdf:resource="http://purl.org/dc/dcmitype/StillImage"/>
    <dc:date>2023-01-23T20:43:06.726316</dc:date>
    <dc:format>image/svg+xml</dc:format>
    <dc:creator>
     <cc:Agent>
      <dc:title>Matplotlib v3.6.2, https://matplotlib.org/</dc:title>
     </cc:Agent>
    </dc:creator>
   </cc:Work>
  </rdf:RDF>
 </metadata>
 <defs>
  <style type="text/css">*{stroke-linejoin: round; stroke-linecap: butt}</style>
 </defs>
 <g id="figure_1">
  <g id="patch_1">
   <path d="M 0 345.6 
L 460.8 345.6 
L 460.8 0 
L 0 0 
z
" style="fill: #ffffff"/>
  </g>
  <g id="axes_1">
   <g id="patch_2">
    <path d="M 179.182657 287.157901 
L 453.863835 287.157901 
L 453.863835 33.198885 
L 179.182657 33.198885 
z
" style="fill: #ffffff"/>
   </g>
   <g id="PolyCollection_1">
    <path d="M 270.743049 287.157901 
L 270.743049 133.531283 
L 271.018006 132.608612 
L 271.292962 131.686007 
L 271.567918 130.763537 
L 271.842874 129.841268 
L 272.11783 128.919268 
L 272.392786 127.997606 
L 272.667742 127.076351 
L 272.942698 126.155571 
L 273.217655 125.235335 
L 273.492611 124.315714 
L 273.767567 123.396777 
L 274.042523 122.478596 
L 274.317479 121.561239 
L 274.592435 120.644779 
L 274.867391 119.729287 
L 275.142348 118.814834 
L 275.417304 117.901492 
L 275.69226 116.989333 
L 275.967216 116.078429 
L 276.242172 115.168854 
L 276.517128 114.260679 
L 276.792084 113.353979 
L 277.06704 112.448826 
L 277.341997 111.545293 
L 277.616953 110.643456 
L 277.891909 109.743387 
L 278.166865 108.845161 
L 278.441821 107.948851 
L 278.716777 107.054533 
L 278.991733 106.162281 
L 279.26669 105.27217 
L 279.541646 104.384275 
L 279.816602 103.49867 
L 280.091558 102.615431 
L 280.366514 101.734634 
L 280.64147 100.856353 
L 280.916426 99.980663 
L 281.191382 99.107642 
L 281.466339 98.237363 
L 281.741295 97.369902 
L 282.016251 96.505336 
L 282.291207 95.64374 
L 282.566163 94.78519 
L 282.841119 93.929761 
L 283.116075 93.07753 
L 283.391032 92.228571 
L 283.665988 91.38296 
L 283.940944 90.540774 
L 284.2159 89.702088 
L 284.490856 88.866977 
L 284.765812 88.035518 
L 285.040768 87.207784 
L 285.315725 86.383852 
L 285.590681 85.563797 
L 285.865637 84.747694 
L 286.140593 83.935618 
L 286.415549 83.127644 
L 286.690505 82.323847 
L 286.965461 81.5243 
L 287.240417 80.729079 
L 287.515374 79.938258 
L 287.79033 79.151911 
L 288.065286 78.370111 
L 288.340242 77.592932 
L 288.615198 76.820448 
L 288.890154 76.052731 
L 289.16511 75.289855 
L 289.440067 74.531893 
L 289.715023 73.778915 
L 289.989979 73.030996 
L 290.264935 72.288206 
L 290.539891 71.550616 
L 290.814847 70.818299 
L 291.089803 70.091324 
L 291.364759 69.369763 
L 291.639716 68.653686 
L 291.914672 67.943161 
L 292.189628 67.238259 
L 292.464584 66.539049 
L 292.73954 65.8456 
L 293.014496 65.157978 
L 293.289452 64.476253 
L 293.564409 63.800492 
L 293.839365 63.130761 
L 294.114321 62.467127 
L 294.389277 61.809657 
L 294.664233 61.158414 
L 294.939189 60.513466 
L 295.214145 59.874876 
L 295.489101 59.242708 
L 295.764058 58.617025 
L 296.039014 57.997892 
L 296.31397 57.38537 
L 296.588926 56.779521 
L 296.863882 56.180406 
L 297.138838 55.588087 
L 297.413794 55.002623 
L 297.688751 54.424075 
L 297.963707 53.852501 
L 298.238663 53.287959 
L 298.513619 52.730507 
L 298.788575 52.180204 
L 299.063531 51.637104 
L 299.338487 51.101264 
L 299.613444 50.57274 
L 299.8884 50.051585 
L 300.163356 49.537854 
L 300.438312 49.031599 
L 300.713268 48.532874 
L 300.988224 48.04173 
L 301.26318 47.558218 
L 301.538136 47.082389 
L 301.813093 46.614291 
L 302.088049 46.153975 
L 302.363005 45.701488 
L 302.637961 45.256877 
L 302.912917 44.820189 
L 303.187873 44.39147 
L 303.462829 43.970766 
L 303.737786 43.558119 
L 304.012742 43.153574 
L 304.287698 42.757174 
L 304.562654 42.36896 
L 304.83761 41.988973 
L 305.112566 41.617253 
L 305.387522 41.253841 
L 305.662478 40.898774 
L 305.937435 40.552089 
L 306.212391 40.213825 
L 306.487347 39.884017 
L 306.762303 39.562699 
L 307.037259 39.249907 
L 307.312215 38.945673 
L 307.587171 38.650031 
L 307.862128 38.363011 
L 308.137084 38.084644 
L 308.41204 37.81496 
L 308.686996 37.553988 
L 308.961952 37.301756 
L 309.236908 37.058291 
L 309.511864 36.823619 
L 309.78682 36.597765 
L 310.061777 36.380753 
L 310.336733 36.172607 
L 310.611689 35.97335 
L 310.886645 35.783002 
L 311.161601 35.601584 
L 311.436557 35.429116 
L 311.711513 35.265616 
L 311.98647 35.111101 
L 312.261426 34.96559 
L 312.536382 34.829096 
L 312.811338 34.701636 
L 313.086294 34.583222 
L 313.36125 34.473867 
L 313.636206 34.373584 
L 313.911163 34.282383 
L 314.186119 34.200274 
L 314.461075 34.127266 
L 314.736031 34.063366 
L 315.010987 34.008582 
L 315.285943 33.96292 
L 315.560899 33.926384 
L 315.835855 33.898979 
L 316.110812 33.880707 
L 316.385768 33.871571 
L 316.660724 33.871571 
L 316.93568 33.880707 
L 317.210636 33.898979 
L 317.485592 33.926384 
L 317.760548 33.96292 
L 318.035505 34.008582 
L 318.310461 34.063366 
L 318.585417 34.127266 
L 318.860373 34.200274 
L 319.135329 34.282383 
L 319.410285 34.373584 
L 319.685241 34.473867 
L 319.960197 34.583222 
L 320.235154 34.701636 
L 320.51011 34.829096 
L 320.785066 34.96559 
L 321.060022 35.111101 
L 321.334978 35.265616 
L 321.609934 35.429116 
L 321.88489 35.601584 
L 322.159847 35.783002 
L 322.434803 35.97335 
L 322.709759 36.172607 
L 322.984715 36.380753 
L 323.259671 36.597765 
L 323.534627 36.823619 
L 323.809583 37.058291 
L 324.084539 37.301756 
L 324.359496 37.553988 
L 324.634452 37.81496 
L 324.909408 38.084644 
L 325.184364 38.363011 
L 325.45932 38.650031 
L 325.734276 38.945673 
L 326.009232 39.249907 
L 326.284189 39.562699 
L 326.559145 39.884017 
L 326.834101 40.213825 
L 327.109057 40.552089 
L 327.384013 40.898774 
L 327.658969 41.253841 
L 327.933925 41.617253 
L 328.208882 41.988973 
L 328.483838 42.36896 
L 328.758794 42.757174 
L 329.03375 43.153574 
L 329.308706 43.558119 
L 329.583662 43.970766 
L 329.858618 44.39147 
L 330.133574 44.820189 
L 330.408531 45.256877 
L 330.683487 45.701488 
L 330.958443 46.153975 
L 331.233399 46.614291 
L 331.508355 47.082389 
L 331.783311 47.558218 
L 332.058267 48.04173 
L 332.333224 48.532874 
L 332.60818 49.031599 
L 332.883136 49.537854 
L 333.158092 50.051585 
L 333.433048 50.57274 
L 333.708004 51.101264 
L 333.98296 51.637104 
L 334.257916 52.180204 
L 334.532873 52.730507 
L 334.807829 53.287959 
L 335.082785 53.852501 
L 335.357741 54.424075 
L 335.632697 55.002623 
L 335.907653 55.588087 
L 336.182609 56.180406 
L 336.457566 56.779521 
L 336.732522 57.38537 
L 337.007478 57.997892 
L 337.282434 58.617025 
L 337.55739 59.242708 
L 337.832346 59.874876 
L 338.107302 60.513466 
L 338.382258 61.158414 
L 338.657215 61.809657 
L 338.932171 62.467127 
L 339.207127 63.130761 
L 339.482083 63.800492 
L 339.757039 64.476253 
L 340.031995 65.157978 
L 340.306951 65.8456 
L 340.581908 66.539049 
L 340.856864 67.238259 
L 341.13182 67.943161 
L 341.406776 68.653686 
L 341.681732 69.369763 
L 341.956688 70.091324 
L 342.231644 70.818299 
L 342.5066 71.550616 
L 342.781557 72.288206 
L 343.056513 73.030996 
L 343.331469 73.778915 
L 343.606425 74.531893 
L 343.881381 75.289855 
L 344.156337 76.052731 
L 344.431293 76.820448 
L 344.70625 77.592932 
L 344.981206 78.370111 
L 345.256162 79.151911 
L 345.531118 79.938258 
L 345.806074 80.729079 
L 346.08103 81.5243 
L 346.355986 82.323847 
L 346.630943 83.127644 
L 346.905899 83.935618 
L 347.180855 84.747694 
L 347.455811 85.563797 
L 347.730767 86.383852 
L 348.005723 87.207784 
L 348.280679 88.035518 
L 348.555635 88.866977 
L 348.830592 89.702088 
L 349.105548 90.540774 
L 349.380504 91.38296 
L 349.65546 92.228571 
L 349.930416 93.07753 
L 350.205372 93.929761 
L 350.480328 94.78519 
L 350.755285 95.64374 
L 351.030241 96.505336 
L 351.305197 97.369902 
L 351.580153 98.237363 
L 351.855109 99.107642 
L 352.130065 99.980663 
L 352.405021 100.856353 
L 352.679977 101.734634 
L 352.954934 102.615431 
L 353.22989 103.49867 
L 353.504846 104.384275 
L 353.779802 105.27217 
L 354.054758 106.162281 
L 354.329714 107.054533 
L 354.60467 107.948851 
L 354.879627 108.845161 
L 355.154583 109.743387 
L 355.429539 110.643456 
L 355.704495 111.545293 
L 355.979451 112.448826 
L 356.254407 113.353979 
L 356.529363 114.260679 
L 356.804319 115.168854 
L 357.079276 116.078429 
L 357.354232 116.989333 
L 357.629188 117.901492 
L 357.904144 118.814834 
L 358.1791 119.729287 
L 358.454056 120.644779 
L 358.729012 121.561239 
L 359.003969 122.478596 
L 359.278925 123.396777 
L 359.553881 124.315714 
L 359.828837 125.235335 
L 360.103793 126.155571 
L 360.378749 127.076351 
L 360.653705 127.997606 
L 360.928662 128.919268 
L 361.203618 129.841268 
L 361.478574 130.763537 
L 361.75353 131.686007 
L 362.028486 132.608612 
L 362.303442 133.531283 
L 362.303442 287.157901 
L 362.303442 287.157901 
L 362.028486 287.157901 
L 361.75353 287.157901 
L 361.478574 287.157901 
L 361.203618 287.157901 
L 360.928662 287.157901 
L 360.653705 287.157901 
L 360.378749 287.157901 
L 360.103793 287.157901 
L 359.828837 287.157901 
L 359.553881 287.157901 
L 359.278925 287.157901 
L 359.003969 287.157901 
L 358.729012 287.157901 
L 358.454056 287.157901 
L 358.1791 287.157901 
L 357.904144 287.157901 
L 357.629188 287.157901 
L 357.354232 287.157901 
L 357.079276 287.157901 
L 356.804319 287.157901 
L 356.529363 287.157901 
L 356.254407 287.157901 
L 355.979451 287.157901 
L 355.704495 287.157901 
L 355.429539 287.157901 
L 355.154583 287.157901 
L 354.879627 287.157901 
L 354.60467 287.157901 
L 354.329714 287.157901 
L 354.054758 287.157901 
L 353.779802 287.157901 
L 353.504846 287.157901 
L 353.22989 287.157901 
L 352.954934 287.157901 
L 352.679977 287.157901 
L 352.405021 287.157901 
L 352.130065 287.157901 
L 351.855109 287.157901 
L 351.580153 287.157901 
L 351.305197 287.157901 
L 351.030241 287.157901 
L 350.755285 287.157901 
L 350.480328 287.157901 
L 350.205372 287.157901 
L 349.930416 287.157901 
L 349.65546 287.157901 
L 349.380504 287.157901 
L 349.105548 287.157901 
L 348.830592 287.157901 
L 348.555635 287.157901 
L 348.280679 287.157901 
L 348.005723 287.157901 
L 347.730767 287.157901 
L 347.455811 287.157901 
L 347.180855 287.157901 
L 346.905899 287.157901 
L 346.630943 287.157901 
L 346.355986 287.157901 
L 346.08103 287.157901 
L 345.806074 287.157901 
L 345.531118 287.157901 
L 345.256162 287.157901 
L 344.981206 287.157901 
L 344.70625 287.157901 
L 344.431293 287.157901 
L 344.156337 287.157901 
L 343.881381 287.157901 
L 343.606425 287.157901 
L 343.331469 287.157901 
L 343.056513 287.157901 
L 342.781557 287.157901 
L 342.5066 287.157901 
L 342.231644 287.157901 
L 341.956688 287.157901 
L 341.681732 287.157901 
L 341.406776 287.157901 
L 341.13182 287.157901 
L 340.856864 287.157901 
L 340.581908 287.157901 
L 340.306951 287.157901 
L 340.031995 287.157901 
L 339.757039 287.157901 
L 339.482083 287.157901 
L 339.207127 287.157901 
L 338.932171 287.157901 
L 338.657215 287.157901 
L 338.382258 287.157901 
L 338.107302 287.157901 
L 337.832346 287.157901 
L 337.55739 287.157901 
L 337.282434 287.157901 
L 337.007478 287.157901 
L 336.732522 287.157901 
L 336.457566 287.157901 
L 336.182609 287.157901 
L 335.907653 287.157901 
L 335.632697 287.157901 
L 335.357741 287.157901 
L 335.082785 287.157901 
L 334.807829 287.157901 
L 334.532873 287.157901 
L 334.257916 287.157901 
L 333.98296 287.157901 
L 333.708004 287.157901 
L 333.433048 287.157901 
L 333.158092 287.157901 
L 332.883136 287.157901 
L 332.60818 287.157901 
L 332.333224 287.157901 
L 332.058267 287.157901 
L 331.783311 287.157901 
L 331.508355 287.157901 
L 331.233399 287.157901 
L 330.958443 287.157901 
L 330.683487 287.157901 
L 330.408531 287.157901 
L 330.133574 287.157901 
L 329.858618 287.157901 
L 329.583662 287.157901 
L 329.308706 287.157901 
L 329.03375 287.157901 
L 328.758794 287.157901 
L 328.483838 287.157901 
L 328.208882 287.157901 
L 327.933925 287.157901 
L 327.658969 287.157901 
L 327.384013 287.157901 
L 327.109057 287.157901 
L 326.834101 287.157901 
L 326.559145 287.157901 
L 326.284189 287.157901 
L 326.009232 287.157901 
L 325.734276 287.157901 
L 325.45932 287.157901 
L 325.184364 287.157901 
L 324.909408 287.157901 
L 324.634452 287.157901 
L 324.359496 287.157901 
L 324.084539 287.157901 
L 323.809583 287.157901 
L 323.534627 287.157901 
L 323.259671 287.157901 
L 322.984715 287.157901 
L 322.709759 287.157901 
L 322.434803 287.157901 
L 322.159847 287.157901 
L 321.88489 287.157901 
L 321.609934 287.157901 
L 321.334978 287.157901 
L 321.060022 287.157901 
L 320.785066 287.157901 
L 320.51011 287.157901 
L 320.235154 287.157901 
L 319.960197 287.157901 
L 319.685241 287.157901 
L 319.410285 287.157901 
L 319.135329 287.157901 
L 318.860373 287.157901 
L 318.585417 287.157901 
L 318.310461 287.157901 
L 318.035505 287.157901 
L 317.760548 287.157901 
L 317.485592 287.157901 
L 317.210636 287.157901 
L 316.93568 287.157901 
L 316.660724 287.157901 
L 316.385768 287.157901 
L 316.110812 287.157901 
L 315.835855 287.157901 
L 315.560899 287.157901 
L 315.285943 287.157901 
L 315.010987 287.157901 
L 314.736031 287.157901 
L 314.461075 287.157901 
L 314.186119 287.157901 
L 313.911163 287.157901 
L 313.636206 287.157901 
L 313.36125 287.157901 
L 313.086294 287.157901 
L 312.811338 287.157901 
L 312.536382 287.157901 
L 312.261426 287.157901 
L 311.98647 287.157901 
L 311.711513 287.157901 
L 311.436557 287.157901 
L 311.161601 287.157901 
L 310.886645 287.157901 
L 310.611689 287.157901 
L 310.336733 287.157901 
L 310.061777 287.157901 
L 309.78682 287.157901 
L 309.511864 287.157901 
L 309.236908 287.157901 
L 308.961952 287.157901 
L 308.686996 287.157901 
L 308.41204 287.157901 
L 308.137084 287.157901 
L 307.862128 287.157901 
L 307.587171 287.157901 
L 307.312215 287.157901 
L 307.037259 287.157901 
L 306.762303 287.157901 
L 306.487347 287.157901 
L 306.212391 287.157901 
L 305.937435 287.157901 
L 305.662478 287.157901 
L 305.387522 287.157901 
L 305.112566 287.157901 
L 304.83761 287.157901 
L 304.562654 287.157901 
L 304.287698 287.157901 
L 304.012742 287.157901 
L 303.737786 287.157901 
L 303.462829 287.157901 
L 303.187873 287.157901 
L 302.912917 287.157901 
L 302.637961 287.157901 
L 302.363005 287.157901 
L 302.088049 287.157901 
L 301.813093 287.157901 
L 301.538136 287.157901 
L 301.26318 287.157901 
L 300.988224 287.157901 
L 300.713268 287.157901 
L 300.438312 287.157901 
L 300.163356 287.157901 
L 299.8884 287.157901 
L 299.613444 287.157901 
L 299.338487 287.157901 
L 299.063531 287.157901 
L 298.788575 287.157901 
L 298.513619 287.157901 
L 298.238663 287.157901 
L 297.963707 287.157901 
L 297.688751 287.157901 
L 297.413794 287.157901 
L 297.138838 287.157901 
L 296.863882 287.157901 
L 296.588926 287.157901 
L 296.31397 287.157901 
L 296.039014 287.157901 
L 295.764058 287.157901 
L 295.489101 287.157901 
L 295.214145 287.157901 
L 294.939189 287.157901 
L 294.664233 287.157901 
L 294.389277 287.157901 
L 294.114321 287.157901 
L 293.839365 287.157901 
L 293.564409 287.157901 
L 293.289452 287.157901 
L 293.014496 287.157901 
L 292.73954 287.157901 
L 292.464584 287.157901 
L 292.189628 287.157901 
L 291.914672 287.157901 
L 291.639716 287.157901 
L 291.364759 287.157901 
L 291.089803 287.157901 
L 290.814847 287.157901 
L 290.539891 287.157901 
L 290.264935 287.157901 
L 289.989979 287.157901 
L 289.715023 287.157901 
L 289.440067 287.157901 
L 289.16511 287.157901 
L 288.890154 287.157901 
L 288.615198 287.157901 
L 288.340242 287.157901 
L 288.065286 287.157901 
L 287.79033 287.157901 
L 287.515374 287.157901 
L 287.240417 287.157901 
L 286.965461 287.157901 
L 286.690505 287.157901 
L 286.415549 287.157901 
L 286.140593 287.157901 
L 285.865637 287.157901 
L 285.590681 287.157901 
L 285.315725 287.157901 
L 285.040768 287.157901 
L 284.765812 287.157901 
L 284.490856 287.157901 
L 284.2159 287.157901 
L 283.940944 287.157901 
L 283.665988 287.157901 
L 283.391032 287.157901 
L 283.116075 287.157901 
L 282.841119 287.157901 
L 282.566163 287.157901 
L 282.291207 287.157901 
L 282.016251 287.157901 
L 281.741295 287.157901 
L 281.466339 287.157901 
L 281.191382 287.157901 
L 280.916426 287.157901 
L 280.64147 287.157901 
L 280.366514 287.157901 
L 280.091558 287.157901 
L 279.816602 287.157901 
L 279.541646 287.157901 
L 279.26669 287.157901 
L 278.991733 287.157901 
L 278.716777 287.157901 
L 278.441821 287.157901 
L 278.166865 287.157901 
L 277.891909 287.157901 
L 277.616953 287.157901 
L 277.341997 287.157901 
L 277.06704 287.157901 
L 276.792084 287.157901 
L 276.517128 287.157901 
L 276.242172 287.157901 
L 275.967216 287.157901 
L 275.69226 287.157901 
L 275.417304 287.157901 
L 275.142348 287.157901 
L 274.867391 287.157901 
L 274.592435 287.157901 
L 274.317479 287.157901 
L 274.042523 287.157901 
L 273.767567 287.157901 
L 273.492611 287.157901 
L 273.217655 287.157901 
L 272.942698 287.157901 
L 272.667742 287.157901 
L 272.392786 287.157901 
L 272.11783 287.157901 
L 271.842874 287.157901 
L 271.567918 287.157901 
L 271.292962 287.157901 
L 271.018006 287.157901 
L 270.743049 287.157901 
z
" clip-path="url(#p421ee9ca3f)" style="fill: #5a5758; fill-opacity: 0.2"/>
   </g>
   <g id="matplotlib.axis_1">
    <g id="xtick_1">
     <g id="line2d_1">
      <defs>
       <path id="m28c09f5d6d" d="M 0 0 
L 0 3.5 
" style="stroke: #5a5758; stroke-width: 0.8"/>
      </defs>
      <g>
       <use xlink:href="#m28c09f5d6d" x="179.182657" y="299.157901" style="fill: #5a5758; stroke: #5a5758; stroke-width: 0.8"/>
      </g>
     </g>
     <g id="text_1">
      <!-- -3 -->
      <g style="fill: #5a5758" transform="translate(172.622782 316.578731) scale(0.14994 -0.14994)">
       <defs>
        <path id="CMUBright-Roman-2d" d="M 70 1350 
L 1862 1350 
L 1862 1670 
L 70 1670 
L 70 1350 
z
" transform="scale(0.015625)"/>
        <path id="CMUBright-Roman-33" d="M 282 653 
C 282 512 864 -109 1690 -109 
C 2541 -109 3072 544 3072 1158 
C 3072 1606 2771 2093 2106 2272 
C 2720 2554 2886 3027 2886 3360 
C 2886 3872 2374 4301 1702 4301 
C 1434 4301 800 4230 371 3539 
L 570 3258 
C 666 3430 979 3981 1702 3981 
C 2163 3981 2464 3731 2464 3360 
C 2464 2925 2131 2630 1862 2528 
C 1728 2477 1715 2470 1114 2426 
L 1114 2106 
L 1555 2106 
L 1773 2099 
C 2234 2067 2624 1734 2624 1165 
C 2624 621 2259 224 1683 224 
C 1472 224 819 275 339 941 
C 294 710 282 678 282 653 
z
" transform="scale(0.015625)"/>
       </defs>
       <use xlink:href="#CMUBright-Roman-2d"/>
       <use xlink:href="#CMUBright-Roman-33" x="34.999985"/>
      </g>
     </g>
    </g>
    <g id="xtick_2">
     <g id="line2d_2">
      <g>
       <use xlink:href="#m28c09f5d6d" x="270.743049" y="299.157901" style="fill: #5a5758; stroke: #5a5758; stroke-width: 0.8"/>
      </g>
     </g>
     <g id="text_2">
      <!-- -1 -->
      <g style="fill: #5a5758" transform="translate(264.183174 316.578731) scale(0.14994 -0.14994)">
       <defs>
        <path id="CMUBright-Roman-31" d="M 672 3558 
C 1197 3558 1472 3706 1549 3744 
L 1549 320 
L 710 320 
L 710 0 
L 2803 0 
L 2803 320 
L 1965 320 
L 1965 4301 
L 1862 4301 
C 1696 4141 1389 3885 672 3885 
L 672 3558 
z
" transform="scale(0.015625)"/>
       </defs>
       <use xlink:href="#CMUBright-Roman-2d"/>
       <use xlink:href="#CMUBright-Roman-31" x="34.999985"/>
      </g>
     </g>
    </g>
    <g id="xtick_3">
     <g id="line2d_3">
      <g>
       <use xlink:href="#m28c09f5d6d" x="316.523246" y="299.157901" style="fill: #5a5758; stroke: #5a5758; stroke-width: 0.8"/>
      </g>
     </g>
     <g id="text_3">
      <!-- 0 -->
      <g style="fill: #5a5758" transform="translate(312.587321 316.578731) scale(0.14994 -0.14994)">
       <defs>
        <path id="CMUBright-Roman-30" d="M 333 1984 
C 333 218 1139 -109 1677 -109 
C 2022 -109 2528 38 2803 685 
C 3008 1165 3021 1626 3021 2214 
C 3021 3974 2214 4301 1677 4301 
C 1555 4301 1414 4288 1261 4230 
C 358 3898 333 2694 333 2086 
L 333 1984 
z
M 742 2413 
C 742 2701 768 3302 1005 3642 
C 1139 3834 1389 3981 1677 3981 
C 1933 3981 2182 3866 2336 3661 
C 2592 3328 2611 2701 2611 2406 
C 2611 2342 2605 2298 2605 2272 
L 2605 2163 
C 2605 1613 2598 934 2330 557 
C 2195 371 1958 218 1677 218 
C 1427 218 1190 339 1037 538 
C 755 909 749 1594 749 2150 
L 749 2272 
C 749 2298 742 2349 742 2413 
z
" transform="scale(0.015625)"/>
       </defs>
       <use xlink:href="#CMUBright-Roman-30"/>
      </g>
     </g>
    </g>
    <g id="xtick_4">
     <g id="line2d_4">
      <g>
       <use xlink:href="#m28c09f5d6d" x="362.303442" y="299.157901" style="fill: #5a5758; stroke: #5a5758; stroke-width: 0.8"/>
      </g>
     </g>
     <g id="text_4">
      <!-- 1 -->
      <g style="fill: #5a5758" transform="translate(358.367517 316.578731) scale(0.14994 -0.14994)">
       <use xlink:href="#CMUBright-Roman-31"/>
      </g>
     </g>
    </g>
    <g id="xtick_5">
     <g id="line2d_5">
      <g>
       <use xlink:href="#m28c09f5d6d" x="453.863835" y="299.157901" style="fill: #5a5758; stroke: #5a5758; stroke-width: 0.8"/>
      </g>
     </g>
     <g id="text_5">
      <!-- 3 -->
      <g style="fill: #5a5758" transform="translate(449.92791 316.578731) scale(0.14994 -0.14994)">
       <use xlink:href="#CMUBright-Roman-33"/>
      </g>
     </g>
    </g>
    <g id="text_6">
     <!-- Some variable, $x$ -->
     <g style="fill: #5a5758" transform="translate(253.253246 339.593197) scale(0.18 -0.18)">
      <defs>
       <path id="CMUBright-SemiBold-53" d="M 294 339 
C 672 109 1178 -109 1830 -109 
C 2797 -109 3354 595 3354 1254 
C 3354 1907 2867 2336 2445 2502 
C 2208 2592 1658 2688 1472 2758 
C 1267 2835 973 3027 973 3354 
C 973 3712 1338 4026 1882 4026 
C 2502 4026 2790 3757 3014 3578 
L 3130 4243 
C 2720 4454 2387 4550 1882 4550 
C 928 4550 365 3898 365 3283 
C 365 3034 454 2816 557 2662 
C 998 2003 1792 2035 2227 1869 
C 2445 1786 2746 1562 2746 1190 
C 2746 832 2419 435 1837 435 
C 1120 435 659 787 410 998 
L 294 339 
z
" transform="scale(0.015625)"/>
       <path id="CMUBright-SemiBold-6f" d="M 186 1504 
C 186 582 902 -51 1677 -51 
C 2477 -51 3168 608 3168 1498 
C 3168 2330 2541 3098 1677 3098 
C 883 3098 186 2413 186 1504 
z
M 800 1594 
C 800 2509 1357 2618 1677 2618 
C 2131 2618 2554 2387 2554 1606 
C 2554 1274 2528 928 2291 685 
C 2125 512 1894 448 1677 448 
C 1434 448 1197 531 1037 717 
C 832 960 800 1280 800 1594 
z
" transform="scale(0.015625)"/>
       <path id="CMUBright-SemiBold-6d" d="M 410 0 
L 1024 0 
L 1024 1728 
C 1024 2413 1382 2592 1645 2592 
C 2304 2592 2266 2176 2272 1984 
L 2272 0 
L 2893 0 
L 2893 1728 
C 2893 2413 3245 2592 3507 2592 
C 4166 2592 4134 2176 4141 1984 
L 4141 0 
L 4755 0 
L 4755 2016 
C 4755 2419 4723 3072 3840 3072 
C 3341 3072 3021 2771 2854 2470 
C 2810 2598 2714 3072 1971 3072 
C 1491 3072 1178 2790 1005 2496 
L 998 2714 
L 998 3021 
L 410 3021 
L 410 0 
z
" transform="scale(0.015625)"/>
       <path id="CMUBright-SemiBold-65" d="M 186 1530 
C 186 710 794 -51 1709 -51 
C 2144 -51 2496 90 2784 275 
L 2739 794 
C 2598 691 2240 429 1709 429 
C 1197 429 762 890 762 1536 
L 762 1600 
L 2822 1600 
C 2816 2848 2093 3104 1606 3104 
C 832 3104 186 2413 186 1530 
z
M 838 1978 
C 973 2387 1293 2618 1600 2618 
C 2067 2618 2234 2240 2298 1978 
L 838 1978 
z
" transform="scale(0.015625)"/>
       <path id="CMUBright-SemiBold-20" transform="scale(0.015625)"/>
       <path id="CMUBright-SemiBold-76" d="M 90 3021 
L 1114 -19 
L 1811 -19 
L 2835 3021 
L 2240 3021 
L 1562 960 
L 1466 614 
C 1408 858 1171 1587 691 3021 
L 90 3021 
z
" transform="scale(0.015625)"/>
       <path id="CMUBright-SemiBold-61" d="M 250 851 
C 250 474 493 -51 1043 -51 
C 1421 -51 1869 90 2125 410 
L 2131 230 
L 2131 0 
L 2733 0 
L 2733 1933 
L 2726 2144 
C 2688 2650 2240 3104 1581 3104 
C 1139 3104 832 2995 512 2829 
L 557 2291 
C 909 2547 1120 2637 1568 2650 
C 1658 2650 1901 2643 2048 2355 
C 2118 2221 2112 2125 2112 1971 
L 2112 1747 
C 1101 1715 250 1446 250 851 
z
M 845 864 
C 845 1216 1350 1414 2112 1446 
L 2112 1043 
C 2112 954 2112 864 2074 781 
C 1971 557 1683 429 1408 429 
C 1101 429 845 602 845 864 
z
" transform="scale(0.015625)"/>
       <path id="CMUBright-SemiBold-72" d="M 416 0 
L 1018 0 
L 1018 1517 
C 1018 2330 1715 2522 2112 2528 
L 2112 3072 
C 1434 3059 1107 2579 992 2368 
L 992 3021 
L 416 3021 
L 416 0 
z
" transform="scale(0.015625)"/>
       <path id="CMUBright-SemiBold-69" d="M 416 3840 
L 1018 3840 
L 1018 4442 
L 416 4442 
L 416 3840 
z
M 416 0 
L 1018 0 
L 1018 3021 
L 416 3021 
L 416 0 
z
" transform="scale(0.015625)"/>
       <path id="CMUBright-SemiBold-62" d="M 416 0 
L 1030 0 
L 1030 333 
C 1184 179 1434 -51 1856 -51 
C 2515 -51 3078 614 3078 1530 
C 3078 2330 2675 3072 2074 3072 
C 1843 3072 1414 3027 1018 2675 
L 1018 4448 
L 416 4448 
L 416 0 
z
M 1030 832 
L 1030 2323 
C 1101 2387 1274 2592 1632 2592 
C 1843 2592 2067 2528 2227 2362 
C 2438 2144 2464 1824 2464 1530 
C 2464 1318 2451 1101 2368 909 
C 2189 493 1760 429 1562 429 
C 1306 429 1030 595 1030 832 
z
" transform="scale(0.015625)"/>
       <path id="CMUBright-SemiBold-6c" d="M 416 0 
L 1018 0 
L 1018 4448 
L 416 4448 
L 416 0 
z
" transform="scale(0.015625)"/>
       <path id="CMUBright-SemiBold-2c" d="M 550 0 
L 781 0 
L 550 -710 
L 928 -710 
C 1254 -70 1293 -96 1306 109 
L 1306 749 
L 550 749 
L 550 0 
z
" transform="scale(0.015625)"/>
       <path id="CMUBright-SemiBold-78" d="M 0 0 
L 653 0 
L 1440 1197 
L 1446 1197 
L 2272 0 
L 2931 0 
L 1709 1562 
L 1709 1568 
L 2816 3021 
L 2163 3021 
L 1446 2022 
L 698 3021 
L 38 3021 
L 1184 1568 
L 1184 1562 
L 0 0 
z
" transform="scale(0.015625)"/>
      </defs>
      <use xlink:href="#CMUBright-SemiBold-53" transform="translate(0 0.90625)"/>
      <use xlink:href="#CMUBright-SemiBold-6f" transform="translate(58.299988 0.90625)"/>
      <use xlink:href="#CMUBright-SemiBold-6d" transform="translate(110.799973 0.90625)"/>
      <use xlink:href="#CMUBright-SemiBold-65" transform="translate(191.59996 0.90625)"/>
      <use xlink:href="#CMUBright-SemiBold-20" transform="translate(238.699951 0.90625)"/>
      <use xlink:href="#CMUBright-SemiBold-76" transform="translate(271.999939 0.90625)"/>
      <use xlink:href="#CMUBright-SemiBold-61" transform="translate(317.799927 0.90625)"/>
      <use xlink:href="#CMUBright-SemiBold-72" transform="translate(366.999924 0.90625)"/>
      <use xlink:href="#CMUBright-SemiBold-69" transform="translate(401.599915 0.90625)"/>
      <use xlink:href="#CMUBright-SemiBold-61" transform="translate(424.099899 0.90625)"/>
      <use xlink:href="#CMUBright-SemiBold-62" transform="translate(473.299896 0.90625)"/>
      <use xlink:href="#CMUBright-SemiBold-6c" transform="translate(524.999893 0.90625)"/>
      <use xlink:href="#CMUBright-SemiBold-65" transform="translate(547.499878 0.90625)"/>
      <use xlink:href="#CMUBright-SemiBold-2c" transform="translate(594.599869 0.90625)"/>
      <use xlink:href="#CMUBright-SemiBold-20" transform="translate(623.799866 0.90625)"/>
      <use xlink:href="#CMUBright-SemiBold-78" transform="translate(657.099854 0.90625)"/>
     </g>
    </g>
   </g>
   <g id="matplotlib.axis_2">
    <g id="ytick_1">
     <g id="line2d_6">
      <defs>
       <path id="m6cdd70bb39" d="M 0 0 
L -3.5 0 
" style="stroke: #5a5758; stroke-width: 0.8"/>
      </defs>
      <g>
       <use xlink:href="#m6cdd70bb39" x="167.182657" y="287.157901" style="fill: #5a5758; stroke: #5a5758; stroke-width: 0.8"/>
      </g>
     </g>
     <g id="text_7">
      <!-- 0.0 -->
      <g style="fill: #5a5758" transform="translate(140.06024 292.368316) scale(0.14994 -0.14994)">
       <defs>
        <path id="CMUBright-Roman-2e" d="M 678 0 
L 1178 0 
L 1178 499 
L 678 499 
L 678 0 
z
" transform="scale(0.015625)"/>
       </defs>
       <use xlink:href="#CMUBright-Roman-30"/>
       <use xlink:href="#CMUBright-Roman-2e" x="52.499985"/>
       <use xlink:href="#CMUBright-Roman-30" x="81.699982"/>
      </g>
     </g>
    </g>
    <g id="ytick_2">
     <g id="line2d_7">
      <g>
       <use xlink:href="#m6cdd70bb39" x="167.182657" y="33.198885" style="fill: #5a5758; stroke: #5a5758; stroke-width: 0.8"/>
      </g>
     </g>
     <g id="text_8">
      <!-- 0.4 -->
      <g style="fill: #5a5758" transform="translate(140.06024 38.4093) scale(0.14994 -0.14994)">
       <defs>
        <path id="CMUBright-Roman-34" d="M 186 1158 
L 2035 1158 
L 2035 0 
L 2438 0 
L 2438 1158 
L 3168 1158 
L 3168 1498 
L 2438 1498 
L 2438 4250 
L 1952 4250 
L 186 1504 
L 186 1158 
z
M 602 1498 
L 1606 3085 
C 1901 3552 1990 3712 2054 3885 
L 2054 1498 
L 602 1498 
z
" transform="scale(0.015625)"/>
       </defs>
       <use xlink:href="#CMUBright-Roman-30"/>
       <use xlink:href="#CMUBright-Roman-2e" x="52.499985"/>
       <use xlink:href="#CMUBright-Roman-34" x="81.699982"/>
      </g>
     </g>
    </g>
    <g id="text_9">
     <!-- $\mathbb{E}(x,\mu=0, \sigma=1)$ -->
     <g style="fill: #5a5758" transform="translate(3.00024 156.038393) scale(0.18 -0.18)">
      <defs>
       <path id="STIXGeneral-Regular-1d53c" d="M 3629 0 
L 448 0 
L 448 4237 
L 3629 4237 
L 3629 3955 
L 1510 3955 
L 1510 2323 
L 3424 2323 
L 3424 2042 
L 1510 2042 
L 1510 282 
L 3629 282 
L 3629 0 
z
M 1229 282 
L 1229 3955 
L 730 3955 
L 730 282 
L 1229 282 
z
" transform="scale(0.015625)"/>
       <path id="CMUBright-SemiBold-28" d="M 499 1690 
C 499 -173 1312 -1050 1747 -1421 
L 2234 -1421 
C 1914 -1101 1114 -307 1114 1690 
C 1114 3686 1914 4480 2234 4800 
L 1747 4800 
C 1312 4429 499 3558 499 1690 
z
" transform="scale(0.015625)"/>
       <path id="CMUBright-SemiBold-3bc" d="M 275 -1069 
L 890 -1069 
L 890 256 
C 1139 -32 1344 -45 1504 -58 
C 1670 -45 1978 -13 2214 397 
C 2426 19 2662 -38 2893 -58 
C 3565 6 3667 506 3667 723 
C 3667 755 3661 794 3661 826 
L 3232 826 
L 3238 749 
C 3238 621 3142 506 2995 499 
C 2912 512 2739 538 2739 877 
L 2739 3027 
L 2125 3027 
L 2125 1402 
C 2125 1286 2125 1171 2093 1062 
C 2042 870 1856 563 1504 563 
C 1248 563 890 774 890 1325 
L 890 3027 
L 275 3027 
L 275 -1069 
z
" transform="scale(0.015625)"/>
       <path id="CMUBright-SemiBold-3d" d="M 371 1069 
C 371 1005 403 832 666 826 
L 3424 826 
C 3699 826 3725 992 3725 1069 
C 3725 1306 3501 1312 3437 1312 
L 730 1312 
C 678 1312 627 1312 576 1306 
C 435 1280 371 1165 371 1069 
z
M 371 2310 
C 371 2253 403 2074 659 2074 
L 3437 2074 
C 3699 2074 3731 2240 3731 2310 
C 3731 2547 3494 2554 3424 2554 
L 691 2554 
C 595 2554 371 2541 371 2310 
z
" transform="scale(0.015625)"/>
       <path id="CMUBright-SemiBold-30" d="M 256 2061 
C 256 973 518 518 742 282 
C 979 32 1325 -109 1670 -109 
C 1850 -109 1997 -77 2125 -32 
C 3053 301 3091 1472 3091 2106 
C 3091 3213 2822 3686 2592 3923 
C 2355 4173 2016 4301 1677 4301 
C 1498 4301 1350 4269 1222 4224 
C 288 3885 256 2694 256 2061 
z
M 870 1997 
L 870 2342 
C 870 2733 883 3238 1069 3514 
C 1197 3712 1427 3821 1670 3821 
C 1901 3821 2131 3718 2266 3526 
C 2458 3251 2470 2720 2470 2323 
L 2470 2131 
C 2470 1773 2470 1274 2368 934 
C 2234 493 1894 378 1670 378 
C 1453 378 1248 480 1114 653 
C 883 947 870 1613 870 1997 
z
" transform="scale(0.015625)"/>
       <path id="CMUBright-SemiBold-3c3" d="M 275 1485 
C 275 602 973 -51 1766 -51 
C 2573 -51 3258 621 3258 1491 
C 3258 1856 3149 2138 2963 2406 
L 3635 2406 
L 3635 3021 
L 1875 3021 
C 1773 3021 1677 3021 1581 3008 
C 832 2912 275 2259 275 1485 
z
M 896 1485 
C 896 2029 1312 2406 1766 2406 
C 2221 2406 2643 2029 2643 1485 
C 2643 947 2221 563 1766 563 
C 1248 563 896 1011 896 1485 
z
" transform="scale(0.015625)"/>
       <path id="CMUBright-SemiBold-31" d="M 570 3398 
C 832 3398 1120 3418 1446 3533 
L 1446 480 
L 608 480 
L 608 0 
L 2893 0 
L 2893 480 
L 2067 480 
L 2067 4301 
L 1914 4301 
C 1613 4026 1210 3885 570 3885 
L 570 3398 
z
" transform="scale(0.015625)"/>
       <path id="CMUBright-SemiBold-29" d="M 371 -1421 
L 851 -1421 
C 1286 -1050 2106 -173 2106 1690 
C 2106 3558 1286 4429 851 4800 
L 371 4800 
C 640 4518 1491 3744 1491 1690 
C 1491 -307 685 -1101 371 -1421 
z
" transform="scale(0.015625)"/>
      </defs>
      <use xlink:href="#STIXGeneral-Regular-1d53c"/>
      <use xlink:href="#CMUBright-SemiBold-28" transform="translate(62.199997 0)"/>
      <use xlink:href="#CMUBright-SemiBold-78" transform="translate(102.999985 0)"/>
      <use xlink:href="#CMUBright-SemiBold-2c" transform="translate(148.799973 0)"/>
      <use xlink:href="#CMUBright-SemiBold-3bc" transform="translate(197.482391 0)"/>
      <use xlink:href="#CMUBright-SemiBold-3d" transform="translate(275.264801 0)"/>
      <use xlink:href="#CMUBright-SemiBold-30" transform="translate(358.94722 0)"/>
      <use xlink:href="#CMUBright-SemiBold-2c" transform="translate(411.447205 0)"/>
      <use xlink:href="#CMUBright-SemiBold-3c3" transform="translate(460.129623 0)"/>
      <use xlink:href="#CMUBright-SemiBold-3d" transform="translate(539.412033 0)"/>
      <use xlink:href="#CMUBright-SemiBold-31" transform="translate(623.094452 0)"/>
      <use xlink:href="#CMUBright-SemiBold-29" transform="translate(675.594437 0)"/>
     </g>
    </g>
   </g>
   <g id="line2d_8">
    <path d="M 179.182657 284.344131 
L 183.581955 283.421226 
L 187.706297 282.32353 
L 191.280726 281.154056 
L 194.855156 279.746993 
L 198.15463 278.205707 
L 201.179147 276.561273 
L 204.203665 274.669402 
L 207.228182 272.503864 
L 209.977744 270.275042 
L 212.727305 267.77726 
L 215.476866 264.990046 
L 218.226428 261.893289 
L 220.975989 258.467608 
L 223.72555 254.694744 
L 226.475112 250.557999 
L 229.224673 246.042691 
L 232.249191 240.624163 
L 235.273708 234.720906 
L 238.298225 228.32611 
L 241.597699 220.788551 
L 244.897173 212.673184 
L 248.471602 203.251319 
L 252.320988 192.415764 
L 256.44533 180.092133 
L 261.119585 165.377343 
L 266.893663 146.419065 
L 281.191382 99.107642 
L 285.315725 86.383852 
L 288.890154 76.052731 
L 291.914672 67.943161 
L 294.664233 61.158414 
L 297.138838 55.588087 
L 299.613444 50.57274 
L 301.813093 46.614291 
L 303.737786 43.558119 
L 305.662478 40.898774 
L 307.587171 38.650031 
L 309.236908 37.058291 
L 310.886645 35.783002 
L 312.261426 34.96559 
L 313.636206 34.373584 
L 315.010987 34.008582 
L 316.385768 33.871571 
L 317.760548 33.96292 
L 319.135329 34.282383 
L 320.51011 34.829096 
L 321.88489 35.601584 
L 323.259671 36.597765 
L 324.909408 38.084644 
L 326.559145 39.884017 
L 328.208882 41.988973 
L 330.133574 44.820189 
L 332.058267 48.04173 
L 334.257916 52.180204 
L 336.457566 56.779521 
L 338.932171 62.467127 
L 341.681732 69.369763 
L 344.70625 77.592932 
L 348.005723 87.207784 
L 351.855109 99.107642 
L 356.804319 115.168854 
L 375.776293 177.548161 
L 380.175591 190.813202 
L 384.024977 201.745815 
L 387.599407 211.265589 
L 391.173836 220.134155 
L 394.47331 227.720311 
L 397.497827 234.15993 
L 400.522345 240.107675 
L 403.546862 245.569846 
L 406.57138 250.557999 
L 409.595897 255.088144 
L 412.345459 258.825509 
L 415.09502 262.217454 
L 417.844581 265.282369 
L 420.594143 268.039727 
L 423.343704 270.509688 
L 426.368222 272.919162 
L 429.392739 275.032953 
L 432.417257 276.877912 
L 435.71673 278.614585 
L 439.016204 280.094653 
L 442.590633 281.443753 
L 446.440019 282.640832 
L 450.564361 283.67403 
L 453.863835 284.344131 
L 453.863835 284.344131 
" style="fill: none; stroke: #e29400; stroke-width: 2; stroke-linecap: square"/>
   </g>
   <g id="line2d_9">
    <defs>
     <path id="m711165682e" d="M 0 3 
C 0.795609 3 1.55874 2.683901 2.12132 2.12132 
C 2.683901 1.55874 3 0.795609 3 0 
C 3 -0.795609 2.683901 -1.55874 2.12132 -2.12132 
C 1.55874 -2.683901 0.795609 -3 0 -3 
C -0.795609 -3 -1.55874 -2.683901 -2.12132 -2.12132 
C -2.683901 -1.55874 -3 -0.795609 -3 0 
C -3 0.795609 -2.683901 1.55874 -2.12132 2.12132 
C -1.55874 2.683901 -0.795609 3 0 3 
z
" style="stroke: #ffffff"/>
    </defs>
    <g>
     <use xlink:href="#m711165682e" x="329.931397" y="58.291613" style="fill: #1e90ff; stroke: #ffffff"/>
     <use xlink:href="#m711165682e" x="375.631715" y="168.976426" style="fill: #1e90ff; stroke: #ffffff"/>
     <use xlink:href="#m711165682e" x="344.750411" y="82.617116" style="fill: #1e90ff; stroke: #ffffff"/>
     <use xlink:href="#m711165682e" x="328.851811" y="52.740954" style="fill: #1e90ff; stroke: #ffffff"/>
     <use xlink:href="#m711165682e" x="295.552656" y="46.454012" style="fill: #1e90ff; stroke: #ffffff"/>
     <use xlink:href="#m711165682e" x="356.597613" y="139.03371" style="fill: #1e90ff; stroke: #ffffff"/>
     <use xlink:href="#m711165682e" x="299.379627" y="47.865888" style="fill: #1e90ff; stroke: #ffffff"/>
     <use xlink:href="#m711165682e" x="424.135915" y="271.567658" style="fill: #1e90ff; stroke: #ffffff"/>
     <use xlink:href="#m711165682e" x="443.882679" y="283.644169" style="fill: #1e90ff; stroke: #ffffff"/>
     <use xlink:href="#m711165682e" x="284.506825" y="91.239528" style="fill: #1e90ff; stroke: #ffffff"/>
     <use xlink:href="#m711165682e" x="396.654623" y="226.717432" style="fill: #1e90ff; stroke: #ffffff"/>
     <use xlink:href="#m711165682e" x="324.460136" y="50.250322" style="fill: #1e90ff; stroke: #ffffff"/>
     <use xlink:href="#m711165682e" x="335.213806" y="56.992962" style="fill: #1e90ff; stroke: #ffffff"/>
     <use xlink:href="#m711165682e" x="433.426632" y="266.703124" style="fill: #1e90ff; stroke: #ffffff"/>
     <use xlink:href="#m711165682e" x="198.694925" y="286.05213" style="fill: #1e90ff; stroke: #ffffff"/>
     <use xlink:href="#m711165682e" x="203.115435" y="281.467882" style="fill: #1e90ff; stroke: #ffffff"/>
     <use xlink:href="#m711165682e" x="184.73627" y="279.184961" style="fill: #1e90ff; stroke: #ffffff"/>
     <use xlink:href="#m711165682e" x="407.887657" y="262.438606" style="fill: #1e90ff; stroke: #ffffff"/>
     <use xlink:href="#m711165682e" x="392.92767" y="228.142074" style="fill: #1e90ff; stroke: #ffffff"/>
     <use xlink:href="#m711165682e" x="418.158619" y="270.266584" style="fill: #1e90ff; stroke: #ffffff"/>
     <use xlink:href="#m711165682e" x="447.990696" y="268.83912" style="fill: #1e90ff; stroke: #ffffff"/>
     <use xlink:href="#m711165682e" x="398.696473" y="242.390371" style="fill: #1e90ff; stroke: #ffffff"/>
     <use xlink:href="#m711165682e" x="305.942352" y="35.144342" style="fill: #1e90ff; stroke: #ffffff"/>
     <use xlink:href="#m711165682e" x="393.579331" y="226.077693" style="fill: #1e90ff; stroke: #ffffff"/>
     <use xlink:href="#m711165682e" x="211.670415" y="250.028455" style="fill: #1e90ff; stroke: #ffffff"/>
     <use xlink:href="#m711165682e" x="354.956917" y="100.88468" style="fill: #1e90ff; stroke: #ffffff"/>
     <use xlink:href="#m711165682e" x="218.559106" y="266.12297" style="fill: #1e90ff; stroke: #ffffff"/>
     <use xlink:href="#m711165682e" x="438.665428" y="256.822768" style="fill: #1e90ff; stroke: #ffffff"/>
     <use xlink:href="#m711165682e" x="322.524569" y="40.527773" style="fill: #1e90ff; stroke: #ffffff"/>
     <use xlink:href="#m711165682e" x="293.082487" y="74.394826" style="fill: #1e90ff; stroke: #ffffff"/>
     <use xlink:href="#m711165682e" x="251.851104" y="202.346042" style="fill: #1e90ff; stroke: #ffffff"/>
     <use xlink:href="#m711165682e" x="391.850079" y="223.422485" style="fill: #1e90ff; stroke: #ffffff"/>
     <use xlink:href="#m711165682e" x="304.478567" y="34.616608" style="fill: #1e90ff; stroke: #ffffff"/>
     <use xlink:href="#m711165682e" x="335.320764" y="31.60263" style="fill: #1e90ff; stroke: #ffffff"/>
     <use xlink:href="#m711165682e" x="184.343861" y="281.06539" style="fill: #1e90ff; stroke: #ffffff"/>
     <use xlink:href="#m711165682e" x="348.835503" y="111.629527" style="fill: #1e90ff; stroke: #ffffff"/>
     <use xlink:href="#m711165682e" x="347.313831" y="83.101851" style="fill: #1e90ff; stroke: #ffffff"/>
     <use xlink:href="#m711165682e" x="348.642814" y="100.038722" style="fill: #1e90ff; stroke: #ffffff"/>
     <use xlink:href="#m711165682e" x="438.412491" y="282.462739" style="fill: #1e90ff; stroke: #ffffff"/>
     <use xlink:href="#m711165682e" x="366.46586" y="141.259706" style="fill: #1e90ff; stroke: #ffffff"/>
     <use xlink:href="#m711165682e" x="277.93271" y="120.255064" style="fill: #1e90ff; stroke: #ffffff"/>
     <use xlink:href="#m711165682e" x="299.227109" y="46.477444" style="fill: #1e90ff; stroke: #ffffff"/>
     <use xlink:href="#m711165682e" x="370.808816" y="174.343997" style="fill: #1e90ff; stroke: #ffffff"/>
     <use xlink:href="#m711165682e" x="195.72546" y="266.439367" style="fill: #1e90ff; stroke: #ffffff"/>
     <use xlink:href="#m711165682e" x="362.330924" y="129.286044" style="fill: #1e90ff; stroke: #ffffff"/>
    </g>
   </g>
   <g id="patch_3">
    <path d="M 167.182657 287.157901 
L 167.182657 33.198885 
" style="fill: none; stroke: #5a5758; stroke-width: 0.8; stroke-linejoin: miter; stroke-linecap: square"/>
   </g>
   <g id="patch_4">
    <path d="M 179.182657 299.157901 
L 453.863835 299.157901 
" style="fill: none; stroke: #5a5758; stroke-width: 0.8; stroke-linejoin: miter; stroke-linecap: square"/>
   </g>
   <g id="text_10">
    <!-- Calculated -->
    <g style="fill: #e29400" transform="translate(181.447635 157.17183) scale(0.18 -0.18)">
     <defs>
      <path id="CMUBright-Roman-43" d="M 518 2221 
C 518 1011 1370 -109 2643 -109 
C 3322 -109 3590 45 3949 250 
L 3917 621 
C 3571 410 3334 230 2643 230 
C 1638 230 966 1184 966 2221 
C 966 3296 1670 4211 2637 4211 
C 3206 4211 3507 4045 3795 3891 
L 3878 4333 
C 3584 4435 3206 4550 2643 4550 
C 1370 4550 518 3430 518 2221 
z
" transform="scale(0.015625)"/>
      <path id="CMUBright-Roman-61" d="M 352 736 
C 352 442 538 -51 1062 -51 
L 1107 -51 
C 1523 -51 1952 102 2227 442 
L 2227 0 
L 2630 0 
L 2630 1926 
L 2624 2144 
C 2592 2560 2272 3104 1574 3104 
C 1158 3104 851 3002 525 2829 
L 557 2470 
C 762 2598 1050 2803 1568 2803 
C 1638 2803 1862 2797 2042 2579 
C 2202 2394 2214 2189 2214 1965 
L 2214 1696 
C 691 1664 352 1120 352 736 
z
M 749 749 
C 749 1197 1357 1491 2214 1498 
L 2214 928 
C 2214 378 1664 269 1408 269 
C 1107 269 749 422 749 749 
z
" transform="scale(0.015625)"/>
      <path id="CMUBright-Roman-6c" d="M 512 0 
L 915 0 
L 915 4448 
L 512 4448 
L 512 0 
z
" transform="scale(0.015625)"/>
      <path id="CMUBright-Roman-63" d="M 294 1517 
C 294 640 909 -51 1690 -51 
C 2176 -51 2509 115 2797 352 
L 2765 710 
C 2579 550 2272 282 1696 282 
C 1216 282 717 659 710 1523 
C 710 2285 1107 2771 1709 2771 
C 2202 2771 2394 2656 2694 2477 
L 2758 2829 
C 2381 3027 2170 3104 1709 3104 
C 858 3104 294 2342 294 1517 
z
" transform="scale(0.015625)"/>
      <path id="CMUBright-Roman-75" d="M 512 851 
C 512 467 550 -51 1254 -51 
C 1722 -51 2157 173 2381 550 
L 2381 0 
L 2784 0 
L 2784 3021 
L 2374 3021 
L 2374 1120 
C 2374 531 1958 250 1517 250 
C 986 250 928 429 928 781 
L 928 3021 
L 512 3021 
L 512 851 
z
" transform="scale(0.015625)"/>
      <path id="CMUBright-Roman-74" d="M 122 2701 
L 730 2701 
L 730 838 
C 730 557 749 -51 1261 -51 
C 1651 -51 1965 64 2234 230 
L 2150 544 
C 2074 486 1856 282 1491 282 
C 1139 282 1126 704 1126 883 
L 1126 2701 
L 2118 2701 
L 2118 3021 
L 1126 3021 
L 1126 3885 
L 736 3885 
L 736 3021 
L 122 3021 
L 122 2701 
z
" transform="scale(0.015625)"/>
      <path id="CMUBright-Roman-65" d="M 269 1536 
C 269 634 909 -51 1690 -51 
C 2144 -51 2490 134 2758 358 
L 2726 710 
C 2490 499 2176 269 1690 269 
C 1178 269 653 736 653 1549 
L 653 1600 
L 2771 1600 
C 2765 2867 2042 3098 1587 3098 
C 813 3098 269 2349 269 1536 
z
M 685 1856 
C 781 2374 1146 2778 1587 2778 
C 1920 2778 2355 2573 2426 1856 
L 685 1856 
z
" transform="scale(0.015625)"/>
      <path id="CMUBright-Roman-64" d="M 294 1510 
C 294 678 787 -51 1459 -51 
C 1824 -51 2150 147 2368 467 
L 2374 269 
L 2374 0 
L 2784 0 
L 2784 4448 
L 2381 4448 
L 2381 2624 
C 2163 2893 1882 3072 1504 3072 
C 896 3072 294 2451 294 1510 
z
M 710 1510 
C 710 2579 1427 2752 1722 2752 
C 2080 2752 2374 2490 2374 2253 
L 2374 902 
C 2374 723 2342 723 2259 582 
C 2144 429 1958 269 1664 269 
C 1331 269 710 461 710 1510 
z
" transform="scale(0.015625)"/>
     </defs>
     <use xlink:href="#CMUBright-Roman-43"/>
     <use xlink:href="#CMUBright-Roman-61" x="67.099991"/>
     <use xlink:href="#CMUBright-Roman-6c" x="116.299988"/>
     <use xlink:href="#CMUBright-Roman-63" x="138.799973"/>
     <use xlink:href="#CMUBright-Roman-75" x="185.499969"/>
     <use xlink:href="#CMUBright-Roman-6c" x="237.199966"/>
     <use xlink:href="#CMUBright-Roman-61" x="259.699951"/>
     <use xlink:href="#CMUBright-Roman-74" x="308.899948"/>
     <use xlink:href="#CMUBright-Roman-65" x="346.799942"/>
     <use xlink:href="#CMUBright-Roman-64" x="393.499939"/>
    </g>
   </g>
   <g id="text_11">
    <!-- Measured -->
    <g style="fill: #1e90ff" transform="translate(348.569383 48.883373) scale(0.18 -0.18)">
     <defs>
      <path id="CMUBright-Roman-4d" d="M 646 0 
L 1050 0 
L 1050 4032 
L 1280 3418 
L 2624 109 
L 3008 109 
L 4090 2752 
L 4589 4032 
L 4589 0 
L 4992 0 
L 4992 4448 
L 4397 4448 
L 2912 774 
L 2822 518 
L 2528 1274 
L 1235 4448 
L 646 4448 
L 646 0 
z
" transform="scale(0.015625)"/>
      <path id="CMUBright-Roman-73" d="M 186 250 
C 512 70 870 -51 1331 -51 
C 2221 -51 2419 486 2419 845 
C 2419 1306 2061 1574 1760 1683 
C 1568 1754 1126 1818 998 1856 
C 723 1939 595 2125 595 2304 
C 595 2477 698 2784 1267 2784 
C 1658 2784 1888 2714 2240 2534 
L 2304 2886 
C 1946 3046 1702 3104 1331 3104 
L 1312 3104 
C 416 3098 224 2592 224 2253 
C 224 2074 288 1933 371 1818 
C 698 1382 1261 1408 1606 1299 
C 1760 1248 2048 1101 2048 806 
C 2048 595 1907 282 1325 282 
C 838 282 544 435 250 621 
L 186 250 
z
" transform="scale(0.015625)"/>
      <path id="CMUBright-Roman-72" d="M 512 0 
L 915 0 
L 915 1510 
C 915 2400 1600 2701 2112 2714 
L 2112 3072 
C 1376 3059 1024 2528 902 2234 
L 896 2534 
L 896 3021 
L 512 3021 
L 512 0 
z
" transform="scale(0.015625)"/>
     </defs>
     <use xlink:href="#CMUBright-Roman-4d"/>
     <use xlink:href="#CMUBright-Roman-65" x="88.299988"/>
     <use xlink:href="#CMUBright-Roman-61" x="134.999985"/>
     <use xlink:href="#CMUBright-Roman-73" x="184.199982"/>
     <use xlink:href="#CMUBright-Roman-75" x="224.399979"/>
     <use xlink:href="#CMUBright-Roman-72" x="276.099976"/>
     <use xlink:href="#CMUBright-Roman-65" x="310.699966"/>
     <use xlink:href="#CMUBright-Roman-64" x="357.399963"/>
    </g>
   </g>
   <g id="text_12">
    <!-- 68.27% -->
    <g style="fill: #5a5758" transform="translate(287.119965 236.534023) scale(0.18 -0.18)">
     <defs>
      <path id="CMUBright-Roman-36" d="M 346 2061 
C 346 269 1152 -109 1690 -109 
C 2125 -109 2394 70 2618 326 
C 2899 646 3008 954 3008 1408 
C 3008 1837 2931 2138 2682 2483 
C 2502 2726 2298 2886 1952 2886 
C 1382 2886 960 2522 774 2125 
C 774 2150 768 2182 768 2208 
C 768 3264 1286 3981 2061 3981 
L 2074 3981 
C 2349 3981 2515 3936 2797 3846 
L 2797 4179 
C 2522 4269 2349 4301 2086 4301 
L 2074 4301 
C 1203 4301 346 3469 346 2061 
z
M 794 1389 
L 806 1389 
C 800 1440 800 1504 800 1555 
C 800 2080 1171 2566 1728 2566 
C 1926 2566 2106 2522 2253 2400 
C 2573 2131 2586 1754 2586 1434 
C 2586 1069 2579 819 2381 550 
C 2221 333 2016 224 1690 224 
C 966 224 838 934 794 1389 
z
" transform="scale(0.015625)"/>
      <path id="CMUBright-Roman-38" d="M 275 1158 
C 275 518 851 -109 1670 -109 
C 2470 -109 3072 493 3072 1158 
C 3072 1792 2509 2163 2099 2266 
L 2285 2323 
C 2675 2483 2982 2803 2982 3213 
C 2982 3808 2400 4301 1677 4301 
C 909 4301 371 3763 371 3206 
C 371 2682 864 2362 1248 2266 
C 563 2054 275 1600 275 1158 
z
M 698 1158 
C 698 1882 1235 2106 1670 2106 
C 2195 2106 2650 1805 2650 1165 
C 2650 557 2259 224 1670 224 
C 1126 224 698 525 698 1158 
z
M 755 3206 
C 755 3514 915 3981 1683 3981 
C 2432 3981 2592 3514 2592 3206 
C 2592 2720 2234 2426 1670 2426 
C 1011 2426 755 2822 755 3206 
z
" transform="scale(0.015625)"/>
      <path id="CMUBright-Roman-32" d="M 275 3226 
L 512 2938 
C 653 3475 864 3962 1498 3962 
C 2106 3962 2592 3571 2592 2982 
C 2592 2413 2214 2022 1683 1562 
L 333 339 
L 333 0 
L 3021 0 
L 3021 358 
L 698 358 
C 1773 1325 1638 1210 2061 1549 
C 2438 1856 3021 2304 3021 2989 
C 3021 3744 2419 4294 1594 4301 
L 1587 4301 
C 800 4301 442 3782 275 3226 
z
" transform="scale(0.015625)"/>
      <path id="CMUBright-Roman-37" d="M 275 3840 
L 2797 3840 
C 1651 2784 1088 1357 1088 -51 
L 1517 -51 
C 1517 1670 2278 3021 3072 3853 
L 3072 4192 
L 275 4192 
L 275 3840 
z
" transform="scale(0.015625)"/>
      <path id="CMUBright-Roman-25" d="M 371 3514 
C 371 2733 845 2221 1312 2221 
C 1824 2221 2240 2797 2240 3507 
C 2240 4237 1811 4800 1306 4800 
C 851 4800 371 4307 371 3514 
z
M 762 3514 
C 762 3712 774 3910 845 4096 
C 934 4339 1120 4474 1306 4474 
C 1600 4474 1862 4090 1862 3514 
C 1862 3008 1638 2547 1306 2547 
C 1171 2547 1037 2618 954 2720 
C 806 2893 762 3149 762 3514 
z
M 1190 -224 
C 1190 -288 1242 -352 1312 -352 
C 1363 -352 1402 -320 1427 -282 
L 4326 4480 
C 4416 4627 4416 4634 4416 4672 
C 4416 4742 4358 4794 4294 4794 
C 4230 4794 4192 4742 4166 4710 
L 1248 -83 
C 1242 -96 1190 -166 1190 -224 
z
M 3354 934 
C 3354 154 3827 -352 4294 -352 
C 4806 -352 5222 218 5222 928 
C 5222 1651 4794 2221 4288 2221 
C 3776 2221 3354 1638 3354 934 
z
M 3750 934 
C 3750 1133 3757 1338 3827 1523 
C 3917 1766 4102 1901 4288 1901 
C 4582 1901 4851 1510 4851 934 
C 4851 429 4621 -32 4288 -32 
C 4154 -32 4026 38 3942 141 
C 3795 314 3750 570 3750 934 
z
" transform="scale(0.015625)"/>
     </defs>
     <use xlink:href="#CMUBright-Roman-36"/>
     <use xlink:href="#CMUBright-Roman-38" x="52.499985"/>
     <use xlink:href="#CMUBright-Roman-2e" x="104.999969"/>
     <use xlink:href="#CMUBright-Roman-32" x="134.199966"/>
     <use xlink:href="#CMUBright-Roman-37" x="186.699951"/>
     <use xlink:href="#CMUBright-Roman-25" x="239.199936"/>
    </g>
   </g>
   <g id="patch_5">
    <path d="M 359.187554 242.715073 
Q 316.523315 242.715073 273.859076 242.715073 
" style="fill: none; stroke: #5a5758; stroke-linecap: round"/>
    <path d="M 351.987554 239.115073 
L 359.187554 242.715073 
L 351.987554 246.315073 
L 351.987554 239.115073 
z
" style="fill: #5a5758; stroke: #5a5758; stroke-linecap: round"/>
    <path d="M 281.059076 246.315073 
L 273.859076 242.715073 
L 281.059076 239.115073 
L 281.059076 246.315073 
z
" style="fill: #5a5758; stroke: #5a5758; stroke-linecap: round"/>
   </g>
  </g>
  <g id="text_13">
   <!-- doumont-light style -->
   <g style="fill: #5a5758" transform="translate(141.134625 18.01224) scale(0.216 -0.216)">
    <defs>
     <path id="CMUBright-Roman-6f" d="M 256 1510 
C 256 646 890 -51 1677 -51 
C 2419 -51 3091 595 3091 1510 
C 3091 2355 2483 3098 1677 3098 
C 915 3098 256 2419 256 1510 
z
M 666 1587 
C 666 2541 1280 2778 1677 2778 
C 2080 2778 2682 2541 2682 1568 
C 2682 538 2080 282 1677 282 
C 1331 282 666 467 666 1587 
z
" transform="scale(0.015625)"/>
     <path id="CMUBright-Roman-6d" d="M 512 0 
L 928 0 
L 928 1677 
C 928 1696 922 1709 922 1728 
C 922 2330 1190 2752 1658 2752 
C 2374 2752 2374 2253 2374 1990 
L 2374 0 
L 2790 0 
L 2790 1728 
C 2790 2330 3053 2752 3520 2752 
C 4237 2752 4243 2259 4243 1990 
L 4243 0 
L 4653 0 
L 4653 2016 
C 4653 2387 4640 3072 3744 3072 
C 3162 3072 2880 2643 2771 2387 
C 2739 2522 2662 3072 1875 3072 
C 1293 3072 1005 2630 909 2400 
L 909 3021 
L 512 3021 
L 512 0 
z
" transform="scale(0.015625)"/>
     <path id="CMUBright-Roman-6e" d="M 512 0 
L 928 0 
L 928 1677 
C 928 2586 1363 2752 1658 2752 
C 2374 2752 2374 2253 2374 1990 
L 2374 0 
L 2784 0 
L 2784 2016 
C 2784 2381 2771 3072 1869 3072 
C 1357 3072 1050 2726 909 2400 
L 909 3021 
L 512 3021 
L 512 0 
z
" transform="scale(0.015625)"/>
     <path id="CMUBright-Roman-69" d="M 512 4038 
L 915 4038 
L 915 4442 
L 512 4442 
L 512 4038 
z
M 512 0 
L 915 0 
L 915 3021 
L 512 3021 
L 512 0 
z
" transform="scale(0.015625)"/>
     <path id="CMUBright-Roman-67" d="M 294 1517 
C 294 704 858 109 1485 109 
C 2016 109 2272 557 2368 800 
L 2374 576 
L 2374 77 
C 2374 -608 1978 -858 1632 -858 
C 1075 -858 736 -685 461 -544 
L 461 -890 
C 845 -1075 1165 -1178 1645 -1178 
C 2285 -1178 2784 -704 2784 58 
L 2784 3072 
L 2381 3072 
L 2381 2515 
C 2240 2771 1997 3072 1555 3072 
C 915 3072 294 2426 294 1517 
z
M 710 1517 
C 710 2221 1203 2752 1741 2752 
C 2202 2752 2381 2253 2381 2022 
L 2381 1600 
L 2374 1600 
C 2368 1094 2227 429 1664 429 
C 1197 429 710 864 710 1517 
z
" transform="scale(0.015625)"/>
     <path id="CMUBright-Roman-68" d="M 512 0 
L 928 0 
L 928 1677 
C 928 2586 1363 2752 1658 2752 
C 2374 2752 2374 2253 2374 1990 
L 2374 0 
L 2784 0 
L 2784 2016 
C 2784 2394 2765 3072 1869 3072 
C 1299 3072 1018 2643 922 2419 
L 915 2694 
L 915 4448 
L 512 4448 
L 512 0 
z
" transform="scale(0.015625)"/>
     <path id="CMUBright-Roman-20" transform="scale(0.015625)"/>
     <path id="CMUBright-Roman-79" d="M 90 3021 
L 1274 128 
C 1299 70 1312 45 1312 6 
C 1312 -19 1306 -51 1286 -102 
C 1146 -474 1043 -794 685 -794 
C 493 -794 275 -749 154 -717 
L 186 -1075 
C 301 -1094 506 -1120 685 -1120 
C 1216 -1120 1427 -627 1574 -250 
L 2835 3021 
L 2432 3021 
C 1875 1581 1536 672 1498 416 
C 1453 614 1421 710 1171 1370 
L 506 3021 
L 90 3021 
z
" transform="scale(0.015625)"/>
    </defs>
    <use xlink:href="#CMUBright-Roman-64"/>
    <use xlink:href="#CMUBright-Roman-6f" x="51.699997"/>
    <use xlink:href="#CMUBright-Roman-75" x="104.199982"/>
    <use xlink:href="#CMUBright-Roman-6d" x="155.899979"/>
    <use xlink:href="#CMUBright-Roman-6f" x="236.699966"/>
    <use xlink:href="#CMUBright-Roman-6e" x="289.199951"/>
    <use xlink:href="#CMUBright-Roman-74" x="340.899948"/>
    <use xlink:href="#CMUBright-Roman-2d" x="378.799942"/>
    <use xlink:href="#CMUBright-Roman-6c" x="413.799927"/>
    <use xlink:href="#CMUBright-Roman-69" x="436.299911"/>
    <use xlink:href="#CMUBright-Roman-67" x="458.799896"/>
    <use xlink:href="#CMUBright-Roman-68" x="510.499893"/>
    <use xlink:href="#CMUBright-Roman-74" x="562.19989"/>
    <use xlink:href="#CMUBright-Roman-20" x="600.099884"/>
    <use xlink:href="#CMUBright-Roman-73" x="633.399872"/>
    <use xlink:href="#CMUBright-Roman-74" x="673.599869"/>
    <use xlink:href="#CMUBright-Roman-79" x="711.499863"/>
    <use xlink:href="#CMUBright-Roman-6c" x="757.29985"/>
    <use xlink:href="#CMUBright-Roman-65" x="779.799835"/>
   </g>
  </g>
 </g>
 <defs>
  <clipPath id="p421ee9ca3f">
   <rect x="179.182657" y="33.198885" width="274.681178" height="253.959016"/>
  </clipPath>
 </defs>
</svg>
