<?xml version="1.0" encoding="utf-8" standalone="no"?>
<!DOCTYPE svg PUBLIC "-//W3C//DTD SVG 1.1//EN"
  "http://www.w3.org/Graphics/SVG/1.1/DTD/svg11.dtd">
<svg xmlns:xlink="http://www.w3.org/1999/xlink" width="460.8pt" height="345.6pt" viewBox="0 0 460.8 345.6" xmlns="http://www.w3.org/2000/svg" version="1.1">
 <metadata>
  <rdf:RDF xmlns:dc="http://purl.org/dc/elements/1.1/" xmlns:cc="http://creativecommons.org/ns#" xmlns:rdf="http://www.w3.org/1999/02/22-rdf-syntax-ns#">
   <cc:Work>
    <dc:type rdf:resource="http://purl.org/dc/dcmitype/StillImage"/>
    <dc:date>2023-01-24T01:48:17.379148</dc:date>
    <dc:format>image/svg+xml</dc:format>
    <dc:creator>
     <cc:Agent>
      <dc:title>Matplotlib v3.6.3, https://matplotlib.org/</dc:title>
     </cc:Agent>
    </dc:creator>
   </cc:Work>
  </rdf:RDF>
 </metadata>
 <defs>
  <style type="text/css">*{stroke-linejoin: round; stroke-linecap: butt}</style>
 </defs>
 <g id="figure_1">
  <g id="patch_1">
   <path d="M 0 345.6 
L 460.8 345.6 
L 460.8 0 
L 0 0 
z
" style="fill: #011d3b"/>
  </g>
  <g id="axes_1">
   <g id="patch_2">
    <path d="M 176.52693 272.50011 
L 439.007767 272.50011 
L 439.007767 77.549113 
L 176.52693 77.549113 
z
" style="fill: #011d3b"/>
   </g>
   <g id="PolyCollection_1">
    <path d="M 264.020542 272.50011 
L 264.020542 154.569025 
L 264.283286 153.860738 
L 264.54603 153.152503 
L 264.808773 152.444371 
L 265.071517 151.736394 
L 265.33426 151.028623 
L 265.597004 150.321112 
L 265.859748 149.613912 
L 266.122491 148.907078 
L 266.385235 148.200661 
L 266.647978 147.494716 
L 266.910722 146.789297 
L 267.173465 146.084457 
L 267.436209 145.380251 
L 267.698953 144.676732 
L 267.961696 143.973957 
L 268.22444 143.271979 
L 268.487183 142.570855 
L 268.749927 141.870638 
L 269.012671 141.171385 
L 269.275414 140.473152 
L 269.538158 139.775994 
L 269.800901 139.079968 
L 270.063645 138.385129 
L 270.326388 137.691535 
L 270.589132 136.999242 
L 270.851876 136.308306 
L 271.114619 135.618785 
L 271.377363 134.930735 
L 271.640106 134.244214 
L 271.90285 133.55928 
L 272.165594 132.875988 
L 272.428337 132.194397 
L 272.691081 131.514565 
L 272.953824 130.836549 
L 273.216568 130.160407 
L 273.479311 129.486197 
L 273.742055 128.813976 
L 274.004799 128.143803 
L 274.267542 127.475736 
L 274.530286 126.809832 
L 274.793029 126.14615 
L 275.055773 125.484748 
L 275.318516 124.825684 
L 275.58126 124.169016 
L 275.844004 123.514803 
L 276.106747 122.863102 
L 276.369491 122.213971 
L 276.632234 121.567469 
L 276.894978 120.923654 
L 277.157722 120.282583 
L 277.420465 119.644315 
L 277.683209 119.008907 
L 277.945952 118.376418 
L 278.208696 117.746905 
L 278.471439 117.120426 
L 278.734183 116.497038 
L 278.996927 115.876798 
L 279.25967 115.259765 
L 279.522414 114.645995 
L 279.785157 114.035546 
L 280.047901 113.428474 
L 280.310645 112.824837 
L 280.573388 112.22469 
L 280.836132 111.628091 
L 281.098875 111.035095 
L 281.361619 110.44576 
L 281.624362 109.86014 
L 281.887106 109.278292 
L 282.14985 108.70027 
L 282.412593 108.126132 
L 282.675337 107.555931 
L 282.93808 106.989722 
L 283.200824 106.427561 
L 283.463567 105.869501 
L 283.726311 105.315596 
L 283.989055 104.765901 
L 284.251798 104.220468 
L 284.514542 103.679352 
L 284.777285 103.142606 
L 285.040029 102.610281 
L 285.302773 102.08243 
L 285.565516 101.559105 
L 285.82826 101.040359 
L 286.091003 100.526242 
L 286.353747 100.016805 
L 286.61649 99.512099 
L 286.879234 99.012175 
L 287.141978 98.517082 
L 287.404721 98.026869 
L 287.667465 97.541587 
L 287.930208 97.061284 
L 288.192952 96.586008 
L 288.455696 96.115806 
L 288.718439 95.650728 
L 288.981183 95.190819 
L 289.243926 94.736127 
L 289.50667 94.286697 
L 289.769413 93.842576 
L 290.032157 93.403808 
L 290.294901 92.970439 
L 290.557644 92.542513 
L 290.820388 92.120074 
L 291.083131 91.703165 
L 291.345875 91.291829 
L 291.608619 90.886108 
L 291.871362 90.486045 
L 292.134106 90.091681 
L 292.396849 89.703056 
L 292.659593 89.320211 
L 292.922336 88.943185 
L 293.18508 88.572018 
L 293.447824 88.206749 
L 293.710567 87.847415 
L 293.973311 87.494055 
L 294.236054 87.146704 
L 294.498798 86.805399 
L 294.761541 86.470177 
L 295.024285 86.141072 
L 295.287029 85.818119 
L 295.549772 85.501352 
L 295.812516 85.190805 
L 296.075259 84.886509 
L 296.338003 84.588497 
L 296.600747 84.296801 
L 296.86349 84.011452 
L 297.126234 83.732479 
L 297.388977 83.459913 
L 297.651721 83.193781 
L 297.914464 82.934114 
L 298.177208 82.680937 
L 298.439952 82.434279 
L 298.702695 82.194164 
L 298.965439 81.96062 
L 299.228182 81.733671 
L 299.490926 81.51334 
L 299.75367 81.299653 
L 300.016413 81.092631 
L 300.279157 80.892296 
L 300.5419 80.698671 
L 300.804644 80.511776 
L 301.067387 80.33163 
L 301.330131 80.158254 
L 301.592875 79.991666 
L 301.855618 79.831883 
L 302.118362 79.678923 
L 302.381105 79.532803 
L 302.643849 79.393538 
L 302.906592 79.261144 
L 303.169336 79.135633 
L 303.43208 79.017021 
L 303.694823 78.905319 
L 303.957567 78.80054 
L 304.22031 78.702695 
L 304.483054 78.611795 
L 304.745798 78.527849 
L 305.008541 78.450867 
L 305.271285 78.380857 
L 305.534028 78.317826 
L 305.796772 78.261781 
L 306.059515 78.212729 
L 306.322259 78.170674 
L 306.585003 78.135622 
L 306.847746 78.107575 
L 307.11049 78.086538 
L 307.373233 78.072511 
L 307.635977 78.065498 
L 307.898721 78.065498 
L 308.161464 78.072511 
L 308.424208 78.086538 
L 308.686951 78.107575 
L 308.949695 78.135622 
L 309.212438 78.170674 
L 309.475182 78.212729 
L 309.737926 78.261781 
L 310.000669 78.317826 
L 310.263413 78.380857 
L 310.526156 78.450867 
L 310.7889 78.527849 
L 311.051644 78.611795 
L 311.314387 78.702695 
L 311.577131 78.80054 
L 311.839874 78.905319 
L 312.102618 79.017021 
L 312.365361 79.135633 
L 312.628105 79.261144 
L 312.890849 79.393538 
L 313.153592 79.532803 
L 313.416336 79.678923 
L 313.679079 79.831883 
L 313.941823 79.991666 
L 314.204566 80.158254 
L 314.46731 80.33163 
L 314.730054 80.511776 
L 314.992797 80.698671 
L 315.255541 80.892296 
L 315.518284 81.092631 
L 315.781028 81.299653 
L 316.043772 81.51334 
L 316.306515 81.733671 
L 316.569259 81.96062 
L 316.832002 82.194164 
L 317.094746 82.434279 
L 317.357489 82.680937 
L 317.620233 82.934114 
L 317.882977 83.193781 
L 318.14572 83.459913 
L 318.408464 83.732479 
L 318.671207 84.011452 
L 318.933951 84.296801 
L 319.196695 84.588497 
L 319.459438 84.886509 
L 319.722182 85.190805 
L 319.984925 85.501352 
L 320.247669 85.818119 
L 320.510412 86.141072 
L 320.773156 86.470177 
L 321.0359 86.805399 
L 321.298643 87.146704 
L 321.561387 87.494055 
L 321.82413 87.847415 
L 322.086874 88.206749 
L 322.349617 88.572018 
L 322.612361 88.943185 
L 322.875105 89.320211 
L 323.137848 89.703056 
L 323.400592 90.091681 
L 323.663335 90.486045 
L 323.926079 90.886108 
L 324.188823 91.291829 
L 324.451566 91.703165 
L 324.71431 92.120074 
L 324.977053 92.542513 
L 325.239797 92.970439 
L 325.50254 93.403808 
L 325.765284 93.842576 
L 326.028028 94.286697 
L 326.290771 94.736127 
L 326.553515 95.190819 
L 326.816258 95.650728 
L 327.079002 96.115806 
L 327.341746 96.586008 
L 327.604489 97.061284 
L 327.867233 97.541587 
L 328.129976 98.026869 
L 328.39272 98.517082 
L 328.655463 99.012175 
L 328.918207 99.512099 
L 329.180951 100.016805 
L 329.443694 100.526242 
L 329.706438 101.040359 
L 329.969181 101.559105 
L 330.231925 102.08243 
L 330.494669 102.610281 
L 330.757412 103.142606 
L 331.020156 103.679352 
L 331.282899 104.220468 
L 331.545643 104.765901 
L 331.808386 105.315596 
L 332.07113 105.869501 
L 332.333874 106.427561 
L 332.596617 106.989722 
L 332.859361 107.555931 
L 333.122104 108.126132 
L 333.384848 108.70027 
L 333.647591 109.278292 
L 333.910335 109.86014 
L 334.173079 110.44576 
L 334.435822 111.035095 
L 334.698566 111.628091 
L 334.961309 112.22469 
L 335.224053 112.824837 
L 335.486797 113.428474 
L 335.74954 114.035546 
L 336.012284 114.645995 
L 336.275027 115.259765 
L 336.537771 115.876798 
L 336.800514 116.497038 
L 337.063258 117.120426 
L 337.326002 117.746905 
L 337.588745 118.376418 
L 337.851489 119.008907 
L 338.114232 119.644315 
L 338.376976 120.282583 
L 338.63972 120.923654 
L 338.902463 121.567469 
L 339.165207 122.213971 
L 339.42795 122.863102 
L 339.690694 123.514803 
L 339.953437 124.169016 
L 340.216181 124.825684 
L 340.478925 125.484748 
L 340.741668 126.14615 
L 341.004412 126.809832 
L 341.267155 127.475736 
L 341.529899 128.143803 
L 341.792642 128.813976 
L 342.055386 129.486197 
L 342.31813 130.160407 
L 342.580873 130.836549 
L 342.843617 131.514565 
L 343.10636 132.194397 
L 343.369104 132.875988 
L 343.631848 133.55928 
L 343.894591 134.244214 
L 344.157335 134.930735 
L 344.420078 135.618785 
L 344.682822 136.308306 
L 344.945565 136.999242 
L 345.208309 137.691535 
L 345.471053 138.385129 
L 345.733796 139.079968 
L 345.99654 139.775994 
L 346.259283 140.473152 
L 346.522027 141.171385 
L 346.784771 141.870638 
L 347.047514 142.570855 
L 347.310258 143.271979 
L 347.573001 143.973957 
L 347.835745 144.676732 
L 348.098488 145.380251 
L 348.361232 146.084457 
L 348.623976 146.789297 
L 348.886719 147.494716 
L 349.149463 148.200661 
L 349.412206 148.907078 
L 349.67495 149.613912 
L 349.937694 150.321112 
L 350.200437 151.028623 
L 350.463181 151.736394 
L 350.725924 152.444371 
L 350.988668 153.152503 
L 351.251411 153.860738 
L 351.514155 154.569025 
L 351.514155 272.50011 
L 351.514155 272.50011 
L 351.251411 272.50011 
L 350.988668 272.50011 
L 350.725924 272.50011 
L 350.463181 272.50011 
L 350.200437 272.50011 
L 349.937694 272.50011 
L 349.67495 272.50011 
L 349.412206 272.50011 
L 349.149463 272.50011 
L 348.886719 272.50011 
L 348.623976 272.50011 
L 348.361232 272.50011 
L 348.098488 272.50011 
L 347.835745 272.50011 
L 347.573001 272.50011 
L 347.310258 272.50011 
L 347.047514 272.50011 
L 346.784771 272.50011 
L 346.522027 272.50011 
L 346.259283 272.50011 
L 345.99654 272.50011 
L 345.733796 272.50011 
L 345.471053 272.50011 
L 345.208309 272.50011 
L 344.945565 272.50011 
L 344.682822 272.50011 
L 344.420078 272.50011 
L 344.157335 272.50011 
L 343.894591 272.50011 
L 343.631848 272.50011 
L 343.369104 272.50011 
L 343.10636 272.50011 
L 342.843617 272.50011 
L 342.580873 272.50011 
L 342.31813 272.50011 
L 342.055386 272.50011 
L 341.792642 272.50011 
L 341.529899 272.50011 
L 341.267155 272.50011 
L 341.004412 272.50011 
L 340.741668 272.50011 
L 340.478925 272.50011 
L 340.216181 272.50011 
L 339.953437 272.50011 
L 339.690694 272.50011 
L 339.42795 272.50011 
L 339.165207 272.50011 
L 338.902463 272.50011 
L 338.63972 272.50011 
L 338.376976 272.50011 
L 338.114232 272.50011 
L 337.851489 272.50011 
L 337.588745 272.50011 
L 337.326002 272.50011 
L 337.063258 272.50011 
L 336.800514 272.50011 
L 336.537771 272.50011 
L 336.275027 272.50011 
L 336.012284 272.50011 
L 335.74954 272.50011 
L 335.486797 272.50011 
L 335.224053 272.50011 
L 334.961309 272.50011 
L 334.698566 272.50011 
L 334.435822 272.50011 
L 334.173079 272.50011 
L 333.910335 272.50011 
L 333.647591 272.50011 
L 333.384848 272.50011 
L 333.122104 272.50011 
L 332.859361 272.50011 
L 332.596617 272.50011 
L 332.333874 272.50011 
L 332.07113 272.50011 
L 331.808386 272.50011 
L 331.545643 272.50011 
L 331.282899 272.50011 
L 331.020156 272.50011 
L 330.757412 272.50011 
L 330.494669 272.50011 
L 330.231925 272.50011 
L 329.969181 272.50011 
L 329.706438 272.50011 
L 329.443694 272.50011 
L 329.180951 272.50011 
L 328.918207 272.50011 
L 328.655463 272.50011 
L 328.39272 272.50011 
L 328.129976 272.50011 
L 327.867233 272.50011 
L 327.604489 272.50011 
L 327.341746 272.50011 
L 327.079002 272.50011 
L 326.816258 272.50011 
L 326.553515 272.50011 
L 326.290771 272.50011 
L 326.028028 272.50011 
L 325.765284 272.50011 
L 325.50254 272.50011 
L 325.239797 272.50011 
L 324.977053 272.50011 
L 324.71431 272.50011 
L 324.451566 272.50011 
L 324.188823 272.50011 
L 323.926079 272.50011 
L 323.663335 272.50011 
L 323.400592 272.50011 
L 323.137848 272.50011 
L 322.875105 272.50011 
L 322.612361 272.50011 
L 322.349617 272.50011 
L 322.086874 272.50011 
L 321.82413 272.50011 
L 321.561387 272.50011 
L 321.298643 272.50011 
L 321.0359 272.50011 
L 320.773156 272.50011 
L 320.510412 272.50011 
L 320.247669 272.50011 
L 319.984925 272.50011 
L 319.722182 272.50011 
L 319.459438 272.50011 
L 319.196695 272.50011 
L 318.933951 272.50011 
L 318.671207 272.50011 
L 318.408464 272.50011 
L 318.14572 272.50011 
L 317.882977 272.50011 
L 317.620233 272.50011 
L 317.357489 272.50011 
L 317.094746 272.50011 
L 316.832002 272.50011 
L 316.569259 272.50011 
L 316.306515 272.50011 
L 316.043772 272.50011 
L 315.781028 272.50011 
L 315.518284 272.50011 
L 315.255541 272.50011 
L 314.992797 272.50011 
L 314.730054 272.50011 
L 314.46731 272.50011 
L 314.204566 272.50011 
L 313.941823 272.50011 
L 313.679079 272.50011 
L 313.416336 272.50011 
L 313.153592 272.50011 
L 312.890849 272.50011 
L 312.628105 272.50011 
L 312.365361 272.50011 
L 312.102618 272.50011 
L 311.839874 272.50011 
L 311.577131 272.50011 
L 311.314387 272.50011 
L 311.051644 272.50011 
L 310.7889 272.50011 
L 310.526156 272.50011 
L 310.263413 272.50011 
L 310.000669 272.50011 
L 309.737926 272.50011 
L 309.475182 272.50011 
L 309.212438 272.50011 
L 308.949695 272.50011 
L 308.686951 272.50011 
L 308.424208 272.50011 
L 308.161464 272.50011 
L 307.898721 272.50011 
L 307.635977 272.50011 
L 307.373233 272.50011 
L 307.11049 272.50011 
L 306.847746 272.50011 
L 306.585003 272.50011 
L 306.322259 272.50011 
L 306.059515 272.50011 
L 305.796772 272.50011 
L 305.534028 272.50011 
L 305.271285 272.50011 
L 305.008541 272.50011 
L 304.745798 272.50011 
L 304.483054 272.50011 
L 304.22031 272.50011 
L 303.957567 272.50011 
L 303.694823 272.50011 
L 303.43208 272.50011 
L 303.169336 272.50011 
L 302.906592 272.50011 
L 302.643849 272.50011 
L 302.381105 272.50011 
L 302.118362 272.50011 
L 301.855618 272.50011 
L 301.592875 272.50011 
L 301.330131 272.50011 
L 301.067387 272.50011 
L 300.804644 272.50011 
L 300.5419 272.50011 
L 300.279157 272.50011 
L 300.016413 272.50011 
L 299.75367 272.50011 
L 299.490926 272.50011 
L 299.228182 272.50011 
L 298.965439 272.50011 
L 298.702695 272.50011 
L 298.439952 272.50011 
L 298.177208 272.50011 
L 297.914464 272.50011 
L 297.651721 272.50011 
L 297.388977 272.50011 
L 297.126234 272.50011 
L 296.86349 272.50011 
L 296.600747 272.50011 
L 296.338003 272.50011 
L 296.075259 272.50011 
L 295.812516 272.50011 
L 295.549772 272.50011 
L 295.287029 272.50011 
L 295.024285 272.50011 
L 294.761541 272.50011 
L 294.498798 272.50011 
L 294.236054 272.50011 
L 293.973311 272.50011 
L 293.710567 272.50011 
L 293.447824 272.50011 
L 293.18508 272.50011 
L 292.922336 272.50011 
L 292.659593 272.50011 
L 292.396849 272.50011 
L 292.134106 272.50011 
L 291.871362 272.50011 
L 291.608619 272.50011 
L 291.345875 272.50011 
L 291.083131 272.50011 
L 290.820388 272.50011 
L 290.557644 272.50011 
L 290.294901 272.50011 
L 290.032157 272.50011 
L 289.769413 272.50011 
L 289.50667 272.50011 
L 289.243926 272.50011 
L 288.981183 272.50011 
L 288.718439 272.50011 
L 288.455696 272.50011 
L 288.192952 272.50011 
L 287.930208 272.50011 
L 287.667465 272.50011 
L 287.404721 272.50011 
L 287.141978 272.50011 
L 286.879234 272.50011 
L 286.61649 272.50011 
L 286.353747 272.50011 
L 286.091003 272.50011 
L 285.82826 272.50011 
L 285.565516 272.50011 
L 285.302773 272.50011 
L 285.040029 272.50011 
L 284.777285 272.50011 
L 284.514542 272.50011 
L 284.251798 272.50011 
L 283.989055 272.50011 
L 283.726311 272.50011 
L 283.463567 272.50011 
L 283.200824 272.50011 
L 282.93808 272.50011 
L 282.675337 272.50011 
L 282.412593 272.50011 
L 282.14985 272.50011 
L 281.887106 272.50011 
L 281.624362 272.50011 
L 281.361619 272.50011 
L 281.098875 272.50011 
L 280.836132 272.50011 
L 280.573388 272.50011 
L 280.310645 272.50011 
L 280.047901 272.50011 
L 279.785157 272.50011 
L 279.522414 272.50011 
L 279.25967 272.50011 
L 278.996927 272.50011 
L 278.734183 272.50011 
L 278.471439 272.50011 
L 278.208696 272.50011 
L 277.945952 272.50011 
L 277.683209 272.50011 
L 277.420465 272.50011 
L 277.157722 272.50011 
L 276.894978 272.50011 
L 276.632234 272.50011 
L 276.369491 272.50011 
L 276.106747 272.50011 
L 275.844004 272.50011 
L 275.58126 272.50011 
L 275.318516 272.50011 
L 275.055773 272.50011 
L 274.793029 272.50011 
L 274.530286 272.50011 
L 274.267542 272.50011 
L 274.004799 272.50011 
L 273.742055 272.50011 
L 273.479311 272.50011 
L 273.216568 272.50011 
L 272.953824 272.50011 
L 272.691081 272.50011 
L 272.428337 272.50011 
L 272.165594 272.50011 
L 271.90285 272.50011 
L 271.640106 272.50011 
L 271.377363 272.50011 
L 271.114619 272.50011 
L 270.851876 272.50011 
L 270.589132 272.50011 
L 270.326388 272.50011 
L 270.063645 272.50011 
L 269.800901 272.50011 
L 269.538158 272.50011 
L 269.275414 272.50011 
L 269.012671 272.50011 
L 268.749927 272.50011 
L 268.487183 272.50011 
L 268.22444 272.50011 
L 267.961696 272.50011 
L 267.698953 272.50011 
L 267.436209 272.50011 
L 267.173465 272.50011 
L 266.910722 272.50011 
L 266.647978 272.50011 
L 266.385235 272.50011 
L 266.122491 272.50011 
L 265.859748 272.50011 
L 265.597004 272.50011 
L 265.33426 272.50011 
L 265.071517 272.50011 
L 264.808773 272.50011 
L 264.54603 272.50011 
L 264.283286 272.50011 
L 264.020542 272.50011 
z
" clip-path="url(#pf8c391fafe)" style="fill: #bfd0e3; fill-opacity: 0.2"/>
   </g>
   <g id="matplotlib.axis_1">
    <g id="xtick_1">
     <g id="line2d_1">
      <defs>
       <path id="m08e10e9e2a" d="M 0 0 
L 0 3.5 
" style="stroke: #bfd0e3; stroke-width: 0.8"/>
      </defs>
      <g>
       <use xlink:href="#m08e10e9e2a" x="176.52693" y="284.50011" style="fill: #bfd0e3; stroke: #bfd0e3; stroke-width: 0.8"/>
      </g>
     </g>
     <g id="text_1">
      <!-- −3 -->
      <g style="fill: #bfd0e3" transform="translate(170.122201 301.350335) scale(0.13328 -0.13328)">
       <defs>
        <path id="Prompt-Light-2212" d="M 320 2099 
L 2285 2099 
L 2285 1683 
L 320 1683 
L 320 2099 
z
" transform="scale(0.015625)"/>
        <path id="Prompt-Light-33" d="M 1645 -96 
Q 1274 -96 925 -38 
Q 576 19 320 134 
L 320 589 
Q 890 333 1594 333 
Q 2822 333 2822 1222 
Q 2822 1664 2496 1862 
Q 2170 2061 1530 2061 
L 1037 2061 
L 1037 2483 
L 1517 2483 
Q 2035 2483 2358 2704 
Q 2682 2925 2682 3334 
Q 2682 4141 1677 4141 
Q 1325 4141 1040 4057 
Q 755 3974 448 3782 
L 448 4230 
Q 998 4570 1728 4570 
Q 2438 4570 2809 4240 
Q 3181 3910 3181 3334 
Q 3181 2554 2349 2278 
Q 2816 2195 3069 1920 
Q 3322 1645 3322 1222 
Q 3322 621 2918 262 
Q 2515 -96 1645 -96 
z
" transform="scale(0.015625)"/>
       </defs>
       <use xlink:href="#Prompt-Light-2212"/>
       <use xlink:href="#Prompt-Light-33" x="39.199997"/>
      </g>
     </g>
    </g>
    <g id="xtick_2">
     <g id="line2d_2">
      <g>
       <use xlink:href="#m08e10e9e2a" x="264.020542" y="284.50011" style="fill: #bfd0e3; stroke: #bfd0e3; stroke-width: 0.8"/>
      </g>
     </g>
     <g id="text_2">
      <!-- −1 -->
      <g style="fill: #bfd0e3" transform="translate(259.055862 301.350335) scale(0.13328 -0.13328)">
       <defs>
        <path id="Prompt-Light-31" d="M 1312 3930 
L 320 3213 
L 320 3706 
L 1363 4474 
L 1811 4474 
L 1811 0 
L 1312 0 
L 1312 3930 
z
" transform="scale(0.015625)"/>
       </defs>
       <use xlink:href="#Prompt-Light-2212"/>
       <use xlink:href="#Prompt-Light-31" x="39.199997"/>
      </g>
     </g>
    </g>
    <g id="xtick_3">
     <g id="line2d_3">
      <g>
       <use xlink:href="#m08e10e9e2a" x="307.767349" y="284.50011" style="fill: #bfd0e3; stroke: #bfd0e3; stroke-width: 0.8"/>
      </g>
     </g>
     <g id="text_3">
      <!-- 0 -->
      <g style="fill: #bfd0e3" transform="translate(303.355572 301.350335) scale(0.13328 -0.13328)">
       <defs>
        <path id="Prompt-Light-30" d="M 2118 -96 
Q 1555 -96 1152 185 
Q 749 467 534 992 
Q 320 1517 320 2234 
Q 320 2950 531 3475 
Q 742 4000 1145 4285 
Q 1549 4570 2118 4570 
Q 2688 4570 3091 4285 
Q 3494 4000 3705 3475 
Q 3917 2950 3917 2234 
Q 3917 1517 3702 992 
Q 3488 467 3085 185 
Q 2682 -96 2118 -96 
z
M 2118 326 
Q 2522 326 2819 560 
Q 3117 794 3280 1226 
Q 3443 1658 3443 2234 
Q 3443 2810 3286 3238 
Q 3130 3667 2829 3904 
Q 2528 4141 2118 4141 
Q 1709 4141 1408 3904 
Q 1107 3667 950 3238 
Q 794 2810 794 2234 
Q 794 1658 957 1226 
Q 1120 794 1417 560 
Q 1715 326 2118 326 
z
" transform="scale(0.015625)"/>
       </defs>
       <use xlink:href="#Prompt-Light-30"/>
      </g>
     </g>
    </g>
    <g id="xtick_4">
     <g id="line2d_4">
      <g>
       <use xlink:href="#m08e10e9e2a" x="351.514155" y="284.50011" style="fill: #bfd0e3; stroke: #bfd0e3; stroke-width: 0.8"/>
      </g>
     </g>
     <g id="text_4">
      <!-- 1 -->
      <g style="fill: #bfd0e3" transform="translate(349.161971 301.350335) scale(0.13328 -0.13328)">
       <use xlink:href="#Prompt-Light-31"/>
      </g>
     </g>
    </g>
    <g id="xtick_5">
     <g id="line2d_5">
      <g>
       <use xlink:href="#m08e10e9e2a" x="439.007767" y="284.50011" style="fill: #bfd0e3; stroke: #bfd0e3; stroke-width: 0.8"/>
      </g>
     </g>
     <g id="text_5">
      <!-- 3 -->
      <g style="fill: #bfd0e3" transform="translate(435.215535 301.350335) scale(0.13328 -0.13328)">
       <use xlink:href="#Prompt-Light-33"/>
      </g>
     </g>
    </g>
    <g id="text_6">
     <!-- Some variable, $x$ -->
     <g style="fill: #f5f5f5" transform="translate(241.527349 324.095) scale(0.16 -0.16)">
      <defs>
       <path id="Prompt-Medium-53" d="M 1677 -96 
Q 1280 -96 893 -22 
Q 506 51 256 173 
L 256 870 
Q 576 717 928 640 
Q 1280 563 1619 563 
Q 2048 563 2272 723 
Q 2496 883 2496 1165 
Q 2496 1363 2393 1494 
Q 2291 1626 2092 1725 
Q 1894 1824 1485 1984 
Q 858 2240 576 2553 
Q 294 2867 294 3334 
Q 294 3699 492 3980 
Q 691 4262 1049 4416 
Q 1408 4570 1875 4570 
Q 2259 4570 2556 4509 
Q 2854 4448 3142 4320 
L 3142 3642 
Q 2586 3910 2016 3910 
Q 1606 3910 1382 3760 
Q 1158 3610 1158 3334 
Q 1158 3136 1260 3011 
Q 1363 2886 1532 2800 
Q 1702 2714 2144 2528 
Q 2592 2342 2851 2163 
Q 3110 1984 3241 1744 
Q 3373 1504 3373 1158 
Q 3373 563 2944 233 
Q 2515 -96 1677 -96 
z
" transform="scale(0.015625)"/>
       <path id="Prompt-Medium-6f" d="M 2054 -96 
Q 1517 -96 1110 99 
Q 704 294 480 662 
Q 256 1030 256 1536 
Q 256 2029 477 2397 
Q 698 2765 1107 2966 
Q 1517 3168 2054 3168 
Q 2592 3168 2998 2966 
Q 3405 2765 3629 2397 
Q 3853 2029 3853 1536 
Q 3853 1030 3629 662 
Q 3405 294 2998 99 
Q 2592 -96 2054 -96 
z
M 2054 538 
Q 2496 538 2758 816 
Q 3021 1094 3021 1536 
Q 3021 2003 2761 2268 
Q 2502 2534 2054 2534 
Q 1606 2534 1347 2268 
Q 1088 2003 1088 1536 
Q 1088 1094 1350 816 
Q 1613 538 2054 538 
z
" transform="scale(0.015625)"/>
       <path id="Prompt-Medium-6d" d="M 384 3072 
L 1139 3072 
L 1139 2669 
Q 1344 2912 1619 3040 
Q 1894 3168 2176 3168 
Q 2534 3168 2752 3049 
Q 2970 2931 3078 2694 
Q 3283 2925 3574 3046 
Q 3866 3168 4154 3168 
Q 4730 3168 4979 2880 
Q 5229 2592 5229 2035 
L 5229 0 
L 4454 0 
L 4454 1926 
Q 4454 2253 4323 2393 
Q 4192 2534 3904 2534 
Q 3699 2534 3529 2454 
Q 3360 2374 3219 2182 
Q 3232 1978 3232 1850 
L 3232 0 
L 2451 0 
L 2451 1939 
Q 2451 2272 2342 2403 
Q 2234 2534 1946 2534 
Q 1510 2534 1165 2042 
L 1165 0 
L 384 0 
L 384 3072 
z
" transform="scale(0.015625)"/>
       <path id="Prompt-Medium-65" d="M 2112 -96 
Q 1254 -96 755 333 
Q 256 762 256 1530 
Q 256 2285 697 2726 
Q 1139 3168 1958 3168 
Q 2496 3168 2877 2963 
Q 3258 2758 3450 2403 
Q 3642 2048 3642 1594 
L 3642 1222 
L 1024 1222 
Q 1107 538 2214 538 
Q 2509 538 2816 589 
Q 3123 640 3354 730 
L 3354 109 
Q 3136 19 2793 -38 
Q 2451 -96 2112 -96 
z
M 2880 1773 
Q 2867 2138 2620 2336 
Q 2374 2534 1946 2534 
Q 1523 2534 1280 2329 
Q 1037 2125 1024 1773 
L 2880 1773 
z
" transform="scale(0.015625)"/>
       <path id="Prompt-Medium-20" transform="scale(0.015625)"/>
       <path id="Prompt-Medium-76" d="M 256 3072 
L 1069 3072 
L 1901 947 
L 2733 3072 
L 3546 3072 
L 2278 0 
L 1523 0 
L 256 3072 
z
" transform="scale(0.015625)"/>
       <path id="Prompt-Medium-61" d="M 1510 -96 
Q 960 -96 608 195 
Q 256 486 256 979 
Q 256 1491 589 1779 
Q 922 2067 1523 2067 
Q 2106 2067 2528 1830 
L 2528 1914 
Q 2528 2240 2326 2387 
Q 2125 2534 1677 2534 
Q 1395 2534 1120 2480 
Q 845 2426 634 2330 
L 634 2963 
Q 826 3053 1149 3110 
Q 1472 3168 1773 3168 
Q 2573 3168 2957 2825 
Q 3341 2483 3341 1875 
L 3341 0 
L 2579 0 
L 2579 301 
Q 2381 109 2128 6 
Q 1875 -96 1510 -96 
z
M 1709 493 
Q 1978 493 2195 598 
Q 2413 704 2528 890 
L 2528 1229 
Q 2176 1478 1722 1478 
Q 1075 1478 1075 979 
Q 1075 736 1238 614 
Q 1402 493 1709 493 
z
" transform="scale(0.015625)"/>
       <path id="Prompt-Medium-72" d="M 384 3072 
L 1165 3072 
L 1165 2579 
Q 1350 2829 1692 2950 
Q 2035 3072 2477 3072 
L 2477 2458 
Q 2010 2458 1667 2314 
Q 1325 2170 1190 1862 
L 1190 0 
L 384 0 
L 384 3072 
z
" transform="scale(0.015625)"/>
       <path id="Prompt-Medium-69" d="M 838 3610 
Q 646 3610 515 3738 
Q 384 3866 384 4058 
Q 384 4250 515 4381 
Q 646 4512 838 4512 
Q 1030 4512 1164 4381 
Q 1299 4250 1299 4058 
Q 1299 3866 1164 3738 
Q 1030 3610 838 3610 
z
M 429 3072 
L 1248 3072 
L 1248 0 
L 429 0 
L 429 3072 
z
" transform="scale(0.015625)"/>
       <path id="Prompt-Medium-62" d="M 2381 -96 
Q 1990 -96 1708 9 
Q 1427 115 1165 358 
L 1165 0 
L 384 0 
L 384 4730 
L 1190 4730 
L 1190 2771 
Q 1408 2970 1718 3069 
Q 2029 3168 2381 3168 
Q 2848 3168 3216 2960 
Q 3584 2752 3792 2381 
Q 4000 2010 4000 1530 
Q 4000 1043 3792 675 
Q 3584 307 3216 105 
Q 2848 -96 2381 -96 
z
M 2182 538 
Q 2618 538 2899 813 
Q 3181 1088 3181 1530 
Q 3181 1971 2899 2252 
Q 2618 2534 2182 2534 
Q 1837 2534 1565 2345 
Q 1293 2157 1190 1843 
L 1190 1222 
Q 1299 909 1568 723 
Q 1837 538 2182 538 
z
" transform="scale(0.015625)"/>
       <path id="Prompt-Medium-6c" d="M 384 4730 
L 1190 4730 
L 1190 0 
L 384 0 
L 384 4730 
z
" transform="scale(0.015625)"/>
       <path id="Prompt-Medium-2c" d="M 781 358 
L 1619 358 
L 992 -947 
L 256 -947 
L 781 358 
z
" transform="scale(0.015625)"/>
       <path id="Prompt-Medium-78" d="M 1568 1594 
L 346 3072 
L 1242 3072 
L 2016 2131 
L 2790 3072 
L 3686 3072 
L 2464 1594 
L 3776 0 
L 2886 0 
L 2016 1050 
L 1146 0 
L 256 0 
L 1568 1594 
z
" transform="scale(0.015625)"/>
      </defs>
      <use xlink:href="#Prompt-Medium-53" transform="translate(0 0.09375)"/>
      <use xlink:href="#Prompt-Medium-6f" transform="translate(56.699997 0.09375)"/>
      <use xlink:href="#Prompt-Medium-6d" transform="translate(120.899994 0.09375)"/>
      <use xlink:href="#Prompt-Medium-65" transform="translate(208.099976 0.09375)"/>
      <use xlink:href="#Prompt-Medium-20" transform="translate(268.999969 0.09375)"/>
      <use xlink:href="#Prompt-Medium-76" transform="translate(304.999954 0.09375)"/>
      <use xlink:href="#Prompt-Medium-61" transform="translate(364.399948 0.09375)"/>
      <use xlink:href="#Prompt-Medium-72" transform="translate(422.099945 0.09375)"/>
      <use xlink:href="#Prompt-Medium-69" transform="translate(462.799942 0.09375)"/>
      <use xlink:href="#Prompt-Medium-61" transform="translate(489.09993 0.09375)"/>
      <use xlink:href="#Prompt-Medium-62" transform="translate(546.799927 0.09375)"/>
      <use xlink:href="#Prompt-Medium-6c" transform="translate(613.299911 0.09375)"/>
      <use xlink:href="#Prompt-Medium-65" transform="translate(637.899902 0.09375)"/>
      <use xlink:href="#Prompt-Medium-2c" transform="translate(698.799896 0.09375)"/>
      <use xlink:href="#Prompt-Medium-20" transform="translate(728.099884 0.09375)"/>
      <use xlink:href="#Prompt-Medium-78" transform="translate(764.099869 0.09375)"/>
     </g>
    </g>
   </g>
   <g id="matplotlib.axis_2">
    <g id="ytick_1">
     <g id="line2d_6">
      <defs>
       <path id="m141322d8e5" d="M 0 0 
L -3.5 0 
" style="stroke: #bfd0e3; stroke-width: 0.8"/>
      </defs>
      <g>
       <use xlink:href="#m141322d8e5" x="164.52693" y="272.50011" style="fill: #bfd0e3; stroke: #bfd0e3; stroke-width: 0.8"/>
      </g>
     </g>
     <g id="text_7">
      <!-- 0.0 -->
      <g style="fill: #bfd0e3" transform="translate(137.36 277.425222) scale(0.13328 -0.13328)">
       <defs>
        <path id="Prompt-Light-2e" d="M 602 0 
Q 480 0 400 80 
Q 320 160 320 282 
Q 320 403 400 486 
Q 480 570 602 570 
Q 723 570 806 486 
Q 890 403 890 282 
Q 890 160 806 80 
Q 723 0 602 0 
z
" transform="scale(0.015625)"/>
       </defs>
       <use xlink:href="#Prompt-Light-30"/>
       <use xlink:href="#Prompt-Light-2e" x="66.199997"/>
       <use xlink:href="#Prompt-Light-30" x="85.099991"/>
      </g>
     </g>
    </g>
    <g id="ytick_2">
     <g id="line2d_7">
      <g>
       <use xlink:href="#m141322d8e5" x="164.52693" y="77.549113" style="fill: #bfd0e3; stroke: #bfd0e3; stroke-width: 0.8"/>
      </g>
     </g>
     <g id="text_8">
      <!-- 0.4 -->
      <g style="fill: #bfd0e3" transform="translate(138.280465 82.474225) scale(0.13328 -0.13328)">
       <defs>
        <path id="Prompt-Light-34" d="M 2413 1139 
L 192 1139 
L 192 1498 
L 2381 4474 
L 2912 4474 
L 2912 1562 
L 3603 1562 
L 3603 1139 
L 2912 1139 
L 2912 0 
L 2413 0 
L 2413 1139 
z
M 2451 1562 
L 2451 3859 
L 781 1562 
L 2451 1562 
z
" transform="scale(0.015625)"/>
       </defs>
       <use xlink:href="#Prompt-Light-30"/>
       <use xlink:href="#Prompt-Light-2e" x="66.199997"/>
       <use xlink:href="#Prompt-Light-34" x="85.099991"/>
      </g>
     </g>
    </g>
    <g id="text_9">
     <!-- $\mathbb{E}(x,\mu=0, \sigma=1)$ -->
     <g style="fill: #f5f5f5" transform="translate(18 171.504611) scale(0.16 -0.16)">
      <defs>
       <path id="STIXGeneral-Regular-1d53c" d="M 3629 0 
L 448 0 
L 448 4237 
L 3629 4237 
L 3629 3955 
L 1510 3955 
L 1510 2323 
L 3424 2323 
L 3424 2042 
L 1510 2042 
L 1510 282 
L 3629 282 
L 3629 0 
z
M 1229 282 
L 1229 3955 
L 730 3955 
L 730 282 
L 1229 282 
z
" transform="scale(0.015625)"/>
       <path id="Prompt-Medium-28" d="M 1216 -1114 
Q 256 64 256 1728 
Q 256 3392 1216 4570 
L 2048 4570 
Q 1075 3322 1075 1728 
Q 1075 134 2048 -1114 
L 1216 -1114 
z
" transform="scale(0.015625)"/>
       <path id="Prompt-Medium-3bc" d="M 384 3072 
L 1190 3072 
L 1190 1171 
Q 1190 851 1344 694 
Q 1498 538 1818 538 
Q 2093 538 2336 669 
Q 2579 800 2746 1062 
L 2746 3072 
L 3552 3072 
L 3552 0 
L 2771 0 
L 2771 416 
Q 2554 154 2253 29 
Q 1952 -96 1619 -96 
Q 1350 -96 1190 -6 
L 1190 -1402 
L 384 -1402 
L 384 3072 
z
" transform="scale(0.015625)"/>
       <path id="Prompt-Medium-3d" d="M 256 3213 
L 3162 3213 
L 3162 2579 
L 256 2579 
L 256 3213 
z
M 256 1805 
L 3162 1805 
L 3162 1171 
L 256 1171 
L 256 1805 
z
" transform="scale(0.015625)"/>
       <path id="Prompt-Medium-30" d="M 2182 -96 
Q 1594 -96 1158 185 
Q 723 467 489 992 
Q 256 1517 256 2234 
Q 256 2950 486 3478 
Q 717 4006 1149 4288 
Q 1581 4570 2182 4570 
Q 2778 4570 3213 4288 
Q 3648 4006 3878 3478 
Q 4109 2950 4109 2234 
Q 4109 1517 3878 992 
Q 3648 467 3213 185 
Q 2778 -96 2182 -96 
z
M 2182 634 
Q 2714 634 3005 1059 
Q 3296 1485 3296 2227 
Q 3296 2970 3008 3398 
Q 2720 3827 2189 3827 
Q 1658 3827 1366 3398 
Q 1075 2970 1075 2227 
Q 1075 1485 1366 1059 
Q 1658 634 2182 634 
z
" transform="scale(0.015625)"/>
       <path id="STIXNonUnicode-Regular-e1a8" d="M 3469 2445 
L 2362 2445 
Q 2976 1990 2976 1280 
Q 2976 1082 2893 861 
Q 2810 640 2653 425 
Q 2496 211 2217 73 
Q 1939 -64 1587 -64 
Q 973 -64 576 355 
Q 179 774 179 1427 
Q 179 1811 320 2112 
Q 461 2413 678 2576 
Q 896 2739 1129 2819 
Q 1363 2899 1581 2899 
L 3469 2899 
L 3469 2445 
z
M 2470 1274 
Q 2470 1690 2185 1987 
Q 1901 2285 1536 2445 
Q 1139 2438 912 2166 
Q 685 1894 685 1459 
Q 685 998 941 694 
Q 1197 390 1594 390 
Q 2022 390 2246 662 
Q 2470 934 2470 1274 
z
" transform="scale(0.015625)"/>
       <path id="Prompt-Medium-31" d="M 1203 3616 
L 256 2931 
L 256 3686 
L 1331 4474 
L 2010 4474 
L 2010 0 
L 1203 0 
L 1203 3616 
z
" transform="scale(0.015625)"/>
       <path id="Prompt-Medium-29" d="M 128 -1114 
Q 1101 134 1101 1728 
Q 1101 3322 128 4570 
L 960 4570 
Q 1920 3392 1920 1728 
Q 1920 64 960 -1114 
L 128 -1114 
z
" transform="scale(0.015625)"/>
      </defs>
      <use xlink:href="#STIXGeneral-Regular-1d53c" transform="translate(0 0.59375)"/>
      <use xlink:href="#Prompt-Medium-28" transform="translate(62.199997 0.59375)"/>
      <use xlink:href="#Prompt-Medium-78" transform="translate(96.199982 0.59375)"/>
      <use xlink:href="#Prompt-Medium-2c" transform="translate(159.199966 0.59375)"/>
      <use xlink:href="#Prompt-Medium-3bc" transform="translate(207.982376 0.59375)"/>
      <use xlink:href="#Prompt-Medium-3d" transform="translate(288.964783 0.59375)"/>
      <use xlink:href="#Prompt-Medium-30" transform="translate(361.847198 0.59375)"/>
      <use xlink:href="#Prompt-Medium-2c" transform="translate(430.04718 0.59375)"/>
      <use xlink:href="#STIXNonUnicode-Regular-e1a8" transform="translate(478.82959 0.59375)"/>
      <use xlink:href="#Prompt-Medium-3d" transform="translate(550.912003 0.59375)"/>
      <use xlink:href="#Prompt-Medium-31" transform="translate(623.794418 0.59375)"/>
      <use xlink:href="#Prompt-Medium-29" transform="translate(661.194412 0.59375)"/>
     </g>
    </g>
   </g>
   <g id="line2d_8">
    <path d="M 176.52693 270.340127 
L 181.256314 269.530053 
L 185.460212 268.59665 
L 189.401365 267.498906 
L 193.079776 266.243425 
L 196.495442 264.845611 
L 199.648365 263.329399 
L 202.801288 261.569778 
L 205.954211 259.540026 
L 208.84439 257.418906 
L 211.73457 255.027064 
L 214.624749 252.34405 
L 217.514929 249.350317 
L 220.405108 246.02773 
L 223.295287 242.360107 
L 226.185467 238.333804 
L 229.075646 233.938321 
L 232.228569 228.714386 
L 235.381492 223.04035 
L 238.534415 216.920488 
L 241.950082 209.80186 
L 245.628492 201.597777 
L 249.569646 192.244952 
L 254.036286 181.046839 
L 259.553902 166.569325 
L 275.055773 125.484748 
L 278.996927 115.876798 
L 282.412593 108.126132 
L 285.302773 102.08243 
L 287.930208 97.061284 
L 290.294901 92.970439 
L 292.659593 89.320211 
L 294.761541 86.470177 
L 296.86349 84.011452 
L 298.702695 82.194164 
L 300.5419 80.698671 
L 302.118362 79.678923 
L 303.694823 78.905319 
L 305.271285 78.380857 
L 306.847746 78.107575 
L 308.424208 78.086538 
L 310.000669 78.317826 
L 311.577131 78.80054 
L 313.153592 79.532803 
L 314.730054 80.511776 
L 316.306515 81.733671 
L 318.14572 83.459913 
L 319.984925 85.501352 
L 322.086874 88.206749 
L 324.188823 91.291829 
L 326.553515 95.190819 
L 328.918207 99.512099 
L 331.545643 104.765901 
L 334.435822 111.035095 
L 337.851489 119.008907 
L 341.792642 128.813976 
L 346.784771 141.870638 
L 363.60036 186.387155 
L 368.067001 197.301184 
L 372.008154 206.351716 
L 375.686564 214.241569 
L 379.102231 221.049501 
L 382.255154 226.872994 
L 385.408077 232.246983 
L 388.561 237.172006 
L 391.451179 241.2981 
L 394.341359 245.062313 
L 397.231538 248.477492 
L 400.121717 251.559185 
L 403.011897 254.325052 
L 405.902076 256.794306 
L 408.792256 258.987198 
L 411.945179 261.088722 
L 415.098102 262.913345 
L 418.251025 264.487946 
L 421.666691 265.941855 
L 425.345101 267.249901 
L 429.023511 268.326668 
L 433.227409 269.317291 
L 437.69405 270.137565 
L 439.007767 270.340127 
L 439.007767 270.340127 
" style="fill: none; stroke: #52a1fa; stroke-width: 2; stroke-linecap: square"/>
   </g>
   <g id="line2d_9">
    <defs>
     <path id="m8133f894e2" d="M 0 3 
C 0.795609 3 1.55874 2.683901 2.12132 2.12132 
C 2.683901 1.55874 3 0.795609 3 0 
C 3 -0.795609 2.683901 -1.55874 2.12132 -2.12132 
C 1.55874 -2.683901 0.795609 -3 0 -3 
C -0.795609 -3 -1.55874 -2.683901 -2.12132 -2.12132 
C -2.683901 -1.55874 -3 -0.795609 -3 0 
C -3 0.795609 -2.683901 1.55874 -2.12132 2.12132 
C -1.55874 2.683901 -0.795609 3 0 3 
z
" style="stroke: #f26f6f"/>
    </defs>
    <g>
     <use xlink:href="#m8133f894e2" x="320.579958" y="96.811482" style="fill: #f26f6f; stroke: #f26f6f"/>
     <use xlink:href="#m8133f894e2" x="364.250434" y="181.778399" style="fill: #f26f6f; stroke: #f26f6f"/>
     <use xlink:href="#m8133f894e2" x="334.740766" y="115.484893" style="fill: #f26f6f; stroke: #f26f6f"/>
     <use xlink:href="#m8133f894e2" x="319.548324" y="92.550533" style="fill: #f26f6f; stroke: #f26f6f"/>
     <use xlink:href="#m8133f894e2" x="287.728197" y="87.724377" style="fill: #f26f6f; stroke: #f26f6f"/>
     <use xlink:href="#m8133f894e2" x="346.061758" y="158.792949" style="fill: #f26f6f; stroke: #f26f6f"/>
     <use xlink:href="#m8133f894e2" x="291.385188" y="88.8082" style="fill: #f26f6f; stroke: #f26f6f"/>
     <use xlink:href="#m8133f894e2" x="410.600254" y="260.532299" style="fill: #f26f6f; stroke: #f26f6f"/>
     <use xlink:href="#m8133f894e2" x="429.469938" y="269.802802" style="fill: #f26f6f; stroke: #f26f6f"/>
     <use xlink:href="#m8133f894e2" x="277.172981" y="122.103866" style="fill: #f26f6f; stroke: #f26f6f"/>
     <use xlink:href="#m8133f894e2" x="384.339581" y="226.103137" style="fill: #f26f6f; stroke: #f26f6f"/>
     <use xlink:href="#m8133f894e2" x="315.351711" y="90.638605" style="fill: #f26f6f; stroke: #f26f6f"/>
     <use xlink:href="#m8133f894e2" x="325.627742" y="95.814576" style="fill: #f26f6f; stroke: #f26f6f"/>
     <use xlink:href="#m8133f894e2" x="419.478311" y="256.798052" style="fill: #f26f6f; stroke: #f26f6f"/>
     <use xlink:href="#m8133f894e2" x="195.172534" y="271.651268" style="fill: #f26f6f; stroke: #f26f6f"/>
     <use xlink:href="#m8133f894e2" x="199.396702" y="268.132181" style="fill: #f26f6f; stroke: #f26f6f"/>
     <use xlink:href="#m8133f894e2" x="181.833872" y="266.379703" style="fill: #f26f6f; stroke: #f26f6f"/>
     <use xlink:href="#m8133f894e2" x="395.073684" y="253.524406" style="fill: #f26f6f; stroke: #f26f6f"/>
     <use xlink:href="#m8133f894e2" x="380.778166" y="227.19676" style="fill: #f26f6f; stroke: #f26f6f"/>
     <use xlink:href="#m8133f894e2" x="404.888447" y="259.533533" style="fill: #f26f6f; stroke: #f26f6f"/>
     <use xlink:href="#m8133f894e2" x="433.395492" y="258.437744" style="fill: #f26f6f; stroke: #f26f6f"/>
     <use xlink:href="#m8133f894e2" x="386.290739" y="238.134429" style="fill: #f26f6f; stroke: #f26f6f"/>
     <use xlink:href="#m8133f894e2" x="297.656419" y="79.042538" style="fill: #f26f6f; stroke: #f26f6f"/>
     <use xlink:href="#m8133f894e2" x="381.400882" y="225.612043" style="fill: #f26f6f; stroke: #f26f6f"/>
     <use xlink:href="#m8133f894e2" x="207.5717" y="243.997784" style="fill: #f26f6f; stroke: #f26f6f"/>
     <use xlink:href="#m8133f894e2" x="344.493936" y="129.507942" style="fill: #f26f6f; stroke: #f26f6f"/>
     <use xlink:href="#m8133f894e2" x="214.154421" y="256.352698" style="fill: #f26f6f; stroke: #f26f6f"/>
     <use xlink:href="#m8133f894e2" x="424.484419" y="249.213422" style="fill: #f26f6f; stroke: #f26f6f"/>
     <use xlink:href="#m8133f894e2" x="313.502115" y="83.175115" style="fill: #f26f6f; stroke: #f26f6f"/>
     <use xlink:href="#m8133f894e2" x="285.367743" y="109.173073" style="fill: #f26f6f; stroke: #f26f6f"/>
     <use xlink:href="#m8133f894e2" x="245.967709" y="207.394501" style="fill: #f26f6f; stroke: #f26f6f"/>
     <use xlink:href="#m8133f894e2" x="379.748437" y="223.573779" style="fill: #f26f6f; stroke: #f26f6f"/>
     <use xlink:href="#m8133f894e2" x="296.257651" y="78.637424" style="fill: #f26f6f; stroke: #f26f6f"/>
     <use xlink:href="#m8133f894e2" x="325.729949" y="76.323752" style="fill: #f26f6f; stroke: #f26f6f"/>
     <use xlink:href="#m8133f894e2" x="181.458893" y="267.823209" style="fill: #f26f6f; stroke: #f26f6f"/>
     <use xlink:href="#m8133f894e2" x="338.644413" y="137.756197" style="fill: #f26f6f; stroke: #f26f6f"/>
     <use xlink:href="#m8133f894e2" x="337.190328" y="115.856998" style="fill: #f26f6f; stroke: #f26f6f"/>
     <use xlink:href="#m8133f894e2" x="338.460282" y="128.858544" style="fill: #f26f6f; stroke: #f26f6f"/>
     <use xlink:href="#m8133f894e2" x="424.242716" y="268.895881" style="fill: #f26f6f; stroke: #f26f6f"/>
     <use xlink:href="#m8133f894e2" x="355.491693" y="160.501729" style="fill: #f26f6f; stroke: #f26f6f"/>
     <use xlink:href="#m8133f894e2" x="270.890865" y="144.377568" style="fill: #f26f6f; stroke: #f26f6f"/>
     <use xlink:href="#m8133f894e2" x="291.239443" y="87.742365" style="fill: #f26f6f; stroke: #f26f6f"/>
     <use xlink:href="#m8133f894e2" x="359.641751" y="185.898801" style="fill: #f26f6f; stroke: #f26f6f"/>
     <use xlink:href="#m8133f894e2" x="192.334962" y="256.595579" style="fill: #f26f6f; stroke: #f26f6f"/>
     <use xlink:href="#m8133f894e2" x="351.540416" y="151.310178" style="fill: #f26f6f; stroke: #f26f6f"/>
    </g>
   </g>
   <g id="patch_3">
    <path d="M 164.52693 272.50011 
L 164.52693 77.549113 
" style="fill: none; stroke: #bfd0e3; stroke-width: 0.8; stroke-linejoin: miter; stroke-linecap: square"/>
   </g>
   <g id="patch_4">
    <path d="M 176.52693 284.50011 
L 439.007767 284.50011 
" style="fill: none; stroke: #bfd0e3; stroke-width: 0.8; stroke-linejoin: miter; stroke-linecap: square"/>
   </g>
   <g id="text_10">
    <!-- Calculated -->
    <g style="fill: #52a1fa" transform="translate(174.616181 171.519611) scale(0.16 -0.16)">
     <defs>
      <path id="Prompt-Light-43" d="M 2669 -96 
Q 1990 -96 1456 192 
Q 922 480 621 1008 
Q 320 1536 320 2234 
Q 320 2931 621 3459 
Q 922 3987 1456 4278 
Q 1990 4570 2669 4570 
Q 3597 4570 4205 4083 
L 4205 3597 
Q 3629 4115 2707 4115 
Q 2163 4115 1734 3884 
Q 1306 3654 1062 3228 
Q 819 2803 819 2234 
Q 819 1664 1065 1238 
Q 1312 813 1741 582 
Q 2170 352 2707 352 
Q 3187 352 3564 480 
Q 3942 608 4262 902 
L 4262 410 
Q 3693 -96 2669 -96 
z
" transform="scale(0.015625)"/>
      <path id="Prompt-Light-61" d="M 1523 -96 
Q 966 -96 643 182 
Q 320 461 320 947 
Q 320 1453 633 1725 
Q 947 1997 1542 1997 
Q 2208 1997 2688 1722 
L 2688 1952 
Q 2688 2368 2451 2569 
Q 2214 2771 1702 2771 
Q 1158 2771 698 2566 
L 698 2982 
Q 890 3066 1184 3117 
Q 1478 3168 1747 3168 
Q 2477 3168 2829 2838 
Q 3181 2509 3181 1926 
L 3181 0 
L 2720 0 
L 2720 397 
Q 2317 -96 1523 -96 
z
M 1645 307 
Q 1990 307 2268 444 
Q 2547 582 2688 832 
L 2688 1325 
Q 2438 1472 2192 1539 
Q 1946 1606 1638 1606 
Q 1203 1606 1008 1443 
Q 813 1280 813 947 
Q 813 307 1645 307 
z
" transform="scale(0.015625)"/>
      <path id="Prompt-Light-6c" d="M 448 4730 
L 941 4730 
L 941 0 
L 448 0 
L 448 4730 
z
" transform="scale(0.015625)"/>
      <path id="Prompt-Light-63" d="M 2016 -96 
Q 1530 -96 1142 99 
Q 755 294 537 662 
Q 320 1030 320 1530 
Q 320 2022 541 2396 
Q 762 2771 1152 2969 
Q 1542 3168 2035 3168 
Q 2387 3168 2656 3104 
Q 2925 3040 3136 2899 
L 3136 2483 
Q 2733 2771 2080 2771 
Q 1517 2771 1165 2444 
Q 813 2118 813 1530 
Q 813 941 1165 617 
Q 1517 294 2061 294 
Q 2400 294 2669 371 
Q 2938 448 3181 608 
L 3181 192 
Q 2957 38 2678 -29 
Q 2400 -96 2016 -96 
z
" transform="scale(0.015625)"/>
      <path id="Prompt-Light-75" d="M 1690 -96 
Q 1075 -96 745 237 
Q 416 570 416 1126 
L 416 3072 
L 909 3072 
L 909 1101 
Q 909 294 1747 294 
Q 2099 294 2364 448 
Q 2630 602 2842 934 
L 2842 3072 
L 3334 3072 
L 3334 0 
L 2854 0 
L 2854 461 
Q 2438 -96 1690 -96 
z
" transform="scale(0.015625)"/>
      <path id="Prompt-Light-74" d="M 1587 -96 
Q 1152 -96 912 160 
Q 672 416 672 890 
L 672 2688 
L 192 2688 
L 192 3072 
L 672 3072 
L 672 3994 
L 1165 3994 
L 1165 3072 
L 1939 3072 
L 1939 2688 
L 1165 2688 
L 1165 877 
Q 1165 557 1293 425 
Q 1421 294 1760 294 
Q 1926 294 2112 371 
L 2112 -32 
Q 1901 -96 1587 -96 
z
" transform="scale(0.015625)"/>
      <path id="Prompt-Light-65" d="M 2099 -96 
Q 1261 -96 790 333 
Q 320 762 320 1530 
Q 320 2285 742 2726 
Q 1165 3168 1946 3168 
Q 2470 3168 2835 2966 
Q 3200 2765 3385 2413 
Q 3571 2061 3571 1613 
L 3571 1344 
L 781 1344 
Q 806 819 1168 556 
Q 1530 294 2150 294 
Q 2451 294 2742 348 
Q 3034 403 3264 499 
L 3264 83 
Q 3072 6 2742 -45 
Q 2413 -96 2099 -96 
z
M 3110 1696 
Q 3098 2195 2803 2483 
Q 2509 2771 1939 2771 
Q 1382 2771 1088 2473 
Q 794 2176 781 1696 
L 3110 1696 
z
" transform="scale(0.015625)"/>
      <path id="Prompt-Light-64" d="M 1926 -96 
Q 1472 -96 1107 102 
Q 742 301 531 672 
Q 320 1043 320 1530 
Q 320 2010 528 2384 
Q 736 2758 1104 2963 
Q 1472 3168 1926 3168 
Q 2368 3168 2710 3011 
Q 3053 2854 3258 2554 
L 3258 4730 
L 3750 4730 
L 3750 0 
L 3270 0 
L 3270 538 
Q 3027 218 2697 61 
Q 2368 -96 1926 -96 
z
M 2029 294 
Q 2470 294 2800 521 
Q 3130 749 3258 1146 
L 3258 1914 
Q 3136 2310 2806 2540 
Q 2477 2771 2029 2771 
Q 1690 2771 1411 2614 
Q 1133 2458 973 2176 
Q 813 1894 813 1530 
Q 813 1165 973 883 
Q 1133 602 1411 448 
Q 1690 294 2029 294 
z
" transform="scale(0.015625)"/>
     </defs>
     <use xlink:href="#Prompt-Light-43"/>
     <use xlink:href="#Prompt-Light-61" x="71.599991"/>
     <use xlink:href="#Prompt-Light-6c" x="127.799988"/>
     <use xlink:href="#Prompt-Light-63" x="149.499985"/>
     <use xlink:href="#Prompt-Light-75" x="204.199982"/>
     <use xlink:href="#Prompt-Light-6c" x="263.299973"/>
     <use xlink:href="#Prompt-Light-61" x="284.999969"/>
     <use xlink:href="#Prompt-Light-74" x="341.199966"/>
     <use xlink:href="#Prompt-Light-65" x="377.699951"/>
     <use xlink:href="#Prompt-Light-64" x="438.499939"/>
    </g>
   </g>
   <g id="text_11">
    <!-- Measured -->
    <g style="fill: #f26f6f" transform="translate(338.390113 91.811) scale(0.16 -0.16)">
     <defs>
      <path id="Prompt-Light-4d" d="M 448 4474 
L 960 4474 
L 2650 781 
L 4339 4474 
L 4851 4474 
L 4851 0 
L 4358 0 
L 4358 3456 
L 2778 0 
L 2522 0 
L 941 3456 
L 941 0 
L 448 0 
L 448 4474 
z
" transform="scale(0.015625)"/>
      <path id="Prompt-Light-73" d="M 1517 -96 
Q 1216 -96 870 -9 
Q 525 77 333 205 
L 333 621 
Q 576 474 893 384 
Q 1210 294 1504 294 
Q 1901 294 2077 406 
Q 2253 518 2253 742 
Q 2253 915 2176 1014 
Q 2099 1114 1920 1190 
Q 1741 1267 1363 1370 
Q 992 1472 771 1584 
Q 550 1696 435 1869 
Q 320 2042 320 2310 
Q 320 2726 656 2947 
Q 992 3168 1549 3168 
Q 1850 3168 2115 3113 
Q 2381 3059 2560 2963 
L 2560 2547 
Q 2374 2650 2112 2710 
Q 1850 2771 1568 2771 
Q 1197 2771 1005 2662 
Q 813 2554 813 2310 
Q 813 2144 880 2054 
Q 947 1965 1129 1891 
Q 1312 1818 1715 1709 
Q 2291 1549 2518 1334 
Q 2746 1120 2746 742 
Q 2746 352 2442 128 
Q 2138 -96 1517 -96 
z
" transform="scale(0.015625)"/>
      <path id="Prompt-Light-72" d="M 448 3072 
L 928 3072 
L 928 2470 
Q 1299 3072 2317 3072 
L 2317 2675 
Q 1203 2675 941 1939 
L 941 0 
L 448 0 
L 448 3072 
z
" transform="scale(0.015625)"/>
     </defs>
     <use xlink:href="#Prompt-Light-4d"/>
     <use xlink:href="#Prompt-Light-65" x="82.799988"/>
     <use xlink:href="#Prompt-Light-61" x="143.599976"/>
     <use xlink:href="#Prompt-Light-73" x="199.799973"/>
     <use xlink:href="#Prompt-Light-75" x="247.699966"/>
     <use xlink:href="#Prompt-Light-72" x="306.799957"/>
     <use xlink:href="#Prompt-Light-65" x="345.999954"/>
     <use xlink:href="#Prompt-Light-64" x="406.799942"/>
    </g>
   </g>
   <g id="text_12">
    <!-- 68.27% -->
    <g style="fill: #bfd0e3" transform="translate(280.694849 232.441798) scale(0.16 -0.16)">
     <defs>
      <path id="Prompt-Light-36" d="M 1946 -96 
Q 1485 -96 1117 115 
Q 749 326 534 748 
Q 320 1171 320 1773 
Q 320 3136 845 3853 
Q 1370 4570 2387 4570 
Q 2714 4570 2950 4506 
L 2950 4064 
Q 2720 4141 2426 4141 
Q 1670 4141 1289 3686 
Q 909 3232 845 2304 
Q 1018 2573 1344 2713 
Q 1670 2854 2067 2854 
Q 2496 2854 2825 2675 
Q 3155 2496 3337 2163 
Q 3520 1830 3520 1395 
Q 3520 960 3328 624 
Q 3136 288 2781 96 
Q 2426 -96 1946 -96 
z
M 1946 326 
Q 2432 326 2726 617 
Q 3021 909 3021 1395 
Q 3021 1882 2729 2154 
Q 2438 2426 1946 2426 
Q 1478 2426 1168 2144 
Q 858 1862 858 1376 
Q 858 1094 995 854 
Q 1133 614 1379 470 
Q 1626 326 1946 326 
z
" transform="scale(0.015625)"/>
      <path id="Prompt-Light-38" d="M 1894 -96 
Q 1165 -96 742 240 
Q 320 576 320 1203 
Q 320 1651 563 1948 
Q 806 2246 1203 2342 
Q 870 2451 675 2726 
Q 480 3002 480 3373 
Q 480 3923 867 4246 
Q 1254 4570 1894 4570 
Q 2534 4570 2921 4246 
Q 3309 3923 3309 3373 
Q 3309 3002 3113 2726 
Q 2918 2451 2586 2342 
Q 2982 2246 3225 1948 
Q 3469 1651 3469 1203 
Q 3469 576 3046 240 
Q 2624 -96 1894 -96 
z
M 1894 2515 
Q 2304 2515 2557 2739 
Q 2810 2963 2810 3328 
Q 2810 3706 2560 3939 
Q 2310 4173 1894 4173 
Q 1478 4173 1228 3939 
Q 979 3706 979 3328 
Q 979 2963 1232 2739 
Q 1485 2515 1894 2515 
z
M 1894 275 
Q 2406 275 2688 531 
Q 2970 787 2970 1242 
Q 2970 1670 2672 1923 
Q 2374 2176 1894 2176 
Q 1414 2176 1116 1923 
Q 819 1670 819 1242 
Q 819 787 1100 531 
Q 1382 275 1894 275 
z
" transform="scale(0.015625)"/>
      <path id="Prompt-Light-32" d="M 320 333 
L 1370 1382 
L 1677 1677 
Q 2048 2035 2246 2256 
Q 2445 2477 2573 2729 
Q 2701 2982 2701 3270 
Q 2701 3686 2454 3913 
Q 2208 4141 1722 4141 
Q 1120 4141 538 3706 
L 538 4192 
Q 1062 4570 1792 4570 
Q 2451 4570 2825 4214 
Q 3200 3859 3200 3270 
Q 3200 2963 3059 2672 
Q 2918 2381 2672 2089 
Q 2426 1798 2003 1376 
L 1056 422 
L 3379 422 
L 3379 0 
L 320 0 
L 320 333 
z
" transform="scale(0.015625)"/>
      <path id="Prompt-Light-37" d="M 2733 4051 
L 256 4051 
L 256 4474 
L 3238 4474 
L 3238 4077 
L 1402 0 
L 915 0 
L 2733 4051 
z
" transform="scale(0.015625)"/>
      <path id="Prompt-Light-25" d="M 1491 2221 
Q 1171 2221 902 2377 
Q 634 2534 477 2803 
Q 320 3072 320 3392 
Q 320 3712 477 3984 
Q 634 4256 902 4413 
Q 1171 4570 1491 4570 
Q 1811 4570 2083 4413 
Q 2355 4256 2512 3984 
Q 2669 3712 2669 3392 
Q 2669 3072 2512 2803 
Q 2355 2534 2083 2377 
Q 1811 2221 1491 2221 
z
M 3808 4474 
L 4294 4474 
L 1818 0 
L 1331 0 
L 3808 4474 
z
M 1491 2605 
Q 1824 2605 2048 2829 
Q 2272 3053 2272 3386 
Q 2272 3718 2048 3942 
Q 1824 4166 1491 4166 
Q 1158 4166 934 3942 
Q 710 3718 710 3386 
Q 710 3053 934 2829 
Q 1158 2605 1491 2605 
z
M 4128 -96 
Q 3808 -96 3539 61 
Q 3270 218 3113 486 
Q 2957 755 2957 1075 
Q 2957 1395 3113 1667 
Q 3270 1939 3539 2096 
Q 3808 2253 4128 2253 
Q 4448 2253 4720 2096 
Q 4992 1939 5149 1667 
Q 5306 1395 5306 1075 
Q 5306 755 5149 486 
Q 4992 218 4720 61 
Q 4448 -96 4128 -96 
z
M 4128 288 
Q 4461 288 4685 512 
Q 4909 736 4909 1069 
Q 4909 1402 4685 1626 
Q 4461 1850 4128 1850 
Q 3795 1850 3571 1626 
Q 3347 1402 3347 1069 
Q 3347 736 3571 512 
Q 3795 288 4128 288 
z
" transform="scale(0.015625)"/>
     </defs>
     <use xlink:href="#Prompt-Light-36"/>
     <use xlink:href="#Prompt-Light-38" x="59.999985"/>
     <use xlink:href="#Prompt-Light-2e" x="119.199982"/>
     <use xlink:href="#Prompt-Light-32" x="138.099976"/>
     <use xlink:href="#Prompt-Light-37" x="195.899963"/>
     <use xlink:href="#Prompt-Light-25" x="250.499954"/>
    </g>
   </g>
   <g id="patch_5">
    <path d="M 348.396221 238.383685 
Q 307.767974 238.383685 267.139726 238.383685 
" style="fill: none; stroke: #bfd0e3; stroke-linecap: round"/>
    <path d="M 341.996221 235.183685 
L 348.396221 238.383685 
L 341.996221 241.583685 
L 341.996221 235.183685 
z
" style="fill: #bfd0e3; stroke: #bfd0e3; stroke-linecap: round"/>
    <path d="M 273.539726 241.583685 
L 267.139726 238.383685 
L 273.539726 235.183685 
L 273.539726 241.583685 
z
" style="fill: #bfd0e3; stroke: #bfd0e3; stroke-linecap: round"/>
   </g>
  </g>
  <g id="text_13">
   <!-- james-dark style -->
   <g style="fill: #f5f5f5" transform="translate(153.135 32.19) scale(0.192 -0.192)">
    <defs>
     <path id="Prompt-Regular-6a" d="M 800 3674 
Q 634 3674 525 3782 
Q 416 3891 416 4051 
Q 416 4211 528 4320 
Q 640 4429 800 4429 
Q 960 4429 1072 4320 
Q 1184 4211 1184 4051 
Q 1184 3891 1072 3782 
Q 960 3674 800 3674 
z
M 38 -1478 
Q -250 -1478 -448 -1408 
L -448 -877 
Q -282 -954 -64 -954 
Q 224 -954 349 -816 
Q 474 -678 474 -371 
L 474 3072 
L 1126 3072 
L 1126 -416 
Q 1126 -947 832 -1212 
Q 538 -1478 38 -1478 
z
" transform="scale(0.015625)"/>
     <path id="Prompt-Regular-61" d="M 1517 -96 
Q 960 -96 624 189 
Q 288 474 288 960 
Q 288 1472 611 1750 
Q 934 2029 1530 2029 
Q 2163 2029 2605 1773 
L 2605 1933 
Q 2605 2298 2384 2474 
Q 2163 2650 1690 2650 
Q 1408 2650 1142 2595 
Q 877 2541 666 2445 
L 666 2970 
Q 858 3059 1165 3113 
Q 1472 3168 1760 3168 
Q 2522 3168 2890 2832 
Q 3258 2496 3258 1901 
L 3258 0 
L 2650 0 
L 2650 346 
Q 2451 128 2179 16 
Q 1907 -96 1517 -96 
z
M 1677 397 
Q 1984 397 2233 518 
Q 2483 640 2605 858 
L 2605 1274 
Q 2189 1542 1677 1542 
Q 1306 1542 1123 1398 
Q 941 1254 941 960 
Q 941 397 1677 397 
z
" transform="scale(0.015625)"/>
     <path id="Prompt-Regular-6d" d="M 416 3072 
L 1030 3072 
L 1030 2630 
Q 1248 2899 1523 3033 
Q 1798 3168 2093 3168 
Q 2464 3168 2681 3043 
Q 2899 2918 3002 2662 
Q 3206 2912 3504 3040 
Q 3802 3168 4102 3168 
Q 4666 3168 4915 2883 
Q 5165 2598 5165 2042 
L 5165 0 
L 4538 0 
L 4538 1958 
Q 4538 2336 4397 2493 
Q 4256 2650 3917 2650 
Q 3430 2650 3123 2227 
Q 3136 2131 3136 1914 
L 3136 0 
L 2509 0 
L 2509 1958 
Q 2509 2336 2381 2493 
Q 2253 2650 1920 2650 
Q 1434 2650 1050 2099 
L 1050 0 
L 416 0 
L 416 3072 
z
" transform="scale(0.015625)"/>
     <path id="Prompt-Regular-65" d="M 2106 -96 
Q 1254 -96 771 329 
Q 288 755 288 1530 
Q 288 2285 720 2726 
Q 1152 3168 1952 3168 
Q 2483 3168 2854 2966 
Q 3226 2765 3414 2409 
Q 3603 2054 3603 1600 
L 3603 1280 
L 902 1280 
Q 934 845 1270 630 
Q 1606 416 2182 416 
Q 2477 416 2777 470 
Q 3078 525 3309 614 
L 3309 96 
Q 3104 13 2768 -41 
Q 2432 -96 2106 -96 
z
M 2995 1734 
Q 2982 2170 2710 2410 
Q 2438 2650 1939 2650 
Q 1453 2650 1184 2400 
Q 915 2150 902 1734 
L 2995 1734 
z
" transform="scale(0.015625)"/>
     <path id="Prompt-Regular-73" d="M 1549 -96 
Q 1229 -96 870 -16 
Q 512 64 307 198 
L 307 749 
Q 557 602 883 509 
Q 1210 416 1517 416 
Q 1862 416 2022 499 
Q 2182 582 2182 768 
Q 2182 909 2108 995 
Q 2035 1082 1859 1152 
Q 1683 1222 1331 1318 
Q 954 1427 733 1539 
Q 512 1651 400 1824 
Q 288 1997 288 2272 
Q 288 2714 637 2941 
Q 986 3168 1574 3168 
Q 1882 3168 2176 3110 
Q 2470 3053 2650 2950 
L 2650 2413 
Q 2464 2522 2192 2586 
Q 1920 2650 1638 2650 
Q 1299 2650 1120 2566 
Q 941 2483 941 2272 
Q 941 2138 1017 2054 
Q 1094 1971 1264 1910 
Q 1434 1850 1805 1754 
Q 2387 1594 2614 1376 
Q 2842 1158 2842 774 
Q 2842 378 2515 141 
Q 2189 -96 1549 -96 
z
" transform="scale(0.015625)"/>
     <path id="Prompt-Regular-2d" d="M 288 2170 
L 2330 2170 
L 2330 1638 
L 288 1638 
L 288 2170 
z
" transform="scale(0.015625)"/>
     <path id="Prompt-Regular-64" d="M 1901 -96 
Q 1440 -96 1072 105 
Q 704 307 496 675 
Q 288 1043 288 1530 
Q 288 2010 496 2381 
Q 704 2752 1072 2960 
Q 1440 3168 1901 3168 
Q 2733 3168 3162 2662 
L 3162 4730 
L 3808 4730 
L 3808 0 
L 3181 0 
L 3181 448 
Q 2925 166 2621 35 
Q 2317 -96 1901 -96 
z
M 2048 416 
Q 2445 416 2742 624 
Q 3040 832 3162 1184 
L 3162 1875 
Q 3053 2227 2749 2438 
Q 2445 2650 2048 2650 
Q 1734 2650 1481 2509 
Q 1229 2368 1085 2112 
Q 941 1856 941 1530 
Q 941 1203 1085 947 
Q 1229 691 1481 553 
Q 1734 416 2048 416 
z
" transform="scale(0.015625)"/>
     <path id="Prompt-Regular-72" d="M 416 3072 
L 1043 3072 
L 1043 2522 
Q 1235 2803 1584 2937 
Q 1933 3072 2394 3072 
L 2394 2566 
Q 1901 2566 1549 2406 
Q 1197 2246 1062 1901 
L 1062 0 
L 416 0 
L 416 3072 
z
" transform="scale(0.015625)"/>
     <path id="Prompt-Regular-6b" d="M 416 4730 
L 1062 4730 
L 1062 0 
L 416 0 
L 416 4730 
z
M 1069 1555 
L 2483 3072 
L 3270 3072 
L 1850 1555 
L 3418 0 
L 2630 0 
L 1069 1555 
z
" transform="scale(0.015625)"/>
     <path id="Prompt-Regular-20" transform="scale(0.015625)"/>
     <path id="Prompt-Regular-74" d="M 1600 -96 
Q 1133 -96 880 173 
Q 627 442 627 934 
L 627 2573 
L 160 2573 
L 160 3072 
L 627 3072 
L 627 3994 
L 1280 3994 
L 1280 3072 
L 2035 3072 
L 2035 2573 
L 1280 2573 
L 1280 979 
Q 1280 672 1398 544 
Q 1517 416 1830 416 
Q 2016 416 2202 499 
L 2202 -13 
Q 1958 -96 1600 -96 
z
" transform="scale(0.015625)"/>
     <path id="Prompt-Regular-79" d="M 1069 -1267 
Q 723 -1267 493 -1197 
L 493 -691 
Q 659 -755 902 -755 
Q 1126 -755 1254 -643 
Q 1382 -531 1485 -282 
L 1632 77 
L 288 3072 
L 954 3072 
L 1978 710 
L 2931 3072 
L 3597 3072 
L 2214 -346 
Q 2022 -826 1756 -1046 
Q 1491 -1267 1069 -1267 
z
" transform="scale(0.015625)"/>
     <path id="Prompt-Regular-6c" d="M 416 4730 
L 1062 4730 
L 1062 0 
L 416 0 
L 416 4730 
z
" transform="scale(0.015625)"/>
    </defs>
    <use xlink:href="#Prompt-Regular-6a"/>
    <use xlink:href="#Prompt-Regular-61" x="24.999985"/>
    <use xlink:href="#Prompt-Regular-6d" x="81.899979"/>
    <use xlink:href="#Prompt-Regular-65" x="168.59996"/>
    <use xlink:href="#Prompt-Regular-73" x="229.399948"/>
    <use xlink:href="#Prompt-Regular-2d" x="278.299942"/>
    <use xlink:href="#Prompt-Regular-64" x="319.199936"/>
    <use xlink:href="#Prompt-Regular-61" x="385.199921"/>
    <use xlink:href="#Prompt-Regular-72" x="442.099915"/>
    <use xlink:href="#Prompt-Regular-6b" x="481.999908"/>
    <use xlink:href="#Prompt-Regular-20" x="538.899902"/>
    <use xlink:href="#Prompt-Regular-73" x="575.899887"/>
    <use xlink:href="#Prompt-Regular-74" x="624.799881"/>
    <use xlink:href="#Prompt-Regular-79" x="662.199875"/>
    <use xlink:href="#Prompt-Regular-6c" x="720.899872"/>
    <use xlink:href="#Prompt-Regular-65" x="743.999863"/>
   </g>
  </g>
 </g>
 <defs>
  <clipPath id="pf8c391fafe">
   <rect x="176.52693" y="77.549113" width="262.480837" height="194.950997"/>
  </clipPath>
 </defs>
</svg>
