<?xml version="1.0" encoding="utf-8" standalone="no"?>
<!DOCTYPE svg PUBLIC "-//W3C//DTD SVG 1.1//EN"
  "http://www.w3.org/Graphics/SVG/1.1/DTD/svg11.dtd">
<svg xmlns:xlink="http://www.w3.org/1999/xlink" width="576pt" height="576pt" viewBox="0 0 576 576" xmlns="http://www.w3.org/2000/svg" version="1.1">
 <metadata>
  <rdf:RDF xmlns:dc="http://purl.org/dc/elements/1.1/" xmlns:cc="http://creativecommons.org/ns#" xmlns:rdf="http://www.w3.org/1999/02/22-rdf-syntax-ns#">
   <cc:Work>
    <dc:type rdf:resource="http://purl.org/dc/dcmitype/StillImage"/>
    <dc:date>2023-01-24T01:57:50.900369</dc:date>
    <dc:format>image/svg+xml</dc:format>
    <dc:creator>
     <cc:Agent>
      <dc:title>Matplotlib v3.6.3, https://matplotlib.org/</dc:title>
     </cc:Agent>
    </dc:creator>
   </cc:Work>
  </rdf:RDF>
 </metadata>
 <defs>
  <style type="text/css">*{stroke-linejoin: round; stroke-linecap: butt}</style>
 </defs>
 <g id="figure_1">
  <g id="patch_1">
   <path d="M 0 576 
L 576 576 
L 576 0 
L 0 0 
z
" style="fill: #011d3b"/>
  </g>
  <g id="axes_1">
   <g id="patch_2">
    <path d="M 504 288 
C 504 267.771 501.158247 247.641925 495.558141 228.203528 
C 489.958035 208.765131 481.654903 190.209453 470.892425 173.081069 
L 416.024698 207.556748 
C 423.558432 219.546617 429.370625 232.535592 433.290699 246.14247 
C 437.210773 259.749347 439.2 273.8397 439.2 288 
L 504 288 
z
" style="fill: #52a1fa; fill-opacity: 0.901961"/>
   </g>
   <g id="patch_3">
    <path d="M 470.892425 173.081069 
C 453.628777 145.606131 430.393861 122.371216 402.918922 105.107569 
C 375.443984 87.843922 344.428795 76.99124 312.184315 73.358161 
L 304.929021 137.750713 
C 327.500157 140.293868 349.210789 147.890746 368.443246 159.975298 
C 387.675703 172.059851 403.940144 188.324292 416.024698 207.556748 
L 470.892425 173.081069 
z
" style="fill: #52a1fa; fill-opacity: 0.701961"/>
   </g>
   <g id="patch_4">
    <path d="M 312.184315 73.358161 
C 300.135835 72.000624 287.994415 71.65997 275.888771 72.339809 
C 263.783128 73.019648 251.756192 74.717569 239.935466 77.415574 
L 254.354826 140.590902 
C 262.629334 138.702299 271.04819 137.513753 279.52214 137.037866 
C 287.99609 136.561979 296.495085 136.800437 304.929021 137.750713 
L 312.184315 73.358161 
z
" style="fill: #52a1fa; fill-opacity: 0.501961"/>
   </g>
   <g id="patch_5">
    <path d="M 239.935466 77.415574 
C 220.21365 81.916951 201.221603 89.166597 183.516708 98.951748 
C 165.811814 108.736898 149.568987 120.960882 135.264925 135.264946 
L 181.085447 181.085462 
C 191.098291 171.072617 202.46827 162.515829 214.861696 155.666223 
C 227.255122 148.816618 240.549555 143.741866 254.354826 140.590902 
L 239.935466 77.415574 
z
" style="fill: #f26f6f; fill-opacity: 0.901961"/>
   </g>
   <g id="patch_6">
    <path d="M 135.264925 135.264946 
C 123.828397 146.701475 113.712486 159.386428 105.107564 173.081086 
C 96.502641 186.775745 89.463025 201.393661 84.121194 216.659741 
L 145.284836 238.061819 
C 149.024118 227.375563 153.951849 217.143021 159.975295 207.55676 
C 165.998741 197.970499 173.079878 189.091033 181.085447 181.085462 
L 135.264925 135.264946 
z
" style="fill: #f26f6f; fill-opacity: 0.701961"/>
   </g>
   <g id="patch_7">
    <path d="M 63.733314 209.525715 
C 53.428165 238.976147 49.024314 270.170099 50.77379 301.32236 
C 52.523266 332.47462 60.392047 362.979355 73.929806 391.090796 
C 87.467566 419.202236 106.411028 444.373685 129.676069 465.164593 
C 152.94111 485.955501 180.075284 501.961538 209.525715 512.266686 
L 238.061819 430.715164 
C 219.320635 424.157342 202.053434 413.971682 187.248408 400.741104 
C 172.443381 387.510527 160.388451 371.492332 151.773513 353.603234 
C 143.158575 335.714135 138.151169 316.302031 137.037866 296.477865 
C 135.924563 276.653699 138.727014 256.803002 145.284836 238.061819 
L 63.733314 209.525715 
z
" style="fill: #d6d6d6; fill-opacity: 0.901961"/>
   </g>
   <g id="patch_8">
    <path d="M 216.659741 491.878806 
C 235.753558 498.560019 255.691628 502.525946 275.888804 503.660193 
C 296.085981 504.79444 316.342727 503.085802 336.064544 498.584424 
L 321.64518 435.409097 
C 307.839909 438.560061 293.660186 439.756108 279.522163 438.962135 
C 265.38414 438.168162 251.42749 435.392013 238.061819 430.715164 
L 216.659741 491.878806 
z
" style="fill: #d6d6d6; fill-opacity: 0.701961"/>
   </g>
   <g id="patch_9">
    <path d="M 336.064544 498.584424 
C 383.76106 487.698 426.372551 460.923419 456.875615 422.673779 
C 487.378679 384.424138 504.000006 336.923097 504 287.999975 
L 439.2 287.999982 
C 439.200004 322.246168 427.565075 355.496897 406.212931 382.271645 
C 384.860786 409.046393 355.032742 427.7886 321.64518 435.409097 
L 336.064544 498.584424 
z
" style="fill: #d6d6d6; fill-opacity: 0.501961"/>
   </g>
   <g id="patch_10">
    <path d="M 437.04 288 
C 437.04 265.610529 431.994827 243.506181 422.280399 223.333965 
C 412.565971 203.161748 398.429709 185.435438 380.924915 171.475832 
C 363.420121 157.516226 342.992632 147.678867 321.164511 142.696742 
C 299.336391 137.714617 276.663588 137.714619 254.835468 142.696747 
L 269.25483 205.872074 
C 281.592463 203.056089 294.407525 203.056088 306.745159 205.872072 
C 319.082792 208.688055 330.628764 214.248302 340.522778 222.138514 
C 350.416792 230.028726 358.406853 240.047945 363.897617 251.449632 
C 369.38838 262.85132 372.24 275.345081 372.24 288 
L 437.04 288 
z
" style="fill: #52a1fa"/>
   </g>
   <g id="patch_11">
    <path d="M 254.835468 142.696747 
C 230.251861 148.307797 207.489676 160.067022 188.687698 176.869499 
C 169.88572 193.671976 155.651881 214.974424 147.323625 238.775218 
L 208.487266 260.177297 
C 213.194542 246.724675 221.239755 234.684161 231.86696 225.187108 
C 242.494165 215.690056 255.359748 209.043537 269.25483 205.872074 
L 254.835468 142.696747 
z
" style="fill: #f26f6f"/>
   </g>
   <g id="patch_12">
    <path d="M 147.323625 238.775218 
C 140.161766 259.242641 137.552238 281.028626 139.677669 302.608482 
C 141.8031 324.188337 148.612724 345.046616 159.629968 363.723553 
C 170.647212 382.400489 185.608924 398.449974 203.468008 410.748784 
C 221.327093 423.047594 241.656976 431.301966 263.034871 434.934216 
C 284.412765 438.566467 306.328049 437.489839 327.246981 431.779679 
C 348.165912 426.06952 367.588832 415.862219 384.156426 401.872136 
C 400.724021 387.882052 414.040564 370.443346 423.174098 350.776466 
C 432.307633 331.109586 437.039998 309.684285 437.04 288.000014 
L 372.24 288.000008 
C 372.239999 300.256335 369.565184 312.366288 364.402751 323.48235 
C 359.240319 334.598413 351.713577 344.455073 342.349284 352.362511 
C 332.984992 360.26995 322.00682 366.039294 310.183076 369.266775 
C 298.359332 372.494257 285.972432 373.102786 273.889275 371.049774 
C 261.806117 368.996763 250.315313 364.331249 240.221048 357.379748 
C 230.126783 350.428246 221.670163 341.356798 215.443025 330.800269 
C 209.215887 320.24374 205.36697 308.454277 204.165639 296.256968 
C 202.964308 284.059658 204.439259 271.74584 208.487266 260.177297 
L 147.323625 238.775218 
z
" style="fill: #d6d6d6"/>
   </g>
   <g id="matplotlib.axis_1"/>
   <g id="matplotlib.axis_2"/>
   <g id="text_1">
    <!-- Lime -->
    <g style="fill: #ffffff" transform="translate(449.410636 240.638279) scale(0.13328 -0.13328)">
     <defs>
      <path id="Prompt-Light-4c" d="M 448 4474 
L 947 4474 
L 947 422 
L 3328 422 
L 3328 0 
L 448 0 
L 448 4474 
z
" transform="scale(0.015625)"/>
      <path id="Prompt-Light-69" d="M 755 3738 
Q 627 3738 537 3827 
Q 448 3917 448 4045 
Q 448 4173 537 4262 
Q 627 4352 755 4352 
Q 883 4352 976 4262 
Q 1069 4173 1069 4045 
Q 1069 3917 976 3827 
Q 883 3738 755 3738 
z
M 512 3072 
L 1005 3072 
L 1005 0 
L 512 0 
L 512 3072 
z
" transform="scale(0.015625)"/>
      <path id="Prompt-Light-6d" d="M 448 3072 
L 922 3072 
L 922 2592 
Q 1363 3168 2016 3168 
Q 2400 3168 2614 3033 
Q 2829 2899 2925 2630 
Q 3130 2906 3434 3037 
Q 3738 3168 4058 3168 
Q 4608 3168 4857 2886 
Q 5107 2605 5107 2054 
L 5107 0 
L 4621 0 
L 4621 1997 
Q 4621 2426 4470 2598 
Q 4320 2771 3936 2771 
Q 3386 2771 3027 2278 
Q 3046 2189 3046 1984 
L 3046 0 
L 2566 0 
L 2566 1984 
Q 2566 2413 2425 2592 
Q 2285 2771 1901 2771 
Q 1350 2771 934 2157 
L 934 0 
L 448 0 
L 448 3072 
z
" transform="scale(0.015625)"/>
      <path id="Prompt-Light-65" d="M 2099 -96 
Q 1261 -96 790 333 
Q 320 762 320 1530 
Q 320 2285 742 2726 
Q 1165 3168 1946 3168 
Q 2470 3168 2835 2966 
Q 3200 2765 3385 2413 
Q 3571 2061 3571 1613 
L 3571 1344 
L 781 1344 
Q 806 819 1168 556 
Q 1530 294 2150 294 
Q 2451 294 2742 348 
Q 3034 403 3264 499 
L 3264 83 
Q 3072 6 2742 -45 
Q 2413 -96 2099 -96 
z
M 3110 1696 
Q 3098 2195 2803 2483 
Q 2509 2771 1939 2771 
Q 1382 2771 1088 2473 
Q 794 2176 781 1696 
L 3110 1696 
z
" transform="scale(0.015625)"/>
     </defs>
     <use xlink:href="#Prompt-Light-4c"/>
     <use xlink:href="#Prompt-Light-69" x="54.499985"/>
     <use xlink:href="#Prompt-Light-6d" x="78.199982"/>
     <use xlink:href="#Prompt-Light-65" x="164.499969"/>
    </g>
   </g>
   <g id="text_2">
    <!-- Apple -->
    <g style="fill: #ffffff" transform="translate(366.569982 136.006714) scale(0.13328 -0.13328)">
     <defs>
      <path id="Prompt-Light-41" d="M 2106 4474 
L 2573 4474 
L 4358 0 
L 3846 0 
L 3366 1197 
L 1306 1197 
L 832 0 
L 320 0 
L 2106 4474 
z
M 3226 1619 
L 2336 3898 
L 1453 1619 
L 3226 1619 
z
" transform="scale(0.015625)"/>
      <path id="Prompt-Light-70" d="M 448 3072 
L 928 3072 
L 928 2541 
Q 1382 3168 2272 3168 
Q 2726 3168 3091 2963 
Q 3456 2758 3667 2387 
Q 3878 2016 3878 1530 
Q 3878 1050 3670 678 
Q 3462 307 3094 105 
Q 2726 -96 2272 -96 
Q 1856 -96 1497 61 
Q 1139 218 941 518 
L 941 -1402 
L 448 -1402 
L 448 3072 
z
M 2170 294 
Q 2515 294 2793 448 
Q 3072 602 3229 880 
Q 3386 1158 3386 1530 
Q 3386 1894 3229 2179 
Q 3072 2464 2793 2617 
Q 2515 2771 2170 2771 
Q 1734 2771 1404 2544 
Q 1075 2317 941 1920 
L 941 1158 
Q 1062 768 1398 531 
Q 1734 294 2170 294 
z
" transform="scale(0.015625)"/>
      <path id="Prompt-Light-6c" d="M 448 4730 
L 941 4730 
L 941 0 
L 448 0 
L 448 4730 
z
" transform="scale(0.015625)"/>
     </defs>
     <use xlink:href="#Prompt-Light-41"/>
     <use xlink:href="#Prompt-Light-70" x="73.099991"/>
     <use xlink:href="#Prompt-Light-70" x="138.699982"/>
     <use xlink:href="#Prompt-Light-6c" x="204.299973"/>
     <use xlink:href="#Prompt-Light-65" x="225.999969"/>
    </g>
   </g>
   <g id="text_3">
    <!-- Cow -->
    <g style="fill: #ffffff" transform="translate(263.351825 108.154117) scale(0.13328 -0.13328)">
     <defs>
      <path id="Prompt-Light-43" d="M 2669 -96 
Q 1990 -96 1456 192 
Q 922 480 621 1008 
Q 320 1536 320 2234 
Q 320 2931 621 3459 
Q 922 3987 1456 4278 
Q 1990 4570 2669 4570 
Q 3597 4570 4205 4083 
L 4205 3597 
Q 3629 4115 2707 4115 
Q 2163 4115 1734 3884 
Q 1306 3654 1062 3228 
Q 819 2803 819 2234 
Q 819 1664 1065 1238 
Q 1312 813 1741 582 
Q 2170 352 2707 352 
Q 3187 352 3564 480 
Q 3942 608 4262 902 
L 4262 410 
Q 3693 -96 2669 -96 
z
" transform="scale(0.015625)"/>
      <path id="Prompt-Light-6f" d="M 2022 -96 
Q 1523 -96 1136 102 
Q 749 301 534 669 
Q 320 1037 320 1530 
Q 320 2016 537 2387 
Q 755 2758 1142 2963 
Q 1530 3168 2022 3168 
Q 2515 3168 2902 2963 
Q 3290 2758 3507 2387 
Q 3725 2016 3725 1530 
Q 3725 1037 3510 669 
Q 3296 301 2909 102 
Q 2522 -96 2022 -96 
z
M 2022 294 
Q 2573 294 2902 630 
Q 3232 966 3232 1530 
Q 3232 2099 2902 2435 
Q 2573 2771 2022 2771 
Q 1472 2771 1142 2435 
Q 813 2099 813 1530 
Q 813 966 1142 630 
Q 1472 294 2022 294 
z
" transform="scale(0.015625)"/>
      <path id="Prompt-Light-77" d="M 320 3072 
L 832 3072 
L 1594 595 
L 2342 3072 
L 2810 3072 
L 3565 595 
L 4320 3072 
L 4838 3072 
L 3853 0 
L 3347 0 
L 2579 2502 
L 1811 0 
L 1299 0 
L 320 3072 
z
" transform="scale(0.015625)"/>
     </defs>
     <use xlink:href="#Prompt-Light-43"/>
     <use xlink:href="#Prompt-Light-6f" x="71.599991"/>
     <use xlink:href="#Prompt-Light-77" x="134.799988"/>
    </g>
   </g>
   <g id="text_4">
    <!-- Taco -->
    <g style="fill: #ffffff" transform="translate(183.681866 130.774265) scale(0.13328 -0.13328)">
     <defs>
      <path id="Prompt-Light-54" d="M 1626 4051 
L 192 4051 
L 192 4474 
L 3558 4474 
L 3558 4051 
L 2125 4051 
L 2125 0 
L 1626 0 
L 1626 4051 
z
" transform="scale(0.015625)"/>
      <path id="Prompt-Light-61" d="M 1523 -96 
Q 966 -96 643 182 
Q 320 461 320 947 
Q 320 1453 633 1725 
Q 947 1997 1542 1997 
Q 2208 1997 2688 1722 
L 2688 1952 
Q 2688 2368 2451 2569 
Q 2214 2771 1702 2771 
Q 1158 2771 698 2566 
L 698 2982 
Q 890 3066 1184 3117 
Q 1478 3168 1747 3168 
Q 2477 3168 2829 2838 
Q 3181 2509 3181 1926 
L 3181 0 
L 2720 0 
L 2720 397 
Q 2317 -96 1523 -96 
z
M 1645 307 
Q 1990 307 2268 444 
Q 2547 582 2688 832 
L 2688 1325 
Q 2438 1472 2192 1539 
Q 1946 1606 1638 1606 
Q 1203 1606 1008 1443 
Q 813 1280 813 947 
Q 813 307 1645 307 
z
" transform="scale(0.015625)"/>
      <path id="Prompt-Light-63" d="M 2016 -96 
Q 1530 -96 1142 99 
Q 755 294 537 662 
Q 320 1030 320 1530 
Q 320 2022 541 2396 
Q 762 2771 1152 2969 
Q 1542 3168 2035 3168 
Q 2387 3168 2656 3104 
Q 2925 3040 3136 2899 
L 3136 2483 
Q 2733 2771 2080 2771 
Q 1517 2771 1165 2444 
Q 813 2118 813 1530 
Q 813 941 1165 617 
Q 1517 294 2061 294 
Q 2400 294 2669 371 
Q 2938 448 3181 608 
L 3181 192 
Q 2957 38 2678 -29 
Q 2400 -96 2016 -96 
z
" transform="scale(0.015625)"/>
     </defs>
     <use xlink:href="#Prompt-Light-54"/>
     <use xlink:href="#Prompt-Light-61" x="58.599991"/>
     <use xlink:href="#Prompt-Light-63" x="114.799988"/>
     <use xlink:href="#Prompt-Light-6f" x="169.499985"/>
    </g>
   </g>
   <g id="text_5">
    <!-- Soup -->
    <g style="fill: #ffffff" transform="translate(116.321878 193.784203) scale(0.13328 -0.13328)">
     <defs>
      <path id="Prompt-Light-53" d="M 1638 -96 
Q 1267 -96 908 -32 
Q 550 32 320 141 
L 320 614 
Q 922 352 1613 352 
Q 2189 352 2461 537 
Q 2733 723 2733 1094 
Q 2733 1357 2621 1510 
Q 2509 1664 2297 1769 
Q 2086 1875 1568 2086 
Q 934 2342 649 2646 
Q 365 2950 365 3418 
Q 365 3757 547 4019 
Q 730 4282 1062 4426 
Q 1395 4570 1830 4570 
Q 2182 4570 2467 4515 
Q 2752 4461 3027 4339 
L 3027 3885 
Q 2490 4122 1901 4122 
Q 1389 4122 1126 3936 
Q 864 3750 864 3418 
Q 864 3194 973 3034 
Q 1082 2874 1315 2739 
Q 1549 2605 1958 2445 
Q 2419 2266 2681 2109 
Q 2944 1952 3088 1712 
Q 3232 1472 3232 1094 
Q 3232 525 2829 214 
Q 2426 -96 1638 -96 
z
" transform="scale(0.015625)"/>
      <path id="Prompt-Light-75" d="M 1690 -96 
Q 1075 -96 745 237 
Q 416 570 416 1126 
L 416 3072 
L 909 3072 
L 909 1101 
Q 909 294 1747 294 
Q 2099 294 2364 448 
Q 2630 602 2842 934 
L 2842 3072 
L 3334 3072 
L 3334 0 
L 2854 0 
L 2854 461 
Q 2438 -96 1690 -96 
z
" transform="scale(0.015625)"/>
     </defs>
     <use xlink:href="#Prompt-Light-53"/>
     <use xlink:href="#Prompt-Light-6f" x="55.499985"/>
     <use xlink:href="#Prompt-Light-75" x="118.699982"/>
     <use xlink:href="#Prompt-Light-70" x="177.799973"/>
    </g>
   </g>
   <g id="text_6">
    <!-- Cheese -->
    <g style="fill: #ffffff" transform="translate(86.815671 371.126349) scale(0.13328 -0.13328)">
     <defs>
      <path id="Prompt-Bold-43" d="M 2598 -96 
Q 1869 -96 1315 185 
Q 762 467 461 995 
Q 160 1523 160 2234 
Q 160 2944 461 3472 
Q 762 4000 1315 4285 
Q 1869 4570 2598 4570 
Q 3078 4570 3456 4474 
Q 3834 4378 4154 4173 
L 4154 3098 
Q 3872 3322 3517 3424 
Q 3162 3526 2701 3526 
Q 2042 3526 1683 3184 
Q 1325 2842 1325 2234 
Q 1325 1626 1686 1280 
Q 2048 934 2701 934 
Q 3162 934 3526 1043 
Q 3891 1152 4205 1389 
L 4205 320 
Q 3597 -96 2598 -96 
z
" transform="scale(0.015625)"/>
      <path id="Prompt-Bold-68" d="M 288 4730 
L 1414 4730 
L 1414 2758 
Q 1619 2963 1884 3065 
Q 2150 3168 2445 3168 
Q 3091 3168 3401 2832 
Q 3712 2496 3712 1920 
L 3712 0 
L 2586 0 
L 2586 1773 
Q 2586 2291 2112 2291 
Q 1894 2291 1715 2192 
Q 1536 2093 1414 1888 
L 1414 0 
L 288 0 
L 288 4730 
z
" transform="scale(0.015625)"/>
      <path id="Prompt-Bold-65" d="M 2093 -96 
Q 1190 -96 675 326 
Q 160 749 160 1523 
Q 160 2285 617 2726 
Q 1075 3168 1939 3168 
Q 2490 3168 2883 2960 
Q 3277 2752 3478 2390 
Q 3680 2029 3680 1574 
L 3680 1158 
L 1229 1158 
Q 1293 902 1549 787 
Q 1805 672 2246 672 
Q 2547 672 2864 723 
Q 3181 774 3411 864 
L 3411 122 
Q 3174 26 2819 -35 
Q 2464 -96 2093 -96 
z
M 2618 1862 
Q 2592 2112 2413 2253 
Q 2234 2394 1920 2394 
Q 1613 2394 1433 2250 
Q 1254 2106 1229 1862 
L 2618 1862 
z
" transform="scale(0.015625)"/>
      <path id="Prompt-Bold-73" d="M 1613 -96 
Q 1242 -96 838 -22 
Q 435 51 198 186 
L 198 1011 
Q 461 858 829 758 
Q 1197 659 1504 659 
Q 1728 659 1830 691 
Q 1933 723 1933 819 
Q 1933 896 1865 944 
Q 1798 992 1622 1046 
Q 1446 1101 1216 1165 
Q 826 1280 602 1401 
Q 378 1523 269 1708 
Q 160 1894 160 2176 
Q 160 2675 553 2921 
Q 947 3168 1632 3168 
Q 1965 3168 2333 3097 
Q 2701 3027 2886 2912 
L 2886 2099 
Q 2694 2227 2377 2310 
Q 2061 2394 1786 2394 
Q 1568 2394 1446 2352 
Q 1325 2310 1325 2208 
Q 1325 2112 1446 2061 
Q 1568 2010 1882 1933 
Q 2086 1882 2054 1888 
Q 2464 1779 2688 1644 
Q 2912 1510 3005 1328 
Q 3098 1146 3098 864 
Q 3098 422 2717 163 
Q 2336 -96 1613 -96 
z
" transform="scale(0.015625)"/>
     </defs>
     <use xlink:href="#Prompt-Bold-43"/>
     <use xlink:href="#Prompt-Bold-68" x="68.199982"/>
     <use xlink:href="#Prompt-Bold-65" x="130.199966"/>
     <use xlink:href="#Prompt-Bold-65" x="190.199951"/>
     <use xlink:href="#Prompt-Bold-73" x="250.199936"/>
     <use xlink:href="#Prompt-Bold-65" x="301.09993"/>
    </g>
   </g>
   <g id="text_7">
    <!-- White -->
    <g style="fill: #ffffff" transform="translate(258.979644 474.776444) scale(0.13328 -0.13328)">
     <defs>
      <path id="Prompt-Light-57" d="M 320 4474 
L 838 4474 
L 1939 845 
L 3040 4474 
L 3437 4474 
L 4518 838 
L 5619 4474 
L 6138 4474 
L 4800 0 
L 4314 0 
L 3226 3654 
L 2144 0 
L 1658 0 
L 320 4474 
z
" transform="scale(0.015625)"/>
      <path id="Prompt-Light-68" d="M 448 4730 
L 941 4730 
L 941 2624 
Q 1382 3168 2163 3168 
Q 2771 3168 3068 2848 
Q 3366 2528 3366 1990 
L 3366 0 
L 2874 0 
L 2874 1946 
Q 2874 2342 2682 2556 
Q 2490 2771 2067 2771 
Q 1357 2771 941 2131 
L 941 0 
L 448 0 
L 448 4730 
z
" transform="scale(0.015625)"/>
      <path id="Prompt-Light-74" d="M 1587 -96 
Q 1152 -96 912 160 
Q 672 416 672 890 
L 672 2688 
L 192 2688 
L 192 3072 
L 672 3072 
L 672 3994 
L 1165 3994 
L 1165 3072 
L 1939 3072 
L 1939 2688 
L 1165 2688 
L 1165 877 
Q 1165 557 1293 425 
Q 1421 294 1760 294 
Q 1926 294 2112 371 
L 2112 -32 
Q 1901 -96 1587 -96 
z
" transform="scale(0.015625)"/>
     </defs>
     <use xlink:href="#Prompt-Light-57"/>
     <use xlink:href="#Prompt-Light-68" x="100.899994"/>
     <use xlink:href="#Prompt-Light-69" x="159.999985"/>
     <use xlink:href="#Prompt-Light-74" x="183.699982"/>
     <use xlink:href="#Prompt-Light-65" x="220.199966"/>
    </g>
   </g>
   <g id="text_8">
    <!-- Veggie -->
    <g style="fill: #ffffff" transform="translate(408.248387 405.792217) scale(0.13328 -0.13328)">
     <defs>
      <path id="Prompt-Light-56" d="M 320 4474 
L 845 4474 
L 2336 691 
L 3834 4474 
L 4358 4474 
L 2573 0 
L 2106 0 
L 320 4474 
z
" transform="scale(0.015625)"/>
      <path id="Prompt-Light-67" d="M 2035 -1472 
Q 1728 -1472 1433 -1421 
Q 1139 -1370 934 -1280 
L 934 -864 
Q 1421 -1082 2035 -1082 
Q 2662 -1082 2960 -797 
Q 3258 -512 3258 64 
L 3258 518 
Q 2842 -96 1939 -96 
Q 1485 -96 1113 105 
Q 742 307 531 678 
Q 320 1050 320 1530 
Q 320 2016 531 2387 
Q 742 2758 1107 2963 
Q 1472 3168 1926 3168 
Q 2400 3168 2713 3024 
Q 3027 2880 3270 2554 
L 3270 3072 
L 3750 3072 
L 3750 128 
Q 3750 -653 3328 -1062 
Q 2906 -1472 2035 -1472 
z
M 2029 294 
Q 2483 294 2809 524 
Q 3136 755 3258 1158 
L 3258 1920 
Q 3130 2323 2803 2547 
Q 2477 2771 2029 2771 
Q 1690 2771 1411 2614 
Q 1133 2458 973 2176 
Q 813 1894 813 1530 
Q 813 1158 973 880 
Q 1133 602 1411 448 
Q 1690 294 2029 294 
z
" transform="scale(0.015625)"/>
     </defs>
     <use xlink:href="#Prompt-Light-56"/>
     <use xlink:href="#Prompt-Light-65" x="73.099991"/>
     <use xlink:href="#Prompt-Light-67" x="133.899979"/>
     <use xlink:href="#Prompt-Light-67" x="199.499969"/>
     <use xlink:href="#Prompt-Light-69" x="265.09996"/>
     <use xlink:href="#Prompt-Light-65" x="288.799957"/>
    </g>
   </g>
   <g id="text_9">
    <!-- Pie -->
    <g style="fill: #ffffff" transform="translate(348.11731 204.072154) scale(0.13328 -0.13328)">
     <defs>
      <path id="Prompt-Light-50" d="M 448 4474 
L 2106 4474 
Q 2810 4474 3203 4141 
Q 3597 3808 3597 3155 
Q 3597 2496 3206 2169 
Q 2816 1843 2106 1843 
L 947 1843 
L 947 0 
L 448 0 
L 448 4474 
z
M 2067 2266 
Q 2547 2266 2822 2461 
Q 3098 2656 3098 3155 
Q 3098 3661 2822 3856 
Q 2547 4051 2067 4051 
L 947 4051 
L 947 2266 
L 2067 2266 
z
" transform="scale(0.015625)"/>
     </defs>
     <use xlink:href="#Prompt-Light-50"/>
     <use xlink:href="#Prompt-Light-69" x="59.199997"/>
     <use xlink:href="#Prompt-Light-65" x="82.899994"/>
    </g>
   </g>
   <g id="text_10">
    <!-- Not pie -->
    <g style="fill: #ffffff" transform="translate(189.819006 208.117404) scale(0.13328 -0.13328)">
     <defs>
      <path id="Prompt-Light-4e" d="M 448 4474 
L 928 4474 
L 3392 851 
L 3392 4474 
L 3891 4474 
L 3891 0 
L 3411 0 
L 947 3629 
L 947 0 
L 448 0 
L 448 4474 
z
" transform="scale(0.015625)"/>
      <path id="Prompt-Light-20" transform="scale(0.015625)"/>
     </defs>
     <use xlink:href="#Prompt-Light-4e"/>
     <use xlink:href="#Prompt-Light-6f" x="67.799988"/>
     <use xlink:href="#Prompt-Light-74" x="130.999985"/>
     <use xlink:href="#Prompt-Light-20" x="167.499969"/>
     <use xlink:href="#Prompt-Light-70" x="205.499954"/>
     <use xlink:href="#Prompt-Light-69" x="271.099945"/>
     <use xlink:href="#Prompt-Light-65" x="294.799942"/>
    </g>
   </g>
   <g id="text_11">
    <!-- Pizza -->
    <g style="fill: #ffffff" transform="translate(253.368977 401.665942) scale(0.13328 -0.13328)">
     <defs>
      <path id="Prompt-Light-7a" d="M 320 333 
L 2182 2688 
L 352 2688 
L 352 3072 
L 2784 3072 
L 2784 2739 
L 922 384 
L 2867 384 
L 2867 0 
L 320 0 
L 320 333 
z
" transform="scale(0.015625)"/>
     </defs>
     <use xlink:href="#Prompt-Light-50"/>
     <use xlink:href="#Prompt-Light-69" x="59.199997"/>
     <use xlink:href="#Prompt-Light-7a" x="82.899994"/>
     <use xlink:href="#Prompt-Light-7a" x="132.699982"/>
     <use xlink:href="#Prompt-Light-61" x="182.499969"/>
    </g>
   </g>
  </g>
 </g>
</svg>
