<?xml version="1.0" encoding="utf-8" standalone="no"?>
<!DOCTYPE svg PUBLIC "-//W3C//DTD SVG 1.1//EN"
  "http://www.w3.org/Graphics/SVG/1.1/DTD/svg11.dtd">
<svg xmlns:xlink="http://www.w3.org/1999/xlink" width="720pt" height="432pt" viewBox="0 0 720 432" xmlns="http://www.w3.org/2000/svg" version="1.1">
 <metadata>
  <rdf:RDF xmlns:dc="http://purl.org/dc/elements/1.1/" xmlns:cc="http://creativecommons.org/ns#" xmlns:rdf="http://www.w3.org/1999/02/22-rdf-syntax-ns#">
   <cc:Work>
    <dc:type rdf:resource="http://purl.org/dc/dcmitype/StillImage"/>
    <dc:date>2023-01-24T01:52:42.298139</dc:date>
    <dc:format>image/svg+xml</dc:format>
    <dc:creator>
     <cc:Agent>
      <dc:title>Matplotlib v3.6.3, https://matplotlib.org/</dc:title>
     </cc:Agent>
    </dc:creator>
   </cc:Work>
  </rdf:RDF>
 </metadata>
 <defs>
  <style type="text/css">*{stroke-linejoin: round; stroke-linecap: butt}</style>
 </defs>
 <g id="figure_1">
  <g id="patch_1">
   <path d="M 0 432 
L 720 432 
L 720 0 
L 0 0 
z
" style="fill: #ffffff"/>
  </g>
  <g id="axes_1">
   <g id="patch_2">
    <path d="M 184.674569 176.53883 
L 705.191985 176.53883 
L 705.191985 3.00024 
L 184.674569 3.00024 
z
" style="fill: #ffffff"/>
   </g>
   <g id="matplotlib.axis_1"/>
   <g id="matplotlib.axis_2">
    <g id="ytick_1">
     <g id="line2d_1">
      <defs>
       <path id="m05afcf6163" d="M 0 0 
L -3.5 0 
" style="stroke: #5a5758; stroke-width: 0.8"/>
      </defs>
      <g>
       <use xlink:href="#m05afcf6163" x="172.674569" y="145.116165" style="fill: #5a5758; stroke: #5a5758; stroke-width: 0.8"/>
      </g>
     </g>
     <g id="text_1">
      <!-- 0.5 -->
      <g style="fill: #5a5758" transform="translate(145.552153 150.32658) scale(0.14994 -0.14994)">
       <defs>
        <path id="CMUBright-Roman-30" d="M 333 1984 
L 333 2086 
Q 333 2291 339 2438 
Q 346 2586 371 2832 
Q 397 3078 461 3267 
Q 525 3456 621 3657 
Q 717 3859 880 4006 
Q 1043 4154 1261 4230 
Q 1446 4301 1677 4301 
Q 1856 4301 2025 4256 
Q 2195 4211 2380 4070 
Q 2566 3930 2704 3709 
Q 2842 3488 2931 3104 
Q 3021 2720 3021 2214 
Q 3021 1683 2982 1347 
Q 2944 1011 2803 685 
Q 2618 250 2307 70 
Q 1997 -109 1677 -109 
Q 1498 -109 1328 -64 
Q 1158 -19 972 121 
Q 787 262 649 483 
Q 512 704 422 1091 
Q 333 1478 333 1984 
z
M 742 2413 
Q 742 2374 745 2326 
Q 749 2278 749 2272 
L 749 2150 
Q 749 1779 758 1548 
Q 768 1318 838 1014 
Q 909 710 1037 538 
Q 1286 218 1677 218 
Q 2086 218 2330 557 
Q 2451 730 2518 1037 
Q 2586 1344 2595 1568 
Q 2605 1792 2605 2163 
L 2605 2272 
Q 2605 2278 2608 2323 
Q 2611 2368 2611 2406 
Q 2611 3302 2336 3661 
Q 2099 3981 1677 3981 
Q 1242 3981 1005 3642 
Q 742 3264 742 2413 
z
" transform="scale(0.015625)"/>
        <path id="CMUBright-Roman-2e" d="M 678 0 
L 678 499 
L 1178 499 
L 1178 0 
L 678 0 
z
" transform="scale(0.015625)"/>
        <path id="CMUBright-Roman-35" d="M 301 518 
L 486 819 
Q 896 224 1581 224 
Q 1971 224 2268 473 
Q 2566 723 2566 1312 
Q 2566 1626 2489 1846 
Q 2413 2067 2285 2176 
Q 2157 2285 2032 2329 
Q 1907 2374 1773 2374 
Q 1210 2374 941 1901 
L 582 1901 
L 582 4192 
L 2797 4192 
L 2797 3853 
L 973 3853 
L 973 2381 
Q 1325 2701 1779 2701 
Q 2285 2701 2653 2291 
Q 3021 1882 3021 1306 
Q 3021 723 2601 307 
Q 2182 -109 1574 -109 
Q 813 -109 301 518 
z
" transform="scale(0.015625)"/>
       </defs>
       <use xlink:href="#CMUBright-Roman-30"/>
       <use xlink:href="#CMUBright-Roman-2e" x="52.499985"/>
       <use xlink:href="#CMUBright-Roman-35" x="81.699982"/>
      </g>
     </g>
    </g>
    <g id="ytick_2">
     <g id="line2d_2">
      <g>
       <use xlink:href="#m05afcf6163" x="172.674569" y="95.255159" style="fill: #5a5758; stroke: #5a5758; stroke-width: 0.8"/>
      </g>
     </g>
     <g id="text_2">
      <!-- 1.0 -->
      <g style="fill: #5a5758" transform="translate(145.552153 100.465574) scale(0.14994 -0.14994)">
       <defs>
        <path id="CMUBright-Roman-31" d="M 672 3558 
L 672 3885 
Q 1427 3885 1862 4301 
L 1965 4301 
L 1965 320 
L 2803 320 
L 2803 0 
L 710 0 
L 710 320 
L 1549 320 
L 1549 3744 
Q 1178 3558 672 3558 
z
" transform="scale(0.015625)"/>
       </defs>
       <use xlink:href="#CMUBright-Roman-31"/>
       <use xlink:href="#CMUBright-Roman-2e" x="52.499985"/>
       <use xlink:href="#CMUBright-Roman-30" x="81.699982"/>
      </g>
     </g>
    </g>
    <g id="ytick_3">
     <g id="line2d_3">
      <g>
       <use xlink:href="#m05afcf6163" x="172.674569" y="45.394153" style="fill: #5a5758; stroke: #5a5758; stroke-width: 0.8"/>
      </g>
     </g>
     <g id="text_3">
      <!-- 1.5 -->
      <g style="fill: #5a5758" transform="translate(145.552153 50.604568) scale(0.14994 -0.14994)">
       <use xlink:href="#CMUBright-Roman-31"/>
       <use xlink:href="#CMUBright-Roman-2e" x="52.499985"/>
       <use xlink:href="#CMUBright-Roman-35" x="81.699982"/>
      </g>
     </g>
    </g>
    <g id="text_4">
     <!-- Position (m) -->
     <g style="fill: #5a5758" transform="translate(19.127115 85.772973) scale(0.18 -0.18)">
      <defs>
       <path id="CMUBright-SemiBold-50" d="M 518 0 
L 518 4448 
L 2138 4448 
Q 2765 4448 3181 4186 
Q 3482 3994 3658 3702 
Q 3834 3411 3834 3085 
Q 3834 2560 3395 2144 
Q 2957 1728 2202 1728 
L 1190 1728 
L 1190 0 
L 518 0 
z
M 1171 2221 
L 2003 2221 
Q 2163 2221 2278 2227 
Q 2394 2234 2586 2282 
Q 2778 2330 2899 2413 
Q 3021 2496 3113 2665 
Q 3206 2835 3206 3078 
Q 3206 3322 3113 3491 
Q 3021 3661 2899 3744 
Q 2778 3827 2589 3875 
Q 2400 3923 2288 3929 
Q 2176 3936 2016 3936 
L 1178 3936 
L 1171 3699 
L 1171 2221 
z
" transform="scale(0.015625)"/>
       <path id="CMUBright-SemiBold-6f" d="M 630 390 
Q 186 832 186 1504 
Q 186 2176 627 2637 
Q 1069 3098 1677 3098 
Q 2310 3098 2739 2618 
Q 3168 2138 3168 1498 
Q 3168 838 2726 393 
Q 2285 -51 1677 -51 
Q 1075 -51 630 390 
z
M 800 1594 
Q 800 998 1037 717 
Q 1267 448 1677 448 
Q 2061 448 2291 685 
Q 2554 954 2554 1606 
Q 2554 2150 2307 2384 
Q 2061 2618 1677 2618 
Q 800 2618 800 1594 
z
" transform="scale(0.015625)"/>
       <path id="CMUBright-SemiBold-73" d="M 186 250 
L 282 800 
Q 787 448 1318 448 
Q 1613 448 1737 569 
Q 1862 691 1862 838 
Q 1862 986 1753 1078 
Q 1645 1171 1517 1206 
Q 1389 1242 1190 1280 
Q 992 1318 902 1350 
Q 634 1440 429 1661 
Q 224 1882 224 2202 
Q 224 2349 269 2486 
Q 314 2624 422 2774 
Q 531 2925 764 3014 
Q 998 3104 1331 3104 
Q 1818 3104 2323 2886 
L 2227 2362 
Q 1747 2624 1261 2624 
Q 998 2624 889 2515 
Q 781 2406 781 2272 
Q 781 2170 857 2077 
Q 934 1984 1062 1939 
Q 1069 1939 1408 1865 
Q 1747 1792 1914 1702 
Q 2419 1421 2419 890 
Q 2419 525 2172 237 
Q 1926 -51 1325 -51 
Q 730 -51 186 250 
z
" transform="scale(0.015625)"/>
       <path id="CMUBright-SemiBold-69" d="M 414 3859 
L 414 4461 
L 1016 4461 
L 1016 3859 
L 414 3859 
z
M 416 0 
L 416 3021 
L 1018 3021 
L 1018 0 
L 416 0 
z
" transform="scale(0.015625)"/>
       <path id="CMUBright-SemiBold-74" d="M 122 2541 
L 122 3021 
L 646 3021 
L 646 3885 
L 1222 3885 
L 1222 3021 
L 2118 3021 
L 2118 2541 
L 1222 2541 
L 1222 1075 
Q 1222 448 1555 448 
Q 1805 448 2106 672 
L 2234 211 
Q 1754 -51 1197 -51 
Q 634 -51 634 1005 
L 634 2541 
L 122 2541 
z
" transform="scale(0.015625)"/>
       <path id="CMUBright-SemiBold-6e" d="M 410 0 
L 410 3021 
L 998 3021 
L 998 2714 
L 1005 2496 
Q 1344 3072 1971 3072 
Q 2227 3072 2409 2995 
Q 2592 2918 2681 2816 
Q 2771 2714 2822 2547 
Q 2874 2381 2880 2275 
Q 2886 2170 2886 2016 
L 2886 0 
L 2272 0 
L 2272 2022 
Q 2272 2131 2259 2204 
Q 2246 2278 2192 2380 
Q 2138 2483 2000 2537 
Q 1862 2592 1651 2592 
Q 1453 2592 1315 2493 
Q 1178 2394 1120 2237 
Q 1062 2080 1043 1961 
Q 1024 1843 1024 1728 
L 1024 0 
L 410 0 
z
" transform="scale(0.015625)"/>
       <path id="CMUBright-SemiBold-20" transform="scale(0.015625)"/>
       <path id="CMUBright-SemiBold-28" d="M 1747 -1421 
Q 499 -358 499 1690 
Q 499 3738 1747 4800 
L 2234 4800 
Q 2086 4653 1990 4544 
Q 1894 4435 1708 4147 
Q 1523 3859 1411 3552 
Q 1299 3245 1206 2752 
Q 1114 2259 1114 1689 
Q 1114 1120 1206 627 
Q 1299 134 1411 -173 
Q 1523 -480 1708 -768 
Q 1894 -1056 1990 -1165 
Q 2086 -1274 2234 -1421 
L 1747 -1421 
z
" transform="scale(0.015625)"/>
       <path id="CMUBright-SemiBold-6d" d="M 410 0 
L 410 3021 
L 998 3021 
L 998 2714 
L 1005 2496 
Q 1344 3072 1971 3072 
Q 2080 3072 2176 3059 
Q 2272 3046 2345 3024 
Q 2419 3002 2483 2966 
Q 2547 2931 2592 2899 
Q 2637 2867 2675 2819 
Q 2714 2771 2736 2739 
Q 2758 2707 2784 2656 
Q 2810 2605 2816 2582 
Q 2822 2560 2838 2518 
Q 2854 2477 2854 2470 
Q 3187 3072 3840 3072 
Q 4090 3072 4272 2995 
Q 4454 2918 4544 2819 
Q 4634 2720 4685 2557 
Q 4736 2394 4745 2285 
Q 4755 2176 4755 2016 
L 4755 0 
L 4141 0 
L 4141 1984 
Q 4128 2278 4045 2394 
Q 3898 2592 3507 2592 
Q 3264 2592 3078 2390 
Q 2893 2189 2893 1728 
L 2893 0 
L 2272 0 
L 2272 1984 
Q 2266 2266 2195 2374 
Q 2054 2592 1645 2592 
Q 1402 2592 1213 2390 
Q 1024 2189 1024 1728 
L 1024 0 
L 410 0 
z
" transform="scale(0.015625)"/>
       <path id="CMUBright-SemiBold-29" d="M 371 -1421 
Q 525 -1267 614 -1164 
Q 704 -1062 893 -768 
Q 1082 -474 1194 -173 
Q 1306 128 1398 624 
Q 1491 1120 1491 1690 
Q 1491 2246 1404 2732 
Q 1318 3219 1206 3523 
Q 1094 3827 921 4105 
Q 749 4384 646 4502 
Q 544 4621 416 4755 
Q 384 4787 371 4800 
L 851 4800 
Q 2106 3731 2106 1689 
Q 2106 -352 851 -1421 
L 371 -1421 
z
" transform="scale(0.015625)"/>
      </defs>
      <use xlink:href="#CMUBright-SemiBold-50"/>
      <use xlink:href="#CMUBright-SemiBold-6f" x="65.799988"/>
      <use xlink:href="#CMUBright-SemiBold-73" x="118.299973"/>
      <use xlink:href="#CMUBright-SemiBold-69" x="158.499969"/>
      <use xlink:href="#CMUBright-SemiBold-74" x="180.999954"/>
      <use xlink:href="#CMUBright-SemiBold-69" x="218.899948"/>
      <use xlink:href="#CMUBright-SemiBold-6f" x="241.399933"/>
      <use xlink:href="#CMUBright-SemiBold-6e" x="293.899918"/>
      <use xlink:href="#CMUBright-SemiBold-20" x="345.599915"/>
      <use xlink:href="#CMUBright-SemiBold-28" x="378.899902"/>
      <use xlink:href="#CMUBright-SemiBold-6d" x="419.69989"/>
      <use xlink:href="#CMUBright-SemiBold-29" x="500.499878"/>
     </g>
    </g>
   </g>
   <g id="line2d_4">
    <path d="M 184.674569 145.003845 
L 202.623445 93.361049 
L 220.572322 44.154946 
L 238.521198 11.137636 
L 256.470075 3.00024 
L 274.418951 21.114623 
L 292.367828 59.417314 
L 310.316704 106.389303 
L 328.26558 148.497524 
L 346.214457 174.076026 
L 364.163333 176.53883 
L 382.11221 156.045325 
L 400.061086 119.206748 
L 418.009962 76.988563 
L 435.958839 41.465286 
L 453.907715 22.382985 
L 471.856592 24.503493 
L 489.805468 46.448634 
L 507.754344 81.314271 
L 525.703221 118.81619 
L 543.652097 148.307718 
L 561.600974 161.788049 
L 579.54985 156.055367 
L 597.498727 133.430615 
L 615.447603 100.900997 
L 633.396479 67.982418 
L 651.345356 43.949382 
L 669.294232 35.234932 
L 687.243109 43.725749 
L 705.191985 66.399031 
" style="fill: none; stroke: #e29400; stroke-width: 6; stroke-linecap: square"/>
   </g>
   <g id="patch_3">
    <path d="M 172.674569 176.53883 
L 172.674569 3.00024 
" style="fill: none; stroke: #5a5758; stroke-width: 0.8; stroke-linejoin: miter; stroke-linecap: square"/>
   </g>
   <g id="patch_4">
    <path d="M 184.674569 188.53883 
L 705.191985 188.53883 
" style="fill: none; stroke: #5a5758; stroke-width: 0.8; stroke-linejoin: miter; stroke-linecap: square"/>
   </g>
   <g id="PathCollection_1">
    <defs>
     <path id="m48ee1611bb" d="M 0 5 
C 1.326016 5 2.597899 4.473168 3.535534 3.535534 
C 4.473168 2.597899 5 1.326016 5 0 
C 5 -1.326016 4.473168 -2.597899 3.535534 -3.535534 
C 2.597899 -4.473168 1.326016 -5 0 -5 
C -1.326016 -5 -2.597899 -4.473168 -3.535534 -3.535534 
C -4.473168 -2.597899 -5 -1.326016 -5 0 
C -5 1.326016 -4.473168 2.597899 -3.535534 3.535534 
C -2.597899 4.473168 -1.326016 5 0 5 
z
" style="stroke: #ffffff; stroke-width: 1.5"/>
    </defs>
    <g>
     <use xlink:href="#m48ee1611bb" x="184.674569" y="145.003845" style="fill: #e29400; stroke: #ffffff; stroke-width: 1.5"/>
     <use xlink:href="#m48ee1611bb" x="202.623445" y="93.361049" style="fill: #e29400; stroke: #ffffff; stroke-width: 1.5"/>
     <use xlink:href="#m48ee1611bb" x="220.572322" y="44.154946" style="fill: #e29400; stroke: #ffffff; stroke-width: 1.5"/>
     <use xlink:href="#m48ee1611bb" x="238.521198" y="11.137636" style="fill: #e29400; stroke: #ffffff; stroke-width: 1.5"/>
     <use xlink:href="#m48ee1611bb" x="256.470075" y="3.00024" style="fill: #e29400; stroke: #ffffff; stroke-width: 1.5"/>
     <use xlink:href="#m48ee1611bb" x="274.418951" y="21.114623" style="fill: #e29400; stroke: #ffffff; stroke-width: 1.5"/>
     <use xlink:href="#m48ee1611bb" x="292.367828" y="59.417314" style="fill: #e29400; stroke: #ffffff; stroke-width: 1.5"/>
     <use xlink:href="#m48ee1611bb" x="310.316704" y="106.389303" style="fill: #e29400; stroke: #ffffff; stroke-width: 1.5"/>
     <use xlink:href="#m48ee1611bb" x="328.26558" y="148.497524" style="fill: #e29400; stroke: #ffffff; stroke-width: 1.5"/>
     <use xlink:href="#m48ee1611bb" x="346.214457" y="174.076026" style="fill: #e29400; stroke: #ffffff; stroke-width: 1.5"/>
     <use xlink:href="#m48ee1611bb" x="364.163333" y="176.53883" style="fill: #e29400; stroke: #ffffff; stroke-width: 1.5"/>
     <use xlink:href="#m48ee1611bb" x="382.11221" y="156.045325" style="fill: #e29400; stroke: #ffffff; stroke-width: 1.5"/>
     <use xlink:href="#m48ee1611bb" x="400.061086" y="119.206748" style="fill: #e29400; stroke: #ffffff; stroke-width: 1.5"/>
     <use xlink:href="#m48ee1611bb" x="418.009962" y="76.988563" style="fill: #e29400; stroke: #ffffff; stroke-width: 1.5"/>
     <use xlink:href="#m48ee1611bb" x="435.958839" y="41.465286" style="fill: #e29400; stroke: #ffffff; stroke-width: 1.5"/>
     <use xlink:href="#m48ee1611bb" x="453.907715" y="22.382985" style="fill: #e29400; stroke: #ffffff; stroke-width: 1.5"/>
     <use xlink:href="#m48ee1611bb" x="471.856592" y="24.503493" style="fill: #e29400; stroke: #ffffff; stroke-width: 1.5"/>
     <use xlink:href="#m48ee1611bb" x="489.805468" y="46.448634" style="fill: #e29400; stroke: #ffffff; stroke-width: 1.5"/>
     <use xlink:href="#m48ee1611bb" x="507.754344" y="81.314271" style="fill: #e29400; stroke: #ffffff; stroke-width: 1.5"/>
     <use xlink:href="#m48ee1611bb" x="525.703221" y="118.81619" style="fill: #e29400; stroke: #ffffff; stroke-width: 1.5"/>
     <use xlink:href="#m48ee1611bb" x="543.652097" y="148.307718" style="fill: #e29400; stroke: #ffffff; stroke-width: 1.5"/>
     <use xlink:href="#m48ee1611bb" x="561.600974" y="161.788049" style="fill: #e29400; stroke: #ffffff; stroke-width: 1.5"/>
     <use xlink:href="#m48ee1611bb" x="579.54985" y="156.055367" style="fill: #e29400; stroke: #ffffff; stroke-width: 1.5"/>
     <use xlink:href="#m48ee1611bb" x="597.498727" y="133.430615" style="fill: #e29400; stroke: #ffffff; stroke-width: 1.5"/>
     <use xlink:href="#m48ee1611bb" x="615.447603" y="100.900997" style="fill: #e29400; stroke: #ffffff; stroke-width: 1.5"/>
     <use xlink:href="#m48ee1611bb" x="633.396479" y="67.982418" style="fill: #e29400; stroke: #ffffff; stroke-width: 1.5"/>
     <use xlink:href="#m48ee1611bb" x="651.345356" y="43.949382" style="fill: #e29400; stroke: #ffffff; stroke-width: 1.5"/>
     <use xlink:href="#m48ee1611bb" x="669.294232" y="35.234932" style="fill: #e29400; stroke: #ffffff; stroke-width: 1.5"/>
     <use xlink:href="#m48ee1611bb" x="687.243109" y="43.725749" style="fill: #e29400; stroke: #ffffff; stroke-width: 1.5"/>
     <use xlink:href="#m48ee1611bb" x="705.191985" y="66.399031" style="fill: #e29400; stroke: #ffffff; stroke-width: 1.5"/>
    </g>
   </g>
  </g>
  <g id="axes_2">
   <g id="patch_5">
    <path d="M 184.674569 371.577901 
L 705.191985 371.577901 
L 705.191985 198.03931 
L 184.674569 198.03931 
z
" style="fill: #ffffff"/>
   </g>
   <g id="matplotlib.axis_3">
    <g id="xtick_1">
     <g id="line2d_5">
      <defs>
       <path id="mc6e45f47e2" d="M 0 0 
L 0 3.5 
" style="stroke: #5a5758; stroke-width: 0.8"/>
      </defs>
      <g>
       <use xlink:href="#mc6e45f47e2" x="184.674569" y="383.577901" style="fill: #5a5758; stroke: #5a5758; stroke-width: 0.8"/>
      </g>
     </g>
     <g id="text_5">
      <!-- 0 -->
      <g style="fill: #5a5758" transform="translate(180.738644 400.998731) scale(0.14994 -0.14994)">
       <use xlink:href="#CMUBright-Roman-30"/>
      </g>
     </g>
    </g>
    <g id="xtick_2">
     <g id="line2d_6">
      <g>
       <use xlink:href="#mc6e45f47e2" x="288.778052" y="383.577901" style="fill: #5a5758; stroke: #5a5758; stroke-width: 0.8"/>
      </g>
     </g>
     <g id="text_6">
      <!-- 50 -->
      <g style="fill: #5a5758" transform="translate(280.906202 400.998731) scale(0.14994 -0.14994)">
       <use xlink:href="#CMUBright-Roman-35"/>
       <use xlink:href="#CMUBright-Roman-30" x="52.499985"/>
      </g>
     </g>
    </g>
    <g id="xtick_3">
     <g id="line2d_7">
      <g>
       <use xlink:href="#mc6e45f47e2" x="392.881535" y="383.577901" style="fill: #5a5758; stroke: #5a5758; stroke-width: 0.8"/>
      </g>
     </g>
     <g id="text_7">
      <!-- 100 -->
      <g style="fill: #5a5758" transform="translate(381.07376 400.998731) scale(0.14994 -0.14994)">
       <use xlink:href="#CMUBright-Roman-31"/>
       <use xlink:href="#CMUBright-Roman-30" x="52.499985"/>
       <use xlink:href="#CMUBright-Roman-30" x="104.999969"/>
      </g>
     </g>
    </g>
    <g id="xtick_4">
     <g id="line2d_8">
      <g>
       <use xlink:href="#mc6e45f47e2" x="496.985019" y="383.577901" style="fill: #5a5758; stroke: #5a5758; stroke-width: 0.8"/>
      </g>
     </g>
     <g id="text_8">
      <!-- 150 -->
      <g style="fill: #5a5758" transform="translate(485.177244 400.998731) scale(0.14994 -0.14994)">
       <use xlink:href="#CMUBright-Roman-31"/>
       <use xlink:href="#CMUBright-Roman-35" x="52.499985"/>
       <use xlink:href="#CMUBright-Roman-30" x="104.999969"/>
      </g>
     </g>
    </g>
    <g id="xtick_5">
     <g id="line2d_9">
      <g>
       <use xlink:href="#mc6e45f47e2" x="601.088502" y="383.577901" style="fill: #5a5758; stroke: #5a5758; stroke-width: 0.8"/>
      </g>
     </g>
     <g id="text_9">
      <!-- 200 -->
      <g style="fill: #5a5758" transform="translate(589.280727 400.998731) scale(0.14994 -0.14994)">
       <defs>
        <path id="CMUBright-Roman-32" d="M 275 3226 
Q 595 4301 1587 4301 
L 1594 4301 
Q 2214 4294 2617 3923 
Q 3021 3552 3021 2989 
Q 3021 2746 2937 2531 
Q 2854 2317 2668 2115 
Q 2483 1914 2384 1821 
Q 2285 1728 2061 1549 
Q 1754 1299 1642 1203 
Q 1530 1107 698 358 
L 3021 358 
L 3021 0 
L 333 0 
L 333 339 
L 1683 1562 
Q 2144 1965 2368 2278 
Q 2592 2592 2592 2982 
Q 2592 3418 2278 3690 
Q 1965 3962 1498 3962 
Q 1069 3962 854 3693 
Q 640 3424 512 2938 
L 275 3226 
z
" transform="scale(0.015625)"/>
       </defs>
       <use xlink:href="#CMUBright-Roman-32"/>
       <use xlink:href="#CMUBright-Roman-30" x="52.499985"/>
       <use xlink:href="#CMUBright-Roman-30" x="104.999969"/>
      </g>
     </g>
    </g>
    <g id="xtick_6">
     <g id="line2d_10">
      <g>
       <use xlink:href="#mc6e45f47e2" x="705.191985" y="383.577901" style="fill: #5a5758; stroke: #5a5758; stroke-width: 0.8"/>
      </g>
     </g>
     <g id="text_10">
      <!-- 250 -->
      <g style="fill: #5a5758" transform="translate(693.38421 400.998731) scale(0.14994 -0.14994)">
       <use xlink:href="#CMUBright-Roman-32"/>
       <use xlink:href="#CMUBright-Roman-35" x="52.499985"/>
       <use xlink:href="#CMUBright-Roman-30" x="104.999969"/>
      </g>
     </g>
    </g>
    <g id="text_11">
     <!-- Time (s) -->
     <g style="fill: #5a5758" transform="translate(410.914683 425.003197) scale(0.18 -0.18)">
      <defs>
       <path id="CMUBright-SemiBold-54" d="M 237 3910 
L 237 4416 
L 4390 4416 
L 4390 3910 
L 2650 3910 
L 2650 0 
L 1978 0 
L 1978 3910 
L 237 3910 
z
" transform="scale(0.015625)"/>
       <path id="CMUBright-SemiBold-65" d="M 186 1530 
Q 186 2189 605 2646 
Q 1024 3104 1606 3104 
Q 1766 3104 1920 3069 
Q 2074 3034 2243 2931 
Q 2413 2829 2534 2669 
Q 2656 2509 2739 2233 
Q 2822 1958 2822 1600 
L 762 1600 
L 762 1536 
Q 762 1062 1040 745 
Q 1318 429 1709 429 
Q 2240 429 2739 794 
L 2784 275 
Q 2278 -51 1709 -51 
Q 1043 -51 614 419 
Q 186 890 186 1530 
z
M 838 1978 
L 2298 1978 
Q 2144 2618 1600 2618 
Q 1363 2618 1148 2448 
Q 934 2278 838 1978 
z
" transform="scale(0.015625)"/>
      </defs>
      <use xlink:href="#CMUBright-SemiBold-54"/>
      <use xlink:href="#CMUBright-SemiBold-69" x="72.499985"/>
      <use xlink:href="#CMUBright-SemiBold-6d" x="94.999969"/>
      <use xlink:href="#CMUBright-SemiBold-65" x="175.799957"/>
      <use xlink:href="#CMUBright-SemiBold-20" x="222.899948"/>
      <use xlink:href="#CMUBright-SemiBold-28" x="256.199936"/>
      <use xlink:href="#CMUBright-SemiBold-73" x="296.999924"/>
      <use xlink:href="#CMUBright-SemiBold-29" x="337.199921"/>
     </g>
    </g>
   </g>
   <g id="matplotlib.axis_4">
    <g id="ytick_4">
     <g id="line2d_11">
      <g>
       <use xlink:href="#m05afcf6163" x="172.674569" y="364.649688" style="fill: #5a5758; stroke: #5a5758; stroke-width: 0.8"/>
      </g>
     </g>
     <g id="text_12">
      <!-- -0.050 -->
      <g style="fill: #5a5758" transform="translate(124.560553 369.860103) scale(0.14994 -0.14994)">
       <defs>
        <path id="CMUBright-Roman-2d" d="M 70 1350 
L 70 1670 
L 1862 1670 
L 1862 1350 
L 70 1350 
z
" transform="scale(0.015625)"/>
       </defs>
       <use xlink:href="#CMUBright-Roman-2d"/>
       <use xlink:href="#CMUBright-Roman-30" x="34.999985"/>
       <use xlink:href="#CMUBright-Roman-2e" x="87.499969"/>
       <use xlink:href="#CMUBright-Roman-30" x="116.699966"/>
       <use xlink:href="#CMUBright-Roman-35" x="169.199951"/>
       <use xlink:href="#CMUBright-Roman-30" x="221.699936"/>
      </g>
     </g>
    </g>
    <g id="ytick_5">
     <g id="line2d_12">
      <g>
       <use xlink:href="#m05afcf6163" x="172.674569" y="327.343705" style="fill: #5a5758; stroke: #5a5758; stroke-width: 0.8"/>
      </g>
     </g>
     <g id="text_13">
      <!-- -0.025 -->
      <g style="fill: #5a5758" transform="translate(124.560553 332.55412) scale(0.14994 -0.14994)">
       <use xlink:href="#CMUBright-Roman-2d"/>
       <use xlink:href="#CMUBright-Roman-30" x="34.999985"/>
       <use xlink:href="#CMUBright-Roman-2e" x="87.499969"/>
       <use xlink:href="#CMUBright-Roman-30" x="116.699966"/>
       <use xlink:href="#CMUBright-Roman-32" x="169.199951"/>
       <use xlink:href="#CMUBright-Roman-35" x="221.699936"/>
      </g>
     </g>
    </g>
    <g id="ytick_6">
     <g id="line2d_13">
      <g>
       <use xlink:href="#m05afcf6163" x="172.674569" y="290.037721" style="fill: #5a5758; stroke: #5a5758; stroke-width: 0.8"/>
      </g>
     </g>
     <g id="text_14">
      <!-- 0.000 -->
      <g style="fill: #5a5758" transform="translate(129.808453 295.248136) scale(0.14994 -0.14994)">
       <use xlink:href="#CMUBright-Roman-30"/>
       <use xlink:href="#CMUBright-Roman-2e" x="52.499985"/>
       <use xlink:href="#CMUBright-Roman-30" x="81.699982"/>
       <use xlink:href="#CMUBright-Roman-30" x="134.199966"/>
       <use xlink:href="#CMUBright-Roman-30" x="186.699951"/>
      </g>
     </g>
    </g>
    <g id="ytick_7">
     <g id="line2d_14">
      <g>
       <use xlink:href="#m05afcf6163" x="172.674569" y="252.731738" style="fill: #5a5758; stroke: #5a5758; stroke-width: 0.8"/>
      </g>
     </g>
     <g id="text_15">
      <!-- 0.025 -->
      <g style="fill: #5a5758" transform="translate(129.808453 257.942153) scale(0.14994 -0.14994)">
       <use xlink:href="#CMUBright-Roman-30"/>
       <use xlink:href="#CMUBright-Roman-2e" x="52.499985"/>
       <use xlink:href="#CMUBright-Roman-30" x="81.699982"/>
       <use xlink:href="#CMUBright-Roman-32" x="134.199966"/>
       <use xlink:href="#CMUBright-Roman-35" x="186.699951"/>
      </g>
     </g>
    </g>
    <g id="ytick_8">
     <g id="line2d_15">
      <g>
       <use xlink:href="#m05afcf6163" x="172.674569" y="215.425754" style="fill: #5a5758; stroke: #5a5758; stroke-width: 0.8"/>
      </g>
     </g>
     <g id="text_16">
      <!-- 0.050 -->
      <g style="fill: #5a5758" transform="translate(129.808453 220.636169) scale(0.14994 -0.14994)">
       <use xlink:href="#CMUBright-Roman-30"/>
       <use xlink:href="#CMUBright-Roman-2e" x="52.499985"/>
       <use xlink:href="#CMUBright-Roman-30" x="81.699982"/>
       <use xlink:href="#CMUBright-Roman-35" x="134.199966"/>
       <use xlink:href="#CMUBright-Roman-30" x="186.699951"/>
      </g>
     </g>
    </g>
    <g id="text_17">
     <!-- Velocity (m/s) -->
     <g style="fill: #5a5758" transform="translate(3.00024 280.812043) scale(0.18 -0.18)">
      <defs>
       <path id="CMUBright-SemiBold-56" d="M 90 4448 
L 794 4448 
L 1613 2259 
Q 2125 870 2195 614 
L 2259 851 
L 2662 1978 
L 3590 4448 
L 4218 4448 
L 2522 -32 
L 1786 -32 
L 90 4448 
z
" transform="scale(0.015625)"/>
       <path id="CMUBright-SemiBold-6c" d="M 416 0 
L 416 4448 
L 1018 4448 
L 1018 0 
L 416 0 
z
" transform="scale(0.015625)"/>
       <path id="CMUBright-SemiBold-63" d="M 224 1517 
Q 224 2163 643 2633 
Q 1062 3104 1715 3104 
Q 2048 3104 2249 3046 
Q 2451 2989 2758 2829 
L 2669 2304 
Q 2400 2477 2217 2541 
Q 2035 2605 1715 2605 
Q 1562 2605 1427 2560 
Q 1293 2515 1149 2406 
Q 1005 2298 921 2067 
Q 838 1837 838 1510 
Q 838 941 1100 694 
Q 1363 448 1696 448 
Q 2234 448 2752 800 
L 2797 269 
Q 2266 -51 1702 -51 
Q 1062 -51 643 416 
Q 224 883 224 1517 
z
" transform="scale(0.015625)"/>
       <path id="CMUBright-SemiBold-79" d="M 90 3021 
L 704 3021 
Q 1344 1344 1440 979 
Q 1485 787 1510 614 
Q 1536 979 2138 2733 
Q 2208 2925 2240 3021 
L 2835 3021 
L 1722 -128 
Q 1562 -576 1331 -848 
Q 1101 -1120 685 -1120 
Q 538 -1120 205 -1075 
L 154 -544 
Q 480 -640 691 -640 
Q 749 -640 797 -630 
Q 845 -621 883 -608 
Q 922 -595 960 -563 
Q 998 -531 1020 -512 
Q 1043 -493 1075 -441 
Q 1107 -390 1120 -368 
Q 1133 -346 1158 -282 
Q 1184 -218 1193 -195 
Q 1203 -173 1228 -96 
Q 1254 -19 1261 0 
L 90 3021 
z
" transform="scale(0.015625)"/>
       <path id="CMUBright-SemiBold-2f" d="M 371 -1184 
Q 371 -1146 422 -992 
L 2464 4506 
Q 2464 4512 2477 4544 
Q 2490 4576 2496 4585 
Q 2502 4595 2512 4627 
Q 2522 4659 2531 4668 
Q 2541 4678 2553 4700 
Q 2566 4723 2579 4732 
Q 2592 4742 2611 4758 
Q 2630 4774 2646 4780 
Q 2662 4787 2688 4793 
Q 2714 4800 2739 4800 
Q 2835 4800 2908 4729 
Q 2982 4659 2982 4563 
Q 2982 4518 2938 4397 
L 896 -1114 
L 877 -1165 
Q 858 -1216 851 -1229 
Q 845 -1242 825 -1283 
Q 806 -1325 790 -1341 
Q 774 -1357 748 -1379 
Q 723 -1402 688 -1411 
Q 653 -1421 614 -1421 
Q 518 -1421 444 -1353 
Q 371 -1286 371 -1184 
z
" transform="scale(0.015625)"/>
      </defs>
      <use xlink:href="#CMUBright-SemiBold-56"/>
      <use xlink:href="#CMUBright-SemiBold-65" x="67.499985"/>
      <use xlink:href="#CMUBright-SemiBold-6c" x="114.599976"/>
      <use xlink:href="#CMUBright-SemiBold-6f" x="137.09996"/>
      <use xlink:href="#CMUBright-SemiBold-63" x="189.599945"/>
      <use xlink:href="#CMUBright-SemiBold-69" x="236.299942"/>
      <use xlink:href="#CMUBright-SemiBold-74" x="258.799927"/>
      <use xlink:href="#CMUBright-SemiBold-79" x="296.699921"/>
      <use xlink:href="#CMUBright-SemiBold-20" x="342.499908"/>
      <use xlink:href="#CMUBright-SemiBold-28" x="375.799896"/>
      <use xlink:href="#CMUBright-SemiBold-6d" x="416.599884"/>
      <use xlink:href="#CMUBright-SemiBold-2f" x="497.399872"/>
      <use xlink:href="#CMUBright-SemiBold-73" x="549.899857"/>
      <use xlink:href="#CMUBright-SemiBold-29" x="590.099854"/>
     </g>
    </g>
   </g>
   <g id="line2d_16">
    <path d="M 184.674569 208.778159 
L 202.623445 198.03931 
L 220.572322 213.57599 
L 238.521198 250.048971 
L 256.470075 296.426376 
L 274.418951 339.296864 
L 292.367828 366.730031 
L 310.316704 371.577901 
L 328.26558 353.309375 
L 346.214457 317.915697 
L 364.163333 275.984629 
L 382.11221 239.552605 
L 400.061086 218.665412 
L 418.009962 218.625649 
L 435.958839 238.675936 
L 453.907715 272.435381 
L 471.856592 309.901875 
L 489.805468 340.399235 
L 507.754344 355.605322 
L 525.703221 351.806314 
L 543.652097 330.771538 
L 561.600974 299.053599 
L 579.54985 265.968766 
L 597.498727 240.874364 
L 615.447603 230.535002 
L 633.396479 237.315234 
L 651.345356 258.676613 
L 669.294232 288.072522 
L 687.243109 316.937538 
L 705.191985 337.171355 
" style="fill: none; stroke: #e29400; stroke-width: 6; stroke-linecap: square"/>
   </g>
   <g id="patch_6">
    <path d="M 172.674569 371.577901 
L 172.674569 198.03931 
" style="fill: none; stroke: #5a5758; stroke-width: 0.8; stroke-linejoin: miter; stroke-linecap: square"/>
   </g>
   <g id="patch_7">
    <path d="M 184.674569 383.577901 
L 705.191985 383.577901 
" style="fill: none; stroke: #5a5758; stroke-width: 0.8; stroke-linejoin: miter; stroke-linecap: square"/>
   </g>
   <g id="PathCollection_2">
    <g>
     <use xlink:href="#m48ee1611bb" x="184.674569" y="208.778159" style="fill: #e29400; stroke: #ffffff; stroke-width: 1.5"/>
     <use xlink:href="#m48ee1611bb" x="202.623445" y="198.03931" style="fill: #e29400; stroke: #ffffff; stroke-width: 1.5"/>
     <use xlink:href="#m48ee1611bb" x="220.572322" y="213.57599" style="fill: #e29400; stroke: #ffffff; stroke-width: 1.5"/>
     <use xlink:href="#m48ee1611bb" x="238.521198" y="250.048971" style="fill: #e29400; stroke: #ffffff; stroke-width: 1.5"/>
     <use xlink:href="#m48ee1611bb" x="256.470075" y="296.426376" style="fill: #e29400; stroke: #ffffff; stroke-width: 1.5"/>
     <use xlink:href="#m48ee1611bb" x="274.418951" y="339.296864" style="fill: #e29400; stroke: #ffffff; stroke-width: 1.5"/>
     <use xlink:href="#m48ee1611bb" x="292.367828" y="366.730031" style="fill: #e29400; stroke: #ffffff; stroke-width: 1.5"/>
     <use xlink:href="#m48ee1611bb" x="310.316704" y="371.577901" style="fill: #e29400; stroke: #ffffff; stroke-width: 1.5"/>
     <use xlink:href="#m48ee1611bb" x="328.26558" y="353.309375" style="fill: #e29400; stroke: #ffffff; stroke-width: 1.5"/>
     <use xlink:href="#m48ee1611bb" x="346.214457" y="317.915697" style="fill: #e29400; stroke: #ffffff; stroke-width: 1.5"/>
     <use xlink:href="#m48ee1611bb" x="364.163333" y="275.984629" style="fill: #e29400; stroke: #ffffff; stroke-width: 1.5"/>
     <use xlink:href="#m48ee1611bb" x="382.11221" y="239.552605" style="fill: #e29400; stroke: #ffffff; stroke-width: 1.5"/>
     <use xlink:href="#m48ee1611bb" x="400.061086" y="218.665412" style="fill: #e29400; stroke: #ffffff; stroke-width: 1.5"/>
     <use xlink:href="#m48ee1611bb" x="418.009962" y="218.625649" style="fill: #e29400; stroke: #ffffff; stroke-width: 1.5"/>
     <use xlink:href="#m48ee1611bb" x="435.958839" y="238.675936" style="fill: #e29400; stroke: #ffffff; stroke-width: 1.5"/>
     <use xlink:href="#m48ee1611bb" x="453.907715" y="272.435381" style="fill: #e29400; stroke: #ffffff; stroke-width: 1.5"/>
     <use xlink:href="#m48ee1611bb" x="471.856592" y="309.901875" style="fill: #e29400; stroke: #ffffff; stroke-width: 1.5"/>
     <use xlink:href="#m48ee1611bb" x="489.805468" y="340.399235" style="fill: #e29400; stroke: #ffffff; stroke-width: 1.5"/>
     <use xlink:href="#m48ee1611bb" x="507.754344" y="355.605322" style="fill: #e29400; stroke: #ffffff; stroke-width: 1.5"/>
     <use xlink:href="#m48ee1611bb" x="525.703221" y="351.806314" style="fill: #e29400; stroke: #ffffff; stroke-width: 1.5"/>
     <use xlink:href="#m48ee1611bb" x="543.652097" y="330.771538" style="fill: #e29400; stroke: #ffffff; stroke-width: 1.5"/>
     <use xlink:href="#m48ee1611bb" x="561.600974" y="299.053599" style="fill: #e29400; stroke: #ffffff; stroke-width: 1.5"/>
     <use xlink:href="#m48ee1611bb" x="579.54985" y="265.968766" style="fill: #e29400; stroke: #ffffff; stroke-width: 1.5"/>
     <use xlink:href="#m48ee1611bb" x="597.498727" y="240.874364" style="fill: #e29400; stroke: #ffffff; stroke-width: 1.5"/>
     <use xlink:href="#m48ee1611bb" x="615.447603" y="230.535002" style="fill: #e29400; stroke: #ffffff; stroke-width: 1.5"/>
     <use xlink:href="#m48ee1611bb" x="633.396479" y="237.315234" style="fill: #e29400; stroke: #ffffff; stroke-width: 1.5"/>
     <use xlink:href="#m48ee1611bb" x="651.345356" y="258.676613" style="fill: #e29400; stroke: #ffffff; stroke-width: 1.5"/>
     <use xlink:href="#m48ee1611bb" x="669.294232" y="288.072522" style="fill: #e29400; stroke: #ffffff; stroke-width: 1.5"/>
     <use xlink:href="#m48ee1611bb" x="687.243109" y="316.937538" style="fill: #e29400; stroke: #ffffff; stroke-width: 1.5"/>
     <use xlink:href="#m48ee1611bb" x="705.191985" y="337.171355" style="fill: #e29400; stroke: #ffffff; stroke-width: 1.5"/>
    </g>
   </g>
  </g>
 </g>
</svg>
