<?xml version="1.0" encoding="utf-8" standalone="no"?>
<!DOCTYPE svg PUBLIC "-//W3C//DTD SVG 1.1//EN"
  "http://www.w3.org/Graphics/SVG/1.1/DTD/svg11.dtd">
<svg xmlns:xlink="http://www.w3.org/1999/xlink" width="720pt" height="432pt" viewBox="0 0 720 432" xmlns="http://www.w3.org/2000/svg" version="1.1">
 <metadata>
  <rdf:RDF xmlns:dc="http://purl.org/dc/elements/1.1/" xmlns:cc="http://creativecommons.org/ns#" xmlns:rdf="http://www.w3.org/1999/02/22-rdf-syntax-ns#">
   <cc:Work>
    <dc:type rdf:resource="http://purl.org/dc/dcmitype/StillImage"/>
    <dc:date>2023-01-23T20:43:04.718394</dc:date>
    <dc:format>image/svg+xml</dc:format>
    <dc:creator>
     <cc:Agent>
      <dc:title>Matplotlib v3.6.2, https://matplotlib.org/</dc:title>
     </cc:Agent>
    </dc:creator>
   </cc:Work>
  </rdf:RDF>
 </metadata>
 <defs>
  <style type="text/css">*{stroke-linejoin: round; stroke-linecap: butt}</style>
 </defs>
 <g id="figure_1">
  <g id="patch_1">
   <path d="M 0 432 
L 720 432 
L 720 0 
L 0 0 
z
" style="fill: #ffffff"/>
  </g>
  <g id="axes_1">
   <g id="patch_2">
    <path d="M 184.674569 176.53883 
L 705.191985 176.53883 
L 705.191985 3.00024 
L 184.674569 3.00024 
z
" style="fill: #ffffff"/>
   </g>
   <g id="matplotlib.axis_1"/>
   <g id="matplotlib.axis_2">
    <g id="ytick_1">
     <g id="line2d_1">
      <defs>
       <path id="mc43373d34d" d="M 0 0 
L -3.5 0 
" style="stroke: #5a5758; stroke-width: 0.8"/>
      </defs>
      <g>
       <use xlink:href="#mc43373d34d" x="172.674569" y="145.116165" style="fill: #5a5758; stroke: #5a5758; stroke-width: 0.8"/>
      </g>
     </g>
     <g id="text_1">
      <!-- 0.5 -->
      <g style="fill: #5a5758" transform="translate(145.552153 150.32658) scale(0.14994 -0.14994)">
       <defs>
        <path id="CMUBright-Roman-30" d="M 333 1984 
C 333 218 1139 -109 1677 -109 
C 2022 -109 2528 38 2803 685 
C 3008 1165 3021 1626 3021 2214 
C 3021 3974 2214 4301 1677 4301 
C 1555 4301 1414 4288 1261 4230 
C 358 3898 333 2694 333 2086 
L 333 1984 
z
M 742 2413 
C 742 2701 768 3302 1005 3642 
C 1139 3834 1389 3981 1677 3981 
C 1933 3981 2182 3866 2336 3661 
C 2592 3328 2611 2701 2611 2406 
C 2611 2342 2605 2298 2605 2272 
L 2605 2163 
C 2605 1613 2598 934 2330 557 
C 2195 371 1958 218 1677 218 
C 1427 218 1190 339 1037 538 
C 755 909 749 1594 749 2150 
L 749 2272 
C 749 2298 742 2349 742 2413 
z
" transform="scale(0.015625)"/>
        <path id="CMUBright-Roman-2e" d="M 678 0 
L 1178 0 
L 1178 499 
L 678 499 
L 678 0 
z
" transform="scale(0.015625)"/>
        <path id="CMUBright-Roman-35" d="M 301 518 
C 794 -83 1376 -109 1574 -109 
C 2387 -109 3021 531 3021 1306 
C 3021 2080 2451 2701 1779 2701 
C 1459 2701 1197 2586 973 2381 
L 973 3853 
L 2797 3853 
L 2797 4192 
L 582 4192 
L 582 1901 
L 941 1901 
C 1043 2080 1274 2374 1773 2374 
C 2093 2374 2566 2189 2566 1312 
C 2566 442 2003 224 1581 224 
C 1382 224 864 269 486 819 
L 301 518 
z
" transform="scale(0.015625)"/>
       </defs>
       <use xlink:href="#CMUBright-Roman-30"/>
       <use xlink:href="#CMUBright-Roman-2e" x="52.499985"/>
       <use xlink:href="#CMUBright-Roman-35" x="81.699982"/>
      </g>
     </g>
    </g>
    <g id="ytick_2">
     <g id="line2d_2">
      <g>
       <use xlink:href="#mc43373d34d" x="172.674569" y="95.255159" style="fill: #5a5758; stroke: #5a5758; stroke-width: 0.8"/>
      </g>
     </g>
     <g id="text_2">
      <!-- 1.0 -->
      <g style="fill: #5a5758" transform="translate(145.552153 100.465574) scale(0.14994 -0.14994)">
       <defs>
        <path id="CMUBright-Roman-31" d="M 672 3558 
C 1197 3558 1472 3706 1549 3744 
L 1549 320 
L 710 320 
L 710 0 
L 2803 0 
L 2803 320 
L 1965 320 
L 1965 4301 
L 1862 4301 
C 1696 4141 1389 3885 672 3885 
L 672 3558 
z
" transform="scale(0.015625)"/>
       </defs>
       <use xlink:href="#CMUBright-Roman-31"/>
       <use xlink:href="#CMUBright-Roman-2e" x="52.499985"/>
       <use xlink:href="#CMUBright-Roman-30" x="81.699982"/>
      </g>
     </g>
    </g>
    <g id="ytick_3">
     <g id="line2d_3">
      <g>
       <use xlink:href="#mc43373d34d" x="172.674569" y="45.394153" style="fill: #5a5758; stroke: #5a5758; stroke-width: 0.8"/>
      </g>
     </g>
     <g id="text_3">
      <!-- 1.5 -->
      <g style="fill: #5a5758" transform="translate(145.552153 50.604568) scale(0.14994 -0.14994)">
       <use xlink:href="#CMUBright-Roman-31"/>
       <use xlink:href="#CMUBright-Roman-2e" x="52.499985"/>
       <use xlink:href="#CMUBright-Roman-35" x="81.699982"/>
      </g>
     </g>
    </g>
    <g id="text_4">
     <!-- Position (m) -->
     <g style="fill: #5a5758" transform="translate(19.127115 85.772973) scale(0.18 -0.18)">
      <defs>
       <path id="CMUBright-SemiBold-50" d="M 518 0 
L 1190 0 
L 1190 1728 
L 2202 1728 
C 3277 1728 3834 2451 3834 3085 
C 3834 3526 3578 3936 3181 4186 
C 2835 4403 2502 4448 2138 4448 
L 518 4448 
L 518 0 
z
M 1171 2221 
L 1171 3699 
L 1178 3936 
L 2016 3936 
C 2381 3936 3206 3923 3206 3078 
C 3206 2234 2381 2221 2003 2221 
L 1171 2221 
z
" transform="scale(0.015625)"/>
       <path id="CMUBright-SemiBold-6f" d="M 186 1504 
C 186 582 902 -51 1677 -51 
C 2477 -51 3168 608 3168 1498 
C 3168 2330 2541 3098 1677 3098 
C 883 3098 186 2413 186 1504 
z
M 800 1594 
C 800 2509 1357 2618 1677 2618 
C 2131 2618 2554 2387 2554 1606 
C 2554 1274 2528 928 2291 685 
C 2125 512 1894 448 1677 448 
C 1434 448 1197 531 1037 717 
C 832 960 800 1280 800 1594 
z
" transform="scale(0.015625)"/>
       <path id="CMUBright-SemiBold-73" d="M 186 250 
C 531 58 890 -51 1325 -51 
C 2227 -51 2419 512 2419 890 
C 2419 1299 2157 1568 1914 1702 
C 1632 1856 1242 1882 1062 1939 
C 883 1997 781 2138 781 2272 
C 781 2413 870 2624 1261 2624 
C 1651 2624 1901 2541 2227 2362 
L 2323 2886 
C 1952 3046 1715 3104 1331 3104 
C 390 3104 224 2534 224 2202 
C 224 1734 595 1453 902 1350 
C 1248 1229 1862 1261 1862 838 
C 1862 685 1760 448 1318 448 
C 806 448 493 653 282 800 
L 186 250 
z
" transform="scale(0.015625)"/>
       <path id="CMUBright-SemiBold-69" d="M 416 3840 
L 1018 3840 
L 1018 4442 
L 416 4442 
L 416 3840 
z
M 416 0 
L 1018 0 
L 1018 3021 
L 416 3021 
L 416 0 
z
" transform="scale(0.015625)"/>
       <path id="CMUBright-SemiBold-74" d="M 122 2541 
L 634 2541 
L 634 1005 
C 634 589 685 -51 1197 -51 
C 1510 -51 1869 13 2234 211 
L 2106 672 
C 2003 595 1830 448 1555 448 
C 1357 448 1222 608 1222 1075 
L 1222 2541 
L 2118 2541 
L 2118 3021 
L 1222 3021 
L 1222 3885 
L 646 3885 
L 646 3021 
L 122 3021 
L 122 2541 
z
" transform="scale(0.015625)"/>
       <path id="CMUBright-SemiBold-6e" d="M 410 0 
L 1024 0 
L 1024 1728 
C 1024 1946 1075 2592 1651 2592 
C 2259 2592 2272 2227 2272 2022 
L 2272 0 
L 2886 0 
L 2886 2016 
C 2886 2394 2867 3072 1971 3072 
C 1389 3072 1107 2669 1005 2496 
L 998 2714 
L 998 3021 
L 410 3021 
L 410 0 
z
" transform="scale(0.015625)"/>
       <path id="CMUBright-SemiBold-20" transform="scale(0.015625)"/>
       <path id="CMUBright-SemiBold-28" d="M 499 1690 
C 499 -173 1312 -1050 1747 -1421 
L 2234 -1421 
C 1914 -1101 1114 -307 1114 1690 
C 1114 3686 1914 4480 2234 4800 
L 1747 4800 
C 1312 4429 499 3558 499 1690 
z
" transform="scale(0.015625)"/>
       <path id="CMUBright-SemiBold-6d" d="M 410 0 
L 1024 0 
L 1024 1728 
C 1024 2413 1382 2592 1645 2592 
C 2304 2592 2266 2176 2272 1984 
L 2272 0 
L 2893 0 
L 2893 1728 
C 2893 2413 3245 2592 3507 2592 
C 4166 2592 4134 2176 4141 1984 
L 4141 0 
L 4755 0 
L 4755 2016 
C 4755 2419 4723 3072 3840 3072 
C 3341 3072 3021 2771 2854 2470 
C 2810 2598 2714 3072 1971 3072 
C 1491 3072 1178 2790 1005 2496 
L 998 2714 
L 998 3021 
L 410 3021 
L 410 0 
z
" transform="scale(0.015625)"/>
       <path id="CMUBright-SemiBold-29" d="M 371 -1421 
L 851 -1421 
C 1286 -1050 2106 -173 2106 1690 
C 2106 3558 1286 4429 851 4800 
L 371 4800 
C 640 4518 1491 3744 1491 1690 
C 1491 -307 685 -1101 371 -1421 
z
" transform="scale(0.015625)"/>
      </defs>
      <use xlink:href="#CMUBright-SemiBold-50"/>
      <use xlink:href="#CMUBright-SemiBold-6f" x="65.799988"/>
      <use xlink:href="#CMUBright-SemiBold-73" x="118.299973"/>
      <use xlink:href="#CMUBright-SemiBold-69" x="158.499969"/>
      <use xlink:href="#CMUBright-SemiBold-74" x="180.999954"/>
      <use xlink:href="#CMUBright-SemiBold-69" x="218.899948"/>
      <use xlink:href="#CMUBright-SemiBold-6f" x="241.399933"/>
      <use xlink:href="#CMUBright-SemiBold-6e" x="293.899918"/>
      <use xlink:href="#CMUBright-SemiBold-20" x="345.599915"/>
      <use xlink:href="#CMUBright-SemiBold-28" x="378.899902"/>
      <use xlink:href="#CMUBright-SemiBold-6d" x="419.69989"/>
      <use xlink:href="#CMUBright-SemiBold-29" x="500.499878"/>
     </g>
    </g>
   </g>
   <g id="line2d_4">
    <path d="M 184.674569 145.003845 
L 202.623445 93.361049 
L 220.572322 44.154946 
L 238.521198 11.137636 
L 256.470075 3.00024 
L 274.418951 21.114623 
L 292.367828 59.417314 
L 310.316704 106.389303 
L 328.26558 148.497524 
L 346.214457 174.076026 
L 364.163333 176.53883 
L 382.11221 156.045325 
L 400.061086 119.206748 
L 418.009962 76.988563 
L 435.958839 41.465286 
L 453.907715 22.382985 
L 471.856592 24.503493 
L 489.805468 46.448634 
L 507.754344 81.314271 
L 525.703221 118.81619 
L 543.652097 148.307718 
L 561.600974 161.788049 
L 579.54985 156.055367 
L 597.498727 133.430615 
L 615.447603 100.900997 
L 633.396479 67.982418 
L 651.345356 43.949382 
L 669.294232 35.234932 
L 687.243109 43.725749 
L 705.191985 66.399031 
" style="fill: none; stroke: #e29400; stroke-width: 6; stroke-linecap: square"/>
   </g>
   <g id="patch_3">
    <path d="M 172.674569 176.53883 
L 172.674569 3.00024 
" style="fill: none; stroke: #5a5758; stroke-width: 0.8; stroke-linejoin: miter; stroke-linecap: square"/>
   </g>
   <g id="patch_4">
    <path d="M 184.674569 188.53883 
L 705.191985 188.53883 
" style="fill: none; stroke: #5a5758; stroke-width: 0.8; stroke-linejoin: miter; stroke-linecap: square"/>
   </g>
   <g id="PathCollection_1">
    <defs>
     <path id="mbfff4f8a74" d="M 0 5 
C 1.326016 5 2.597899 4.473168 3.535534 3.535534 
C 4.473168 2.597899 5 1.326016 5 0 
C 5 -1.326016 4.473168 -2.597899 3.535534 -3.535534 
C 2.597899 -4.473168 1.326016 -5 0 -5 
C -1.326016 -5 -2.597899 -4.473168 -3.535534 -3.535534 
C -4.473168 -2.597899 -5 -1.326016 -5 0 
C -5 1.326016 -4.473168 2.597899 -3.535534 3.535534 
C -2.597899 4.473168 -1.326016 5 0 5 
z
" style="stroke: #ffffff; stroke-width: 1.5"/>
    </defs>
    <g>
     <use xlink:href="#mbfff4f8a74" x="184.674569" y="145.003845" style="fill: #e29400; stroke: #ffffff; stroke-width: 1.5"/>
     <use xlink:href="#mbfff4f8a74" x="202.623445" y="93.361049" style="fill: #e29400; stroke: #ffffff; stroke-width: 1.5"/>
     <use xlink:href="#mbfff4f8a74" x="220.572322" y="44.154946" style="fill: #e29400; stroke: #ffffff; stroke-width: 1.5"/>
     <use xlink:href="#mbfff4f8a74" x="238.521198" y="11.137636" style="fill: #e29400; stroke: #ffffff; stroke-width: 1.5"/>
     <use xlink:href="#mbfff4f8a74" x="256.470075" y="3.00024" style="fill: #e29400; stroke: #ffffff; stroke-width: 1.5"/>
     <use xlink:href="#mbfff4f8a74" x="274.418951" y="21.114623" style="fill: #e29400; stroke: #ffffff; stroke-width: 1.5"/>
     <use xlink:href="#mbfff4f8a74" x="292.367828" y="59.417314" style="fill: #e29400; stroke: #ffffff; stroke-width: 1.5"/>
     <use xlink:href="#mbfff4f8a74" x="310.316704" y="106.389303" style="fill: #e29400; stroke: #ffffff; stroke-width: 1.5"/>
     <use xlink:href="#mbfff4f8a74" x="328.26558" y="148.497524" style="fill: #e29400; stroke: #ffffff; stroke-width: 1.5"/>
     <use xlink:href="#mbfff4f8a74" x="346.214457" y="174.076026" style="fill: #e29400; stroke: #ffffff; stroke-width: 1.5"/>
     <use xlink:href="#mbfff4f8a74" x="364.163333" y="176.53883" style="fill: #e29400; stroke: #ffffff; stroke-width: 1.5"/>
     <use xlink:href="#mbfff4f8a74" x="382.11221" y="156.045325" style="fill: #e29400; stroke: #ffffff; stroke-width: 1.5"/>
     <use xlink:href="#mbfff4f8a74" x="400.061086" y="119.206748" style="fill: #e29400; stroke: #ffffff; stroke-width: 1.5"/>
     <use xlink:href="#mbfff4f8a74" x="418.009962" y="76.988563" style="fill: #e29400; stroke: #ffffff; stroke-width: 1.5"/>
     <use xlink:href="#mbfff4f8a74" x="435.958839" y="41.465286" style="fill: #e29400; stroke: #ffffff; stroke-width: 1.5"/>
     <use xlink:href="#mbfff4f8a74" x="453.907715" y="22.382985" style="fill: #e29400; stroke: #ffffff; stroke-width: 1.5"/>
     <use xlink:href="#mbfff4f8a74" x="471.856592" y="24.503493" style="fill: #e29400; stroke: #ffffff; stroke-width: 1.5"/>
     <use xlink:href="#mbfff4f8a74" x="489.805468" y="46.448634" style="fill: #e29400; stroke: #ffffff; stroke-width: 1.5"/>
     <use xlink:href="#mbfff4f8a74" x="507.754344" y="81.314271" style="fill: #e29400; stroke: #ffffff; stroke-width: 1.5"/>
     <use xlink:href="#mbfff4f8a74" x="525.703221" y="118.81619" style="fill: #e29400; stroke: #ffffff; stroke-width: 1.5"/>
     <use xlink:href="#mbfff4f8a74" x="543.652097" y="148.307718" style="fill: #e29400; stroke: #ffffff; stroke-width: 1.5"/>
     <use xlink:href="#mbfff4f8a74" x="561.600974" y="161.788049" style="fill: #e29400; stroke: #ffffff; stroke-width: 1.5"/>
     <use xlink:href="#mbfff4f8a74" x="579.54985" y="156.055367" style="fill: #e29400; stroke: #ffffff; stroke-width: 1.5"/>
     <use xlink:href="#mbfff4f8a74" x="597.498727" y="133.430615" style="fill: #e29400; stroke: #ffffff; stroke-width: 1.5"/>
     <use xlink:href="#mbfff4f8a74" x="615.447603" y="100.900997" style="fill: #e29400; stroke: #ffffff; stroke-width: 1.5"/>
     <use xlink:href="#mbfff4f8a74" x="633.396479" y="67.982418" style="fill: #e29400; stroke: #ffffff; stroke-width: 1.5"/>
     <use xlink:href="#mbfff4f8a74" x="651.345356" y="43.949382" style="fill: #e29400; stroke: #ffffff; stroke-width: 1.5"/>
     <use xlink:href="#mbfff4f8a74" x="669.294232" y="35.234932" style="fill: #e29400; stroke: #ffffff; stroke-width: 1.5"/>
     <use xlink:href="#mbfff4f8a74" x="687.243109" y="43.725749" style="fill: #e29400; stroke: #ffffff; stroke-width: 1.5"/>
     <use xlink:href="#mbfff4f8a74" x="705.191985" y="66.399031" style="fill: #e29400; stroke: #ffffff; stroke-width: 1.5"/>
    </g>
   </g>
  </g>
  <g id="axes_2">
   <g id="patch_5">
    <path d="M 184.674569 371.577901 
L 705.191985 371.577901 
L 705.191985 198.03931 
L 184.674569 198.03931 
z
" style="fill: #ffffff"/>
   </g>
   <g id="matplotlib.axis_3">
    <g id="xtick_1">
     <g id="line2d_5">
      <defs>
       <path id="mea64fa7981" d="M 0 0 
L 0 3.5 
" style="stroke: #5a5758; stroke-width: 0.8"/>
      </defs>
      <g>
       <use xlink:href="#mea64fa7981" x="184.674569" y="383.577901" style="fill: #5a5758; stroke: #5a5758; stroke-width: 0.8"/>
      </g>
     </g>
     <g id="text_5">
      <!-- 0 -->
      <g style="fill: #5a5758" transform="translate(180.738644 400.998731) scale(0.14994 -0.14994)">
       <use xlink:href="#CMUBright-Roman-30"/>
      </g>
     </g>
    </g>
    <g id="xtick_2">
     <g id="line2d_6">
      <g>
       <use xlink:href="#mea64fa7981" x="288.778052" y="383.577901" style="fill: #5a5758; stroke: #5a5758; stroke-width: 0.8"/>
      </g>
     </g>
     <g id="text_6">
      <!-- 50 -->
      <g style="fill: #5a5758" transform="translate(280.906202 400.998731) scale(0.14994 -0.14994)">
       <use xlink:href="#CMUBright-Roman-35"/>
       <use xlink:href="#CMUBright-Roman-30" x="52.499985"/>
      </g>
     </g>
    </g>
    <g id="xtick_3">
     <g id="line2d_7">
      <g>
       <use xlink:href="#mea64fa7981" x="392.881535" y="383.577901" style="fill: #5a5758; stroke: #5a5758; stroke-width: 0.8"/>
      </g>
     </g>
     <g id="text_7">
      <!-- 100 -->
      <g style="fill: #5a5758" transform="translate(381.07376 400.998731) scale(0.14994 -0.14994)">
       <use xlink:href="#CMUBright-Roman-31"/>
       <use xlink:href="#CMUBright-Roman-30" x="52.499985"/>
       <use xlink:href="#CMUBright-Roman-30" x="104.999969"/>
      </g>
     </g>
    </g>
    <g id="xtick_4">
     <g id="line2d_8">
      <g>
       <use xlink:href="#mea64fa7981" x="496.985019" y="383.577901" style="fill: #5a5758; stroke: #5a5758; stroke-width: 0.8"/>
      </g>
     </g>
     <g id="text_8">
      <!-- 150 -->
      <g style="fill: #5a5758" transform="translate(485.177244 400.998731) scale(0.14994 -0.14994)">
       <use xlink:href="#CMUBright-Roman-31"/>
       <use xlink:href="#CMUBright-Roman-35" x="52.499985"/>
       <use xlink:href="#CMUBright-Roman-30" x="104.999969"/>
      </g>
     </g>
    </g>
    <g id="xtick_5">
     <g id="line2d_9">
      <g>
       <use xlink:href="#mea64fa7981" x="601.088502" y="383.577901" style="fill: #5a5758; stroke: #5a5758; stroke-width: 0.8"/>
      </g>
     </g>
     <g id="text_9">
      <!-- 200 -->
      <g style="fill: #5a5758" transform="translate(589.280727 400.998731) scale(0.14994 -0.14994)">
       <defs>
        <path id="CMUBright-Roman-32" d="M 275 3226 
L 512 2938 
C 653 3475 864 3962 1498 3962 
C 2106 3962 2592 3571 2592 2982 
C 2592 2413 2214 2022 1683 1562 
L 333 339 
L 333 0 
L 3021 0 
L 3021 358 
L 698 358 
C 1773 1325 1638 1210 2061 1549 
C 2438 1856 3021 2304 3021 2989 
C 3021 3744 2419 4294 1594 4301 
L 1587 4301 
C 800 4301 442 3782 275 3226 
z
" transform="scale(0.015625)"/>
       </defs>
       <use xlink:href="#CMUBright-Roman-32"/>
       <use xlink:href="#CMUBright-Roman-30" x="52.499985"/>
       <use xlink:href="#CMUBright-Roman-30" x="104.999969"/>
      </g>
     </g>
    </g>
    <g id="xtick_6">
     <g id="line2d_10">
      <g>
       <use xlink:href="#mea64fa7981" x="705.191985" y="383.577901" style="fill: #5a5758; stroke: #5a5758; stroke-width: 0.8"/>
      </g>
     </g>
     <g id="text_10">
      <!-- 250 -->
      <g style="fill: #5a5758" transform="translate(693.38421 400.998731) scale(0.14994 -0.14994)">
       <use xlink:href="#CMUBright-Roman-32"/>
       <use xlink:href="#CMUBright-Roman-35" x="52.499985"/>
       <use xlink:href="#CMUBright-Roman-30" x="104.999969"/>
      </g>
     </g>
    </g>
    <g id="text_11">
     <!-- Time (s) -->
     <g style="fill: #5a5758" transform="translate(410.914683 425.003197) scale(0.18 -0.18)">
      <defs>
       <path id="CMUBright-SemiBold-54" d="M 237 3910 
L 1978 3910 
L 1978 0 
L 2650 0 
L 2650 3910 
L 4390 3910 
L 4390 4416 
L 237 4416 
L 237 3910 
z
" transform="scale(0.015625)"/>
       <path id="CMUBright-SemiBold-65" d="M 186 1530 
C 186 710 794 -51 1709 -51 
C 2144 -51 2496 90 2784 275 
L 2739 794 
C 2598 691 2240 429 1709 429 
C 1197 429 762 890 762 1536 
L 762 1600 
L 2822 1600 
C 2816 2848 2093 3104 1606 3104 
C 832 3104 186 2413 186 1530 
z
M 838 1978 
C 973 2387 1293 2618 1600 2618 
C 2067 2618 2234 2240 2298 1978 
L 838 1978 
z
" transform="scale(0.015625)"/>
      </defs>
      <use xlink:href="#CMUBright-SemiBold-54"/>
      <use xlink:href="#CMUBright-SemiBold-69" x="72.499985"/>
      <use xlink:href="#CMUBright-SemiBold-6d" x="94.999969"/>
      <use xlink:href="#CMUBright-SemiBold-65" x="175.799957"/>
      <use xlink:href="#CMUBright-SemiBold-20" x="222.899948"/>
      <use xlink:href="#CMUBright-SemiBold-28" x="256.199936"/>
      <use xlink:href="#CMUBright-SemiBold-73" x="296.999924"/>
      <use xlink:href="#CMUBright-SemiBold-29" x="337.199921"/>
     </g>
    </g>
   </g>
   <g id="matplotlib.axis_4">
    <g id="ytick_4">
     <g id="line2d_11">
      <g>
       <use xlink:href="#mc43373d34d" x="172.674569" y="364.649688" style="fill: #5a5758; stroke: #5a5758; stroke-width: 0.8"/>
      </g>
     </g>
     <g id="text_12">
      <!-- -0.050 -->
      <g style="fill: #5a5758" transform="translate(124.560553 369.860103) scale(0.14994 -0.14994)">
       <defs>
        <path id="CMUBright-Roman-2d" d="M 70 1350 
L 1862 1350 
L 1862 1670 
L 70 1670 
L 70 1350 
z
" transform="scale(0.015625)"/>
       </defs>
       <use xlink:href="#CMUBright-Roman-2d"/>
       <use xlink:href="#CMUBright-Roman-30" x="34.999985"/>
       <use xlink:href="#CMUBright-Roman-2e" x="87.499969"/>
       <use xlink:href="#CMUBright-Roman-30" x="116.699966"/>
       <use xlink:href="#CMUBright-Roman-35" x="169.199951"/>
       <use xlink:href="#CMUBright-Roman-30" x="221.699936"/>
      </g>
     </g>
    </g>
    <g id="ytick_5">
     <g id="line2d_12">
      <g>
       <use xlink:href="#mc43373d34d" x="172.674569" y="327.343705" style="fill: #5a5758; stroke: #5a5758; stroke-width: 0.8"/>
      </g>
     </g>
     <g id="text_13">
      <!-- -0.025 -->
      <g style="fill: #5a5758" transform="translate(124.560553 332.55412) scale(0.14994 -0.14994)">
       <use xlink:href="#CMUBright-Roman-2d"/>
       <use xlink:href="#CMUBright-Roman-30" x="34.999985"/>
       <use xlink:href="#CMUBright-Roman-2e" x="87.499969"/>
       <use xlink:href="#CMUBright-Roman-30" x="116.699966"/>
       <use xlink:href="#CMUBright-Roman-32" x="169.199951"/>
       <use xlink:href="#CMUBright-Roman-35" x="221.699936"/>
      </g>
     </g>
    </g>
    <g id="ytick_6">
     <g id="line2d_13">
      <g>
       <use xlink:href="#mc43373d34d" x="172.674569" y="290.037721" style="fill: #5a5758; stroke: #5a5758; stroke-width: 0.8"/>
      </g>
     </g>
     <g id="text_14">
      <!-- 0.000 -->
      <g style="fill: #5a5758" transform="translate(129.808453 295.248136) scale(0.14994 -0.14994)">
       <use xlink:href="#CMUBright-Roman-30"/>
       <use xlink:href="#CMUBright-Roman-2e" x="52.499985"/>
       <use xlink:href="#CMUBright-Roman-30" x="81.699982"/>
       <use xlink:href="#CMUBright-Roman-30" x="134.199966"/>
       <use xlink:href="#CMUBright-Roman-30" x="186.699951"/>
      </g>
     </g>
    </g>
    <g id="ytick_7">
     <g id="line2d_14">
      <g>
       <use xlink:href="#mc43373d34d" x="172.674569" y="252.731738" style="fill: #5a5758; stroke: #5a5758; stroke-width: 0.8"/>
      </g>
     </g>
     <g id="text_15">
      <!-- 0.025 -->
      <g style="fill: #5a5758" transform="translate(129.808453 257.942153) scale(0.14994 -0.14994)">
       <use xlink:href="#CMUBright-Roman-30"/>
       <use xlink:href="#CMUBright-Roman-2e" x="52.499985"/>
       <use xlink:href="#CMUBright-Roman-30" x="81.699982"/>
       <use xlink:href="#CMUBright-Roman-32" x="134.199966"/>
       <use xlink:href="#CMUBright-Roman-35" x="186.699951"/>
      </g>
     </g>
    </g>
    <g id="ytick_8">
     <g id="line2d_15">
      <g>
       <use xlink:href="#mc43373d34d" x="172.674569" y="215.425754" style="fill: #5a5758; stroke: #5a5758; stroke-width: 0.8"/>
      </g>
     </g>
     <g id="text_16">
      <!-- 0.050 -->
      <g style="fill: #5a5758" transform="translate(129.808453 220.636169) scale(0.14994 -0.14994)">
       <use xlink:href="#CMUBright-Roman-30"/>
       <use xlink:href="#CMUBright-Roman-2e" x="52.499985"/>
       <use xlink:href="#CMUBright-Roman-30" x="81.699982"/>
       <use xlink:href="#CMUBright-Roman-35" x="134.199966"/>
       <use xlink:href="#CMUBright-Roman-30" x="186.699951"/>
      </g>
     </g>
    </g>
    <g id="text_17">
     <!-- Velocity (m/s) -->
     <g style="fill: #5a5758" transform="translate(3.00024 280.812043) scale(0.18 -0.18)">
      <defs>
       <path id="CMUBright-SemiBold-56" d="M 90 4448 
L 1786 -32 
L 2522 -32 
L 4218 4448 
L 3590 4448 
L 2662 1978 
L 2259 851 
L 2195 614 
C 2099 947 1971 1280 1613 2259 
L 794 4448 
L 90 4448 
z
" transform="scale(0.015625)"/>
       <path id="CMUBright-SemiBold-6c" d="M 416 0 
L 1018 0 
L 1018 4448 
L 416 4448 
L 416 0 
z
" transform="scale(0.015625)"/>
       <path id="CMUBright-SemiBold-63" d="M 224 1517 
C 224 704 819 -51 1702 -51 
C 2157 -51 2490 83 2797 269 
L 2752 800 
C 2534 653 2227 448 1696 448 
C 1350 448 838 659 838 1510 
C 838 2438 1363 2605 1715 2605 
C 2163 2605 2336 2522 2669 2304 
L 2758 2829 
C 2381 3027 2182 3104 1715 3104 
C 819 3104 224 2349 224 1517 
z
" transform="scale(0.015625)"/>
       <path id="CMUBright-SemiBold-79" d="M 90 3021 
L 1261 0 
C 1146 -326 1069 -640 691 -640 
C 480 -640 307 -589 154 -544 
L 205 -1075 
C 301 -1088 493 -1120 685 -1120 
C 1306 -1120 1555 -602 1722 -128 
L 2835 3021 
L 2240 3021 
C 1850 1888 1536 1011 1510 614 
C 1446 1094 1254 1574 704 3021 
L 90 3021 
z
" transform="scale(0.015625)"/>
       <path id="CMUBright-SemiBold-2f" d="M 371 -1184 
C 371 -1325 493 -1421 614 -1421 
C 806 -1421 851 -1235 896 -1114 
L 2938 4397 
C 2957 4448 2982 4506 2982 4563 
C 2982 4691 2861 4800 2739 4800 
C 2560 4800 2515 4640 2464 4506 
L 422 -992 
C 403 -1050 371 -1114 371 -1184 
z
" transform="scale(0.015625)"/>
      </defs>
      <use xlink:href="#CMUBright-SemiBold-56"/>
      <use xlink:href="#CMUBright-SemiBold-65" x="67.499985"/>
      <use xlink:href="#CMUBright-SemiBold-6c" x="114.599976"/>
      <use xlink:href="#CMUBright-SemiBold-6f" x="137.09996"/>
      <use xlink:href="#CMUBright-SemiBold-63" x="189.599945"/>
      <use xlink:href="#CMUBright-SemiBold-69" x="236.299942"/>
      <use xlink:href="#CMUBright-SemiBold-74" x="258.799927"/>
      <use xlink:href="#CMUBright-SemiBold-79" x="296.699921"/>
      <use xlink:href="#CMUBright-SemiBold-20" x="342.499908"/>
      <use xlink:href="#CMUBright-SemiBold-28" x="375.799896"/>
      <use xlink:href="#CMUBright-SemiBold-6d" x="416.599884"/>
      <use xlink:href="#CMUBright-SemiBold-2f" x="497.399872"/>
      <use xlink:href="#CMUBright-SemiBold-73" x="549.899857"/>
      <use xlink:href="#CMUBright-SemiBold-29" x="590.099854"/>
     </g>
    </g>
   </g>
   <g id="line2d_16">
    <path d="M 184.674569 208.778159 
L 202.623445 198.03931 
L 220.572322 213.57599 
L 238.521198 250.048971 
L 256.470075 296.426376 
L 274.418951 339.296864 
L 292.367828 366.730031 
L 310.316704 371.577901 
L 328.26558 353.309375 
L 346.214457 317.915697 
L 364.163333 275.984629 
L 382.11221 239.552605 
L 400.061086 218.665412 
L 418.009962 218.625649 
L 435.958839 238.675936 
L 453.907715 272.435381 
L 471.856592 309.901875 
L 489.805468 340.399235 
L 507.754344 355.605322 
L 525.703221 351.806314 
L 543.652097 330.771538 
L 561.600974 299.053599 
L 579.54985 265.968766 
L 597.498727 240.874364 
L 615.447603 230.535002 
L 633.396479 237.315234 
L 651.345356 258.676613 
L 669.294232 288.072522 
L 687.243109 316.937538 
L 705.191985 337.171355 
" style="fill: none; stroke: #e29400; stroke-width: 6; stroke-linecap: square"/>
   </g>
   <g id="patch_6">
    <path d="M 172.674569 371.577901 
L 172.674569 198.03931 
" style="fill: none; stroke: #5a5758; stroke-width: 0.8; stroke-linejoin: miter; stroke-linecap: square"/>
   </g>
   <g id="patch_7">
    <path d="M 184.674569 383.577901 
L 705.191985 383.577901 
" style="fill: none; stroke: #5a5758; stroke-width: 0.8; stroke-linejoin: miter; stroke-linecap: square"/>
   </g>
   <g id="PathCollection_2">
    <g>
     <use xlink:href="#mbfff4f8a74" x="184.674569" y="208.778159" style="fill: #e29400; stroke: #ffffff; stroke-width: 1.5"/>
     <use xlink:href="#mbfff4f8a74" x="202.623445" y="198.03931" style="fill: #e29400; stroke: #ffffff; stroke-width: 1.5"/>
     <use xlink:href="#mbfff4f8a74" x="220.572322" y="213.57599" style="fill: #e29400; stroke: #ffffff; stroke-width: 1.5"/>
     <use xlink:href="#mbfff4f8a74" x="238.521198" y="250.048971" style="fill: #e29400; stroke: #ffffff; stroke-width: 1.5"/>
     <use xlink:href="#mbfff4f8a74" x="256.470075" y="296.426376" style="fill: #e29400; stroke: #ffffff; stroke-width: 1.5"/>
     <use xlink:href="#mbfff4f8a74" x="274.418951" y="339.296864" style="fill: #e29400; stroke: #ffffff; stroke-width: 1.5"/>
     <use xlink:href="#mbfff4f8a74" x="292.367828" y="366.730031" style="fill: #e29400; stroke: #ffffff; stroke-width: 1.5"/>
     <use xlink:href="#mbfff4f8a74" x="310.316704" y="371.577901" style="fill: #e29400; stroke: #ffffff; stroke-width: 1.5"/>
     <use xlink:href="#mbfff4f8a74" x="328.26558" y="353.309375" style="fill: #e29400; stroke: #ffffff; stroke-width: 1.5"/>
     <use xlink:href="#mbfff4f8a74" x="346.214457" y="317.915697" style="fill: #e29400; stroke: #ffffff; stroke-width: 1.5"/>
     <use xlink:href="#mbfff4f8a74" x="364.163333" y="275.984629" style="fill: #e29400; stroke: #ffffff; stroke-width: 1.5"/>
     <use xlink:href="#mbfff4f8a74" x="382.11221" y="239.552605" style="fill: #e29400; stroke: #ffffff; stroke-width: 1.5"/>
     <use xlink:href="#mbfff4f8a74" x="400.061086" y="218.665412" style="fill: #e29400; stroke: #ffffff; stroke-width: 1.5"/>
     <use xlink:href="#mbfff4f8a74" x="418.009962" y="218.625649" style="fill: #e29400; stroke: #ffffff; stroke-width: 1.5"/>
     <use xlink:href="#mbfff4f8a74" x="435.958839" y="238.675936" style="fill: #e29400; stroke: #ffffff; stroke-width: 1.5"/>
     <use xlink:href="#mbfff4f8a74" x="453.907715" y="272.435381" style="fill: #e29400; stroke: #ffffff; stroke-width: 1.5"/>
     <use xlink:href="#mbfff4f8a74" x="471.856592" y="309.901875" style="fill: #e29400; stroke: #ffffff; stroke-width: 1.5"/>
     <use xlink:href="#mbfff4f8a74" x="489.805468" y="340.399235" style="fill: #e29400; stroke: #ffffff; stroke-width: 1.5"/>
     <use xlink:href="#mbfff4f8a74" x="507.754344" y="355.605322" style="fill: #e29400; stroke: #ffffff; stroke-width: 1.5"/>
     <use xlink:href="#mbfff4f8a74" x="525.703221" y="351.806314" style="fill: #e29400; stroke: #ffffff; stroke-width: 1.5"/>
     <use xlink:href="#mbfff4f8a74" x="543.652097" y="330.771538" style="fill: #e29400; stroke: #ffffff; stroke-width: 1.5"/>
     <use xlink:href="#mbfff4f8a74" x="561.600974" y="299.053599" style="fill: #e29400; stroke: #ffffff; stroke-width: 1.5"/>
     <use xlink:href="#mbfff4f8a74" x="579.54985" y="265.968766" style="fill: #e29400; stroke: #ffffff; stroke-width: 1.5"/>
     <use xlink:href="#mbfff4f8a74" x="597.498727" y="240.874364" style="fill: #e29400; stroke: #ffffff; stroke-width: 1.5"/>
     <use xlink:href="#mbfff4f8a74" x="615.447603" y="230.535002" style="fill: #e29400; stroke: #ffffff; stroke-width: 1.5"/>
     <use xlink:href="#mbfff4f8a74" x="633.396479" y="237.315234" style="fill: #e29400; stroke: #ffffff; stroke-width: 1.5"/>
     <use xlink:href="#mbfff4f8a74" x="651.345356" y="258.676613" style="fill: #e29400; stroke: #ffffff; stroke-width: 1.5"/>
     <use xlink:href="#mbfff4f8a74" x="669.294232" y="288.072522" style="fill: #e29400; stroke: #ffffff; stroke-width: 1.5"/>
     <use xlink:href="#mbfff4f8a74" x="687.243109" y="316.937538" style="fill: #e29400; stroke: #ffffff; stroke-width: 1.5"/>
     <use xlink:href="#mbfff4f8a74" x="705.191985" y="337.171355" style="fill: #e29400; stroke: #ffffff; stroke-width: 1.5"/>
    </g>
   </g>
  </g>
 </g>
</svg>
