<?xml version="1.0" encoding="utf-8" standalone="no"?>
<!DOCTYPE svg PUBLIC "-//W3C//DTD SVG 1.1//EN"
  "http://www.w3.org/Graphics/SVG/1.1/DTD/svg11.dtd">
<svg xmlns:xlink="http://www.w3.org/1999/xlink" width="576pt" height="576pt" viewBox="0 0 576 576" xmlns="http://www.w3.org/2000/svg" version="1.1">
 <metadata>
  <rdf:RDF xmlns:dc="http://purl.org/dc/elements/1.1/" xmlns:cc="http://creativecommons.org/ns#" xmlns:rdf="http://www.w3.org/1999/02/22-rdf-syntax-ns#">
   <cc:Work>
    <dc:type rdf:resource="http://purl.org/dc/dcmitype/StillImage"/>
    <dc:date>2023-01-24T02:06:15.318805</dc:date>
    <dc:format>image/svg+xml</dc:format>
    <dc:creator>
     <cc:Agent>
      <dc:title>Matplotlib v3.6.3, https://matplotlib.org/</dc:title>
     </cc:Agent>
    </dc:creator>
   </cc:Work>
  </rdf:RDF>
 </metadata>
 <defs>
  <style type="text/css">*{stroke-linejoin: round; stroke-linecap: butt}</style>
 </defs>
 <g id="figure_1">
  <g id="patch_1">
   <path d="M 0 576 
L 576 576 
L 576 0 
L 0 0 
z
" style="fill: #ffffff"/>
  </g>
  <g id="axes_1">
   <g id="patch_2">
    <path d="M 65.602657 516.821155 
L 572.99976 516.821155 
L 572.99976 9.424052 
L 65.602657 9.424052 
z
" style="fill: #ffffff"/>
   </g>
   <g id="matplotlib.axis_1">
    <g id="xtick_1">
     <g id="line2d_1">
      <defs>
       <path id="m1f9b0ef526" d="M 0 0 
L 0 3.5 
" style="stroke: #5a5758; stroke-width: 0.8"/>
      </defs>
      <g>
       <use xlink:href="#m1f9b0ef526" x="65.602657" y="528.821155" style="fill: #5a5758; stroke: #5a5758; stroke-width: 0.8"/>
      </g>
     </g>
     <g id="text_1">
      <!-- 0.0 -->
      <g style="fill: #5a5758" transform="translate(55.541448 546.241985) scale(0.14994 -0.14994)">
       <defs>
        <path id="CMUBright-Roman-30" d="M 333 1984 
L 333 2086 
Q 333 2291 339 2438 
Q 346 2586 371 2832 
Q 397 3078 461 3267 
Q 525 3456 621 3657 
Q 717 3859 880 4006 
Q 1043 4154 1261 4230 
Q 1446 4301 1677 4301 
Q 1856 4301 2025 4256 
Q 2195 4211 2380 4070 
Q 2566 3930 2704 3709 
Q 2842 3488 2931 3104 
Q 3021 2720 3021 2214 
Q 3021 1683 2982 1347 
Q 2944 1011 2803 685 
Q 2618 250 2307 70 
Q 1997 -109 1677 -109 
Q 1498 -109 1328 -64 
Q 1158 -19 972 121 
Q 787 262 649 483 
Q 512 704 422 1091 
Q 333 1478 333 1984 
z
M 742 2413 
Q 742 2374 745 2326 
Q 749 2278 749 2272 
L 749 2150 
Q 749 1779 758 1548 
Q 768 1318 838 1014 
Q 909 710 1037 538 
Q 1286 218 1677 218 
Q 2086 218 2330 557 
Q 2451 730 2518 1037 
Q 2586 1344 2595 1568 
Q 2605 1792 2605 2163 
L 2605 2272 
Q 2605 2278 2608 2323 
Q 2611 2368 2611 2406 
Q 2611 3302 2336 3661 
Q 2099 3981 1677 3981 
Q 1242 3981 1005 3642 
Q 742 3264 742 2413 
z
" transform="scale(0.015625)"/>
        <path id="CMUBright-Roman-2e" d="M 678 0 
L 678 499 
L 1178 499 
L 1178 0 
L 678 0 
z
" transform="scale(0.015625)"/>
       </defs>
       <use xlink:href="#CMUBright-Roman-30"/>
       <use xlink:href="#CMUBright-Roman-2e" x="52.499985"/>
       <use xlink:href="#CMUBright-Roman-30" x="81.699982"/>
      </g>
     </g>
    </g>
    <g id="xtick_2">
     <g id="line2d_2">
      <g>
       <use xlink:href="#m1f9b0ef526" x="133.255604" y="528.821155" style="fill: #5a5758; stroke: #5a5758; stroke-width: 0.8"/>
      </g>
     </g>
     <g id="text_2">
      <!-- 0.2 -->
      <g style="fill: #5a5758" transform="translate(123.194395 546.241985) scale(0.14994 -0.14994)">
       <defs>
        <path id="CMUBright-Roman-32" d="M 275 3226 
Q 595 4301 1587 4301 
L 1594 4301 
Q 2214 4294 2617 3923 
Q 3021 3552 3021 2989 
Q 3021 2746 2937 2531 
Q 2854 2317 2668 2115 
Q 2483 1914 2384 1821 
Q 2285 1728 2061 1549 
Q 1754 1299 1642 1203 
Q 1530 1107 698 358 
L 3021 358 
L 3021 0 
L 333 0 
L 333 339 
L 1683 1562 
Q 2144 1965 2368 2278 
Q 2592 2592 2592 2982 
Q 2592 3418 2278 3690 
Q 1965 3962 1498 3962 
Q 1069 3962 854 3693 
Q 640 3424 512 2938 
L 275 3226 
z
" transform="scale(0.015625)"/>
       </defs>
       <use xlink:href="#CMUBright-Roman-30"/>
       <use xlink:href="#CMUBright-Roman-2e" x="52.499985"/>
       <use xlink:href="#CMUBright-Roman-32" x="81.699982"/>
      </g>
     </g>
    </g>
    <g id="xtick_3">
     <g id="line2d_3">
      <g>
       <use xlink:href="#m1f9b0ef526" x="200.908551" y="528.821155" style="fill: #5a5758; stroke: #5a5758; stroke-width: 0.8"/>
      </g>
     </g>
     <g id="text_3">
      <!-- 0.4 -->
      <g style="fill: #5a5758" transform="translate(190.847343 546.241985) scale(0.14994 -0.14994)">
       <defs>
        <path id="CMUBright-Roman-34" d="M 186 1158 
L 186 1504 
L 1952 4250 
L 2438 4250 
L 2438 1498 
L 3168 1498 
L 3168 1158 
L 2438 1158 
L 2438 0 
L 2035 0 
L 2035 1158 
L 186 1158 
z
M 602 1498 
L 2054 1498 
L 2054 3885 
Q 1971 3667 1606 3085 
L 602 1498 
z
" transform="scale(0.015625)"/>
       </defs>
       <use xlink:href="#CMUBright-Roman-30"/>
       <use xlink:href="#CMUBright-Roman-2e" x="52.499985"/>
       <use xlink:href="#CMUBright-Roman-34" x="81.699982"/>
      </g>
     </g>
    </g>
    <g id="xtick_4">
     <g id="line2d_4">
      <g>
       <use xlink:href="#m1f9b0ef526" x="268.561498" y="528.821155" style="fill: #5a5758; stroke: #5a5758; stroke-width: 0.8"/>
      </g>
     </g>
     <g id="text_4">
      <!-- 0.6 -->
      <g style="fill: #5a5758" transform="translate(258.50029 546.241985) scale(0.14994 -0.14994)">
       <defs>
        <path id="CMUBright-Roman-36" d="M 346 2061 
Q 346 3072 864 3686 
Q 1382 4301 2074 4301 
L 2086 4301 
Q 2426 4301 2797 4179 
L 2797 3846 
Q 2374 3981 2074 3981 
L 2061 3981 
Q 1478 3981 1123 3491 
Q 768 3002 768 2208 
Q 768 2195 771 2166 
Q 774 2138 774 2125 
Q 928 2445 1238 2665 
Q 1549 2886 1952 2886 
Q 2387 2886 2682 2483 
Q 3008 2029 3008 1408 
Q 3008 768 2618 326 
Q 2240 -109 1690 -109 
Q 1510 -109 1340 -57 
Q 1171 -6 985 141 
Q 800 288 662 521 
Q 525 755 435 1152 
Q 346 1549 346 2061 
z
M 794 1389 
Q 813 1171 854 1004 
Q 896 838 985 643 
Q 1075 448 1254 336 
Q 1434 224 1690 224 
Q 2138 224 2381 550 
Q 2515 736 2550 921 
Q 2586 1107 2586 1434 
Q 2586 1645 2573 1776 
Q 2560 1907 2480 2089 
Q 2400 2272 2253 2400 
Q 2054 2566 1728 2566 
Q 1325 2566 1062 2265 
Q 800 1965 800 1555 
Q 800 1440 806 1389 
L 794 1389 
z
" transform="scale(0.015625)"/>
       </defs>
       <use xlink:href="#CMUBright-Roman-30"/>
       <use xlink:href="#CMUBright-Roman-2e" x="52.499985"/>
       <use xlink:href="#CMUBright-Roman-36" x="81.699982"/>
      </g>
     </g>
    </g>
    <g id="xtick_5">
     <g id="line2d_5">
      <g>
       <use xlink:href="#m1f9b0ef526" x="336.214445" y="528.821155" style="fill: #5a5758; stroke: #5a5758; stroke-width: 0.8"/>
      </g>
     </g>
     <g id="text_5">
      <!-- 0.8 -->
      <g style="fill: #5a5758" transform="translate(326.153237 546.241985) scale(0.14994 -0.14994)">
       <defs>
        <path id="CMUBright-Roman-38" d="M 275 1158 
Q 275 1517 518 1817 
Q 762 2118 1248 2266 
Q 909 2349 640 2598 
Q 371 2848 371 3206 
Q 371 3642 745 3971 
Q 1120 4301 1677 4301 
Q 2221 4301 2601 3981 
Q 2982 3661 2982 3213 
Q 2982 2918 2787 2684 
Q 2592 2451 2285 2323 
L 2099 2266 
Q 2464 2176 2768 1885 
Q 3072 1594 3072 1158 
Q 3072 646 2665 268 
Q 2259 -109 1670 -109 
Q 1075 -109 675 275 
Q 275 659 275 1158 
z
M 698 1158 
Q 698 704 970 464 
Q 1242 224 1670 224 
Q 2118 224 2384 470 
Q 2650 717 2650 1165 
Q 2650 1619 2371 1862 
Q 2093 2106 1670 2106 
Q 1280 2106 989 1878 
Q 698 1651 698 1158 
z
M 755 3206 
Q 755 2886 982 2656 
Q 1210 2426 1670 2426 
Q 2093 2426 2342 2634 
Q 2592 2842 2592 3206 
Q 2592 3507 2387 3744 
Q 2182 3981 1683 3981 
Q 1171 3981 963 3744 
Q 755 3507 755 3206 
z
" transform="scale(0.015625)"/>
       </defs>
       <use xlink:href="#CMUBright-Roman-30"/>
       <use xlink:href="#CMUBright-Roman-2e" x="52.499985"/>
       <use xlink:href="#CMUBright-Roman-38" x="81.699982"/>
      </g>
     </g>
    </g>
    <g id="xtick_6">
     <g id="line2d_6">
      <g>
       <use xlink:href="#m1f9b0ef526" x="403.867392" y="528.821155" style="fill: #5a5758; stroke: #5a5758; stroke-width: 0.8"/>
      </g>
     </g>
     <g id="text_6">
      <!-- 1.0 -->
      <g style="fill: #5a5758" transform="translate(393.806184 546.241985) scale(0.14994 -0.14994)">
       <defs>
        <path id="CMUBright-Roman-31" d="M 672 3558 
L 672 3885 
Q 1427 3885 1862 4301 
L 1965 4301 
L 1965 320 
L 2803 320 
L 2803 0 
L 710 0 
L 710 320 
L 1549 320 
L 1549 3744 
Q 1178 3558 672 3558 
z
" transform="scale(0.015625)"/>
       </defs>
       <use xlink:href="#CMUBright-Roman-31"/>
       <use xlink:href="#CMUBright-Roman-2e" x="52.499985"/>
       <use xlink:href="#CMUBright-Roman-30" x="81.699982"/>
      </g>
     </g>
    </g>
    <g id="xtick_7">
     <g id="line2d_7">
      <g>
       <use xlink:href="#m1f9b0ef526" x="471.520339" y="528.821155" style="fill: #5a5758; stroke: #5a5758; stroke-width: 0.8"/>
      </g>
     </g>
     <g id="text_7">
      <!-- 1.2 -->
      <g style="fill: #5a5758" transform="translate(461.459131 546.241985) scale(0.14994 -0.14994)">
       <use xlink:href="#CMUBright-Roman-31"/>
       <use xlink:href="#CMUBright-Roman-2e" x="52.499985"/>
       <use xlink:href="#CMUBright-Roman-32" x="81.699982"/>
      </g>
     </g>
    </g>
    <g id="xtick_8">
     <g id="line2d_8">
      <g>
       <use xlink:href="#m1f9b0ef526" x="539.173286" y="528.821155" style="fill: #5a5758; stroke: #5a5758; stroke-width: 0.8"/>
      </g>
     </g>
     <g id="text_8">
      <!-- 1.4 -->
      <g style="fill: #5a5758" transform="translate(529.112078 546.241985) scale(0.14994 -0.14994)">
       <use xlink:href="#CMUBright-Roman-31"/>
       <use xlink:href="#CMUBright-Roman-2e" x="52.499985"/>
       <use xlink:href="#CMUBright-Roman-34" x="81.699982"/>
      </g>
     </g>
    </g>
    <g id="text_9">
     <!-- $x_1$ -->
     <g style="fill: #5a5758" transform="translate(311.561208 569.256452) scale(0.18 -0.18)">
      <defs>
       <path id="CMUBright-SemiBold-78" d="M 0 0 
L 1184 1562 
L 1184 1568 
L 38 3021 
L 698 3021 
L 1446 2022 
L 2163 3021 
L 2816 3021 
L 1709 1568 
L 1709 1562 
L 2931 0 
L 2272 0 
L 1446 1197 
L 1440 1197 
L 653 0 
L 0 0 
z
" transform="scale(0.015625)"/>
       <path id="CMUBright-SemiBold-31" d="M 570 3398 
L 570 3885 
Q 1459 3885 1914 4301 
L 2067 4301 
L 2067 480 
L 2893 480 
L 2893 0 
L 608 0 
L 608 480 
L 1446 480 
L 1446 3533 
Q 1062 3398 570 3398 
z
" transform="scale(0.015625)"/>
      </defs>
      <use xlink:href="#CMUBright-SemiBold-78" transform="translate(0 0.796875)"/>
      <use xlink:href="#CMUBright-SemiBold-31" transform="translate(46.626042 -13.364063) scale(0.7)"/>
     </g>
    </g>
   </g>
   <g id="matplotlib.axis_2">
    <g id="ytick_1">
     <g id="line2d_9">
      <defs>
       <path id="m7b51f9e22d" d="M 0 0 
L -3.5 0 
" style="stroke: #5a5758; stroke-width: 0.8"/>
      </defs>
      <g>
       <use xlink:href="#m7b51f9e22d" x="53.602657" y="516.821155" style="fill: #5a5758; stroke: #5a5758; stroke-width: 0.8"/>
      </g>
     </g>
     <g id="text_10">
      <!-- 0.0 -->
      <g style="fill: #5a5758" transform="translate(26.48024 522.03157) scale(0.14994 -0.14994)">
       <use xlink:href="#CMUBright-Roman-30"/>
       <use xlink:href="#CMUBright-Roman-2e" x="52.499985"/>
       <use xlink:href="#CMUBright-Roman-30" x="81.699982"/>
      </g>
     </g>
    </g>
    <g id="ytick_2">
     <g id="line2d_10">
      <g>
       <use xlink:href="#m7b51f9e22d" x="53.602657" y="449.168208" style="fill: #5a5758; stroke: #5a5758; stroke-width: 0.8"/>
      </g>
     </g>
     <g id="text_11">
      <!-- 0.2 -->
      <g style="fill: #5a5758" transform="translate(26.48024 454.378623) scale(0.14994 -0.14994)">
       <use xlink:href="#CMUBright-Roman-30"/>
       <use xlink:href="#CMUBright-Roman-2e" x="52.499985"/>
       <use xlink:href="#CMUBright-Roman-32" x="81.699982"/>
      </g>
     </g>
    </g>
    <g id="ytick_3">
     <g id="line2d_11">
      <g>
       <use xlink:href="#m7b51f9e22d" x="53.602657" y="381.515261" style="fill: #5a5758; stroke: #5a5758; stroke-width: 0.8"/>
      </g>
     </g>
     <g id="text_12">
      <!-- 0.4 -->
      <g style="fill: #5a5758" transform="translate(26.48024 386.725676) scale(0.14994 -0.14994)">
       <use xlink:href="#CMUBright-Roman-30"/>
       <use xlink:href="#CMUBright-Roman-2e" x="52.499985"/>
       <use xlink:href="#CMUBright-Roman-34" x="81.699982"/>
      </g>
     </g>
    </g>
    <g id="ytick_4">
     <g id="line2d_12">
      <g>
       <use xlink:href="#m7b51f9e22d" x="53.602657" y="313.862314" style="fill: #5a5758; stroke: #5a5758; stroke-width: 0.8"/>
      </g>
     </g>
     <g id="text_13">
      <!-- 0.6 -->
      <g style="fill: #5a5758" transform="translate(26.48024 319.072729) scale(0.14994 -0.14994)">
       <use xlink:href="#CMUBright-Roman-30"/>
       <use xlink:href="#CMUBright-Roman-2e" x="52.499985"/>
       <use xlink:href="#CMUBright-Roman-36" x="81.699982"/>
      </g>
     </g>
    </g>
    <g id="ytick_5">
     <g id="line2d_13">
      <g>
       <use xlink:href="#m7b51f9e22d" x="53.602657" y="246.209367" style="fill: #5a5758; stroke: #5a5758; stroke-width: 0.8"/>
      </g>
     </g>
     <g id="text_14">
      <!-- 0.8 -->
      <g style="fill: #5a5758" transform="translate(26.48024 251.419782) scale(0.14994 -0.14994)">
       <use xlink:href="#CMUBright-Roman-30"/>
       <use xlink:href="#CMUBright-Roman-2e" x="52.499985"/>
       <use xlink:href="#CMUBright-Roman-38" x="81.699982"/>
      </g>
     </g>
    </g>
    <g id="ytick_6">
     <g id="line2d_14">
      <g>
       <use xlink:href="#m7b51f9e22d" x="53.602657" y="178.55642" style="fill: #5a5758; stroke: #5a5758; stroke-width: 0.8"/>
      </g>
     </g>
     <g id="text_15">
      <!-- 1.0 -->
      <g style="fill: #5a5758" transform="translate(26.48024 183.766835) scale(0.14994 -0.14994)">
       <use xlink:href="#CMUBright-Roman-31"/>
       <use xlink:href="#CMUBright-Roman-2e" x="52.499985"/>
       <use xlink:href="#CMUBright-Roman-30" x="81.699982"/>
      </g>
     </g>
    </g>
    <g id="ytick_7">
     <g id="line2d_15">
      <g>
       <use xlink:href="#m7b51f9e22d" x="53.602657" y="110.903472" style="fill: #5a5758; stroke: #5a5758; stroke-width: 0.8"/>
      </g>
     </g>
     <g id="text_16">
      <!-- 1.2 -->
      <g style="fill: #5a5758" transform="translate(26.48024 116.113887) scale(0.14994 -0.14994)">
       <use xlink:href="#CMUBright-Roman-31"/>
       <use xlink:href="#CMUBright-Roman-2e" x="52.499985"/>
       <use xlink:href="#CMUBright-Roman-32" x="81.699982"/>
      </g>
     </g>
    </g>
    <g id="ytick_8">
     <g id="line2d_16">
      <g>
       <use xlink:href="#m7b51f9e22d" x="53.602657" y="43.250525" style="fill: #5a5758; stroke: #5a5758; stroke-width: 0.8"/>
      </g>
     </g>
     <g id="text_17">
      <!-- 1.4 -->
      <g style="fill: #5a5758" transform="translate(26.48024 48.46094) scale(0.14994 -0.14994)">
       <use xlink:href="#CMUBright-Roman-31"/>
       <use xlink:href="#CMUBright-Roman-2e" x="52.499985"/>
       <use xlink:href="#CMUBright-Roman-34" x="81.699982"/>
      </g>
     </g>
    </g>
    <g id="text_18">
     <!-- $x_2$ -->
     <g style="fill: #5a5758" transform="translate(3.00024 260.116041) scale(0.18 -0.18)">
      <defs>
       <path id="CMUBright-SemiBold-32" d="M 275 3373 
Q 602 4301 1581 4301 
Q 2240 4301 2630 3894 
Q 3021 3488 3021 2918 
Q 3021 2739 2957 2569 
Q 2893 2400 2822 2285 
Q 2752 2170 2573 2000 
Q 2394 1830 2298 1753 
Q 2202 1677 1952 1478 
Q 1773 1338 877 538 
L 3021 538 
L 3021 0 
L 333 0 
L 333 512 
Q 1158 1286 1574 1645 
Q 1984 1990 2182 2272 
Q 2381 2554 2381 2906 
Q 2381 3283 2134 3539 
Q 1888 3795 1491 3795 
Q 851 3795 627 2938 
L 275 3373 
z
" transform="scale(0.015625)"/>
      </defs>
      <use xlink:href="#CMUBright-SemiBold-78" transform="translate(0 0.796875)"/>
      <use xlink:href="#CMUBright-SemiBold-32" transform="translate(46.626042 -13.364063) scale(0.7)"/>
     </g>
    </g>
   </g>
   <g id="PathCollection_1">
    <path d="M 403.867392 178.55642 
L 403.867392 178.55642 
L 403.867392 178.55642 
L 403.867392 178.55642 
L 403.867392 178.55642 
z
" clip-path="url(#p749ca71050)" style="fill: none; stroke: #352a87; stroke-width: 2"/>
   </g>
   <g id="PathCollection_2">
    <path d="M 65.602657 415.341735 
L 65.602657 415.341735 
L 82.515893 414.04702 
L 99.42913 411.153695 
L 116.342367 406.525186 
L 133.255604 399.912115 
L 136.22936 398.428498 
L 150.16884 392.086034 
L 167.082077 382.108708 
L 167.937631 381.515261 
L 183.995314 371.021366 
L 192.160785 364.602024 
L 200.908551 357.997808 
L 212.645046 347.688787 
L 217.821788 343.247424 
L 230.679903 330.775551 
L 234.735024 326.872496 
L 247.002105 313.862314 
L 251.648261 308.896509 
L 262.039083 296.949077 
L 268.561498 289.271005 
L 276.026651 280.03584 
L 285.474735 267.8646 
L 289.062551 263.122604 
L 301.302195 246.209367 
L 302.387972 244.694749 
L 313.312736 229.29613 
L 319.301208 220.247548 
L 324.583045 212.382893 
L 335.123897 195.469656 
L 336.214445 193.702602 
L 345.82993 178.55642 
L 353.127682 165.826064 
L 355.669445 161.643183 
L 365.475338 144.729946 
L 370.040919 136.246481 
L 374.920447 127.816709 
L 383.907548 110.903472 
L 386.954155 104.888785 
L 392.984881 93.990236 
L 401.381294 77.076999 
L 403.867392 71.872926 
L 410.083589 60.163762 
L 418.066524 43.250525 
L 420.780629 37.235837 
L 426.352462 26.337289 
L 434.074407 9.424052 
" clip-path="url(#p749ca71050)" style="fill: none; stroke: #363296; stroke-width: 2"/>
    <path d="M 520.963322 9.424052 
L 513.961056 26.337289 
L 508.0249 43.250525 
L 505.346813 51.304448 
L 501.40064 60.163762 
L 494.607446 77.076999 
L 488.735696 93.990236 
L 488.433576 94.851558 
L 481.115692 110.903472 
L 474.558719 127.816709 
L 471.520339 136.139096 
L 467.436789 144.729946 
L 460.139166 161.643183 
L 454.607103 176.150903 
L 453.414988 178.55642 
L 445.357838 195.469656 
L 438.472605 212.382893 
L 437.693866 214.30141 
L 430.073528 229.29613 
L 422.648847 246.209367 
L 420.780629 250.582923 
L 414.133393 263.122604 
L 406.215434 280.03584 
L 403.867392 285.239913 
L 397.386535 296.949077 
L 389.046117 313.862314 
L 386.954155 318.23587 
L 379.696017 330.775551 
L 371.017207 347.688787 
L 370.040919 349.607304 
L 360.943952 364.602024 
L 353.127682 379.109744 
L 351.579722 381.515261 
L 341.026287 398.428498 
L 336.214445 406.750884 
L 330.390923 415.341735 
L 319.837363 432.254971 
L 319.301208 433.116294 
L 307.782226 449.168208 
L 302.387972 457.22213 
L 295.584536 466.081445 
L 285.474735 480.020652 
L 283.019162 482.994682 
L 269.481538 499.907918 
L 268.561498 501.069126 
L 254.552724 516.821155 
" clip-path="url(#p749ca71050)" style="fill: none; stroke: #363296; stroke-width: 2"/>
   </g>
   <g id="PathCollection_3">
    <path d="M 65.602657 369.576506 
L 82.515893 368.317432 
L 99.42913 365.294856 
L 101.882677 364.602024 
L 116.342367 360.857284 
L 133.255604 354.687368 
L 147.774269 347.688787 
L 150.16884 346.60314 
L 167.082077 337.190916 
L 176.536014 330.775551 
L 183.995314 325.909491 
L 199.556699 313.862314 
L 200.908551 312.843882 
L 217.821788 298.262605 
L 219.182623 296.949077 
L 234.735024 282.025633 
L 236.615579 280.03584 
L 251.648261 264.035818 
L 252.442463 263.122604 
L 267.067265 246.209367 
L 268.561498 244.463484 
L 280.780785 229.29613 
L 285.474735 223.308751 
L 293.683016 212.382893 
L 302.387972 200.329782 
L 305.813437 195.469656 
L 317.347028 178.55642 
L 319.301208 175.642315 
L 328.57963 161.643183 
L 336.214445 149.395667 
L 339.144465 144.729946 
L 349.414488 127.816709 
L 353.127682 121.455557 
L 359.407755 110.903472 
L 368.784115 93.990236 
L 370.040919 91.698765 
L 378.315501 77.076999 
L 386.954155 60.27635 
L 387.015312 60.163762 
L 396.138387 43.250525 
L 403.867392 27.332185 
L 404.384814 26.337289 
L 413.062492 9.424052 
" clip-path="url(#p749ca71050)" style="fill: none; stroke: #3639a6; stroke-width: 2"/>
    <path d="M 537.105515 9.424052 
L 530.59986 26.337289 
L 524.790598 43.250525 
L 522.26005 50.911088 
L 518.425521 60.163762 
L 511.903886 77.076999 
L 506.038529 93.990236 
L 505.346813 95.990726 
L 498.983129 110.903472 
L 492.493621 127.816709 
L 488.433576 139.112335 
L 485.939236 144.729946 
L 478.772277 161.643183 
L 472.345166 178.55642 
L 471.520339 180.738773 
L 464.772954 195.469656 
L 457.782942 212.382893 
L 454.607103 220.421405 
L 450.372312 229.29613 
L 442.814636 246.209367 
L 437.693866 258.573526 
L 435.430222 263.122604 
L 427.322165 280.03584 
L 420.780629 295.057465 
L 419.797824 296.949077 
L 411.178754 313.862314 
L 403.867392 329.780654 
L 403.326817 330.775551 
L 394.254185 347.688787 
L 386.954155 362.710412 
L 385.877103 364.602024 
L 376.418637 381.515261 
L 370.040919 393.87942 
L 367.319683 398.428498 
L 357.543159 415.341735 
L 353.127682 423.380246 
L 347.532628 432.254971 
L 337.495246 449.168208 
L 336.214445 451.350561 
L 326.389454 466.081445 
L 319.301208 477.377071 
L 315.30697 482.994682 
L 303.740416 499.907918 
L 302.387972 501.908409 
L 291.069923 516.821155 
" clip-path="url(#p749ca71050)" style="fill: none; stroke: #3639a6; stroke-width: 2"/>
   </g>
   <g id="PathCollection_4">
    <path d="M 65.602657 334.802512 
L 82.515893 333.618026 
L 98.8704 330.775551 
L 99.42913 330.685746 
L 116.342367 326.331043 
L 133.255604 320.185019 
L 146.537164 313.862314 
L 150.16884 312.217971 
L 167.082077 302.79758 
L 175.769077 296.949077 
L 183.995314 291.586203 
L 198.999753 280.03584 
L 200.908551 278.598964 
L 217.821788 264.022889 
L 218.757324 263.122604 
L 234.735024 247.820151 
L 236.259598 246.209367 
L 251.648261 229.872718 
L 252.149694 229.29613 
L 266.814455 212.382893 
L 268.561498 210.347318 
L 280.532487 195.469656 
L 285.474735 189.188417 
L 293.441748 178.55642 
L 302.387972 166.227144 
L 305.605578 161.643183 
L 317.17993 144.729946 
L 319.301208 141.582205 
L 328.380685 127.816709 
L 336.214445 115.329366 
L 338.975186 110.903472 
L 349.256627 93.990236 
L 353.127682 87.402874 
L 359.227297 77.076999 
L 368.66843 60.163762 
L 370.040919 57.679163 
L 378.138943 43.250525 
L 386.920496 26.337289 
L 386.954155 26.272664 
L 395.966318 9.424052 
" clip-path="url(#p749ca71050)" style="fill: none; stroke: #3341b6; stroke-width: 2"/>
    <path d="M 548.842369 9.424052 
L 543.073648 26.337289 
L 539.173286 38.445269 
L 537.275571 43.250525 
L 530.819741 60.163762 
L 524.934384 77.076999 
L 522.26005 85.037418 
L 518.615179 93.990236 
L 512.101518 110.903472 
L 506.134788 127.816709 
L 505.346813 130.061829 
L 499.183681 144.729946 
L 492.652012 161.643183 
L 488.433576 173.197284 
L 486.092272 178.55642 
L 478.959194 195.469656 
L 472.437473 212.382893 
L 471.520339 214.777688 
L 464.958988 229.29613 
L 457.917407 246.209367 
L 454.607103 254.478704 
L 450.537199 263.122604 
L 442.972155 280.03584 
L 437.693866 292.618024 
L 435.566488 296.949077 
L 427.489567 313.862314 
L 420.780629 329.082223 
L 419.911569 330.775551 
L 411.349056 347.688787 
L 403.867392 363.796632 
L 403.43469 364.602024 
L 394.424701 381.515261 
L 386.954155 396.73517 
L 385.999658 398.428498 
L 376.58705 415.341735 
L 370.040919 427.923918 
L 367.472591 432.254971 
L 357.70232 449.168208 
L 353.127682 457.437545 
L 347.717911 466.081445 
L 337.627838 482.994682 
L 336.214445 485.389476 
L 326.588723 499.907918 
L 319.301208 511.462019 
L 315.512588 516.821155 
" clip-path="url(#p749ca71050)" style="fill: none; stroke: #3341b6; stroke-width: 2"/>
   </g>
   <g id="PathCollection_5">
    <path d="M 65.602657 305.74396 
L 82.515893 304.633053 
L 99.42913 301.816789 
L 116.342367 297.224531 
L 117.080587 296.949077 
L 133.255604 291.222548 
L 150.16884 283.358083 
L 155.977579 280.03584 
L 167.082077 273.909786 
L 183.19229 263.122604 
L 183.995314 262.59933 
L 200.908551 249.839525 
L 205.107535 246.209367 
L 217.821788 235.349914 
L 224.125571 229.29613 
L 234.735024 219.148188 
L 241.144588 212.382893 
L 251.648261 201.251742 
L 256.676601 195.469656 
L 268.561498 181.636554 
L 271.038696 178.55642 
L 284.448567 161.643183 
L 285.474735 160.342289 
L 297.152951 144.729946 
L 302.387972 137.538491 
L 309.192884 127.816709 
L 319.301208 112.845043 
L 320.579501 110.903472 
L 331.59936 93.990236 
L 336.214445 86.665606 
L 342.168136 77.076999 
L 352.206602 60.163762 
L 353.127682 58.603662 
L 362.150296 43.250525 
L 370.040919 29.004905 
L 371.533461 26.337289 
L 380.855739 9.424052 
" clip-path="url(#p749ca71050)" style="fill: none; stroke: #2c4ac6; stroke-width: 2"/>
    <path d="M 559.044159 9.424052 
L 556.086523 18.849307 
L 553.257361 26.337289 
L 547.126664 43.250525 
L 541.459314 60.163762 
L 539.173286 67.168772 
L 535.312593 77.076999 
L 529.057047 93.990236 
L 523.260692 110.903472 
L 522.26005 113.846963 
L 516.641128 127.816709 
L 510.297561 144.729946 
L 505.346813 158.755557 
L 504.14052 161.643183 
L 497.205728 178.55642 
L 490.805163 195.469656 
L 488.433576 201.895028 
L 483.901645 212.382893 
L 476.97174 229.29613 
L 471.520339 243.459247 
L 470.283709 246.209367 
L 462.80856 263.122604 
L 455.90183 280.03584 
L 454.607103 283.24054 
L 448.211226 296.949077 
L 440.827799 313.862314 
L 437.693866 321.266849 
L 433.064144 330.775551 
L 425.209805 347.688787 
L 420.780629 357.65311 
L 417.24364 364.602024 
L 408.933843 381.515261 
L 403.867392 392.339733 
L 400.620916 398.428498 
L 391.878684 415.341735 
L 386.954155 425.306057 
L 383.063724 432.254971 
L 373.916161 449.168208 
L 370.040919 456.572743 
L 364.435557 466.081445 
L 354.909312 482.994682 
L 353.127682 486.199381 
L 344.59126 499.907918 
L 336.214445 514.071035 
L 334.395206 516.821155 
" clip-path="url(#p749ca71050)" style="fill: none; stroke: #2c4ac6; stroke-width: 2"/>
   </g>
   <g id="PathCollection_6">
    <path d="M 65.602657 280.03584 
L 65.602657 280.03584 
L 82.515893 278.989736 
L 99.42913 276.29837 
L 116.342367 271.90575 
L 133.255604 265.715143 
L 138.76758 263.122604 
L 150.16884 257.967034 
L 167.082077 248.431544 
L 170.407908 246.209367 
L 183.995314 237.357003 
L 194.524566 229.29613 
L 200.908551 224.49419 
L 214.950634 212.382893 
L 217.821788 209.93223 
L 232.904092 195.469656 
L 234.735024 193.720011 
L 249.111621 178.55642 
L 251.648261 175.871663 
L 264.021783 161.643183 
L 268.561498 156.368145 
L 277.914571 144.729946 
L 285.474735 135.155309 
L 290.960261 127.816709 
L 302.387972 112.138015 
L 303.251167 110.903472 
L 315.006341 93.990236 
L 319.301208 87.647772 
L 326.240846 77.076999 
L 336.214445 61.274851 
L 336.903103 60.163762 
L 347.322017 43.250525 
L 353.127682 33.43513 
L 357.290465 26.337289 
L 366.909112 9.424052 
" clip-path="url(#p749ca71050)" style="fill: none; stroke: #1d54d5; stroke-width: 2"/>
    <path d="M 567.502099 9.424052 
L 561.775141 26.337289 
L 556.415897 43.250525 
L 556.086523 44.28944 
L 550.151435 60.163762 
L 544.259457 77.076999 
L 539.173286 92.582857 
L 538.627756 93.990236 
L 532.140488 110.903472 
L 526.112696 127.816709 
L 522.26005 139.096747 
L 520.004911 144.729946 
L 513.420872 161.643183 
L 507.28475 178.55642 
L 505.346813 183.997041 
L 500.59752 195.469656 
L 493.947833 212.382893 
L 488.433576 227.258854 
L 487.556985 229.29613 
L 480.368681 246.209367 
L 473.677157 263.122604 
L 471.520339 268.6815 
L 466.454877 280.03584 
L 459.279244 296.949077 
L 454.607103 308.471599 
L 452.100942 313.862314 
L 444.436876 330.775551 
L 437.693866 346.651771 
L 437.190669 347.688787 
L 429.043462 364.602024 
L 421.453207 381.515261 
L 420.780629 383.019144 
L 412.983851 398.428498 
L 404.965431 415.341735 
L 403.867392 417.674595 
L 396.135627 432.254971 
L 387.701124 449.168208 
L 386.954155 450.672091 
L 378.369229 466.081445 
L 370.040919 481.957666 
L 369.431007 482.994682 
L 359.546017 499.907918 
L 353.127682 511.43044 
L 349.777435 516.821155 
" clip-path="url(#p749ca71050)" style="fill: none; stroke: #1d54d5; stroke-width: 2"/>
   </g>
   <g id="PathCollection_7">
    <path d="M 65.602657 257.121132 
L 82.515893 256.06858 
L 99.42913 253.328402 
L 116.342367 248.84609 
L 123.497234 246.209367 
L 133.255604 242.762083 
L 150.16884 235.014745 
L 160.243512 229.29613 
L 167.082077 225.525663 
L 183.995314 214.345334 
L 186.562157 212.382893 
L 200.908551 201.593796 
L 208.015734 195.469656 
L 217.821788 187.101983 
L 226.738897 178.55642 
L 234.735024 170.918184 
L 243.531201 161.643183 
L 251.648261 153.056568 
L 258.889311 144.729946 
L 268.561498 133.498672 
L 273.126462 127.816709 
L 285.474735 112.191632 
L 286.437038 110.903472 
L 299.004734 93.990236 
L 302.387972 89.357948 
L 310.959726 77.076999 
L 319.301208 64.773312 
L 322.323864 60.163762 
L 333.214466 43.250525 
L 336.214445 38.51051 
L 343.737727 26.337289 
L 353.127682 10.48745 
L 353.75026 9.424052 
" clip-path="url(#p749ca71050)" style="fill: none; stroke: #0a5fdf; stroke-width: 2"/>
    <path d="M 572.99976 17.062288 
L 569.652067 26.337289 
L 563.786503 43.250525 
L 558.283188 60.163762 
L 556.086523 67.063656 
L 552.358454 77.076999 
L 546.322781 93.990236 
L 540.655583 110.903472 
L 539.173286 115.384942 
L 534.394618 127.816709 
L 528.216904 144.729946 
L 522.407399 161.643183 
L 522.26005 162.071316 
L 515.710561 178.55642 
L 509.417411 195.469656 
L 505.346813 206.855692 
L 503.067017 212.382893 
L 496.259581 229.29613 
L 489.87412 246.209367 
L 488.433576 250.068538 
L 482.855105 263.122604 
L 475.995395 280.03584 
L 471.520339 291.53242 
L 469.111449 296.949077 
L 461.764583 313.862314 
L 454.868238 330.775551 
L 454.607103 331.415762 
L 447.085139 347.688787 
L 439.746116 364.602024 
L 437.693866 369.406676 
L 431.850556 381.515261 
L 424.069162 398.428498 
L 420.780629 405.763459 
L 415.945825 415.341735 
L 407.728127 432.254971 
L 403.867392 440.438796 
L 399.248458 449.168208 
L 390.604762 466.081445 
L 386.954155 473.416406 
L 381.628372 482.994682 
L 372.570849 499.907918 
L 370.040919 504.71257 
L 362.945802 516.821155 
" clip-path="url(#p749ca71050)" style="fill: none; stroke: #0a5fdf; stroke-width: 2"/>
   </g>
   <g id="PathCollection_8">
    <path d="M 65.602657 235.95892 
L 82.515893 234.90603 
L 99.42913 232.139214 
L 110.097854 229.29613 
L 116.342367 227.705244 
L 133.255604 221.700365 
L 150.16884 213.846539 
L 152.752329 212.382893 
L 167.082077 204.483298 
L 180.638561 195.469656 
L 183.995314 193.283583 
L 200.908551 180.465644 
L 203.126088 178.55642 
L 217.821788 166.01929 
L 222.390575 161.643183 
L 234.735024 149.855169 
L 239.596896 144.729946 
L 251.648261 131.987184 
L 255.275001 127.816709 
L 268.561498 112.397648 
L 269.761624 110.903472 
L 283.27361 93.990236 
L 285.474735 91.208975 
L 296.021332 77.076999 
L 302.387972 68.367188 
L 308.109599 60.163762 
L 319.301208 43.673356 
L 319.578195 43.250525 
L 330.631513 26.337289 
L 336.214445 17.526201 
L 341.215818 9.424052 
" clip-path="url(#p749ca71050)" style="fill: none; stroke: #0266e1; stroke-width: 2"/>
    <path d="M 572.99976 38.125302 
L 571.157109 43.250525 
L 565.208634 60.163762 
L 559.61122 77.076999 
L 556.086523 88.107648 
L 553.90443 93.990236 
L 547.782009 110.903472 
L 542.017019 127.816709 
L 539.173286 136.384732 
L 535.976382 144.729946 
L 529.706436 161.643183 
L 523.794406 178.55642 
L 522.26005 183.00051 
L 517.321485 195.469656 
L 510.9292 212.382893 
L 505.346813 227.947222 
L 504.792193 229.29613 
L 497.891059 246.209367 
L 491.398531 263.122604 
L 488.433576 271.042795 
L 484.601272 280.03584 
L 477.636546 296.949077 
L 471.520339 312.617168 
L 470.968127 313.862314 
L 463.51868 330.775551 
L 456.505845 347.688787 
L 454.607103 352.332444 
L 448.949034 364.602024 
L 441.49223 381.515261 
L 437.693866 390.387115 
L 433.821992 398.428498 
L 425.920549 415.341735 
L 420.780629 426.781163 
L 418.023421 432.254971 
L 409.681791 449.168208 
L 403.867392 461.468744 
L 401.431399 466.081445 
L 392.657715 482.994682 
L 386.954155 494.43411 
L 383.915828 499.907918 
L 374.719716 516.821155 
" clip-path="url(#p749ca71050)" style="fill: none; stroke: #0266e1; stroke-width: 2"/>
   </g>
   <g id="PathCollection_9">
    <path d="M 65.602657 216.248776 
L 82.515893 215.199747 
L 99.42913 212.421999 
L 99.576402 212.382893 
L 116.342367 208.115932 
L 133.255604 202.062952 
L 147.411944 195.469656 
L 150.16884 194.224332 
L 167.082077 184.86305 
L 176.579247 178.55642 
L 183.995314 173.727245 
L 199.851185 161.643183 
L 200.908551 160.848353 
L 217.821788 146.383712 
L 219.549178 144.729946 
L 234.735024 130.232886 
L 237.027567 127.816709 
L 251.648261 112.36339 
L 252.917834 110.903472 
L 267.557047 93.990236 
L 268.561498 92.825718 
L 281.205383 77.076999 
L 285.474735 71.685612 
L 294.069843 60.163762 
L 302.387972 48.792716 
L 306.251 43.250525 
L 317.8245 26.337289 
L 319.301208 24.165212 
L 328.941564 9.424052 
" clip-path="url(#p749ca71050)" style="fill: none; stroke: #046ce0; stroke-width: 2"/>
    <path d="M 572.99976 57.747585 
L 572.134079 60.163762 
L 566.142215 77.076999 
L 560.48717 93.990236 
L 556.086523 107.717183 
L 554.908436 110.903472 
L 548.739793 127.816709 
L 542.914375 144.729946 
L 539.173286 155.967215 
L 537.005473 161.643183 
L 530.684586 178.55642 
L 524.708034 195.469656 
L 522.26005 202.540002 
L 518.372382 212.382893 
L 511.922742 229.29613 
L 505.813419 246.209367 
L 505.346813 247.503276 
L 498.958575 263.122604 
L 492.400934 280.03584 
L 488.433576 290.606613 
L 485.737483 296.949077 
L 478.713188 313.862314 
L 472.0641 330.775551 
L 471.520339 332.161882 
L 464.665896 347.688787 
L 457.581627 364.602024 
L 454.607103 371.860818 
L 450.164295 381.515261 
L 442.637932 398.428498 
L 437.693866 409.952432 
L 435.104103 415.341735 
L 427.133871 432.254971 
L 420.780629 446.367405 
L 419.372454 449.168208 
L 410.961055 466.081445 
L 403.867392 481.06174 
L 402.848331 482.994682 
L 394.001588 499.907918 
L 386.954155 514.020352 
L 385.4019 516.821155 
" clip-path="url(#p749ca71050)" style="fill: none; stroke: #046ce0; stroke-width: 2"/>
   </g>
   <g id="PathCollection_10">
    <path d="M 65.602657 197.755229 
L 82.515893 196.71294 
L 90.120892 195.469656 
L 99.42913 194.014943 
L 116.342367 189.695406 
L 133.255604 183.621346 
L 144.150111 178.55642 
L 150.16884 175.838221 
L 167.082077 166.436774 
L 174.308936 161.643183 
L 183.995314 155.336232 
L 197.923776 144.729946 
L 200.908551 142.486532 
L 217.821788 127.959945 
L 217.971462 127.816709 
L 234.735024 111.817702 
L 235.602648 110.903472 
L 251.612243 93.990236 
L 251.648261 93.952192 
L 266.323162 77.076999 
L 268.561498 74.483052 
L 280.05564 60.163762 
L 285.474735 53.324111 
L 292.986671 43.250525 
L 302.387971 30.407319 
L 305.223252 26.337289 
L 316.854076 9.424052 
" clip-path="url(#p749ca71050)" style="fill: none; stroke: #0971de; stroke-width: 2"/>
    <path d="M 572.99976 76.16277 
L 572.67321 77.076999 
L 566.666227 93.990236 
L 560.980387 110.903472 
L 556.086523 126.124246 
L 555.462566 127.816709 
L 549.276771 144.729946 
L 543.418485 161.643183 
L 539.173286 174.359766 
L 537.574765 178.55642 
L 531.232731 195.469656 
L 525.219818 212.382893 
L 522.26005 220.909797 
L 518.955821 229.29613 
L 512.479227 246.209367 
L 506.328736 263.122604 
L 505.346813 265.839237 
L 499.553353 280.03584 
L 492.961446 296.949077 
L 488.433576 308.985664 
L 486.365154 313.862314 
L 479.314249 330.775551 
L 472.622487 347.688787 
L 471.520339 350.493055 
L 465.303906 364.602024 
L 458.181405 381.515261 
L 454.607103 390.220669 
L 450.837047 398.428498 
L 443.276376 415.341735 
L 437.693866 428.329653 
L 435.810942 432.254971 
L 427.80918 449.168208 
L 420.780629 464.753687 
L 420.114168 466.081445 
L 411.672251 482.994682 
L 403.867392 499.450804 
L 403.626763 499.907918 
L 394.748208 516.821155 
" clip-path="url(#p749ca71050)" style="fill: none; stroke: #0971de; stroke-width: 2"/>
   </g>
   <g id="PathCollection_11">
    <path d="M 65.602657 180.291111 
L 82.515893 179.257515 
L 86.822659 178.55642 
L 99.42913 176.590152 
L 116.342367 172.268787 
L 133.255604 166.193445 
L 143.059038 161.643183 
L 150.16884 158.4328 
L 167.082077 149.022646 
L 173.560383 144.729946 
L 183.995314 137.936181 
L 197.294481 127.816709 
L 200.908551 125.100593 
L 217.439794 110.903472 
L 217.821788 110.57782 
L 234.735024 94.423908 
L 235.146664 93.990236 
L 251.183208 77.076999 
L 251.648261 76.585936 
L 265.929171 60.163762 
L 268.561498 57.114381 
L 279.688209 43.250525 
L 285.474735 35.950629 
L 292.641067 26.337289 
L 302.387972 13.02992 
L 304.898618 9.424052 
" clip-path="url(#p749ca71050)" style="fill: none; stroke: #0e76dc; stroke-width: 2"/>
    <path d="M 572.99976 93.556563 
L 572.845284 93.990236 
L 566.843496 110.903472 
L 561.146724 127.816709 
L 556.086523 143.513361 
L 555.639167 144.729946 
L 549.457175 161.643183 
L 543.586466 178.55642 
L 539.173286 191.743593 
L 537.757427 195.469656 
L 531.415852 212.382893 
L 525.38757 229.29613 
L 522.26005 238.285791 
L 519.145034 246.209367 
L 512.663727 263.122604 
L 506.49355 280.03584 
L 505.346813 283.201865 
L 499.747948 296.949077 
L 493.144587 313.862314 
L 488.433576 326.359911 
L 486.564397 330.775551 
L 479.510913 347.688787 
L 472.79975 364.602024 
L 471.520339 367.851365 
L 465.51049 381.515261 
L 458.374366 398.428498 
L 454.607103 407.587715 
L 451.05146 415.341735 
L 443.482393 432.254971 
L 437.693866 445.699707 
L 436.032712 449.168208 
L 428.026647 466.081445 
L 420.780629 482.124147 
L 420.344316 482.994682 
L 411.900472 499.907918 
L 403.867392 516.821155 
" clip-path="url(#p749ca71050)" style="fill: none; stroke: #0e76dc; stroke-width: 2"/>
   </g>
   <g id="PathCollection_12">
    <path d="M 65.602657 163.705773 
L 82.515893 162.682168 
L 88.922905 161.643183 
L 99.42913 160.007443 
L 116.342367 155.694424 
L 133.255604 149.632334 
L 143.833263 144.729946 
L 150.16884 141.869619 
L 167.082077 132.473977 
L 174.117046 127.816709 
L 183.995314 121.385863 
L 197.780824 110.903472 
L 200.908551 108.553088 
L 217.821788 94.036757 
L 217.870435 93.990236 
L 234.735024 77.902035 
L 235.518271 77.076999 
L 251.54089 60.163762 
L 251.648261 60.050416 
L 266.257602 43.250525 
L 268.561498 40.582522 
L 279.992568 26.337289 
L 285.474735 19.424355 
L 292.927277 9.424052 
" clip-path="url(#p749ca71050)" style="fill: none; stroke: #117bd9; stroke-width: 2"/>
    <path d="M 572.99976 110.078437 
L 572.706605 110.903472 
L 566.724623 127.816709 
L 561.031671 144.729946 
L 556.086523 160.033133 
L 555.495864 161.643183 
L 549.332793 178.55642 
L 543.464884 195.469656 
L 539.173286 208.264888 
L 537.611886 212.382893 
L 531.286464 229.29613 
L 525.258521 246.209367 
L 522.26005 254.810293 
L 518.998717 263.122604 
L 512.529007 280.03584 
L 506.355333 296.949077 
L 505.346813 299.728247 
L 499.600791 313.862314 
L 493.002901 330.775551 
L 488.433576 342.874628 
L 486.399338 347.688787 
L 479.360831 364.602024 
L 472.647758 381.515261 
L 471.520339 384.373836 
L 465.348357 398.428498 
L 458.216906 415.341735 
L 454.607103 424.104123 
L 450.875148 432.254971 
L 443.316785 449.168208 
L 437.693866 462.208559 
L 435.841699 466.081445 
L 427.851271 482.994682 
L 420.780629 498.62708 
L 420.139527 499.907918 
L 411.714624 516.821155 
" clip-path="url(#p749ca71050)" style="fill: none; stroke: #117bd9; stroke-width: 2"/>
   </g>
   <g id="PathCollection_13">
    <path d="M 65.602657 147.876595 
L 82.515893 146.863813 
L 95.720783 144.729946 
L 99.42913 144.153531 
L 116.342367 139.856364 
L 133.255604 133.81818 
L 146.222068 127.816709 
L 150.16884 126.035118 
L 167.082077 116.67112 
L 175.801607 110.903472 
L 183.995314 105.569667 
L 199.232999 93.990236 
L 200.908551 92.731223 
L 217.821788 78.264671 
L 219.064119 77.076999 
L 234.735024 62.130418 
L 236.602343 60.163762 
L 251.648261 44.280498 
L 252.543935 43.250525 
L 267.211911 26.337289 
L 268.561498 24.7749 
L 280.878077 9.424052 
" clip-path="url(#p749ca71050)" style="fill: none; stroke: #1480d6; stroke-width: 2"/>
    <path d="M 572.99976 125.850054 
L 572.302523 127.816709 
L 566.350822 144.729946 
L 560.672652 161.643183 
L 556.086523 175.804585 
L 555.07912 178.55642 
L 548.945851 195.469656 
L 543.092083 212.382893 
L 539.173286 224.042894 
L 537.185359 229.29613 
L 530.887472 246.209367 
L 524.871635 263.122604 
L 522.26005 270.59968 
L 518.564464 280.03584 
L 512.118303 296.949077 
L 505.953356 313.862314 
L 505.346813 315.530884 
L 499.159466 330.775551 
L 492.579608 347.688787 
L 488.433576 358.64837 
L 485.921912 364.602024 
L 478.911195 381.515261 
L 472.209376 398.428498 
L 471.520339 400.172912 
L 464.868623 415.341735 
L 457.755461 432.254971 
L 454.607103 439.886154 
L 450.363049 449.168208 
L 442.829466 466.081445 
L 437.693866 477.975269 
L 435.296502 482.994682 
L 427.336302 499.907918 
L 420.780629 514.383255 
L 419.561856 516.821155 
" clip-path="url(#p749ca71050)" style="fill: none; stroke: #1480d6; stroke-width: 2"/>
   </g>
   <g id="PathCollection_14">
    <path d="M 65.602657 132.702755 
L 82.515893 131.701292 
L 99.42913 128.984709 
L 103.886265 127.816709 
L 116.342367 124.658777 
L 133.255604 118.652268 
L 150.017739 110.903472 
L 150.16884 110.835274 
L 167.082077 101.515508 
L 178.467477 93.990236 
L 183.995314 90.392045 
L 200.908551 77.562401 
L 201.474277 77.076999 
L 217.821788 63.144296 
L 220.940366 60.163762 
L 234.735024 47.009022 
L 238.304159 43.250525 
L 251.648261 29.167148 
L 254.109128 26.337289 
L 268.561498 9.606078 
L 268.707544 9.424052 
" clip-path="url(#p749ca71050)" style="fill: none; stroke: #1485d4; stroke-width: 2"/>
    <path d="M 572.99976 140.971449 
L 571.669972 144.729946 
L 565.755996 161.643183 
L 560.100736 178.55642 
L 556.086523 190.927271 
L 554.426818 195.469656 
L 548.331117 212.382893 
L 542.499925 229.29613 
L 539.173286 239.175844 
L 536.516422 246.209367 
L 530.254266 263.122604 
L 524.259341 280.03584 
L 522.26005 285.750046 
L 517.881273 296.949077 
L 511.46738 313.862314 
L 505.346813 330.699707 
L 505.31603 330.775551 
L 498.463113 347.688787 
L 491.910587 364.602024 
L 488.433576 373.778849 
L 485.174632 381.515261 
L 478.201002 398.428498 
L 471.520339 415.341735 
L 471.520339 415.341735 
L 464.113372 432.254971 
L 457.028607 449.168208 
L 454.607103 455.029805 
L 449.560265 466.081445 
L 442.061793 482.994682 
L 437.693866 493.097919 
L 434.445131 499.907918 
L 426.525782 516.821155 
" clip-path="url(#p749ca71050)" style="fill: none; stroke: #1485d4; stroke-width: 2"/>
   </g>
   <g id="PathCollection_15">
    <path d="M 572.99976 155.525629 
L 570.839339 161.643183 
L 564.968292 178.55642 
L 559.341931 195.469656 
L 556.086523 205.483837 
L 553.57015 212.382893 
L 547.51748 229.29613 
L 541.715101 246.209367 
L 539.173286 253.745391 
L 535.636898 263.122604 
L 529.416307 280.03584 
L 523.448848 296.949077 
L 522.26005 300.341435 
L 516.981405 313.862314 
L 510.606081 330.775551 
L 505.346813 345.220761 
L 504.346617 347.688787 
L 497.544225 364.602024 
L 491.025869 381.515261 
L 488.433576 388.347318 
L 484.192628 398.428498 
L 477.262765 415.341735 
L 471.520339 429.859534 
L 470.471284 432.254971 
L 463.11757 449.168208 
L 456.068659 466.081445 
L 454.607103 469.61504 
L 448.504164 482.994682 
L 441.048328 499.907918 
L 437.693866 507.658035 
L 433.327295 516.821155 
" clip-path="url(#p749ca71050)" style="fill: none; stroke: #128bd3; stroke-width: 2"/>
    <path d="M 65.602657 118.100595 
L 82.515893 117.110703 
L 99.42913 114.41678 
L 112.862577 110.903472 
L 116.342367 110.021769 
L 133.255604 104.052541 
L 150.16884 96.286253 
L 154.257488 93.990236 
L 167.082077 86.925213 
L 181.992413 77.076999 
L 183.995314 75.773344 
L 200.908551 63.023769 
L 204.243168 60.163762 
L 217.821788 48.592259 
L 223.412355 43.250525 
L 234.735024 32.454842 
L 240.545078 26.337289 
L 251.648261 14.621536 
L 256.168022 9.424052 
" clip-path="url(#p749ca71050)" style="fill: none; stroke: #128bd3; stroke-width: 2"/>
   </g>
   <g id="PathCollection_16">
    <path d="M 572.99976 169.582049 
L 569.835848 178.55642 
L 564.011274 195.469656 
L 558.418175 212.382893 
L 556.086523 219.543462 
L 552.535035 229.29613 
L 546.529144 246.209367 
L 540.76014 263.122604 
L 539.173286 267.819964 
L 534.573273 280.03584 
L 528.39831 296.949077 
L 522.463157 313.862314 
L 522.26005 314.441058 
L 515.891777 330.775551 
L 509.559499 347.688787 
L 505.346813 359.242686 
L 503.177862 364.602024 
L 496.429999 381.515261 
L 489.950786 398.428498 
L 488.433576 402.421901 
L 483.00519 415.341735 
L 476.1238 432.254971 
L 471.520339 443.878472 
L 469.206533 449.168208 
L 461.910504 466.081445 
L 454.90289 482.994682 
L 454.607103 483.709003 
L 447.225974 499.907918 
L 439.818173 516.821155 
" clip-path="url(#p749ca71050)" style="fill: none; stroke: #0e91d2; stroke-width: 2"/>
    <path d="M 65.602657 104.000111 
L 82.515893 103.02187 
L 99.42913 100.35184 
L 116.342367 95.956707 
L 121.780761 93.990236 
L 133.255604 89.950232 
L 150.16884 82.242511 
L 159.375173 77.076999 
L 167.082077 72.831571 
L 183.995314 61.708282 
L 186.029998 60.163762 
L 200.908551 48.985713 
L 207.59794 43.250525 
L 217.821788 34.538825 
L 226.407394 26.337289 
L 234.735024 18.398422 
L 243.259263 9.424052 
" clip-path="url(#p749ca71050)" style="fill: none; stroke: #0e91d2; stroke-width: 2"/>
   </g>
   <g id="PathCollection_17">
    <path d="M 572.99976 183.199269 
L 568.680617 195.469656 
L 562.904816 212.382893 
L 557.348101 229.29613 
L 556.086523 233.164495 
L 551.343187 246.209367 
L 545.386536 263.122604 
L 539.654192 280.03584 
L 539.173286 281.457342 
L 533.347771 296.949077 
L 527.221167 313.862314 
L 522.26005 327.998763 
L 521.177473 330.775551 
L 514.635024 347.688787 
L 508.348892 364.602024 
L 505.346813 372.824665 
L 501.834129 381.515261 
L 495.143375 398.428498 
L 488.706849 415.341735 
L 488.433576 416.060137 
L 481.636925 432.254971 
L 474.807229 449.168208 
L 471.520339 457.4577 
L 467.752349 466.081445 
L 460.516893 482.994682 
L 454.607103 497.266708 
L 453.40362 499.907918 
L 445.751991 516.821155 
" clip-path="url(#p749ca71050)" style="fill: none; stroke: #0a97d1; stroke-width: 2"/>
    <path d="M 65.602657 90.342283 
L 82.515893 89.375647 
L 99.42913 86.730246 
L 116.342367 82.374623 
L 131.012035 77.076999 
L 133.255604 76.287276 
L 150.16884 68.641313 
L 165.289946 60.163762 
L 167.082077 59.176608 
L 183.995314 48.143042 
L 190.44359 43.250525 
L 200.908551 35.388879 
L 211.469696 26.337289 
L 217.821788 20.925219 
L 229.864151 9.424052 
" clip-path="url(#p749ca71050)" style="fill: none; stroke: #0a97d1; stroke-width: 2"/>
   </g>
   <g id="PathCollection_18">
    <path d="M 572.99976 196.427009 
L 567.391458 212.382893 
L 561.6658 229.29613 
L 556.147638 246.209367 
L 556.086523 246.396495 
L 550.012933 263.122604 
L 544.107021 280.03584 
L 539.173286 294.619394 
L 538.297232 296.949077 
L 531.979176 313.862314 
L 525.902658 330.775551 
L 522.26005 341.141018 
L 519.71055 347.688787 
L 513.230321 364.602024 
L 506.992384 381.515261 
L 505.346813 386.016883 
L 500.335964 398.428498 
L 493.703835 415.341735 
L 488.433576 429.196631 
L 487.150051 432.254971 
L 480.108665 449.168208 
L 473.332757 466.081445 
L 471.520339 470.647376 
L 466.130896 482.994682 
L 458.957745 499.907918 
L 454.607103 510.403739 
L 451.68581 516.821155 
" clip-path="url(#p749ca71050)" style="fill: none; stroke: #079ccf; stroke-width: 2"/>
    <path d="M 65.602657 77.076999 
L 65.602657 77.076999 
L 82.515893 76.121833 
L 99.42913 73.501425 
L 116.342367 69.186049 
L 133.255604 63.125224 
L 139.681741 60.163762 
L 150.16884 55.432083 
L 167.082077 46.014556 
L 171.272041 43.250525 
L 183.995314 34.970019 
L 195.378174 26.337289 
L 200.908551 22.182935 
L 215.79993 9.424052 
" clip-path="url(#p749ca71050)" style="fill: none; stroke: #079ccf; stroke-width: 2"/>
   </g>
   <g id="PathCollection_19">
    <path d="M 572.99976 209.191716 
L 571.8781 212.382893 
L 565.983499 229.29613 
L 560.308656 246.209367 
L 556.086523 259.137163 
L 554.639329 263.122604 
L 548.55985 280.03584 
L 542.70545 296.949077 
L 539.173286 307.375739 
L 536.737186 313.862314 
L 530.483476 330.775551 
L 524.458011 347.688787 
L 522.26005 353.935546 
L 518.11175 364.602024 
L 511.694015 381.515261 
L 505.505524 398.428498 
L 505.346813 398.862171 
L 498.700821 415.341735 
L 492.128033 432.254971 
L 488.433576 441.956372 
L 485.410101 449.168208 
L 478.438158 466.081445 
L 471.717273 482.994682 
L 471.520339 483.490308 
L 464.361011 499.907918 
L 457.251027 516.821155 
" clip-path="url(#p749ca71050)" style="fill: none; stroke: #06a1cc; stroke-width: 2"/>
    <path d="M 65.602657 64.312292 
L 82.515893 63.332996 
L 99.42913 60.639648 
L 101.257922 60.163762 
L 116.342367 56.347342 
L 133.255604 50.345216 
L 148.664104 43.250525 
L 150.16884 42.571668 
L 167.082077 33.241943 
L 177.554521 26.337289 
L 183.995314 22.145713 
L 200.776585 9.424052 
" clip-path="url(#p749ca71050)" style="fill: none; stroke: #06a1cc; stroke-width: 2"/>
   </g>
   <g id="PathCollection_20">
    <path d="M 572.99976 221.608295 
L 570.301198 229.29613 
L 564.469674 246.209367 
L 558.845794 263.122604 
L 556.086523 271.560037 
L 553.01268 280.03584 
L 546.997265 296.949077 
L 541.194601 313.862314 
L 539.173286 319.821635 
L 535.064293 330.775551 
L 528.87436 347.688787 
L 522.900341 364.602024 
L 522.26005 366.419668 
L 516.395646 381.515261 
L 510.040132 398.428498 
L 505.346813 411.25282 
L 503.697807 415.341735 
L 496.943617 432.254971 
L 490.430288 449.168208 
L 488.433576 454.405979 
L 483.543559 466.081445 
L 476.640621 482.994682 
L 471.520339 495.880957 
L 469.764278 499.907918 
L 462.458805 516.821155 
" clip-path="url(#p749ca71050)" style="fill: none; stroke: #06a5c8; stroke-width: 2"/>
    <path d="M 65.602657 51.8609 
L 82.515893 50.8946 
L 99.42913 48.231567 
L 116.342367 43.842176 
L 117.98445 43.250525 
L 133.255604 37.877367 
L 150.16884 30.158284 
L 156.993723 26.337289 
L 167.082077 20.780954 
L 183.995314 9.640547 
L 184.280896 9.424052 
" clip-path="url(#p749ca71050)" style="fill: none; stroke: #06a5c8; stroke-width: 2"/>
   </g>
   <g id="PathCollection_21">
    <path d="M 572.99976 233.746982 
L 568.630691 246.209367 
L 562.861103 263.122604 
L 557.287944 280.03584 
L 556.086523 283.705065 
L 551.289079 296.949077 
L 545.336639 313.862314 
L 539.58553 330.775551 
L 539.173286 331.989532 
L 533.290709 347.688787 
L 527.163623 364.602024 
L 522.26005 378.522163 
L 521.097277 381.515261 
L 514.57474 398.428498 
L 508.280772 415.341735 
L 505.346813 423.350122 
L 501.759202 432.254971 
L 495.07718 449.168208 
L 488.622982 466.081445 
L 488.433576 466.577812 
L 481.563968 482.994682 
L 474.729175 499.907918 
L 471.520339 507.97607 
L 467.666583 516.821155 
" clip-path="url(#p749ca71050)" style="fill: none; stroke: #07a9c3; stroke-width: 2"/>
    <path d="M 65.602657 39.689844 
L 82.515893 38.736118 
L 99.42913 36.10274 
L 116.342367 31.761734 
L 131.412884 26.337289 
L 133.255604 25.689046 
L 150.16884 18.049054 
L 165.584029 9.424052 
" clip-path="url(#p749ca71050)" style="fill: none; stroke: #07a9c3; stroke-width: 2"/>
   </g>
   <g id="PathCollection_22">
    <path d="M 572.99976 245.61592 
L 572.791709 246.209367 
L 566.876413 263.122604 
L 561.167405 280.03584 
L 556.086523 295.553217 
L 555.580894 296.949077 
L 549.478678 313.862314 
L 543.587893 330.775551 
L 539.173286 343.77576 
L 537.707059 347.688787 
L 531.426904 364.602024 
L 525.361475 381.515261 
L 522.26005 390.309998 
L 519.109347 398.428498 
L 512.659817 415.341735 
L 506.426432 432.254971 
L 505.346813 435.198914 
L 499.724073 449.168208 
L 493.112601 466.081445 
L 488.433576 478.343542 
L 486.487315 482.994682 
L 479.483005 499.907918 
L 472.715195 516.821155 
" clip-path="url(#p749ca71050)" style="fill: none; stroke: #0aacbe; stroke-width: 2"/>
    <path d="M 65.602657 27.820906 
L 82.515893 26.846321 
L 85.722527 26.337289 
L 99.42913 24.224577 
L 116.342367 19.930782 
L 133.255604 13.902818 
L 142.998141 9.424052 
" clip-path="url(#p749ca71050)" style="fill: none; stroke: #0aacbe; stroke-width: 2"/>
   </g>
   <g id="PathCollection_23">
    <path d="M 572.99976 257.102638 
L 570.891722 263.122604 
L 565.046865 280.03584 
L 559.396935 296.949077 
L 556.086523 307.047653 
L 553.620716 313.862314 
L 547.590256 330.775551 
L 541.75965 347.688787 
L 539.173286 355.296897 
L 535.690186 364.602024 
L 529.481944 381.515261 
L 523.476806 398.428498 
L 522.26005 401.875382 
L 517.038861 415.341735 
L 510.660232 432.254971 
L 505.346813 446.743785 
L 504.370965 449.168208 
L 497.60222 466.081445 
L 491.059518 482.994682 
L 488.433576 489.870126 
L 484.236835 499.907918 
L 477.310793 516.821155 
" clip-path="url(#p749ca71050)" style="fill: none; stroke: #10afb8; stroke-width: 2"/>
    <path d="M 65.602657 16.304013 
L 82.515893 15.342967 
L 99.42913 12.679706 
L 111.990863 9.424052 
" clip-path="url(#p749ca71050)" style="fill: none; stroke: #10afb8; stroke-width: 2"/>
   </g>
   <g id="PathCollection_24">
    <path d="M 572.99976 268.390661 
L 568.926326 280.03584 
L 563.149438 296.949077 
L 557.556993 313.862314 
L 556.086523 318.343214 
L 551.59262 330.775551 
L 545.631451 347.688787 
L 539.859443 364.602024 
L 539.173286 366.618391 
L 533.602413 381.515261 
L 527.46372 398.428498 
L 522.26005 413.169697 
L 521.417905 415.341735 
L 514.894032 432.254971 
L 508.584139 449.168208 
L 505.346813 457.987652 
L 502.091839 466.081445 
L 495.402161 482.994682 
L 488.926348 499.907918 
L 488.433576 501.197037 
L 481.906391 516.821155 
" clip-path="url(#p749ca71050)" style="fill: none; stroke: #19b2b2; stroke-width: 2"/>
   </g>
   <g id="PathCollection_25">
    <path d="M 572.99976 279.481308 
L 572.805787 280.03584 
L 566.901942 296.949077 
L 561.190585 313.862314 
L 556.086523 329.41571 
L 555.594983 330.775551 
L 549.503252 347.688787 
L 543.608931 364.602024 
L 539.173286 377.636786 
L 537.722881 381.515261 
L 531.450634 398.428498 
L 525.379133 415.341735 
L 522.26005 424.169269 
L 519.127832 432.254971 
L 512.68202 449.168208 
L 506.438678 466.081445 
L 505.346813 469.053419 
L 499.744804 482.994682 
L 493.131332 499.907918 
L 488.433576 512.197516 
L 486.501989 516.821155 
" clip-path="url(#p749ca71050)" style="fill: none; stroke: #22b4ab; stroke-width: 2"/>
   </g>
   <g id="PathCollection_26">
    <path d="M 572.99976 290.237475 
L 570.654445 296.949077 
L 564.824177 313.862314 
L 559.175965 330.775551 
L 556.086523 340.180356 
L 553.375053 347.688787 
L 547.358418 364.602024 
L 541.52855 381.515261 
L 539.173286 388.429947 
L 535.437548 398.428498 
L 529.240878 415.341735 
L 523.234243 432.254971 
L 522.26005 435.009659 
L 516.779902 449.168208 
L 510.409096 466.081445 
L 505.346813 479.860599 
L 504.087446 482.994682 
L 497.336317 499.907918 
L 490.796258 516.821155 
" clip-path="url(#p749ca71050)" style="fill: none; stroke: #2db7a4; stroke-width: 2"/>
   </g>
   <g id="PathCollection_27">
    <path d="M 572.99976 300.852132 
L 568.45777 313.862314 
L 562.697951 330.775551 
L 557.110565 347.688787 
L 556.086523 350.803187 
L 551.107906 364.602024 
L 545.163216 381.515261 
L 539.395466 398.428498 
L 539.173286 399.0802 
L 533.102623 415.341735 
L 526.978439 432.254971 
L 522.26005 445.596974 
L 520.877783 449.168208 
L 514.379514 466.081445 
L 508.080771 482.994682 
L 505.346813 490.430222 
L 501.541302 499.907918 
L 494.872044 516.821155 
" clip-path="url(#p749ca71050)" style="fill: none; stroke: #39b99d; stroke-width: 2"/>
   </g>
   <g id="PathCollection_28">
    <path d="M 572.99976 311.260277 
L 572.091362 313.862314 
L 566.219937 330.775551 
L 560.527596 347.688787 
L 556.086523 361.195345 
L 554.857394 364.602024 
L 548.797882 381.515261 
L 542.922134 398.428498 
L 539.173286 409.424688 
L 536.964368 415.341735 
L 530.722635 432.254971 
L 524.667986 449.168208 
L 522.26005 455.971359 
L 518.349932 466.081445 
L 511.931416 482.994682 
L 505.701912 499.907918 
L 505.346813 500.872938 
L 498.947829 516.821155 
" clip-path="url(#p749ca71050)" style="fill: none; stroke: #46bb96; stroke-width: 2"/>
   </g>
   <g id="PathCollection_29">
    <path d="M 572.99976 321.435405 
L 569.741923 330.775551 
L 563.944627 347.688787 
L 558.316943 364.602024 
L 556.086523 371.379292 
L 552.432548 381.515261 
L 546.448802 398.428498 
L 540.639145 415.341735 
L 539.173286 419.637797 
L 534.466832 432.254971 
L 528.301578 449.168208 
L 522.313651 466.081445 
L 522.26005 466.232767 
L 515.782061 482.994682 
L 509.439799 499.907918 
L 505.346813 511.031038 
L 503.023615 516.821155 
" clip-path="url(#p749ca71050)" style="fill: none; stroke: #54bd8e; stroke-width: 2"/>
   </g>
   <g id="PathCollection_30">
    <path d="M 572.99976 331.510909 
L 567.361658 347.688787 
L 561.635094 364.602024 
L 556.086523 381.461698 
L 556.067214 381.515261 
L 549.975469 398.428498 
L 544.064047 415.341735 
L 539.173286 429.675326 
L 538.211028 432.254971 
L 531.935171 449.168208 
L 525.842987 466.081445 
L 522.26005 476.196382 
L 519.632706 482.994682 
L 513.177686 499.907918 
L 506.908377 516.821155 
" clip-path="url(#p749ca71050)" style="fill: none; stroke: #63be87; stroke-width: 2"/>
   </g>
   <g id="PathCollection_31">
    <path d="M 572.99976 341.315684 
L 570.77869 347.688787 
L 564.953244 364.602024 
L 559.294223 381.515261 
L 556.086523 391.253834 
L 553.502137 398.428498 
L 547.488949 415.341735 
L 541.646618 432.254971 
L 539.173286 439.497931 
L 535.568763 449.168208 
L 529.372322 466.081445 
L 523.350002 482.994682 
L 522.26005 486.069431 
L 516.915572 499.907918 
L 510.539921 516.821155 
" clip-path="url(#p749ca71050)" style="fill: none; stroke: #71bf80; stroke-width: 2"/>
   </g>
   <g id="PathCollection_32">
    <path d="M 572.99976 351.023792 
L 568.271395 364.602024 
L 562.519056 381.515261 
L 556.924589 398.428498 
L 556.086523 400.970836 
L 550.913851 415.341735 
L 544.975463 432.254971 
L 539.199191 449.168208 
L 539.173286 449.24401 
L 532.901658 466.081445 
L 526.780896 482.994682 
L 522.26005 495.747964 
L 520.653459 499.907918 
L 514.171466 516.821155 
" clip-path="url(#p749ca71050)" style="fill: none; stroke: #7fbf7a; stroke-width: 2"/>
   </g>
   <g id="PathCollection_33">
    <path d="M 572.99976 360.552376 
L 571.589546 364.602024 
L 565.743888 381.515261 
L 560.061207 398.428498 
L 556.086523 410.486018 
L 554.338753 415.341735 
L 548.304308 432.254971 
L 542.43722 449.168208 
L 539.173286 458.719212 
L 536.430993 466.081445 
L 530.211791 482.994682 
L 524.163219 499.907918 
L 522.26005 505.27299 
L 517.80301 516.821155 
" clip-path="url(#p749ca71050)" style="fill: none; stroke: #8dbf75; stroke-width: 2"/>
   </g>
   <g id="PathCollection_34">
    <path d="M 572.99976 369.930852 
L 568.96872 381.515261 
L 563.197826 398.428498 
L 557.58159 415.341735 
L 556.086523 419.873718 
L 551.633153 432.254971 
L 545.675248 449.168208 
L 539.876191 466.081445 
L 539.173286 468.136841 
L 533.642685 482.994682 
L 527.501015 499.907918 
L 522.26005 514.682301 
L 521.434554 516.821155 
" clip-path="url(#p749ca71050)" style="fill: none; stroke: #99bf70; stroke-width: 2"/>
   </g>
   <g id="PathCollection_35">
    <path d="M 572.99976 379.198379 
L 572.193552 381.515261 
L 566.334445 398.428498 
L 560.634693 415.341735 
L 556.086523 429.128568 
L 554.961998 432.254971 
L 548.913277 449.168208 
L 543.028227 466.081445 
L 539.173286 477.353864 
L 537.073579 482.994682 
L 530.838811 499.907918 
L 524.770987 516.821155 
" clip-path="url(#p749ca71050)" style="fill: none; stroke: #a5be6b; stroke-width: 2"/>
   </g>
   <g id="PathCollection_36">
    <path d="M 572.99976 388.280556 
L 569.471064 398.428498 
L 563.687796 415.341735 
L 558.055815 432.254971 
L 556.086523 438.220209 
L 552.151306 449.168208 
L 546.180264 466.081445 
L 540.364638 482.994682 
L 539.173286 486.476027 
L 534.176606 499.907918 
L 528.020604 516.821155 
" clip-path="url(#p749ca71050)" style="fill: none; stroke: #b0bd66; stroke-width: 2"/>
   </g>
   <g id="PathCollection_37">
    <path d="M 572.99976 397.300949 
L 572.607683 398.428498 
L 566.740899 415.341735 
L 561.029735 432.254971 
L 556.086523 447.228591 
L 555.389335 449.168208 
L 549.3323 466.081445 
L 543.435131 482.994682 
L 539.173286 495.448566 
L 537.514402 499.907918 
L 531.27022 516.821155 
" clip-path="url(#p749ca71050)" style="fill: none; stroke: #bbbd62; stroke-width: 2"/>
   </g>
   <g id="PathCollection_38">
    <path d="M 572.99976 406.116333 
L 569.794002 415.341735 
L 564.003654 432.254971 
L 558.361128 449.168208 
L 556.086523 456.053607 
L 552.484337 466.081445 
L 546.505625 482.994682 
L 540.678797 499.907918 
L 539.173286 504.304486 
L 534.519836 516.821155 
" clip-path="url(#p749ca71050)" style="fill: none; stroke: #c6bc5e; stroke-width: 2"/>
   </g>
   <g id="PathCollection_39">
    <path d="M 572.99976 414.90243 
L 572.847105 415.341735 
L 566.977573 432.254971 
L 561.259867 449.168208 
L 556.086523 464.828308 
L 555.636373 466.081445 
L 549.576118 482.994682 
L 543.67186 499.907918 
L 539.173286 513.045177 
L 537.769452 516.821155 
" clip-path="url(#p749ca71050)" style="fill: none; stroke: #d0bb59; stroke-width: 2"/>
   </g>
   <g id="PathCollection_40">
    <path d="M 572.99976 423.477216 
L 569.951493 432.254971 
L 564.158606 449.168208 
L 558.510021 466.081445 
L 556.086523 473.412831 
L 552.646611 482.994682 
L 546.664923 499.907918 
L 540.831529 516.821155 
" clip-path="url(#p749ca71050)" style="fill: none; stroke: #daba55; stroke-width: 2"/>
   </g>
   <g id="PathCollection_41">
    <path d="M 572.99976 432.04088 
L 572.925412 432.254971 
L 567.057345 449.168208 
L 561.337287 466.081445 
L 556.086523 481.965668 
L 555.717104 482.994682 
L 549.657985 499.907918 
L 543.750971 516.821155 
" clip-path="url(#p749ca71050)" style="fill: none; stroke: #e4b950; stroke-width: 2"/>
   </g>
   <g id="PathCollection_42">
    <path d="M 572.99976 440.398382 
L 569.956084 449.168208 
L 564.164553 466.081445 
L 558.513786 482.994682 
L 556.086523 490.332962 
L 552.651048 499.907918 
L 546.670412 516.821155 
" clip-path="url(#p749ca71050)" style="fill: none; stroke: #eeb94b; stroke-width: 2"/>
   </g>
   <g id="PathCollection_43">
    <path d="M 572.99976 448.750597 
L 572.854823 449.168208 
L 566.991819 466.081445 
L 561.273019 482.994682 
L 556.086523 498.674879 
L 555.644111 499.907918 
L 549.589854 516.821155 
" clip-path="url(#p749ca71050)" style="fill: none; stroke: #f7ba45; stroke-width: 2"/>
   </g>
   <g id="PathCollection_44">
    <path d="M 572.99976 456.911618 
L 569.819085 466.081445 
L 564.032252 482.994682 
L 558.382655 499.907918 
L 556.086523 506.845704 
L 552.509295 516.821155 
" clip-path="url(#p749ca71050)" style="fill: none; stroke: #febf3d; stroke-width: 2"/>
   </g>
   <g id="PathCollection_45">
    <path d="M 572.99976 465.062575 
L 572.646352 466.081445 
L 566.791485 482.994682 
L 561.077052 499.907918 
L 556.086523 514.986853 
L 555.428737 516.821155 
" clip-path="url(#p749ca71050)" style="fill: none; stroke: #fec535; stroke-width: 2"/>
   </g>
   <g id="PathCollection_46">
    <path d="M 572.99976 473.045719 
L 569.550719 482.994682 
L 563.771449 499.907918 
L 558.125918 516.821155 
" clip-path="url(#p749ca71050)" style="fill: none; stroke: #fdcc30; stroke-width: 2"/>
   </g>
   <g id="PathCollection_47">
    <path d="M 572.99976 481.004889 
L 572.309952 482.994682 
L 566.465847 499.907918 
L 560.758456 516.821155 
" clip-path="url(#p749ca71050)" style="fill: none; stroke: #fad22a; stroke-width: 2"/>
   </g>
   <g id="PathCollection_48">
    <path d="M 572.99976 488.826832 
L 569.160244 499.907918 
L 563.390995 516.821155 
" clip-path="url(#p749ca71050)" style="fill: none; stroke: #f7d925; stroke-width: 2"/>
   </g>
   <g id="PathCollection_49">
    <path d="M 572.99976 496.603033 
L 571.854641 499.907918 
L 566.023533 516.821155 
" clip-path="url(#p749ca71050)" style="fill: none; stroke: #f5e020; stroke-width: 2"/>
   </g>
   <g id="PathCollection_50">
    <path d="M 572.99976 504.278755 
L 568.656072 516.821155 
" clip-path="url(#p749ca71050)" style="fill: none; stroke: #f5e81a; stroke-width: 2"/>
   </g>
   <g id="PathCollection_51">
    <path d="M 572.99976 511.88021 
L 571.28861 516.821155 
" clip-path="url(#p749ca71050)" style="fill: none; stroke: #f6f114; stroke-width: 2"/>
   </g>
   <g id="PathCollection_52"/>
   <g id="PathCollection_53">
    <path d="M 70.601887 38.590656 
L 80.904171 21.448224 
M 80.618235 38.766381 
L 90.920518 21.62395 
M 90.624609 39.226448 
L 101.521133 22.455468 
M 100.625717 39.794808 
L 112.100995 23.414393 
M 110.605285 40.670208 
L 122.080563 24.289793 
M 120.569388 41.692569 
L 132.606042 25.720125 
M 130.512578 42.913663 
L 142.549232 26.941219 
M 140.414645 44.422005 
L 153.080455 28.943721 
M 150.300202 46.044418 
L 163.502839 31.021424 
M 160.12355 48.009088 
L 173.326188 32.986094 
M 169.92529 50.072825 
L 183.641294 35.517028 
M 179.674546 52.377195 
L 193.39055 37.821398 
M 189.37683 54.866153 
L 203.581795 40.787128 
M 199.041726 57.502034 
L 213.246692 43.423009 
M 208.628429 60.406126 
L 223.440742 46.967548 
M 218.163666 63.477499 
L 233.422061 50.547635 
M 227.5939 66.858149 
L 242.852295 53.928285 
M 236.995784 70.313948 
L 252.672857 57.895035 
M 246.30923 74.004181 
L 261.986303 61.585269 
M 255.559169 77.845845 
L 271.795631 66.167777 
M 264.691344 81.964277 
L 280.927806 70.286209 
M 273.744633 86.250393 
L 290.347587 75.099522 
M 282.739903 90.65984 
L 299.342857 79.508969 
M 291.615019 95.302649 
L 308.732361 84.958733 
M 300.389069 100.13733 
L 317.506411 89.793414 
M 309.045062 105.178677 
L 326.472526 95.36626 
M 317.666224 110.280997 
L 335.093687 100.46858 
M 326.071566 115.728884 
L 343.955874 106.776144 
M 334.434226 121.244681 
L 352.318534 112.291941 
M 342.667885 126.950007 
L 360.804906 118.520981 
M 350.764472 132.848984 
L 369.071241 124.795276 
M 358.722089 138.93321 
L 377.249375 131.400634 
M 366.621789 145.093582 
L 385.31135 137.973168 
M 374.292833 151.535219 
L 393.170103 144.928504 
M 381.886502 158.069306 
L 400.763772 151.462592 
M 389.350308 164.747486 
L 408.533421 159.089909 
M 396.60885 171.651953 
L 415.791963 165.994376 
M 403.867392 178.55642 
L 423.309244 173.864468 
M 410.771859 185.814962 
L 430.213711 181.12301 
M 417.676326 193.073504 
L 437.118178 188.381552 
M 424.354506 200.53731 
L 444.006059 196.820257 
M 430.888593 208.130979 
L 450.540146 204.413926 
M 437.33023 215.802023 
L 457.076072 212.623702 
M 443.490602 223.701723 
L 463.30199 220.961481 
M 449.574828 231.659339 
L 469.455809 229.48067 
M 455.473805 239.755927 
L 475.395439 237.987166 
M 461.179131 247.989586 
L 481.143765 246.800732 
M 466.694928 256.352246 
L 486.659563 255.163392 
M 472.142815 264.757588 
L 492.141649 264.541658 
M 477.245135 273.37875 
L 497.24397 273.16282 
M 482.286482 282.034742 
L 502.282493 282.434166 
M 487.121163 290.808793 
L 507.117174 291.208216 
M 491.763972 299.683908 
L 511.717988 301.039369 
M 496.173418 308.679179 
L 516.127434 310.034639 
M 500.459535 317.732468 
L 520.359758 319.727741 
M 504.577967 326.864643 
L 524.47819 328.859915 
M 508.419631 336.114581 
L 528.205831 339.031138 
M 512.109864 345.428027 
L 531.896064 348.344584 
M 515.565663 354.829912 
L 535.244753 358.398305 
M 518.946313 364.260146 
L 538.625402 367.828539 
M 522.017686 373.795383 
L 541.564815 378.027376 
M 524.921777 383.382085 
L 544.263151 388.472396 
M 527.557658 393.046982 
L 546.899032 398.137293 
M 530.046617 402.749266 
L 549.202923 408.496954 
M 532.350986 412.498521 
L 551.507293 418.24621 
M 534.414724 422.300262 
L 553.360041 428.709238 
M 536.379394 432.12361 
L 555.324711 438.532586 
M 538.001807 442.009167 
L 556.709862 449.080849 
M 539.510149 451.911234 
L 557.920419 459.725449 
M 540.731243 461.854424 
L 559.141513 469.668639 
M 541.753603 471.818527 
L 559.881693 480.266743 
M 542.629004 481.798095 
L 560.757094 490.246311 
M 543.197364 491.799203 
L 561.01952 500.875036 
M 543.65743 501.805577 
L 561.150685 511.500216 
M 543.833156 511.821925 
L 561.326411 521.516564 
L 561.326411 521.516564 
" clip-path="url(#p749ca71050)" style="fill: none; stroke: #e29400; stroke-width: 2"/>
    <path d="M 65.602657 38.50295 
L 82.515893 38.799674 
L 99.42913 39.689844 
L 116.342367 41.173461 
L 133.255604 43.250525 
L 133.255604 43.250525 
L 150.16884 46.018146 
L 167.082077 49.400793 
L 183.995314 53.398467 
L 200.908551 58.011168 
L 207.872825 60.163762 
L 217.821788 63.354939 
L 234.735024 69.418175 
L 251.648261 76.119646 
L 253.854336 77.076999 
L 268.561498 83.709641 
L 285.474735 92.000443 
L 289.233232 93.990236 
L 302.387972 101.238766 
L 318.717993 110.903472 
L 319.301208 111.263329 
L 336.214445 122.418868 
L 343.90228 127.816709 
L 353.127682 134.582004 
L 366.175036 144.729946 
L 370.040919 147.876595 
L 386.039926 161.643183 
L 386.954155 162.468219 
L 403.867392 178.55642 
L 403.867392 178.55642 
L 419.955593 195.469656 
L 420.780629 196.383885 
L 434.547217 212.382893 
L 437.693866 216.248776 
L 447.841808 229.29613 
L 454.607103 238.521532 
L 460.004944 246.209367 
L 471.160483 263.122604 
L 471.520339 263.705819 
L 481.185046 280.03584 
L 488.433576 293.19058 
L 490.423369 296.949077 
L 498.714171 313.862314 
L 505.346813 328.569476 
L 506.304166 330.775551 
L 513.005637 347.688787 
L 519.068873 364.602024 
L 522.26005 374.550987 
L 524.412643 381.515261 
L 529.025344 398.428498 
L 533.023019 415.341735 
L 536.405666 432.254971 
L 539.173286 449.168208 
L 539.173286 449.168208 
L 541.250351 466.081445 
L 542.733968 482.994682 
L 543.624138 499.907918 
L 543.920862 516.821155 
" clip-path="url(#p749ca71050)" style="fill: none; stroke: #e29400; stroke-width: 2"/>
    <g id="PathCollection_54">
     <path d="M 94.769261 511.821925 
L 77.626829 501.519641 
M 94.944986 501.805577 
L 77.802555 491.503294 
M 95.405053 491.799203 
L 78.634073 480.902679 
M 95.973412 481.798095 
L 79.592998 470.322817 
M 96.848813 471.818527 
L 80.468398 460.343249 
M 97.871174 461.854424 
L 81.89873 449.81777 
M 99.092267 451.911234 
L 83.119823 439.87458 
M 100.60061 442.009167 
L 85.122326 429.343357 
M 102.223023 432.12361 
L 87.200029 418.920972 
M 104.187693 422.300262 
L 89.164698 409.097624 
M 106.25143 412.498521 
L 91.695633 398.782518 
M 108.5558 402.749266 
L 94.000002 389.033262 
M 111.044758 393.046982 
L 96.965733 378.842017 
M 113.680639 383.382085 
L 99.601614 369.17712 
M 116.58473 373.795383 
L 103.146153 358.983069 
M 119.656104 364.260146 
L 106.72624 349.00175 
M 123.036754 354.829912 
L 110.10689 339.571517 
M 126.492552 345.428027 
L 114.07364 329.750954 
M 130.182786 336.114581 
L 117.763873 320.437508 
M 134.02445 326.864643 
L 122.346382 310.62818 
M 138.142882 317.732468 
L 126.464814 301.496005 
M 142.428998 308.679179 
L 131.278127 292.076225 
M 146.838444 299.683908 
L 135.687573 283.080955 
M 151.481254 290.808793 
L 141.137338 273.691451 
M 156.315935 282.034742 
L 145.972019 264.9174 
M 161.357281 273.37875 
L 151.544865 255.951286 
M 166.459601 264.757588 
L 156.647185 247.330125 
M 171.907488 256.352246 
L 162.954749 238.467938 
M 177.423285 247.989586 
L 168.470546 230.105278 
M 183.128611 239.755927 
L 174.699586 221.618906 
M 189.027588 231.659339 
L 180.973881 213.35257 
M 195.111815 223.701723 
L 187.579239 205.174437 
M 201.272187 215.802023 
L 194.151773 197.112462 
M 207.713823 208.130979 
L 201.107109 189.253709 
M 214.247911 200.53731 
L 207.641196 181.66004 
M 220.92609 193.073504 
L 215.268514 173.890391 
M 227.830557 185.814962 
L 222.172981 166.631849 
M 234.735024 178.55642 
L 230.043072 159.114568 
M 241.993567 171.651953 
L 237.301615 152.210101 
M 249.252109 164.747486 
L 244.560157 145.305634 
M 256.715915 158.069306 
L 252.998862 138.417753 
M 264.309584 151.535219 
L 260.592531 131.883666 
M 271.980628 145.093582 
L 268.802307 125.34774 
M 279.880327 138.93321 
L 277.140086 119.121822 
M 287.837944 132.848984 
L 285.659275 112.968003 
M 295.934531 126.950007 
L 294.165771 107.028373 
M 304.168191 121.244681 
L 302.979337 101.280046 
M 312.530851 115.728884 
L 311.341997 95.764249 
M 320.936193 110.280997 
L 320.720263 90.282162 
M 329.557354 105.178677 
L 329.341425 85.179842 
M 338.213347 100.13733 
L 338.61277 80.141319 
M 346.987398 95.302649 
L 347.386821 75.306638 
M 355.862513 90.65984 
L 357.217974 70.705824 
M 364.857783 86.250393 
L 366.213244 66.296378 
M 373.911073 81.964277 
L 375.906345 62.064054 
M 383.043248 77.845845 
L 385.03852 57.945622 
M 392.293186 74.004181 
L 395.209743 54.217981 
M 401.606632 70.313948 
L 404.523189 50.527748 
M 411.008517 66.858149 
L 414.57691 47.179059 
M 420.43875 63.477499 
L 424.007143 43.798409 
M 429.973988 60.406126 
L 434.205981 40.858997 
M 439.56069 57.502034 
L 444.651001 38.160661 
M 449.225587 54.866153 
L 454.315898 35.52478 
M 458.927871 52.377195 
L 464.675559 33.220888 
M 468.677126 50.072825 
L 474.424815 30.916519 
M 478.478867 48.009088 
L 484.887842 29.063771 
M 488.302215 46.044418 
L 494.711191 27.099101 
M 498.187772 44.422005 
L 505.259454 25.71395 
M 508.089839 42.913663 
L 515.904054 24.503393 
M 518.033029 41.692569 
L 525.847244 23.282299 
M 527.997132 40.670208 
L 536.445348 22.542119 
M 537.9767 39.794808 
L 546.424916 21.666718 
M 547.977808 39.226448 
L 557.05364 21.404292 
M 557.984182 38.766381 
L 567.678821 21.273127 
M 568.000529 38.590656 
L 577 22.351782 
L 577 22.351782 
" clip-path="url(#p749ca71050)" style="fill: none; stroke: #1e90ff; stroke-width: 2"/>
     <path d="M 94.681555 516.821155 
L 94.978278 499.907918 
L 95.868449 482.994682 
L 97.352066 466.081445 
L 99.42913 449.168208 
L 99.42913 449.168208 
L 102.196751 432.254971 
L 105.579398 415.341735 
L 109.577072 398.428498 
L 114.189773 381.515261 
L 116.342367 374.550987 
L 119.533544 364.602024 
L 125.596779 347.688787 
L 132.298251 330.775551 
L 133.255604 328.569476 
L 139.888246 313.862314 
L 148.179048 296.949077 
L 150.16884 293.19058 
L 157.417371 280.03584 
L 167.082077 263.705819 
L 167.441933 263.122604 
L 178.597473 246.209367 
L 183.995314 238.521532 
L 190.760609 229.29613 
L 200.908551 216.248776 
L 204.0552 212.382893 
L 217.821788 196.383885 
L 218.646824 195.469656 
L 234.735024 178.55642 
L 234.735024 178.55642 
L 251.648261 162.468219 
L 252.56249 161.643183 
L 268.561498 147.876595 
L 272.427381 144.729946 
L 285.474735 134.582004 
L 294.700137 127.816709 
L 302.387972 122.418868 
L 319.301208 111.263329 
L 319.884423 110.903472 
L 336.214445 101.238766 
L 349.369185 93.990236 
L 353.127682 92.000443 
L 370.040919 83.709641 
L 384.748081 77.076999 
L 386.954155 76.119646 
L 403.867392 69.418175 
L 420.780629 63.354939 
L 430.729592 60.163762 
L 437.693866 58.011168 
L 454.607103 53.398467 
L 471.520339 49.400793 
L 488.433576 46.018146 
L 505.346813 43.250525 
L 505.346813 43.250525 
L 522.26005 41.173461 
L 539.173286 39.689844 
L 556.086523 38.799674 
L 572.99976 38.50295 
" clip-path="url(#p749ca71050)" style="fill: none; stroke: #1e90ff; stroke-width: 2"/>
     <g id="PathCollection_55">
      <path d="M 543.833156 14.423283 
L 560.975587 24.725566 
M 543.65743 24.43963 
L 560.799862 34.741913 
M 543.197364 34.446004 
L 559.968344 45.342528 
M 542.629004 44.447112 
L 559.009419 55.92239 
M 541.753603 54.42668 
L 558.134018 65.901958 
M 540.731243 64.390783 
L 556.703687 76.427437 
M 539.510149 74.333973 
L 555.482593 86.370627 
M 538.001807 84.23604 
L 553.480091 96.90185 
M 536.379394 94.121597 
L 551.402388 107.324235 
M 534.414724 103.944945 
L 549.437718 117.147583 
M 532.350986 113.746686 
L 546.906784 127.462689 
M 530.046617 123.495941 
L 544.602414 137.211945 
M 527.557658 133.198225 
L 541.636684 147.40319 
M 524.921777 142.863122 
L 539.000803 157.068087 
M 522.017686 152.449824 
L 535.456264 167.262138 
M 518.946313 161.985061 
L 531.876176 177.243457 
M 515.565663 171.415295 
L 528.495527 186.67369 
M 512.109864 180.81718 
L 524.528777 196.494253 
M 508.419631 190.130626 
L 520.838543 205.807699 
M 504.577967 199.380564 
L 516.256035 215.617027 
M 500.459535 208.512739 
L 512.137603 224.749202 
M 496.173418 217.566028 
L 507.324289 234.168982 
M 491.763972 226.561299 
L 502.914843 243.164252 
M 487.121163 235.436414 
L 497.465079 252.553756 
M 482.286482 244.210465 
L 492.630398 261.327807 
M 477.245135 252.866457 
L 487.057552 270.293921 
M 472.142815 261.487619 
L 481.955232 278.915083 
M 466.694928 269.892961 
L 475.647668 287.777269 
M 461.179131 278.255621 
L 470.131871 296.139929 
M 455.473805 286.48928 
L 463.90283 304.626301 
M 449.574828 294.585868 
L 457.628536 312.892637 
M 443.490602 302.543485 
L 451.023177 321.07077 
M 437.33023 310.443184 
L 444.450644 329.132745 
M 430.888593 318.114228 
L 437.495307 336.991498 
M 424.354506 325.707897 
L 430.96122 344.585167 
M 417.676326 333.171703 
L 423.333902 352.354816 
M 410.771859 340.430245 
L 416.429435 359.613358 
M 403.867392 347.688787 
L 408.559344 367.130639 
M 396.60885 354.593254 
L 401.300802 374.035106 
M 389.350308 361.497721 
L 394.04226 380.939573 
M 381.886502 368.175901 
L 385.603554 387.827454 
M 374.292833 374.709988 
L 378.009886 394.361541 
M 366.621789 381.151625 
L 369.80011 400.897467 
M 358.722089 387.311997 
L 361.46233 407.123385 
M 350.764472 393.396223 
L 352.943142 413.277204 
M 342.667885 399.295201 
L 344.436646 419.216834 
M 334.434226 405.000526 
L 335.62308 424.965161 
M 326.071566 410.516323 
L 327.26042 430.480958 
M 317.666224 415.96421 
L 317.882154 435.963045 
M 309.045062 421.066531 
L 309.260992 441.065365 
M 300.389069 426.107877 
L 299.989646 446.103888 
M 291.615019 430.942558 
L 291.215596 450.938569 
M 282.739903 435.585368 
L 281.384443 455.539383 
M 273.744633 439.994814 
L 272.389173 459.948829 
M 264.691344 444.28093 
L 262.696071 464.181153 
M 255.559169 448.399362 
L 253.563896 468.299585 
M 246.30923 452.241026 
L 243.392673 472.027226 
M 236.995784 455.931259 
L 234.079227 475.717459 
M 227.5939 459.387058 
L 224.025507 479.066148 
M 218.163666 462.767708 
L 214.595273 482.446798 
M 208.628429 465.839081 
L 204.396436 485.38621 
M 199.041726 468.743173 
L 193.951415 488.084546 
M 189.37683 471.379054 
L 184.286518 490.720427 
M 179.674546 473.868012 
L 173.926857 493.024319 
M 169.92529 476.172382 
L 164.177602 495.328688 
M 160.12355 478.236119 
L 153.714574 497.181436 
M 150.300202 480.200789 
L 143.891226 499.146106 
M 140.414645 481.823202 
L 133.342963 500.531257 
M 130.512578 483.331544 
L 122.698363 501.741814 
M 120.569388 484.552638 
L 112.755172 502.962908 
M 110.605285 485.574999 
L 102.157068 503.703089 
M 100.625717 486.450399 
L 92.1775 504.578489 
M 90.624609 487.018759 
L 81.548776 504.840915 
M 80.618235 487.478826 
L 70.923595 504.97208 
M 70.601887 487.654551 
L 60.907248 505.147806 
L 60.907248 505.147806 
" clip-path="url(#p749ca71050)" style="fill: none; stroke: #e21a1a; stroke-width: 2"/>
      <path d="M 543.920862 9.424052 
L 543.624138 26.337289 
L 542.733968 43.250525 
L 541.250351 60.163762 
L 539.173286 77.076999 
L 539.173286 77.076999 
L 536.405666 93.990236 
L 533.023019 110.903472 
L 529.025344 127.816709 
L 524.412643 144.729946 
L 522.26005 151.69422 
L 519.068873 161.643183 
L 513.005637 178.55642 
L 506.304166 195.469656 
L 505.346813 197.675731 
L 498.714171 212.382893 
L 490.423369 229.29613 
L 488.433576 233.054627 
L 481.185046 246.209367 
L 471.520339 262.539388 
L 471.160483 263.122604 
L 460.004944 280.03584 
L 454.607103 287.723675 
L 447.841808 296.949077 
L 437.693866 309.996431 
L 434.547217 313.862314 
L 420.780629 329.861322 
L 419.955593 330.775551 
L 403.867392 347.688787 
L 403.867392 347.688787 
L 386.954155 363.776988 
L 386.039926 364.602024 
L 370.040919 378.368612 
L 366.175036 381.515261 
L 353.127682 391.663203 
L 343.90228 398.428498 
L 336.214445 403.826339 
L 319.301208 414.981878 
L 318.717993 415.341735 
L 302.387971 425.006441 
L 289.233232 432.254971 
L 285.474735 434.244764 
L 268.561498 442.535566 
L 253.854336 449.168208 
L 251.648261 450.125561 
L 234.735024 456.827032 
L 217.821788 462.890268 
L 207.872825 466.081445 
L 200.908551 468.234039 
L 183.995314 472.84674 
L 167.082077 476.844414 
L 150.16884 480.227061 
L 133.255604 482.994682 
L 133.255604 482.994682 
L 116.342367 485.071746 
L 99.42913 486.555363 
L 82.515893 487.445533 
L 65.602657 487.742257 
" clip-path="url(#p749ca71050)" style="fill: none; stroke: #e21a1a; stroke-width: 2"/>
      <g id="PathCollection_56">
       <path d="M 572.99976 102.619438 
L 556.086523 109.5228 
L 552.703876 110.903472 
L 539.173286 116.66117 
L 522.26005 123.858292 
L 512.957769 127.816709 
L 505.346813 131.199357 
L 488.433576 138.716351 
L 474.902987 144.729946 
L 471.520339 146.30327 
L 454.607103 154.169892 
L 438.539528 161.643183 
L 437.693866 162.055701 
L 420.780629 170.30606 
L 403.867392 178.55642 
L 403.867392 178.55642 
L 386.954155 187.229874 
L 370.88658 195.469656 
L 370.040919 195.926771 
L 353.127682 205.069061 
L 339.597092 212.382893 
L 336.214445 214.315835 
L 319.301208 223.980541 
L 309.998928 229.29613 
L 302.387971 233.908831 
L 285.474735 244.159277 
L 282.092087 246.209367 
L 268.561498 254.938779 
L 255.87657 263.122604 
L 251.648261 266.038679 
L 234.735024 277.70298 
L 231.352377 280.03584 
L 217.821788 290.058499 
L 208.519507 296.949077 
L 200.908551 303.037842 
L 187.377961 313.862314 
L 183.995314 316.803746 
L 167.927739 330.775551 
L 167.082077 331.580943 
L 150.16884 347.688787 
L 150.16884 347.688787 
L 134.101266 364.602024 
L 133.255604 365.59692 
L 119.725014 381.515261 
L 116.342367 386.025457 
L 107.040087 398.428498 
L 99.42913 410.137662 
L 96.046483 415.341735 
L 86.744203 432.254971 
L 82.515893 441.651214 
L 79.133246 449.168208 
L 73.213613 466.081445 
L 68.985304 482.994682 
L 66.448318 499.907918 
L 65.602657 516.821155 
" clip-path="url(#p749ca71050)" style="fill: none; stroke: #00a650; stroke-width: 2"/>
      </g>
      <g id="line2d_17">
       <defs>
        <path id="mcaf8fbd0b3" d="M 0 5 
C 1.326016 5 2.597899 4.473168 3.535534 3.535534 
C 4.473168 2.597899 5 1.326016 5 0 
C 5 -1.326016 4.473168 -2.597899 3.535534 -3.535534 
C 2.597899 -4.473168 1.326016 -5 0 -5 
C -1.326016 -5 -2.597899 -4.473168 -3.535534 -3.535534 
C -4.473168 -2.597899 -5 -1.326016 -5 0 
C -5 1.326016 -4.473168 2.597899 -3.535534 3.535534 
C -2.597899 4.473168 -1.326016 5 0 5 
z
" style="stroke: #ffffff"/>
       </defs>
       <g>
        <use xlink:href="#mcaf8fbd0b3" x="403.867392" y="178.55642" style="stroke: #ffffff"/>
       </g>
      </g>
      <g id="line2d_18">
       <path d="M 336.214445 43.250525 
L 471.520339 77.076999 
L 409.071465 157.368409 
L 403.842112 178.568438 
L 403.867392 178.55642 
" style="fill: none; stroke: #5a5758; stroke-width: 2; stroke-linecap: square"/>
       <defs>
        <path id="m4ad8f7fe99" d="M 0 4 
C 1.060812 4 2.078319 3.578535 2.828427 2.828427 
C 3.578535 2.078319 4 1.060812 4 0 
C 4 -1.060812 3.578535 -2.078319 2.828427 -2.828427 
C 2.078319 -3.578535 1.060812 -4 0 -4 
C -1.060812 -4 -2.078319 -3.578535 -2.828427 -2.828427 
C -3.578535 -2.078319 -4 -1.060812 -4 0 
C -4 1.060812 -3.578535 2.078319 -2.828427 2.828427 
C -2.078319 3.578535 -1.060812 4 0 4 
z
" style="stroke: #ffffff"/>
       </defs>
       <g>
        <use xlink:href="#m4ad8f7fe99" x="336.214445" y="43.250525" style="fill: #5a5758; stroke: #ffffff"/>
        <use xlink:href="#m4ad8f7fe99" x="471.520339" y="77.076999" style="fill: #5a5758; stroke: #ffffff"/>
        <use xlink:href="#m4ad8f7fe99" x="409.071465" y="157.368409" style="fill: #5a5758; stroke: #ffffff"/>
        <use xlink:href="#m4ad8f7fe99" x="403.842112" y="178.568438" style="fill: #5a5758; stroke: #ffffff"/>
        <use xlink:href="#m4ad8f7fe99" x="403.867392" y="178.55642" style="fill: #5a5758; stroke: #ffffff"/>
       </g>
      </g>
      <g id="patch_3">
       <path d="M 53.602657 516.821155 
L 53.602657 9.424052 
" style="fill: none; stroke: #5a5758; stroke-width: 0.8; stroke-linejoin: miter; stroke-linecap: square"/>
      </g>
      <g id="patch_4">
       <path d="M 65.602657 528.821155 
L 572.99976 528.821155 
" style="fill: none; stroke: #5a5758; stroke-width: 0.8; stroke-linejoin: miter; stroke-linecap: square"/>
      </g>
     </g>
    </g>
    <defs>
     <clipPath id="p749ca71050">
      <rect x="65.602657" y="9.424052" width="507.397103" height="507.397103"/>
     </clipPath>
    </defs>
   </g>
  </g>
 </g>
</svg>
