<?xml version="1.0" encoding="utf-8" standalone="no"?>
<!DOCTYPE svg PUBLIC "-//W3C//DTD SVG 1.1//EN"
  "http://www.w3.org/Graphics/SVG/1.1/DTD/svg11.dtd">
<svg xmlns:xlink="http://www.w3.org/1999/xlink" width="576pt" height="576pt" viewBox="0 0 576 576" xmlns="http://www.w3.org/2000/svg" version="1.1">
 <metadata>
  <rdf:RDF xmlns:dc="http://purl.org/dc/elements/1.1/" xmlns:cc="http://creativecommons.org/ns#" xmlns:rdf="http://www.w3.org/1999/02/22-rdf-syntax-ns#">
   <cc:Work>
    <dc:type rdf:resource="http://purl.org/dc/dcmitype/StillImage"/>
    <dc:date>2023-01-23T20:43:01.758706</dc:date>
    <dc:format>image/svg+xml</dc:format>
    <dc:creator>
     <cc:Agent>
      <dc:title>Matplotlib v3.6.2, https://matplotlib.org/</dc:title>
     </cc:Agent>
    </dc:creator>
   </cc:Work>
  </rdf:RDF>
 </metadata>
 <defs>
  <style type="text/css">*{stroke-linejoin: round; stroke-linecap: butt}</style>
 </defs>
 <g id="figure_1">
  <g id="patch_1">
   <path d="M 0 576 
L 576 576 
L 576 0 
L 0 0 
z
" style="fill: #ffffff"/>
  </g>
  <g id="axes_1">
   <g id="patch_2">
    <path d="M 65.602657 517.647397 
L 572.99976 517.647397 
L 572.99976 10.250294 
L 65.602657 10.250294 
z
" style="fill: #ffffff"/>
   </g>
   <g id="matplotlib.axis_1">
    <g id="xtick_1">
     <g id="line2d_1">
      <defs>
       <path id="mc139ad930e" d="M 0 0 
L 0 3.5 
" style="stroke: #5a5758; stroke-width: 0.8"/>
      </defs>
      <g>
       <use xlink:href="#mc139ad930e" x="65.602657" y="529.647397" style="fill: #5a5758; stroke: #5a5758; stroke-width: 0.8"/>
      </g>
     </g>
     <g id="text_1">
      <!-- 0.0 -->
      <g style="fill: #5a5758" transform="translate(55.541448 547.068227) scale(0.14994 -0.14994)">
       <defs>
        <path id="CMUBright-Roman-30" d="M 333 1984 
C 333 218 1139 -109 1677 -109 
C 2022 -109 2528 38 2803 685 
C 3008 1165 3021 1626 3021 2214 
C 3021 3974 2214 4301 1677 4301 
C 1555 4301 1414 4288 1261 4230 
C 358 3898 333 2694 333 2086 
L 333 1984 
z
M 742 2413 
C 742 2701 768 3302 1005 3642 
C 1139 3834 1389 3981 1677 3981 
C 1933 3981 2182 3866 2336 3661 
C 2592 3328 2611 2701 2611 2406 
C 2611 2342 2605 2298 2605 2272 
L 2605 2163 
C 2605 1613 2598 934 2330 557 
C 2195 371 1958 218 1677 218 
C 1427 218 1190 339 1037 538 
C 755 909 749 1594 749 2150 
L 749 2272 
C 749 2298 742 2349 742 2413 
z
" transform="scale(0.015625)"/>
        <path id="CMUBright-Roman-2e" d="M 678 0 
L 1178 0 
L 1178 499 
L 678 499 
L 678 0 
z
" transform="scale(0.015625)"/>
       </defs>
       <use xlink:href="#CMUBright-Roman-30"/>
       <use xlink:href="#CMUBright-Roman-2e" x="52.499985"/>
       <use xlink:href="#CMUBright-Roman-30" x="81.699982"/>
      </g>
     </g>
    </g>
    <g id="xtick_2">
     <g id="line2d_2">
      <g>
       <use xlink:href="#mc139ad930e" x="133.255604" y="529.647397" style="fill: #5a5758; stroke: #5a5758; stroke-width: 0.8"/>
      </g>
     </g>
     <g id="text_2">
      <!-- 0.2 -->
      <g style="fill: #5a5758" transform="translate(123.194395 547.068227) scale(0.14994 -0.14994)">
       <defs>
        <path id="CMUBright-Roman-32" d="M 275 3226 
L 512 2938 
C 653 3475 864 3962 1498 3962 
C 2106 3962 2592 3571 2592 2982 
C 2592 2413 2214 2022 1683 1562 
L 333 339 
L 333 0 
L 3021 0 
L 3021 358 
L 698 358 
C 1773 1325 1638 1210 2061 1549 
C 2438 1856 3021 2304 3021 2989 
C 3021 3744 2419 4294 1594 4301 
L 1587 4301 
C 800 4301 442 3782 275 3226 
z
" transform="scale(0.015625)"/>
       </defs>
       <use xlink:href="#CMUBright-Roman-30"/>
       <use xlink:href="#CMUBright-Roman-2e" x="52.499985"/>
       <use xlink:href="#CMUBright-Roman-32" x="81.699982"/>
      </g>
     </g>
    </g>
    <g id="xtick_3">
     <g id="line2d_3">
      <g>
       <use xlink:href="#mc139ad930e" x="200.908551" y="529.647397" style="fill: #5a5758; stroke: #5a5758; stroke-width: 0.8"/>
      </g>
     </g>
     <g id="text_3">
      <!-- 0.4 -->
      <g style="fill: #5a5758" transform="translate(190.847343 547.068227) scale(0.14994 -0.14994)">
       <defs>
        <path id="CMUBright-Roman-34" d="M 186 1158 
L 2035 1158 
L 2035 0 
L 2438 0 
L 2438 1158 
L 3168 1158 
L 3168 1498 
L 2438 1498 
L 2438 4250 
L 1952 4250 
L 186 1504 
L 186 1158 
z
M 602 1498 
L 1606 3085 
C 1901 3552 1990 3712 2054 3885 
L 2054 1498 
L 602 1498 
z
" transform="scale(0.015625)"/>
       </defs>
       <use xlink:href="#CMUBright-Roman-30"/>
       <use xlink:href="#CMUBright-Roman-2e" x="52.499985"/>
       <use xlink:href="#CMUBright-Roman-34" x="81.699982"/>
      </g>
     </g>
    </g>
    <g id="xtick_4">
     <g id="line2d_4">
      <g>
       <use xlink:href="#mc139ad930e" x="268.561498" y="529.647397" style="fill: #5a5758; stroke: #5a5758; stroke-width: 0.8"/>
      </g>
     </g>
     <g id="text_4">
      <!-- 0.6 -->
      <g style="fill: #5a5758" transform="translate(258.50029 547.068227) scale(0.14994 -0.14994)">
       <defs>
        <path id="CMUBright-Roman-36" d="M 346 2061 
C 346 269 1152 -109 1690 -109 
C 2125 -109 2394 70 2618 326 
C 2899 646 3008 954 3008 1408 
C 3008 1837 2931 2138 2682 2483 
C 2502 2726 2298 2886 1952 2886 
C 1382 2886 960 2522 774 2125 
C 774 2150 768 2182 768 2208 
C 768 3264 1286 3981 2061 3981 
L 2074 3981 
C 2349 3981 2515 3936 2797 3846 
L 2797 4179 
C 2522 4269 2349 4301 2086 4301 
L 2074 4301 
C 1203 4301 346 3469 346 2061 
z
M 794 1389 
L 806 1389 
C 800 1440 800 1504 800 1555 
C 800 2080 1171 2566 1728 2566 
C 1926 2566 2106 2522 2253 2400 
C 2573 2131 2586 1754 2586 1434 
C 2586 1069 2579 819 2381 550 
C 2221 333 2016 224 1690 224 
C 966 224 838 934 794 1389 
z
" transform="scale(0.015625)"/>
       </defs>
       <use xlink:href="#CMUBright-Roman-30"/>
       <use xlink:href="#CMUBright-Roman-2e" x="52.499985"/>
       <use xlink:href="#CMUBright-Roman-36" x="81.699982"/>
      </g>
     </g>
    </g>
    <g id="xtick_5">
     <g id="line2d_5">
      <g>
       <use xlink:href="#mc139ad930e" x="336.214445" y="529.647397" style="fill: #5a5758; stroke: #5a5758; stroke-width: 0.8"/>
      </g>
     </g>
     <g id="text_5">
      <!-- 0.8 -->
      <g style="fill: #5a5758" transform="translate(326.153237 547.068227) scale(0.14994 -0.14994)">
       <defs>
        <path id="CMUBright-Roman-38" d="M 275 1158 
C 275 518 851 -109 1670 -109 
C 2470 -109 3072 493 3072 1158 
C 3072 1792 2509 2163 2099 2266 
L 2285 2323 
C 2675 2483 2982 2803 2982 3213 
C 2982 3808 2400 4301 1677 4301 
C 909 4301 371 3763 371 3206 
C 371 2682 864 2362 1248 2266 
C 563 2054 275 1600 275 1158 
z
M 698 1158 
C 698 1882 1235 2106 1670 2106 
C 2195 2106 2650 1805 2650 1165 
C 2650 557 2259 224 1670 224 
C 1126 224 698 525 698 1158 
z
M 755 3206 
C 755 3514 915 3981 1683 3981 
C 2432 3981 2592 3514 2592 3206 
C 2592 2720 2234 2426 1670 2426 
C 1011 2426 755 2822 755 3206 
z
" transform="scale(0.015625)"/>
       </defs>
       <use xlink:href="#CMUBright-Roman-30"/>
       <use xlink:href="#CMUBright-Roman-2e" x="52.499985"/>
       <use xlink:href="#CMUBright-Roman-38" x="81.699982"/>
      </g>
     </g>
    </g>
    <g id="xtick_6">
     <g id="line2d_6">
      <g>
       <use xlink:href="#mc139ad930e" x="403.867392" y="529.647397" style="fill: #5a5758; stroke: #5a5758; stroke-width: 0.8"/>
      </g>
     </g>
     <g id="text_6">
      <!-- 1.0 -->
      <g style="fill: #5a5758" transform="translate(393.806184 547.068227) scale(0.14994 -0.14994)">
       <defs>
        <path id="CMUBright-Roman-31" d="M 672 3558 
C 1197 3558 1472 3706 1549 3744 
L 1549 320 
L 710 320 
L 710 0 
L 2803 0 
L 2803 320 
L 1965 320 
L 1965 4301 
L 1862 4301 
C 1696 4141 1389 3885 672 3885 
L 672 3558 
z
" transform="scale(0.015625)"/>
       </defs>
       <use xlink:href="#CMUBright-Roman-31"/>
       <use xlink:href="#CMUBright-Roman-2e" x="52.499985"/>
       <use xlink:href="#CMUBright-Roman-30" x="81.699982"/>
      </g>
     </g>
    </g>
    <g id="xtick_7">
     <g id="line2d_7">
      <g>
       <use xlink:href="#mc139ad930e" x="471.520339" y="529.647397" style="fill: #5a5758; stroke: #5a5758; stroke-width: 0.8"/>
      </g>
     </g>
     <g id="text_7">
      <!-- 1.2 -->
      <g style="fill: #5a5758" transform="translate(461.459131 547.068227) scale(0.14994 -0.14994)">
       <use xlink:href="#CMUBright-Roman-31"/>
       <use xlink:href="#CMUBright-Roman-2e" x="52.499985"/>
       <use xlink:href="#CMUBright-Roman-32" x="81.699982"/>
      </g>
     </g>
    </g>
    <g id="xtick_8">
     <g id="line2d_8">
      <g>
       <use xlink:href="#mc139ad930e" x="539.173286" y="529.647397" style="fill: #5a5758; stroke: #5a5758; stroke-width: 0.8"/>
      </g>
     </g>
     <g id="text_8">
      <!-- 1.4 -->
      <g style="fill: #5a5758" transform="translate(529.112078 547.068227) scale(0.14994 -0.14994)">
       <use xlink:href="#CMUBright-Roman-31"/>
       <use xlink:href="#CMUBright-Roman-2e" x="52.499985"/>
       <use xlink:href="#CMUBright-Roman-34" x="81.699982"/>
      </g>
     </g>
    </g>
    <g id="text_9">
     <!-- $x_1$ -->
     <g style="fill: #5a5758" transform="translate(311.561208 570.082694) scale(0.18 -0.18)">
      <defs>
       <path id="CMUBright-SemiBold-78" d="M 0 0 
L 653 0 
L 1440 1197 
L 1446 1197 
L 2272 0 
L 2931 0 
L 1709 1562 
L 1709 1568 
L 2816 3021 
L 2163 3021 
L 1446 2022 
L 698 3021 
L 38 3021 
L 1184 1568 
L 1184 1562 
L 0 0 
z
" transform="scale(0.015625)"/>
       <path id="CMUBright-SemiBold-31" d="M 570 3398 
C 832 3398 1120 3418 1446 3533 
L 1446 480 
L 608 480 
L 608 0 
L 2893 0 
L 2893 480 
L 2067 480 
L 2067 4301 
L 1914 4301 
C 1613 4026 1210 3885 570 3885 
L 570 3398 
z
" transform="scale(0.015625)"/>
      </defs>
      <use xlink:href="#CMUBright-SemiBold-78" transform="translate(0 0.796875)"/>
      <use xlink:href="#CMUBright-SemiBold-31" transform="translate(46.626042 -13.364063) scale(0.7)"/>
     </g>
    </g>
   </g>
   <g id="matplotlib.axis_2">
    <g id="ytick_1">
     <g id="line2d_9">
      <defs>
       <path id="m117d2e6f7c" d="M 0 0 
L -3.5 0 
" style="stroke: #5a5758; stroke-width: 0.8"/>
      </defs>
      <g>
       <use xlink:href="#m117d2e6f7c" x="53.602657" y="517.647397" style="fill: #5a5758; stroke: #5a5758; stroke-width: 0.8"/>
      </g>
     </g>
     <g id="text_10">
      <!-- 0.0 -->
      <g style="fill: #5a5758" transform="translate(26.48024 522.857812) scale(0.14994 -0.14994)">
       <use xlink:href="#CMUBright-Roman-30"/>
       <use xlink:href="#CMUBright-Roman-2e" x="52.499985"/>
       <use xlink:href="#CMUBright-Roman-30" x="81.699982"/>
      </g>
     </g>
    </g>
    <g id="ytick_2">
     <g id="line2d_10">
      <g>
       <use xlink:href="#m117d2e6f7c" x="53.602657" y="449.99445" style="fill: #5a5758; stroke: #5a5758; stroke-width: 0.8"/>
      </g>
     </g>
     <g id="text_11">
      <!-- 0.2 -->
      <g style="fill: #5a5758" transform="translate(26.48024 455.204865) scale(0.14994 -0.14994)">
       <use xlink:href="#CMUBright-Roman-30"/>
       <use xlink:href="#CMUBright-Roman-2e" x="52.499985"/>
       <use xlink:href="#CMUBright-Roman-32" x="81.699982"/>
      </g>
     </g>
    </g>
    <g id="ytick_3">
     <g id="line2d_11">
      <g>
       <use xlink:href="#m117d2e6f7c" x="53.602657" y="382.341503" style="fill: #5a5758; stroke: #5a5758; stroke-width: 0.8"/>
      </g>
     </g>
     <g id="text_12">
      <!-- 0.4 -->
      <g style="fill: #5a5758" transform="translate(26.48024 387.551918) scale(0.14994 -0.14994)">
       <use xlink:href="#CMUBright-Roman-30"/>
       <use xlink:href="#CMUBright-Roman-2e" x="52.499985"/>
       <use xlink:href="#CMUBright-Roman-34" x="81.699982"/>
      </g>
     </g>
    </g>
    <g id="ytick_4">
     <g id="line2d_12">
      <g>
       <use xlink:href="#m117d2e6f7c" x="53.602657" y="314.688556" style="fill: #5a5758; stroke: #5a5758; stroke-width: 0.8"/>
      </g>
     </g>
     <g id="text_13">
      <!-- 0.6 -->
      <g style="fill: #5a5758" transform="translate(26.48024 319.898971) scale(0.14994 -0.14994)">
       <use xlink:href="#CMUBright-Roman-30"/>
       <use xlink:href="#CMUBright-Roman-2e" x="52.499985"/>
       <use xlink:href="#CMUBright-Roman-36" x="81.699982"/>
      </g>
     </g>
    </g>
    <g id="ytick_5">
     <g id="line2d_13">
      <g>
       <use xlink:href="#m117d2e6f7c" x="53.602657" y="247.035609" style="fill: #5a5758; stroke: #5a5758; stroke-width: 0.8"/>
      </g>
     </g>
     <g id="text_14">
      <!-- 0.8 -->
      <g style="fill: #5a5758" transform="translate(26.48024 252.246024) scale(0.14994 -0.14994)">
       <use xlink:href="#CMUBright-Roman-30"/>
       <use xlink:href="#CMUBright-Roman-2e" x="52.499985"/>
       <use xlink:href="#CMUBright-Roman-38" x="81.699982"/>
      </g>
     </g>
    </g>
    <g id="ytick_6">
     <g id="line2d_14">
      <g>
       <use xlink:href="#m117d2e6f7c" x="53.602657" y="179.382661" style="fill: #5a5758; stroke: #5a5758; stroke-width: 0.8"/>
      </g>
     </g>
     <g id="text_15">
      <!-- 1.0 -->
      <g style="fill: #5a5758" transform="translate(26.48024 184.593076) scale(0.14994 -0.14994)">
       <use xlink:href="#CMUBright-Roman-31"/>
       <use xlink:href="#CMUBright-Roman-2e" x="52.499985"/>
       <use xlink:href="#CMUBright-Roman-30" x="81.699982"/>
      </g>
     </g>
    </g>
    <g id="ytick_7">
     <g id="line2d_15">
      <g>
       <use xlink:href="#m117d2e6f7c" x="53.602657" y="111.729714" style="fill: #5a5758; stroke: #5a5758; stroke-width: 0.8"/>
      </g>
     </g>
     <g id="text_16">
      <!-- 1.2 -->
      <g style="fill: #5a5758" transform="translate(26.48024 116.940129) scale(0.14994 -0.14994)">
       <use xlink:href="#CMUBright-Roman-31"/>
       <use xlink:href="#CMUBright-Roman-2e" x="52.499985"/>
       <use xlink:href="#CMUBright-Roman-32" x="81.699982"/>
      </g>
     </g>
    </g>
    <g id="ytick_8">
     <g id="line2d_16">
      <g>
       <use xlink:href="#m117d2e6f7c" x="53.602657" y="44.076767" style="fill: #5a5758; stroke: #5a5758; stroke-width: 0.8"/>
      </g>
     </g>
     <g id="text_17">
      <!-- 1.4 -->
      <g style="fill: #5a5758" transform="translate(26.48024 49.287182) scale(0.14994 -0.14994)">
       <use xlink:href="#CMUBright-Roman-31"/>
       <use xlink:href="#CMUBright-Roman-2e" x="52.499985"/>
       <use xlink:href="#CMUBright-Roman-34" x="81.699982"/>
      </g>
     </g>
    </g>
    <g id="text_18">
     <!-- $x_2$ -->
     <g style="fill: #5a5758" transform="translate(3.00024 260.942283) scale(0.18 -0.18)">
      <defs>
       <path id="CMUBright-SemiBold-32" d="M 275 3373 
L 627 2938 
C 742 3379 960 3795 1491 3795 
C 2029 3795 2381 3398 2381 2906 
C 2381 2400 2048 2048 1574 1645 
C 1139 1274 1222 1350 333 512 
L 333 0 
L 3021 0 
L 3021 538 
L 877 538 
C 1517 1107 1728 1299 1952 1478 
C 2541 1939 3021 2298 3021 2918 
C 3021 3642 2496 4301 1581 4301 
C 1075 4301 538 4115 275 3373 
z
" transform="scale(0.015625)"/>
      </defs>
      <use xlink:href="#CMUBright-SemiBold-78" transform="translate(0 0.796875)"/>
      <use xlink:href="#CMUBright-SemiBold-32" transform="translate(46.626042 -13.364063) scale(0.7)"/>
     </g>
    </g>
   </g>
   <g id="PathCollection_1">
    <path d="M 403.867392 179.382661 
L 403.867392 179.382661 
L 403.867392 179.382661 
L 403.867392 179.382661 
L 403.867392 179.382661 
z
" clip-path="url(#p123f89a84d)" style="fill: none; stroke: #352a87; stroke-width: 2"/>
   </g>
   <g id="PathCollection_2">
    <path d="M 65.602657 416.167976 
L 65.602657 416.167976 
L 82.515893 414.873262 
L 99.42913 411.979937 
L 116.342367 407.351428 
L 133.255604 400.738357 
L 136.22936 399.25474 
L 150.16884 392.912276 
L 167.082077 382.93495 
L 167.937631 382.341503 
L 183.995314 371.847608 
L 192.160785 365.428266 
L 200.908551 358.82405 
L 212.645046 348.515029 
L 217.821788 344.073666 
L 230.679903 331.601792 
L 234.735024 327.698738 
L 247.002105 314.688556 
L 251.648261 309.722751 
L 262.039083 297.775319 
L 268.561498 290.097246 
L 276.026651 280.862082 
L 285.474735 268.690842 
L 289.062551 263.948845 
L 301.302195 247.035609 
L 302.387972 245.52099 
L 313.312736 230.122372 
L 319.301208 221.07379 
L 324.583045 213.209135 
L 335.123897 196.295898 
L 336.214445 194.528844 
L 345.82993 179.382661 
L 353.127682 166.652306 
L 355.669445 162.469425 
L 365.475338 145.556188 
L 370.040919 137.072723 
L 374.920447 128.642951 
L 383.907548 111.729714 
L 386.954155 105.715026 
L 392.984881 94.816478 
L 401.381294 77.903241 
L 403.867392 72.699168 
L 410.083589 60.990004 
L 418.066524 44.076767 
L 420.780629 38.062079 
L 426.352462 27.16353 
L 434.074407 10.250294 
" clip-path="url(#p123f89a84d)" style="fill: none; stroke: #363296; stroke-width: 2"/>
    <path d="M 520.963322 10.250294 
L 513.961056 27.16353 
L 508.0249 44.076767 
L 505.346813 52.130689 
L 501.40064 60.990004 
L 494.607446 77.903241 
L 488.735696 94.816478 
L 488.433576 95.6778 
L 481.115692 111.729714 
L 474.558719 128.642951 
L 471.520339 136.965337 
L 467.436789 145.556188 
L 460.139166 162.469425 
L 454.607103 176.977144 
L 453.414988 179.382661 
L 445.357838 196.295898 
L 438.472605 213.209135 
L 437.693866 215.127651 
L 430.073528 230.122372 
L 422.648847 247.035609 
L 420.780629 251.409165 
L 414.133393 263.948845 
L 406.215434 280.862082 
L 403.867392 286.066155 
L 397.386535 297.775319 
L 389.046117 314.688556 
L 386.954155 319.062112 
L 379.696017 331.601792 
L 371.017207 348.515029 
L 370.040919 350.433546 
L 360.943952 365.428266 
L 353.127682 379.935986 
L 351.579722 382.341503 
L 341.026287 399.25474 
L 336.214445 407.577126 
L 330.390923 416.167976 
L 319.837363 433.081213 
L 319.301208 433.942535 
L 307.782226 449.99445 
L 302.387972 458.048372 
L 295.584536 466.907687 
L 285.474735 480.846894 
L 283.019162 483.820924 
L 269.481538 500.73416 
L 268.561498 501.895368 
L 254.552724 517.647397 
" clip-path="url(#p123f89a84d)" style="fill: none; stroke: #363296; stroke-width: 2"/>
   </g>
   <g id="PathCollection_3">
    <path d="M 65.602657 370.402747 
L 82.515893 369.143674 
L 99.42913 366.121097 
L 101.882677 365.428266 
L 116.342367 361.683526 
L 133.255604 355.51361 
L 147.774269 348.515029 
L 150.16884 347.429382 
L 167.082077 338.017158 
L 176.536014 331.601792 
L 183.995314 326.735733 
L 199.556699 314.688556 
L 200.908551 313.670124 
L 217.821788 299.088847 
L 219.182623 297.775319 
L 234.735024 282.851875 
L 236.615579 280.862082 
L 251.648261 264.86206 
L 252.442463 263.948845 
L 267.067265 247.035609 
L 268.561498 245.289726 
L 280.780785 230.122372 
L 285.474735 224.134993 
L 293.683016 213.209135 
L 302.387972 201.156024 
L 305.813437 196.295898 
L 317.347028 179.382661 
L 319.301208 176.468556 
L 328.57963 162.469425 
L 336.214445 150.221908 
L 339.144465 145.556188 
L 349.414488 128.642951 
L 353.127682 122.281799 
L 359.407755 111.729714 
L 368.784115 94.816478 
L 370.040919 92.525007 
L 378.315501 77.903241 
L 386.954155 61.102592 
L 387.015312 60.990004 
L 396.138387 44.076767 
L 403.867392 28.158427 
L 404.384814 27.16353 
L 413.062492 10.250294 
" clip-path="url(#p123f89a84d)" style="fill: none; stroke: #3639a6; stroke-width: 2"/>
    <path d="M 537.105515 10.250294 
L 530.59986 27.16353 
L 524.790598 44.076767 
L 522.26005 51.73733 
L 518.425521 60.990004 
L 511.903886 77.903241 
L 506.038529 94.816478 
L 505.346813 96.816968 
L 498.983129 111.729714 
L 492.493621 128.642951 
L 488.433576 139.938577 
L 485.939236 145.556188 
L 478.772277 162.469425 
L 472.345166 179.382661 
L 471.520339 181.565015 
L 464.772954 196.295898 
L 457.782942 213.209135 
L 454.607103 221.247647 
L 450.372312 230.122372 
L 442.814636 247.035609 
L 437.693866 259.399768 
L 435.430222 263.948845 
L 427.322165 280.862082 
L 420.780629 295.883707 
L 419.797824 297.775319 
L 411.178754 314.688556 
L 403.867392 330.606896 
L 403.326817 331.601792 
L 394.254185 348.515029 
L 386.954155 363.536654 
L 385.877103 365.428266 
L 376.418637 382.341503 
L 370.040919 394.705662 
L 367.319683 399.25474 
L 357.543159 416.167976 
L 353.127682 424.206488 
L 347.532628 433.081213 
L 337.495246 449.99445 
L 336.214445 452.176803 
L 326.389454 466.907687 
L 319.301208 478.203313 
L 315.30697 483.820924 
L 303.740416 500.73416 
L 302.387972 502.734651 
L 291.069923 517.647397 
" clip-path="url(#p123f89a84d)" style="fill: none; stroke: #3639a6; stroke-width: 2"/>
   </g>
   <g id="PathCollection_4">
    <path d="M 65.602657 335.628754 
L 82.515893 334.444268 
L 98.8704 331.601792 
L 99.42913 331.511988 
L 116.342367 327.157285 
L 133.255604 321.011261 
L 146.537164 314.688556 
L 150.16884 313.044213 
L 167.082077 303.623821 
L 175.769077 297.775319 
L 183.995314 292.412445 
L 198.999753 280.862082 
L 200.908551 279.425205 
L 217.821788 264.849131 
L 218.757324 263.948845 
L 234.735024 248.646393 
L 236.259598 247.035609 
L 251.648261 230.698959 
L 252.149694 230.122372 
L 266.814455 213.209135 
L 268.561498 211.17356 
L 280.532487 196.295898 
L 285.474735 190.014659 
L 293.441748 179.382661 
L 302.387972 167.053386 
L 305.605578 162.469425 
L 317.17993 145.556188 
L 319.301208 142.408447 
L 328.380685 128.642951 
L 336.214445 116.155608 
L 338.975186 111.729714 
L 349.256627 94.816478 
L 353.127682 88.229116 
L 359.227297 77.903241 
L 368.66843 60.990004 
L 370.040919 58.505405 
L 378.138943 44.076767 
L 386.920496 27.16353 
L 386.954155 27.098906 
L 395.966318 10.250294 
" clip-path="url(#p123f89a84d)" style="fill: none; stroke: #3341b6; stroke-width: 2"/>
    <path d="M 548.842369 10.250294 
L 543.073648 27.16353 
L 539.173286 39.271511 
L 537.275571 44.076767 
L 530.819741 60.990004 
L 524.934384 77.903241 
L 522.26005 85.86366 
L 518.615179 94.816478 
L 512.101518 111.729714 
L 506.134788 128.642951 
L 505.346813 130.888071 
L 499.183681 145.556188 
L 492.652012 162.469425 
L 488.433576 174.023525 
L 486.092272 179.382661 
L 478.959194 196.295898 
L 472.437473 213.209135 
L 471.520339 215.60393 
L 464.958988 230.122372 
L 457.917407 247.035609 
L 454.607103 255.304946 
L 450.537199 263.948845 
L 442.972155 280.862082 
L 437.693866 293.444266 
L 435.566488 297.775319 
L 427.489567 314.688556 
L 420.780629 329.908465 
L 419.911569 331.601792 
L 411.349056 348.515029 
L 403.867392 364.622874 
L 403.43469 365.428266 
L 394.424701 382.341503 
L 386.954155 397.561412 
L 385.999658 399.25474 
L 376.58705 416.167976 
L 370.040919 428.75016 
L 367.472591 433.081213 
L 357.70232 449.99445 
L 353.127682 458.263787 
L 347.717911 466.907687 
L 337.627838 483.820924 
L 336.214445 486.215718 
L 326.588723 500.73416 
L 319.301208 512.288261 
L 315.512588 517.647397 
" clip-path="url(#p123f89a84d)" style="fill: none; stroke: #3341b6; stroke-width: 2"/>
   </g>
   <g id="PathCollection_5">
    <path d="M 65.602657 306.570202 
L 82.515893 305.459294 
L 99.42913 302.643031 
L 116.342367 298.050773 
L 117.080587 297.775319 
L 133.255604 292.04879 
L 150.16884 284.184325 
L 155.977579 280.862082 
L 167.082077 274.736028 
L 183.19229 263.948845 
L 183.995314 263.425572 
L 200.908551 250.665767 
L 205.107535 247.035609 
L 217.821788 236.176156 
L 224.125571 230.122372 
L 234.735024 219.97443 
L 241.144588 213.209135 
L 251.648261 202.077984 
L 256.676601 196.295898 
L 268.561498 182.462796 
L 271.038696 179.382661 
L 284.448567 162.469425 
L 285.474735 161.168531 
L 297.152951 145.556188 
L 302.387972 138.364733 
L 309.192884 128.642951 
L 319.301208 113.671285 
L 320.579501 111.729714 
L 331.59936 94.816478 
L 336.214445 87.491847 
L 342.168136 77.903241 
L 352.206602 60.990004 
L 353.127682 59.429904 
L 362.150296 44.076767 
L 370.040919 29.831147 
L 371.533461 27.16353 
L 380.855739 10.250294 
" clip-path="url(#p123f89a84d)" style="fill: none; stroke: #2c4ac6; stroke-width: 2"/>
    <path d="M 559.044159 10.250294 
L 556.086523 19.675549 
L 553.257361 27.16353 
L 547.126664 44.076767 
L 541.459314 60.990004 
L 539.173286 67.995014 
L 535.312593 77.903241 
L 529.057047 94.816478 
L 523.260692 111.729714 
L 522.26005 114.673205 
L 516.641128 128.642951 
L 510.297561 145.556188 
L 505.346813 159.581799 
L 504.14052 162.469425 
L 497.205728 179.382661 
L 490.805163 196.295898 
L 488.433576 202.72127 
L 483.901645 213.209135 
L 476.97174 230.122372 
L 471.520339 244.285489 
L 470.283709 247.035609 
L 462.80856 263.948845 
L 455.90183 280.862082 
L 454.607103 284.066781 
L 448.211226 297.775319 
L 440.827799 314.688556 
L 437.693866 322.093091 
L 433.064144 331.601792 
L 425.209805 348.515029 
L 420.780629 358.479352 
L 417.24364 365.428266 
L 408.933843 382.341503 
L 403.867392 393.165974 
L 400.620916 399.25474 
L 391.878684 416.167976 
L 386.954155 426.132299 
L 383.063724 433.081213 
L 373.916161 449.99445 
L 370.040919 457.398985 
L 364.435557 466.907687 
L 354.909312 483.820924 
L 353.127682 487.025623 
L 344.59126 500.73416 
L 336.214445 514.897277 
L 334.395206 517.647397 
" clip-path="url(#p123f89a84d)" style="fill: none; stroke: #2c4ac6; stroke-width: 2"/>
   </g>
   <g id="PathCollection_6">
    <path d="M 65.602657 280.862082 
L 65.602657 280.862082 
L 82.515893 279.815978 
L 99.42913 277.124612 
L 116.342367 272.731992 
L 133.255604 266.541385 
L 138.76758 263.948845 
L 150.16884 258.793275 
L 167.082077 249.257786 
L 170.407908 247.035609 
L 183.995314 238.183245 
L 194.524566 230.122372 
L 200.908551 225.320432 
L 214.950634 213.209135 
L 217.821788 210.758471 
L 232.904092 196.295898 
L 234.735024 194.546253 
L 249.111621 179.382661 
L 251.648261 176.697905 
L 264.021783 162.469425 
L 268.561498 157.194387 
L 277.914571 145.556188 
L 285.474735 135.98155 
L 290.960261 128.642951 
L 302.387972 112.964257 
L 303.251167 111.729714 
L 315.006341 94.816478 
L 319.301208 88.474014 
L 326.240846 77.903241 
L 336.214445 62.101093 
L 336.903103 60.990004 
L 347.322017 44.076767 
L 353.127682 34.261372 
L 357.290465 27.16353 
L 366.909112 10.250294 
" clip-path="url(#p123f89a84d)" style="fill: none; stroke: #1d54d5; stroke-width: 2"/>
    <path d="M 567.502099 10.250294 
L 561.775141 27.16353 
L 556.415897 44.076767 
L 556.086523 45.115682 
L 550.151435 60.990004 
L 544.259457 77.903241 
L 539.173286 93.409099 
L 538.627756 94.816478 
L 532.140488 111.729714 
L 526.112696 128.642951 
L 522.26005 139.922989 
L 520.004911 145.556188 
L 513.420872 162.469425 
L 507.28475 179.382661 
L 505.346813 184.823283 
L 500.59752 196.295898 
L 493.947833 213.209135 
L 488.433576 228.085096 
L 487.556985 230.122372 
L 480.368681 247.035609 
L 473.677157 263.948845 
L 471.520339 269.507741 
L 466.454877 280.862082 
L 459.279244 297.775319 
L 454.607103 309.29784 
L 452.100942 314.688556 
L 444.436876 331.601792 
L 437.693866 347.478013 
L 437.190669 348.515029 
L 429.043462 365.428266 
L 421.453207 382.341503 
L 420.780629 383.845386 
L 412.983851 399.25474 
L 404.965431 416.167976 
L 403.867392 418.500837 
L 396.135627 433.081213 
L 387.701124 449.99445 
L 386.954155 451.498333 
L 378.369229 466.907687 
L 370.040919 482.783908 
L 369.431007 483.820924 
L 359.546017 500.73416 
L 353.127682 512.256682 
L 349.777435 517.647397 
" clip-path="url(#p123f89a84d)" style="fill: none; stroke: #1d54d5; stroke-width: 2"/>
   </g>
   <g id="PathCollection_7">
    <path d="M 65.602657 257.947374 
L 82.515893 256.894821 
L 99.42913 254.154644 
L 116.342367 249.672332 
L 123.497234 247.035609 
L 133.255604 243.588325 
L 150.16884 235.840987 
L 160.243512 230.122372 
L 167.082077 226.351905 
L 183.995314 215.171576 
L 186.562157 213.209135 
L 200.908551 202.420038 
L 208.015734 196.295898 
L 217.821788 187.928225 
L 226.738897 179.382661 
L 234.735024 171.744425 
L 243.531201 162.469425 
L 251.648261 153.88281 
L 258.889311 145.556188 
L 268.561498 134.324914 
L 273.126462 128.642951 
L 285.474735 113.017874 
L 286.437038 111.729714 
L 299.004734 94.816478 
L 302.387972 90.18419 
L 310.959726 77.903241 
L 319.301208 65.599554 
L 322.323864 60.990004 
L 333.214466 44.076767 
L 336.214445 39.336752 
L 343.737727 27.16353 
L 353.127682 11.313692 
L 353.75026 10.250294 
" clip-path="url(#p123f89a84d)" style="fill: none; stroke: #0a5fdf; stroke-width: 2"/>
    <path d="M 572.99976 17.88853 
L 569.652067 27.16353 
L 563.786503 44.076767 
L 558.283188 60.990004 
L 556.086523 67.889898 
L 552.358454 77.903241 
L 546.322781 94.816478 
L 540.655583 111.729714 
L 539.173286 116.211183 
L 534.394618 128.642951 
L 528.216904 145.556188 
L 522.407399 162.469425 
L 522.26005 162.897558 
L 515.710561 179.382661 
L 509.417411 196.295898 
L 505.346813 207.681933 
L 503.067017 213.209135 
L 496.259581 230.122372 
L 489.87412 247.035609 
L 488.433576 250.89478 
L 482.855105 263.948845 
L 475.995395 280.862082 
L 471.520339 292.358661 
L 469.111449 297.775319 
L 461.764583 314.688556 
L 454.868238 331.601792 
L 454.607103 332.242004 
L 447.085139 348.515029 
L 439.746116 365.428266 
L 437.693866 370.232918 
L 431.850556 382.341503 
L 424.069162 399.25474 
L 420.780629 406.5897 
L 415.945825 416.167976 
L 407.728127 433.081213 
L 403.867392 441.265037 
L 399.248458 449.99445 
L 390.604762 466.907687 
L 386.954155 474.242648 
L 381.628372 483.820924 
L 372.570849 500.73416 
L 370.040919 505.538812 
L 362.945802 517.647397 
" clip-path="url(#p123f89a84d)" style="fill: none; stroke: #0a5fdf; stroke-width: 2"/>
   </g>
   <g id="PathCollection_8">
    <path d="M 65.602657 236.785162 
L 82.515893 235.732271 
L 99.42913 232.965456 
L 110.097854 230.122372 
L 116.342367 228.531486 
L 133.255604 222.526607 
L 150.16884 214.67278 
L 152.752329 213.209135 
L 167.082077 205.309539 
L 180.638561 196.295898 
L 183.995314 194.109825 
L 200.908551 181.291886 
L 203.126088 179.382661 
L 217.821788 166.845532 
L 222.390575 162.469425 
L 234.735024 150.681411 
L 239.596896 145.556188 
L 251.648261 132.813426 
L 255.275001 128.642951 
L 268.561498 113.22389 
L 269.761624 111.729714 
L 283.27361 94.816478 
L 285.474735 92.035217 
L 296.021332 77.903241 
L 302.387972 69.19343 
L 308.109599 60.990004 
L 319.301208 44.499598 
L 319.578195 44.076767 
L 330.631513 27.16353 
L 336.214445 18.352443 
L 341.215818 10.250294 
" clip-path="url(#p123f89a84d)" style="fill: none; stroke: #0266e1; stroke-width: 2"/>
    <path d="M 572.99976 38.951544 
L 571.157109 44.076767 
L 565.208634 60.990004 
L 559.61122 77.903241 
L 556.086523 88.93389 
L 553.90443 94.816478 
L 547.782009 111.729714 
L 542.017019 128.642951 
L 539.173286 137.210974 
L 535.976382 145.556188 
L 529.706436 162.469425 
L 523.794406 179.382661 
L 522.26005 183.826752 
L 517.321485 196.295898 
L 510.9292 213.209135 
L 505.346813 228.773463 
L 504.792193 230.122372 
L 497.891059 247.035609 
L 491.398531 263.948845 
L 488.433576 271.869036 
L 484.601272 280.862082 
L 477.636546 297.775319 
L 471.520339 313.443409 
L 470.968127 314.688556 
L 463.51868 331.601792 
L 456.505845 348.515029 
L 454.607103 353.158686 
L 448.949034 365.428266 
L 441.49223 382.341503 
L 437.693866 391.213356 
L 433.821992 399.25474 
L 425.920549 416.167976 
L 420.780629 427.607405 
L 418.023421 433.081213 
L 409.681791 449.99445 
L 403.867392 462.294986 
L 401.431399 466.907687 
L 392.657715 483.820924 
L 386.954155 495.260352 
L 383.915828 500.73416 
L 374.719716 517.647397 
" clip-path="url(#p123f89a84d)" style="fill: none; stroke: #0266e1; stroke-width: 2"/>
   </g>
   <g id="PathCollection_9">
    <path d="M 65.602657 217.075018 
L 82.515893 216.025989 
L 99.42913 213.248241 
L 99.576402 213.209135 
L 116.342367 208.942174 
L 133.255604 202.889194 
L 147.411944 196.295898 
L 150.16884 195.050574 
L 167.082077 185.689292 
L 176.579247 179.382661 
L 183.995314 174.553487 
L 199.851185 162.469425 
L 200.908551 161.674595 
L 217.821788 147.209954 
L 219.549178 145.556188 
L 234.735024 131.059128 
L 237.027567 128.642951 
L 251.648261 113.189632 
L 252.917834 111.729714 
L 267.557047 94.816478 
L 268.561498 93.65196 
L 281.205383 77.903241 
L 285.474735 72.511854 
L 294.069843 60.990004 
L 302.387972 49.618958 
L 306.251 44.076767 
L 317.8245 27.16353 
L 319.301208 24.991454 
L 328.941564 10.250294 
" clip-path="url(#p123f89a84d)" style="fill: none; stroke: #046ce0; stroke-width: 2"/>
    <path d="M 572.99976 58.573827 
L 572.134079 60.990004 
L 566.142215 77.903241 
L 560.48717 94.816478 
L 556.086523 108.543424 
L 554.908436 111.729714 
L 548.739793 128.642951 
L 542.914375 145.556188 
L 539.173286 156.793457 
L 537.005473 162.469425 
L 530.684586 179.382661 
L 524.708034 196.295898 
L 522.26005 203.366244 
L 518.372382 213.209135 
L 511.922742 230.122372 
L 505.813419 247.035609 
L 505.346813 248.329517 
L 498.958575 263.948845 
L 492.400934 280.862082 
L 488.433576 291.432855 
L 485.737483 297.775319 
L 478.713188 314.688556 
L 472.0641 331.601792 
L 471.520339 332.988123 
L 464.665896 348.515029 
L 457.581627 365.428266 
L 454.607103 372.68706 
L 450.164295 382.341503 
L 442.637932 399.25474 
L 437.693866 410.778674 
L 435.104103 416.167976 
L 427.133871 433.081213 
L 420.780629 447.193647 
L 419.372454 449.99445 
L 410.961055 466.907687 
L 403.867392 481.887982 
L 402.848331 483.820924 
L 394.001588 500.73416 
L 386.954155 514.846594 
L 385.4019 517.647397 
" clip-path="url(#p123f89a84d)" style="fill: none; stroke: #046ce0; stroke-width: 2"/>
   </g>
   <g id="PathCollection_10">
    <path d="M 65.602657 198.581471 
L 82.515893 197.539182 
L 90.120892 196.295898 
L 99.42913 194.841185 
L 116.342367 190.521648 
L 133.255604 184.447588 
L 144.150111 179.382661 
L 150.16884 176.664463 
L 167.082077 167.263016 
L 174.308936 162.469425 
L 183.995314 156.162474 
L 197.923776 145.556188 
L 200.908551 143.312774 
L 217.821788 128.786187 
L 217.971462 128.642951 
L 234.735024 112.643943 
L 235.602648 111.729714 
L 251.612243 94.816478 
L 251.648261 94.778434 
L 266.323162 77.903241 
L 268.561498 75.309294 
L 280.05564 60.990004 
L 285.474735 54.150353 
L 292.986671 44.076767 
L 302.387971 31.233561 
L 305.223252 27.16353 
L 316.854076 10.250294 
" clip-path="url(#p123f89a84d)" style="fill: none; stroke: #0971de; stroke-width: 2"/>
    <path d="M 572.99976 76.989012 
L 572.67321 77.903241 
L 566.666227 94.816478 
L 560.980387 111.729714 
L 556.086523 126.950488 
L 555.462566 128.642951 
L 549.276771 145.556188 
L 543.418485 162.469425 
L 539.173286 175.186008 
L 537.574765 179.382661 
L 531.232731 196.295898 
L 525.219818 213.209135 
L 522.26005 221.736039 
L 518.955821 230.122372 
L 512.479227 247.035609 
L 506.328736 263.948845 
L 505.346813 266.665479 
L 499.553353 280.862082 
L 492.961446 297.775319 
L 488.433576 309.811906 
L 486.365154 314.688556 
L 479.314249 331.601792 
L 472.622487 348.515029 
L 471.520339 351.319296 
L 465.303906 365.428266 
L 458.181405 382.341503 
L 454.607103 391.046911 
L 450.837047 399.25474 
L 443.276376 416.167976 
L 437.693866 429.155895 
L 435.810942 433.081213 
L 427.80918 449.99445 
L 420.780629 465.579929 
L 420.114168 466.907687 
L 411.672251 483.820924 
L 403.867392 500.277046 
L 403.626763 500.73416 
L 394.748208 517.647397 
" clip-path="url(#p123f89a84d)" style="fill: none; stroke: #0971de; stroke-width: 2"/>
   </g>
   <g id="PathCollection_11">
    <path d="M 65.602657 181.117352 
L 82.515893 180.083756 
L 86.822659 179.382661 
L 99.42913 177.416394 
L 116.342367 173.095029 
L 133.255604 167.019686 
L 143.059038 162.469425 
L 150.16884 159.259042 
L 167.082077 149.848888 
L 173.560383 145.556188 
L 183.995314 138.762423 
L 197.294481 128.642951 
L 200.908551 125.926835 
L 217.439794 111.729714 
L 217.821788 111.404062 
L 234.735024 95.25015 
L 235.146664 94.816478 
L 251.183208 77.903241 
L 251.648261 77.412178 
L 265.929171 60.990004 
L 268.561498 57.940622 
L 279.688209 44.076767 
L 285.474735 36.776871 
L 292.641067 27.16353 
L 302.387972 13.856161 
L 304.898618 10.250294 
" clip-path="url(#p123f89a84d)" style="fill: none; stroke: #0e76dc; stroke-width: 2"/>
    <path d="M 572.99976 94.382805 
L 572.845284 94.816478 
L 566.843496 111.729714 
L 561.146724 128.642951 
L 556.086523 144.339603 
L 555.639167 145.556188 
L 549.457175 162.469425 
L 543.586466 179.382661 
L 539.173286 192.569835 
L 537.757427 196.295898 
L 531.415852 213.209135 
L 525.38757 230.122372 
L 522.26005 239.112033 
L 519.145034 247.035609 
L 512.663727 263.948845 
L 506.49355 280.862082 
L 505.346813 284.028107 
L 499.747948 297.775319 
L 493.144587 314.688556 
L 488.433576 327.186153 
L 486.564397 331.601792 
L 479.510913 348.515029 
L 472.79975 365.428266 
L 471.520339 368.677607 
L 465.51049 382.341503 
L 458.374366 399.25474 
L 454.607103 408.413957 
L 451.05146 416.167976 
L 443.482393 433.081213 
L 437.693866 446.525949 
L 436.032712 449.99445 
L 428.026647 466.907687 
L 420.780629 482.950389 
L 420.344316 483.820924 
L 411.900472 500.73416 
L 403.867392 517.647397 
" clip-path="url(#p123f89a84d)" style="fill: none; stroke: #0e76dc; stroke-width: 2"/>
   </g>
   <g id="PathCollection_12">
    <path d="M 65.602657 164.532015 
L 82.515893 163.50841 
L 88.922905 162.469425 
L 99.42913 160.833684 
L 116.342367 156.520666 
L 133.255604 150.458575 
L 143.833263 145.556188 
L 150.16884 142.695861 
L 167.082077 133.300219 
L 174.117046 128.642951 
L 183.995314 122.212105 
L 197.780824 111.729714 
L 200.908551 109.37933 
L 217.821788 94.862999 
L 217.870435 94.816478 
L 234.735024 78.728277 
L 235.518271 77.903241 
L 251.54089 60.990004 
L 251.648261 60.876658 
L 266.257602 44.076767 
L 268.561498 41.408764 
L 279.992568 27.16353 
L 285.474735 20.250596 
L 292.927277 10.250294 
" clip-path="url(#p123f89a84d)" style="fill: none; stroke: #117bd9; stroke-width: 2"/>
    <path d="M 572.99976 110.904678 
L 572.706605 111.729714 
L 566.724623 128.642951 
L 561.031671 145.556188 
L 556.086523 160.859375 
L 555.495864 162.469425 
L 549.332793 179.382661 
L 543.464884 196.295898 
L 539.173286 209.09113 
L 537.611886 213.209135 
L 531.286464 230.122372 
L 525.258521 247.035609 
L 522.26005 255.636534 
L 518.998717 263.948845 
L 512.529007 280.862082 
L 506.355333 297.775319 
L 505.346813 300.554489 
L 499.600791 314.688556 
L 493.002901 331.601792 
L 488.433576 343.70087 
L 486.399338 348.515029 
L 479.360831 365.428266 
L 472.647758 382.341503 
L 471.520339 385.200078 
L 465.348357 399.25474 
L 458.216906 416.167976 
L 454.607103 424.930365 
L 450.875148 433.081213 
L 443.316785 449.99445 
L 437.693866 463.034801 
L 435.841699 466.907687 
L 427.851271 483.820924 
L 420.780629 499.453322 
L 420.139527 500.73416 
L 411.714624 517.647397 
" clip-path="url(#p123f89a84d)" style="fill: none; stroke: #117bd9; stroke-width: 2"/>
   </g>
   <g id="PathCollection_13">
    <path d="M 65.602657 148.702837 
L 82.515893 147.690055 
L 95.720783 145.556188 
L 99.42913 144.979773 
L 116.342367 140.682606 
L 133.255604 134.644422 
L 146.222068 128.642951 
L 150.16884 126.86136 
L 167.082077 117.497362 
L 175.801607 111.729714 
L 183.995314 106.395908 
L 199.232999 94.816478 
L 200.908551 93.557465 
L 217.821788 79.090913 
L 219.064119 77.903241 
L 234.735024 62.956659 
L 236.602343 60.990004 
L 251.648261 45.10674 
L 252.543935 44.076767 
L 267.211911 27.16353 
L 268.561498 25.601142 
L 280.878077 10.250294 
" clip-path="url(#p123f89a84d)" style="fill: none; stroke: #1480d6; stroke-width: 2"/>
    <path d="M 572.99976 126.676296 
L 572.302523 128.642951 
L 566.350822 145.556188 
L 560.672652 162.469425 
L 556.086523 176.630827 
L 555.07912 179.382661 
L 548.945851 196.295898 
L 543.092083 213.209135 
L 539.173286 224.869136 
L 537.185359 230.122372 
L 530.887472 247.035609 
L 524.871635 263.948845 
L 522.26005 271.425921 
L 518.564464 280.862082 
L 512.118303 297.775319 
L 505.953356 314.688556 
L 505.346813 316.357126 
L 499.159466 331.601792 
L 492.579608 348.515029 
L 488.433576 359.474612 
L 485.921912 365.428266 
L 478.911195 382.341503 
L 472.209376 399.25474 
L 471.520339 400.999154 
L 464.868623 416.167976 
L 457.755461 433.081213 
L 454.607103 440.712396 
L 450.363049 449.99445 
L 442.829466 466.907687 
L 437.693866 478.801511 
L 435.296502 483.820924 
L 427.336302 500.73416 
L 420.780629 515.209497 
L 419.561856 517.647397 
" clip-path="url(#p123f89a84d)" style="fill: none; stroke: #1480d6; stroke-width: 2"/>
   </g>
   <g id="PathCollection_14">
    <path d="M 65.602657 133.528997 
L 82.515893 132.527534 
L 99.42913 129.81095 
L 103.886265 128.642951 
L 116.342367 125.485019 
L 133.255604 119.47851 
L 150.017739 111.729714 
L 150.16884 111.661516 
L 167.082077 102.34175 
L 178.467477 94.816478 
L 183.995314 91.218287 
L 200.908551 78.388643 
L 201.474277 77.903241 
L 217.821788 63.970538 
L 220.940366 60.990004 
L 234.735024 47.835264 
L 238.304159 44.076767 
L 251.648261 29.99339 
L 254.109128 27.16353 
L 268.561498 10.43232 
L 268.707544 10.250294 
" clip-path="url(#p123f89a84d)" style="fill: none; stroke: #1485d4; stroke-width: 2"/>
    <path d="M 572.99976 141.797691 
L 571.669972 145.556188 
L 565.755996 162.469425 
L 560.100736 179.382661 
L 556.086523 191.753513 
L 554.426818 196.295898 
L 548.331117 213.209135 
L 542.499925 230.122372 
L 539.173286 240.002086 
L 536.516422 247.035609 
L 530.254266 263.948845 
L 524.259341 280.862082 
L 522.26005 286.576287 
L 517.881273 297.775319 
L 511.46738 314.688556 
L 505.346813 331.525948 
L 505.31603 331.601792 
L 498.463113 348.515029 
L 491.910587 365.428266 
L 488.433576 374.605091 
L 485.174632 382.341503 
L 478.201002 399.25474 
L 471.520339 416.167976 
L 471.520339 416.167976 
L 464.113372 433.081213 
L 457.028607 449.99445 
L 454.607103 455.856047 
L 449.560265 466.907687 
L 442.061793 483.820924 
L 437.693866 493.924161 
L 434.445131 500.73416 
L 426.525782 517.647397 
" clip-path="url(#p123f89a84d)" style="fill: none; stroke: #1485d4; stroke-width: 2"/>
   </g>
   <g id="PathCollection_15">
    <path d="M 572.99976 156.351871 
L 570.839339 162.469425 
L 564.968292 179.382661 
L 559.341931 196.295898 
L 556.086523 206.310078 
L 553.57015 213.209135 
L 547.51748 230.122372 
L 541.715101 247.035609 
L 539.173286 254.571633 
L 535.636898 263.948845 
L 529.416307 280.862082 
L 523.448848 297.775319 
L 522.26005 301.167676 
L 516.981405 314.688556 
L 510.606081 331.601792 
L 505.346813 346.047003 
L 504.346617 348.515029 
L 497.544225 365.428266 
L 491.025869 382.341503 
L 488.433576 389.17356 
L 484.192628 399.25474 
L 477.262765 416.167976 
L 471.520339 430.685776 
L 470.471284 433.081213 
L 463.11757 449.99445 
L 456.068659 466.907687 
L 454.607103 470.441282 
L 448.504164 483.820924 
L 441.048328 500.73416 
L 437.693866 508.484276 
L 433.327295 517.647397 
" clip-path="url(#p123f89a84d)" style="fill: none; stroke: #128bd3; stroke-width: 2"/>
    <path d="M 65.602657 118.926836 
L 82.515893 117.936944 
L 99.42913 115.243022 
L 112.862577 111.729714 
L 116.342367 110.848011 
L 133.255604 104.878783 
L 150.16884 97.112495 
L 154.257488 94.816478 
L 167.082077 87.751455 
L 181.992413 77.903241 
L 183.995314 76.599585 
L 200.908551 63.850011 
L 204.243168 60.990004 
L 217.821788 49.418501 
L 223.412355 44.076767 
L 234.735024 33.281084 
L 240.545078 27.16353 
L 251.648261 15.447778 
L 256.168022 10.250294 
" clip-path="url(#p123f89a84d)" style="fill: none; stroke: #128bd3; stroke-width: 2"/>
   </g>
   <g id="PathCollection_16">
    <path d="M 572.99976 170.408291 
L 569.835848 179.382661 
L 564.011274 196.295898 
L 558.418175 213.209135 
L 556.086523 220.369703 
L 552.535035 230.122372 
L 546.529144 247.035609 
L 540.76014 263.948845 
L 539.173286 268.646206 
L 534.573273 280.862082 
L 528.39831 297.775319 
L 522.463157 314.688556 
L 522.26005 315.2673 
L 515.891777 331.601792 
L 509.559499 348.515029 
L 505.346813 360.068928 
L 503.177862 365.428266 
L 496.429999 382.341503 
L 489.950786 399.25474 
L 488.433576 403.248143 
L 483.00519 416.167976 
L 476.1238 433.081213 
L 471.520339 444.704713 
L 469.206533 449.99445 
L 461.910504 466.907687 
L 454.90289 483.820924 
L 454.607103 484.535245 
L 447.225974 500.73416 
L 439.818173 517.647397 
" clip-path="url(#p123f89a84d)" style="fill: none; stroke: #0e91d2; stroke-width: 2"/>
    <path d="M 65.602657 104.826352 
L 82.515893 103.848111 
L 99.42913 101.178082 
L 116.342367 96.782949 
L 121.780761 94.816478 
L 133.255604 90.776474 
L 150.16884 83.068753 
L 159.375173 77.903241 
L 167.082077 73.657813 
L 183.995314 62.534524 
L 186.029998 60.990004 
L 200.908551 49.811955 
L 207.59794 44.076767 
L 217.821788 35.365067 
L 226.407394 27.16353 
L 234.735024 19.224664 
L 243.259263 10.250294 
" clip-path="url(#p123f89a84d)" style="fill: none; stroke: #0e91d2; stroke-width: 2"/>
   </g>
   <g id="PathCollection_17">
    <path d="M 572.99976 184.025511 
L 568.680617 196.295898 
L 562.904816 213.209135 
L 557.348101 230.122372 
L 556.086523 233.990737 
L 551.343187 247.035609 
L 545.386536 263.948845 
L 539.654192 280.862082 
L 539.173286 282.283584 
L 533.347771 297.775319 
L 527.221167 314.688556 
L 522.26005 328.825005 
L 521.177473 331.601792 
L 514.635024 348.515029 
L 508.348892 365.428266 
L 505.346813 373.650907 
L 501.834129 382.341503 
L 495.143375 399.25474 
L 488.706849 416.167976 
L 488.433576 416.886378 
L 481.636925 433.081213 
L 474.807229 449.99445 
L 471.520339 458.283941 
L 467.752349 466.907687 
L 460.516893 483.820924 
L 454.607103 498.09295 
L 453.40362 500.73416 
L 445.751991 517.647397 
" clip-path="url(#p123f89a84d)" style="fill: none; stroke: #0a97d1; stroke-width: 2"/>
    <path d="M 65.602657 91.168525 
L 82.515893 90.201889 
L 99.42913 87.556487 
L 116.342367 83.200865 
L 131.012035 77.903241 
L 133.255604 77.113518 
L 150.16884 69.467555 
L 165.289946 60.990004 
L 167.082077 60.00285 
L 183.995314 48.969284 
L 190.44359 44.076767 
L 200.908551 36.21512 
L 211.469696 27.16353 
L 217.821788 21.751461 
L 229.864151 10.250294 
" clip-path="url(#p123f89a84d)" style="fill: none; stroke: #0a97d1; stroke-width: 2"/>
   </g>
   <g id="PathCollection_18">
    <path d="M 572.99976 197.253251 
L 567.391458 213.209135 
L 561.6658 230.122372 
L 556.147638 247.035609 
L 556.086523 247.222737 
L 550.012933 263.948845 
L 544.107021 280.862082 
L 539.173286 295.445636 
L 538.297232 297.775319 
L 531.979176 314.688556 
L 525.902658 331.601792 
L 522.26005 341.96726 
L 519.71055 348.515029 
L 513.230321 365.428266 
L 506.992384 382.341503 
L 505.346813 386.843125 
L 500.335964 399.25474 
L 493.703835 416.167976 
L 488.433576 430.022873 
L 487.150051 433.081213 
L 480.108665 449.99445 
L 473.332757 466.907687 
L 471.520339 471.473618 
L 466.130896 483.820924 
L 458.957745 500.73416 
L 454.607103 511.229981 
L 451.68581 517.647397 
" clip-path="url(#p123f89a84d)" style="fill: none; stroke: #079ccf; stroke-width: 2"/>
    <path d="M 65.602657 77.903241 
L 65.602657 77.903241 
L 82.515893 76.948075 
L 99.42913 74.327667 
L 116.342367 70.012291 
L 133.255604 63.951466 
L 139.681741 60.990004 
L 150.16884 56.258325 
L 167.082077 46.840798 
L 171.272041 44.076767 
L 183.995314 35.796261 
L 195.378174 27.16353 
L 200.908551 23.009176 
L 215.79993 10.250294 
" clip-path="url(#p123f89a84d)" style="fill: none; stroke: #079ccf; stroke-width: 2"/>
   </g>
   <g id="PathCollection_19">
    <path d="M 572.99976 210.017958 
L 571.8781 213.209135 
L 565.983499 230.122372 
L 560.308656 247.035609 
L 556.086523 259.963405 
L 554.639329 263.948845 
L 548.55985 280.862082 
L 542.70545 297.775319 
L 539.173286 308.201981 
L 536.737186 314.688556 
L 530.483476 331.601792 
L 524.458011 348.515029 
L 522.26005 354.761787 
L 518.11175 365.428266 
L 511.694015 382.341503 
L 505.505524 399.25474 
L 505.346813 399.688412 
L 498.700821 416.167976 
L 492.128033 433.081213 
L 488.433576 442.782614 
L 485.410101 449.99445 
L 478.438158 466.907687 
L 471.717273 483.820924 
L 471.520339 484.316549 
L 464.361011 500.73416 
L 457.251027 517.647397 
" clip-path="url(#p123f89a84d)" style="fill: none; stroke: #06a1cc; stroke-width: 2"/>
    <path d="M 65.602657 65.138534 
L 82.515893 64.159238 
L 99.42913 61.46589 
L 101.257922 60.990004 
L 116.342367 57.173584 
L 133.255604 51.171458 
L 148.664104 44.076767 
L 150.16884 43.39791 
L 167.082077 34.068185 
L 177.554521 27.16353 
L 183.995314 22.971955 
L 200.776585 10.250294 
" clip-path="url(#p123f89a84d)" style="fill: none; stroke: #06a1cc; stroke-width: 2"/>
   </g>
   <g id="PathCollection_20">
    <path d="M 572.99976 222.434537 
L 570.301198 230.122372 
L 564.469674 247.035609 
L 558.845794 263.948845 
L 556.086523 272.386279 
L 553.01268 280.862082 
L 546.997265 297.775319 
L 541.194601 314.688556 
L 539.173286 320.647877 
L 535.064293 331.601792 
L 528.87436 348.515029 
L 522.900341 365.428266 
L 522.26005 367.24591 
L 516.395646 382.341503 
L 510.040132 399.25474 
L 505.346813 412.079062 
L 503.697807 416.167976 
L 496.943617 433.081213 
L 490.430288 449.99445 
L 488.433576 455.23222 
L 483.543559 466.907687 
L 476.640621 483.820924 
L 471.520339 496.707199 
L 469.764278 500.73416 
L 462.458805 517.647397 
" clip-path="url(#p123f89a84d)" style="fill: none; stroke: #06a5c8; stroke-width: 2"/>
    <path d="M 65.602657 52.687142 
L 82.515893 51.720842 
L 99.42913 49.057808 
L 116.342367 44.668418 
L 117.98445 44.076767 
L 133.255604 38.703609 
L 150.16884 30.984525 
L 156.993723 27.16353 
L 167.082077 21.607196 
L 183.995314 10.466789 
L 184.280896 10.250294 
" clip-path="url(#p123f89a84d)" style="fill: none; stroke: #06a5c8; stroke-width: 2"/>
   </g>
   <g id="PathCollection_21">
    <path d="M 572.99976 234.573224 
L 568.630691 247.035609 
L 562.861103 263.948845 
L 557.287944 280.862082 
L 556.086523 284.531307 
L 551.289079 297.775319 
L 545.336639 314.688556 
L 539.58553 331.601792 
L 539.173286 332.815774 
L 533.290709 348.515029 
L 527.163623 365.428266 
L 522.26005 379.348405 
L 521.097277 382.341503 
L 514.57474 399.25474 
L 508.280772 416.167976 
L 505.346813 424.176364 
L 501.759202 433.081213 
L 495.07718 449.99445 
L 488.622982 466.907687 
L 488.433576 467.404053 
L 481.563968 483.820924 
L 474.729175 500.73416 
L 471.520339 508.802312 
L 467.666583 517.647397 
" clip-path="url(#p123f89a84d)" style="fill: none; stroke: #07a9c3; stroke-width: 2"/>
    <path d="M 65.602657 40.516086 
L 82.515893 39.56236 
L 99.42913 36.928982 
L 116.342367 32.587976 
L 131.412884 27.16353 
L 133.255604 26.515288 
L 150.16884 18.875296 
L 165.584029 10.250294 
" clip-path="url(#p123f89a84d)" style="fill: none; stroke: #07a9c3; stroke-width: 2"/>
   </g>
   <g id="PathCollection_22">
    <path d="M 572.99976 246.442162 
L 572.791709 247.035609 
L 566.876413 263.948845 
L 561.167405 280.862082 
L 556.086523 296.379459 
L 555.580894 297.775319 
L 549.478678 314.688556 
L 543.587893 331.601792 
L 539.173286 344.602002 
L 537.707059 348.515029 
L 531.426904 365.428266 
L 525.361475 382.341503 
L 522.26005 391.13624 
L 519.109347 399.25474 
L 512.659817 416.167976 
L 506.426432 433.081213 
L 505.346813 436.025155 
L 499.724073 449.99445 
L 493.112601 466.907687 
L 488.433576 479.169783 
L 486.487315 483.820924 
L 479.483005 500.73416 
L 472.715195 517.647397 
" clip-path="url(#p123f89a84d)" style="fill: none; stroke: #0aacbe; stroke-width: 2"/>
    <path d="M 65.602657 28.647148 
L 82.515893 27.672562 
L 85.722527 27.16353 
L 99.42913 25.050819 
L 116.342367 20.757023 
L 133.255604 14.72906 
L 142.998141 10.250294 
" clip-path="url(#p123f89a84d)" style="fill: none; stroke: #0aacbe; stroke-width: 2"/>
   </g>
   <g id="PathCollection_23">
    <path d="M 572.99976 257.92888 
L 570.891722 263.948845 
L 565.046865 280.862082 
L 559.396935 297.775319 
L 556.086523 307.873895 
L 553.620716 314.688556 
L 547.590256 331.601792 
L 541.75965 348.515029 
L 539.173286 356.123138 
L 535.690186 365.428266 
L 529.481944 382.341503 
L 523.476806 399.25474 
L 522.26005 402.701623 
L 517.038861 416.167976 
L 510.660232 433.081213 
L 505.346813 447.570027 
L 504.370965 449.99445 
L 497.60222 466.907687 
L 491.059518 483.820924 
L 488.433576 490.696367 
L 484.236835 500.73416 
L 477.310793 517.647397 
" clip-path="url(#p123f89a84d)" style="fill: none; stroke: #10afb8; stroke-width: 2"/>
    <path d="M 65.602657 17.130254 
L 82.515893 16.169209 
L 99.42913 13.505947 
L 111.990863 10.250294 
" clip-path="url(#p123f89a84d)" style="fill: none; stroke: #10afb8; stroke-width: 2"/>
   </g>
   <g id="PathCollection_24">
    <path d="M 572.99976 269.216903 
L 568.926326 280.862082 
L 563.149438 297.775319 
L 557.556993 314.688556 
L 556.086523 319.169456 
L 551.59262 331.601792 
L 545.631451 348.515029 
L 539.859443 365.428266 
L 539.173286 367.444632 
L 533.602413 382.341503 
L 527.46372 399.25474 
L 522.26005 413.995938 
L 521.417905 416.167976 
L 514.894032 433.081213 
L 508.584139 449.99445 
L 505.346813 458.813894 
L 502.091839 466.907687 
L 495.402161 483.820924 
L 488.926348 500.73416 
L 488.433576 502.023279 
L 481.906391 517.647397 
" clip-path="url(#p123f89a84d)" style="fill: none; stroke: #19b2b2; stroke-width: 2"/>
   </g>
   <g id="PathCollection_25">
    <path d="M 572.99976 280.30755 
L 572.805787 280.862082 
L 566.901942 297.775319 
L 561.190585 314.688556 
L 556.086523 330.241952 
L 555.594983 331.601792 
L 549.503252 348.515029 
L 543.608931 365.428266 
L 539.173286 378.463028 
L 537.722881 382.341503 
L 531.450634 399.25474 
L 525.379133 416.167976 
L 522.26005 424.995511 
L 519.127832 433.081213 
L 512.68202 449.99445 
L 506.438678 466.907687 
L 505.346813 469.879661 
L 499.744804 483.820924 
L 493.131332 500.73416 
L 488.433576 513.023758 
L 486.501989 517.647397 
" clip-path="url(#p123f89a84d)" style="fill: none; stroke: #22b4ab; stroke-width: 2"/>
   </g>
   <g id="PathCollection_26">
    <path d="M 572.99976 291.063717 
L 570.654445 297.775319 
L 564.824177 314.688556 
L 559.175965 331.601792 
L 556.086523 341.006597 
L 553.375053 348.515029 
L 547.358418 365.428266 
L 541.52855 382.341503 
L 539.173286 389.256189 
L 535.437548 399.25474 
L 529.240878 416.167976 
L 523.234243 433.081213 
L 522.26005 435.8359 
L 516.779902 449.99445 
L 510.409096 466.907687 
L 505.346813 480.686841 
L 504.087446 483.820924 
L 497.336317 500.73416 
L 490.796258 517.647397 
" clip-path="url(#p123f89a84d)" style="fill: none; stroke: #2db7a4; stroke-width: 2"/>
   </g>
   <g id="PathCollection_27">
    <path d="M 572.99976 301.678374 
L 568.45777 314.688556 
L 562.697951 331.601792 
L 557.110565 348.515029 
L 556.086523 351.629429 
L 551.107906 365.428266 
L 545.163216 382.341503 
L 539.395466 399.25474 
L 539.173286 399.906442 
L 533.102623 416.167976 
L 526.978439 433.081213 
L 522.26005 446.423216 
L 520.877783 449.99445 
L 514.379514 466.907687 
L 508.080771 483.820924 
L 505.346813 491.256464 
L 501.541302 500.73416 
L 494.872044 517.647397 
" clip-path="url(#p123f89a84d)" style="fill: none; stroke: #39b99d; stroke-width: 2"/>
   </g>
   <g id="PathCollection_28">
    <path d="M 572.99976 312.086519 
L 572.091362 314.688556 
L 566.219937 331.601792 
L 560.527596 348.515029 
L 556.086523 362.021587 
L 554.857394 365.428266 
L 548.797882 382.341503 
L 542.922134 399.25474 
L 539.173286 410.25093 
L 536.964368 416.167976 
L 530.722635 433.081213 
L 524.667986 449.99445 
L 522.26005 456.797601 
L 518.349932 466.907687 
L 511.931416 483.820924 
L 505.701912 500.73416 
L 505.346813 501.69918 
L 498.947829 517.647397 
" clip-path="url(#p123f89a84d)" style="fill: none; stroke: #46bb96; stroke-width: 2"/>
   </g>
   <g id="PathCollection_29">
    <path d="M 572.99976 322.261647 
L 569.741923 331.601792 
L 563.944627 348.515029 
L 558.316943 365.428266 
L 556.086523 372.205534 
L 552.432548 382.341503 
L 546.448802 399.25474 
L 540.639145 416.167976 
L 539.173286 420.464039 
L 534.466832 433.081213 
L 528.301578 449.99445 
L 522.313651 466.907687 
L 522.26005 467.059009 
L 515.782061 483.820924 
L 509.439799 500.73416 
L 505.346813 511.85728 
L 503.023615 517.647397 
" clip-path="url(#p123f89a84d)" style="fill: none; stroke: #54bd8e; stroke-width: 2"/>
   </g>
   <g id="PathCollection_30">
    <path d="M 572.99976 332.337151 
L 567.361658 348.515029 
L 561.635094 365.428266 
L 556.086523 382.28794 
L 556.067214 382.341503 
L 549.975469 399.25474 
L 544.064047 416.167976 
L 539.173286 430.501568 
L 538.211028 433.081213 
L 531.935171 449.99445 
L 525.842987 466.907687 
L 522.26005 477.022624 
L 519.632706 483.820924 
L 513.177686 500.73416 
L 506.908377 517.647397 
" clip-path="url(#p123f89a84d)" style="fill: none; stroke: #63be87; stroke-width: 2"/>
   </g>
   <g id="PathCollection_31">
    <path d="M 572.99976 342.141926 
L 570.77869 348.515029 
L 564.953244 365.428266 
L 559.294223 382.341503 
L 556.086523 392.080076 
L 553.502137 399.25474 
L 547.488949 416.167976 
L 541.646618 433.081213 
L 539.173286 440.324173 
L 535.568763 449.99445 
L 529.372322 466.907687 
L 523.350002 483.820924 
L 522.26005 486.895673 
L 516.915572 500.73416 
L 510.539921 517.647397 
" clip-path="url(#p123f89a84d)" style="fill: none; stroke: #71bf80; stroke-width: 2"/>
   </g>
   <g id="PathCollection_32">
    <path d="M 572.99976 351.850034 
L 568.271395 365.428266 
L 562.519056 382.341503 
L 556.924589 399.25474 
L 556.086523 401.797077 
L 550.913851 416.167976 
L 544.975463 433.081213 
L 539.199191 449.99445 
L 539.173286 450.070252 
L 532.901658 466.907687 
L 526.780896 483.820924 
L 522.26005 496.574206 
L 520.653459 500.73416 
L 514.171466 517.647397 
" clip-path="url(#p123f89a84d)" style="fill: none; stroke: #7fbf7a; stroke-width: 2"/>
   </g>
   <g id="PathCollection_33">
    <path d="M 572.99976 361.378618 
L 571.589546 365.428266 
L 565.743888 382.341503 
L 560.061207 399.25474 
L 556.086523 411.31226 
L 554.338753 416.167976 
L 548.304308 433.081213 
L 542.43722 449.99445 
L 539.173286 459.545454 
L 536.430993 466.907687 
L 530.211791 483.820924 
L 524.163219 500.73416 
L 522.26005 506.099232 
L 517.80301 517.647397 
" clip-path="url(#p123f89a84d)" style="fill: none; stroke: #8dbf75; stroke-width: 2"/>
   </g>
   <g id="PathCollection_34">
    <path d="M 572.99976 370.757094 
L 568.96872 382.341503 
L 563.197826 399.25474 
L 557.58159 416.167976 
L 556.086523 420.69996 
L 551.633153 433.081213 
L 545.675248 449.99445 
L 539.876191 466.907687 
L 539.173286 468.963083 
L 533.642685 483.820924 
L 527.501015 500.73416 
L 522.26005 515.508543 
L 521.434554 517.647397 
" clip-path="url(#p123f89a84d)" style="fill: none; stroke: #99bf70; stroke-width: 2"/>
   </g>
   <g id="PathCollection_35">
    <path d="M 572.99976 380.024621 
L 572.193552 382.341503 
L 566.334445 399.25474 
L 560.634693 416.167976 
L 556.086523 429.954809 
L 554.961998 433.081213 
L 548.913277 449.99445 
L 543.028227 466.907687 
L 539.173286 478.180106 
L 537.073579 483.820924 
L 530.838811 500.73416 
L 524.770987 517.647397 
" clip-path="url(#p123f89a84d)" style="fill: none; stroke: #a5be6b; stroke-width: 2"/>
   </g>
   <g id="PathCollection_36">
    <path d="M 572.99976 389.106798 
L 569.471064 399.25474 
L 563.687796 416.167976 
L 558.055815 433.081213 
L 556.086523 439.046451 
L 552.151306 449.99445 
L 546.180264 466.907687 
L 540.364638 483.820924 
L 539.173286 487.302269 
L 534.176606 500.73416 
L 528.020604 517.647397 
" clip-path="url(#p123f89a84d)" style="fill: none; stroke: #b0bd66; stroke-width: 2"/>
   </g>
   <g id="PathCollection_37">
    <path d="M 572.99976 398.12719 
L 572.607683 399.25474 
L 566.740899 416.167976 
L 561.029735 433.081213 
L 556.086523 448.054833 
L 555.389335 449.99445 
L 549.3323 466.907687 
L 543.435131 483.820924 
L 539.173286 496.274808 
L 537.514402 500.73416 
L 531.27022 517.647397 
" clip-path="url(#p123f89a84d)" style="fill: none; stroke: #bbbd62; stroke-width: 2"/>
   </g>
   <g id="PathCollection_38">
    <path d="M 572.99976 406.942575 
L 569.794002 416.167976 
L 564.003654 433.081213 
L 558.361128 449.99445 
L 556.086523 456.879848 
L 552.484337 466.907687 
L 546.505625 483.820924 
L 540.678797 500.73416 
L 539.173286 505.130728 
L 534.519836 517.647397 
" clip-path="url(#p123f89a84d)" style="fill: none; stroke: #c6bc5e; stroke-width: 2"/>
   </g>
   <g id="PathCollection_39">
    <path d="M 572.99976 415.728672 
L 572.847105 416.167976 
L 566.977573 433.081213 
L 561.259867 449.99445 
L 556.086523 465.65455 
L 555.636373 466.907687 
L 549.576118 483.820924 
L 543.67186 500.73416 
L 539.173286 513.871419 
L 537.769452 517.647397 
" clip-path="url(#p123f89a84d)" style="fill: none; stroke: #d0bb59; stroke-width: 2"/>
   </g>
   <g id="PathCollection_40">
    <path d="M 572.99976 424.303457 
L 569.951493 433.081213 
L 564.158606 449.99445 
L 558.510021 466.907687 
L 556.086523 474.239072 
L 552.646611 483.820924 
L 546.664923 500.73416 
L 540.831529 517.647397 
" clip-path="url(#p123f89a84d)" style="fill: none; stroke: #daba55; stroke-width: 2"/>
   </g>
   <g id="PathCollection_41">
    <path d="M 572.99976 432.867122 
L 572.925412 433.081213 
L 567.057345 449.99445 
L 561.337287 466.907687 
L 556.086523 482.79191 
L 555.717104 483.820924 
L 549.657985 500.73416 
L 543.750971 517.647397 
" clip-path="url(#p123f89a84d)" style="fill: none; stroke: #e4b950; stroke-width: 2"/>
   </g>
   <g id="PathCollection_42">
    <path d="M 572.99976 441.224623 
L 569.956084 449.99445 
L 564.164553 466.907687 
L 558.513786 483.820924 
L 556.086523 491.159204 
L 552.651048 500.73416 
L 546.670412 517.647397 
" clip-path="url(#p123f89a84d)" style="fill: none; stroke: #eeb94b; stroke-width: 2"/>
   </g>
   <g id="PathCollection_43">
    <path d="M 572.99976 449.576839 
L 572.854823 449.99445 
L 566.991819 466.907687 
L 561.273019 483.820924 
L 556.086523 499.501121 
L 555.644111 500.73416 
L 549.589854 517.647397 
" clip-path="url(#p123f89a84d)" style="fill: none; stroke: #f7ba45; stroke-width: 2"/>
   </g>
   <g id="PathCollection_44">
    <path d="M 572.99976 457.73786 
L 569.819085 466.907687 
L 564.032252 483.820924 
L 558.382655 500.73416 
L 556.086523 507.671946 
L 552.509295 517.647397 
" clip-path="url(#p123f89a84d)" style="fill: none; stroke: #febf3d; stroke-width: 2"/>
   </g>
   <g id="PathCollection_45">
    <path d="M 572.99976 465.888817 
L 572.646352 466.907687 
L 566.791485 483.820924 
L 561.077052 500.73416 
L 556.086523 515.813094 
L 555.428737 517.647397 
" clip-path="url(#p123f89a84d)" style="fill: none; stroke: #fec535; stroke-width: 2"/>
   </g>
   <g id="PathCollection_46">
    <path d="M 572.99976 473.871961 
L 569.550719 483.820924 
L 563.771449 500.73416 
L 558.125918 517.647397 
" clip-path="url(#p123f89a84d)" style="fill: none; stroke: #fdcc30; stroke-width: 2"/>
   </g>
   <g id="PathCollection_47">
    <path d="M 572.99976 481.831131 
L 572.309952 483.820924 
L 566.465847 500.73416 
L 560.758456 517.647397 
" clip-path="url(#p123f89a84d)" style="fill: none; stroke: #fad22a; stroke-width: 2"/>
   </g>
   <g id="PathCollection_48">
    <path d="M 572.99976 489.653074 
L 569.160244 500.73416 
L 563.390995 517.647397 
" clip-path="url(#p123f89a84d)" style="fill: none; stroke: #f7d925; stroke-width: 2"/>
   </g>
   <g id="PathCollection_49">
    <path d="M 572.99976 497.429275 
L 571.854641 500.73416 
L 566.023533 517.647397 
" clip-path="url(#p123f89a84d)" style="fill: none; stroke: #f5e020; stroke-width: 2"/>
   </g>
   <g id="PathCollection_50">
    <path d="M 572.99976 505.104997 
L 568.656072 517.647397 
" clip-path="url(#p123f89a84d)" style="fill: none; stroke: #f5e81a; stroke-width: 2"/>
   </g>
   <g id="PathCollection_51">
    <path d="M 572.99976 512.706451 
L 571.28861 517.647397 
" clip-path="url(#p123f89a84d)" style="fill: none; stroke: #f6f114; stroke-width: 2"/>
   </g>
   <g id="PathCollection_52"/>
   <g id="PathCollection_53">
    <path d="M 70.601887 39.416898 
L 80.904171 22.274466 
M 80.618235 39.592623 
L 90.920518 22.450192 
M 90.624609 40.05269 
L 101.521133 23.28171 
M 100.625717 40.62105 
L 112.100995 24.240635 
M 110.605285 41.49645 
L 122.080563 25.116035 
M 120.569388 42.518811 
L 132.606042 26.546367 
M 130.512578 43.739904 
L 142.549232 27.76746 
M 140.414645 45.248247 
L 153.080455 29.769963 
M 150.300202 46.87066 
L 163.502839 31.847666 
M 160.12355 48.83533 
L 173.326188 33.812335 
M 169.92529 50.899067 
L 183.641294 36.34327 
M 179.674546 53.203437 
L 193.39055 38.647639 
M 189.37683 55.692395 
L 203.581795 41.61337 
M 199.041726 58.328276 
L 213.246692 44.249251 
M 208.628429 61.232368 
L 223.440742 47.79379 
M 218.163666 64.303741 
L 233.422061 51.373877 
M 227.5939 67.684391 
L 242.852295 54.754527 
M 236.995784 71.140189 
L 252.672857 58.721277 
M 246.30923 74.830423 
L 261.986303 62.41151 
M 255.559169 78.672087 
L 271.795631 66.994019 
M 264.691344 82.790519 
L 280.927806 71.112451 
M 273.744633 87.076635 
L 290.347587 75.925764 
M 282.739903 91.486081 
L 299.342857 80.33521 
M 291.615019 96.128891 
L 308.732361 85.784975 
M 300.389069 100.963572 
L 317.506411 90.619656 
M 309.045062 106.004918 
L 326.472526 96.192502 
M 317.666224 111.107239 
L 335.093687 101.294822 
M 326.071566 116.555125 
L 343.955874 107.602386 
M 334.434226 122.070923 
L 352.318534 113.118183 
M 342.667885 127.776248 
L 360.804906 119.347223 
M 350.764472 133.675226 
L 369.071241 125.621518 
M 358.722089 139.759452 
L 377.249375 132.226876 
M 366.621789 145.919824 
L 385.31135 138.79941 
M 374.292833 152.361461 
L 393.170103 145.754746 
M 381.886502 158.895548 
L 400.763772 152.288833 
M 389.350308 165.573727 
L 408.533421 159.916151 
M 396.60885 172.478194 
L 415.791963 166.820618 
M 403.867392 179.382661 
L 423.309244 174.690709 
M 410.771859 186.641204 
L 430.213711 181.949252 
M 417.676326 193.899746 
L 437.118178 189.207794 
M 424.354506 201.363552 
L 444.006059 197.646499 
M 430.888593 208.957221 
L 450.540146 205.240168 
M 437.33023 216.628265 
L 457.076072 213.449944 
M 443.490602 224.527964 
L 463.30199 221.787723 
M 449.574828 232.485581 
L 469.455809 230.306912 
M 455.473805 240.582168 
L 475.395439 238.813408 
M 461.179131 248.815828 
L 481.143765 247.626974 
M 466.694928 257.178488 
L 486.659563 255.989634 
M 472.142815 265.58383 
L 492.141649 265.3679 
M 477.245135 274.204992 
L 497.24397 273.989062 
M 482.286482 282.860984 
L 502.282493 283.260407 
M 487.121163 291.635035 
L 507.117174 292.034458 
M 491.763972 300.51015 
L 511.717988 301.865611 
M 496.173418 309.50542 
L 516.127434 310.860881 
M 500.459535 318.55871 
L 520.359758 320.553982 
M 504.577967 327.690885 
L 524.47819 329.686157 
M 508.419631 336.940823 
L 528.205831 339.85738 
M 512.109864 346.254269 
L 531.896064 349.170826 
M 515.565663 355.656154 
L 535.244753 359.224547 
M 518.946313 365.086387 
L 538.625402 368.65478 
M 522.017686 374.621625 
L 541.564815 378.853618 
M 524.921777 384.208327 
L 544.263151 389.298638 
M 527.557658 393.873224 
L 546.899032 398.963535 
M 530.046617 403.575508 
L 549.202923 409.323196 
M 532.350986 413.324763 
L 551.507293 419.072452 
M 534.414724 423.126504 
L 553.360041 429.535479 
M 536.379394 432.949852 
L 555.324711 439.358828 
M 538.001807 442.835409 
L 556.709862 449.907091 
M 539.510149 452.737476 
L 557.920419 460.551691 
M 540.731243 462.680666 
L 559.141513 470.494881 
M 541.753603 472.644769 
L 559.881693 481.092985 
M 542.629004 482.624337 
L 560.757094 491.072553 
M 543.197364 492.625445 
L 561.01952 501.701277 
M 543.65743 502.631819 
L 561.150685 512.326458 
M 543.833156 512.648166 
L 561.326411 522.342806 
L 561.326411 522.342806 
" clip-path="url(#p123f89a84d)" style="fill: none; stroke: #e29400; stroke-width: 2"/>
    <path d="M 65.602657 39.329192 
L 82.515893 39.625915 
L 99.42913 40.516086 
L 116.342367 41.999703 
L 133.255604 44.076767 
L 133.255604 44.076767 
L 150.16884 46.844388 
L 167.082077 50.227035 
L 183.995314 54.224709 
L 200.908551 58.83741 
L 207.872825 60.990004 
L 217.821788 64.181181 
L 234.735024 70.244417 
L 251.648261 76.945888 
L 253.854336 77.903241 
L 268.561498 84.535883 
L 285.474735 92.826685 
L 289.233232 94.816478 
L 302.387972 102.065008 
L 318.717993 111.729714 
L 319.301208 112.08957 
L 336.214445 123.24511 
L 343.90228 128.642951 
L 353.127682 135.408246 
L 366.175036 145.556188 
L 370.040919 148.702837 
L 386.039926 162.469425 
L 386.954155 163.294461 
L 403.867392 179.382661 
L 403.867392 179.382661 
L 419.955593 196.295898 
L 420.780629 197.210127 
L 434.547217 213.209135 
L 437.693866 217.075018 
L 447.841808 230.122372 
L 454.607103 239.347774 
L 460.004944 247.035609 
L 471.160483 263.948845 
L 471.520339 264.53206 
L 481.185046 280.862082 
L 488.433576 294.016822 
L 490.423369 297.775319 
L 498.714171 314.688556 
L 505.346813 329.395718 
L 506.304166 331.601792 
L 513.005637 348.515029 
L 519.068873 365.428266 
L 522.26005 375.377229 
L 524.412643 382.341503 
L 529.025344 399.25474 
L 533.023019 416.167976 
L 536.405666 433.081213 
L 539.173286 449.99445 
L 539.173286 449.99445 
L 541.250351 466.907687 
L 542.733968 483.820924 
L 543.624138 500.73416 
L 543.920862 517.647397 
" clip-path="url(#p123f89a84d)" style="fill: none; stroke: #e29400; stroke-width: 2"/>
    <g id="PathCollection_54">
     <path d="M 94.769261 512.648166 
L 77.626829 502.345883 
M 94.944986 502.631819 
L 77.802555 492.329535 
M 95.405053 492.625445 
L 78.634073 481.728921 
M 95.973412 482.624337 
L 79.592998 471.149059 
M 96.848813 472.644769 
L 80.468398 461.169491 
M 97.871174 462.680666 
L 81.89873 450.644012 
M 99.092267 452.737476 
L 83.119823 440.700822 
M 100.60061 442.835409 
L 85.122326 430.169599 
M 102.223023 432.949852 
L 87.200029 419.747214 
M 104.187693 423.126504 
L 89.164698 409.923866 
M 106.25143 413.324763 
L 91.695633 399.608759 
M 108.5558 403.575508 
L 94.000002 389.859504 
M 111.044758 393.873224 
L 96.965733 379.668259 
M 113.680639 384.208327 
L 99.601614 370.003362 
M 116.58473 374.621625 
L 103.146153 359.809311 
M 119.656104 365.086387 
L 106.72624 349.827992 
M 123.036754 355.656154 
L 110.10689 340.397759 
M 126.492552 346.254269 
L 114.07364 330.577196 
M 130.182786 336.940823 
L 117.763873 321.26375 
M 134.02445 327.690885 
L 122.346382 311.454422 
M 138.142882 318.55871 
L 126.464814 302.322247 
M 142.428998 309.50542 
L 131.278127 292.902467 
M 146.838444 300.51015 
L 135.687573 283.907196 
M 151.481254 291.635035 
L 141.137338 274.517693 
M 156.315935 282.860984 
L 145.972019 265.743642 
M 161.357281 274.204992 
L 151.544865 256.777528 
M 166.459601 265.58383 
L 156.647185 248.156366 
M 171.907488 257.178488 
L 162.954749 239.29418 
M 177.423285 248.815828 
L 168.470546 230.93152 
M 183.128611 240.582168 
L 174.699586 222.445147 
M 189.027588 232.485581 
L 180.973881 214.178812 
M 195.111815 224.527964 
L 187.579239 206.000679 
M 201.272187 216.628265 
L 194.151773 197.938704 
M 207.713823 208.957221 
L 201.107109 190.079951 
M 214.247911 201.363552 
L 207.641196 182.486282 
M 220.92609 193.899746 
L 215.268514 174.716633 
M 227.830557 186.641204 
L 222.172981 167.45809 
M 234.735024 179.382661 
L 230.043072 159.94081 
M 241.993567 172.478194 
L 237.301615 153.036343 
M 249.252109 165.573727 
L 244.560157 146.131876 
M 256.715915 158.895548 
L 252.998862 139.243995 
M 264.309584 152.361461 
L 260.592531 132.709908 
M 271.980628 145.919824 
L 268.802307 126.173982 
M 279.880327 139.759452 
L 277.140086 119.948064 
M 287.837944 133.675226 
L 285.659275 113.794245 
M 295.934531 127.776248 
L 294.165771 107.854615 
M 304.168191 122.070923 
L 302.979337 102.106288 
M 312.530851 116.555125 
L 311.341997 96.590491 
M 320.936193 111.107239 
L 320.720263 91.108404 
M 329.557354 106.004918 
L 329.341425 86.006084 
M 338.213347 100.963572 
L 338.61277 80.967561 
M 346.987398 96.128891 
L 347.386821 76.13288 
M 355.862513 91.486081 
L 357.217974 71.532066 
M 364.857783 87.076635 
L 366.213244 67.12262 
M 373.911073 82.790519 
L 375.906345 62.890296 
M 383.043248 78.672087 
L 385.03852 58.771864 
M 392.293186 74.830423 
L 395.209743 55.044223 
M 401.606632 71.140189 
L 404.523189 51.35399 
M 411.008517 67.684391 
L 414.57691 48.005301 
M 420.43875 64.303741 
L 424.007143 44.624651 
M 429.973988 61.232368 
L 434.205981 41.685239 
M 439.56069 58.328276 
L 444.651001 38.986903 
M 449.225587 55.692395 
L 454.315898 36.351022 
M 458.927871 53.203437 
L 464.675559 34.04713 
M 468.677126 50.899067 
L 474.424815 31.742761 
M 478.478867 48.83533 
L 484.887842 29.890013 
M 488.302215 46.87066 
L 494.711191 27.925343 
M 498.187772 45.248247 
L 505.259454 26.540192 
M 508.089839 43.739904 
L 515.904054 25.329634 
M 518.033029 42.518811 
L 525.847244 24.108541 
M 527.997132 41.49645 
L 536.445348 23.36836 
M 537.9767 40.62105 
L 546.424916 22.49296 
M 547.977808 40.05269 
L 557.05364 22.230533 
M 557.984182 39.592623 
L 567.678821 22.099368 
M 568.000529 39.416898 
L 577 23.178023 
L 577 23.178023 
" clip-path="url(#p123f89a84d)" style="fill: none; stroke: #1e90ff; stroke-width: 2"/>
     <path d="M 94.681555 517.647397 
L 94.978278 500.73416 
L 95.868449 483.820924 
L 97.352066 466.907687 
L 99.42913 449.99445 
L 99.42913 449.99445 
L 102.196751 433.081213 
L 105.579398 416.167976 
L 109.577072 399.25474 
L 114.189773 382.341503 
L 116.342367 375.377229 
L 119.533544 365.428266 
L 125.596779 348.515029 
L 132.298251 331.601792 
L 133.255604 329.395718 
L 139.888246 314.688556 
L 148.179048 297.775319 
L 150.16884 294.016822 
L 157.417371 280.862082 
L 167.082077 264.53206 
L 167.441933 263.948845 
L 178.597473 247.035609 
L 183.995314 239.347774 
L 190.760609 230.122372 
L 200.908551 217.075018 
L 204.0552 213.209135 
L 217.821788 197.210127 
L 218.646824 196.295898 
L 234.735024 179.382661 
L 234.735024 179.382661 
L 251.648261 163.294461 
L 252.56249 162.469425 
L 268.561498 148.702837 
L 272.427381 145.556188 
L 285.474735 135.408246 
L 294.700137 128.642951 
L 302.387972 123.24511 
L 319.301208 112.08957 
L 319.884423 111.729714 
L 336.214445 102.065008 
L 349.369185 94.816478 
L 353.127682 92.826685 
L 370.040919 84.535883 
L 384.748081 77.903241 
L 386.954155 76.945888 
L 403.867392 70.244417 
L 420.780629 64.181181 
L 430.729592 60.990004 
L 437.693866 58.83741 
L 454.607103 54.224709 
L 471.520339 50.227035 
L 488.433576 46.844388 
L 505.346813 44.076767 
L 505.346813 44.076767 
L 522.26005 41.999703 
L 539.173286 40.516086 
L 556.086523 39.625915 
L 572.99976 39.329192 
" clip-path="url(#p123f89a84d)" style="fill: none; stroke: #1e90ff; stroke-width: 2"/>
     <g id="PathCollection_55">
      <path d="M 543.833156 15.249524 
L 560.975587 25.551808 
M 543.65743 25.265872 
L 560.799862 35.568155 
M 543.197364 35.272246 
L 559.968344 46.16877 
M 542.629004 45.273354 
L 559.009419 56.748632 
M 541.753603 55.252922 
L 558.134018 66.7282 
M 540.731243 65.217025 
L 556.703687 77.253679 
M 539.510149 75.160215 
L 555.482593 87.196869 
M 538.001807 85.062282 
L 553.480091 97.728092 
M 536.379394 94.947839 
L 551.402388 108.150476 
M 534.414724 104.771187 
L 549.437718 117.973825 
M 532.350986 114.572927 
L 546.906784 128.288931 
M 530.046617 124.322183 
L 544.602414 138.038187 
M 527.557658 134.024467 
L 541.636684 148.229432 
M 524.921777 143.689363 
L 539.000803 157.894329 
M 522.017686 153.276066 
L 535.456264 168.088379 
M 518.946313 162.811303 
L 531.876176 178.069698 
M 515.565663 172.241537 
L 528.495527 187.499932 
M 512.109864 181.643421 
L 524.528777 197.320494 
M 508.419631 190.956868 
L 520.838543 206.633941 
M 504.577967 200.206806 
L 516.256035 216.443269 
M 500.459535 209.338981 
L 512.137603 225.575444 
M 496.173418 218.39227 
L 507.324289 234.995224 
M 491.763972 227.38754 
L 502.914843 243.990494 
M 487.121163 236.262656 
L 497.465079 253.379998 
M 482.286482 245.036706 
L 492.630398 262.154048 
M 477.245135 253.692699 
L 487.057552 271.120163 
M 472.142815 262.313861 
L 481.955232 279.741324 
M 466.694928 270.719203 
L 475.647668 288.603511 
M 461.179131 279.081863 
L 470.131871 296.966171 
M 455.473805 287.315522 
L 463.90283 305.452543 
M 449.574828 295.412109 
L 457.628536 313.718879 
M 443.490602 303.369726 
L 451.023177 321.897012 
M 437.33023 311.269426 
L 444.450644 329.958987 
M 430.888593 318.94047 
L 437.495307 337.81774 
M 424.354506 326.534139 
L 430.96122 345.411409 
M 417.676326 333.997945 
L 423.333902 353.181058 
M 410.771859 341.256487 
L 416.429435 360.4396 
M 403.867392 348.515029 
L 408.559344 367.956881 
M 396.60885 355.419496 
L 401.300802 374.861348 
M 389.350308 362.323963 
L 394.04226 381.765815 
M 381.886502 369.002143 
L 385.603554 388.653696 
M 374.292833 375.53623 
L 378.009886 395.187783 
M 366.621789 381.977867 
L 369.80011 401.723709 
M 358.722089 388.138239 
L 361.46233 407.949627 
M 350.764472 394.222465 
L 352.943142 414.103446 
M 342.667885 400.121442 
L 344.436646 420.043076 
M 334.434226 405.826768 
L 335.62308 425.791403 
M 326.071566 411.342565 
L 327.26042 431.3072 
M 317.666224 416.790452 
L 317.882154 436.789286 
M 309.045062 421.892772 
L 309.260992 441.891607 
M 300.389069 426.934119 
L 299.989646 446.93013 
M 291.615019 431.7688 
L 291.215596 451.764811 
M 282.739903 436.411609 
L 281.384443 456.365625 
M 273.744633 440.821055 
L 272.389173 460.775071 
M 264.691344 445.107172 
L 262.696071 465.007395 
M 255.559169 449.225604 
L 253.563896 469.125827 
M 246.30923 453.067268 
L 243.392673 472.853468 
M 236.995784 456.757501 
L 234.079227 476.543701 
M 227.5939 460.2133 
L 224.025507 479.89239 
M 218.163666 463.59395 
L 214.595273 483.273039 
M 208.628429 466.665323 
L 204.396436 486.212452 
M 199.041726 469.569414 
L 193.951415 488.910788 
M 189.37683 472.205295 
L 184.286518 491.546669 
M 179.674546 474.694254 
L 173.926857 493.85056 
M 169.92529 476.998623 
L 164.177602 496.15493 
M 160.12355 479.062361 
L 153.714574 498.007678 
M 150.300202 481.027031 
L 143.891226 499.972348 
M 140.414645 482.649444 
L 133.342963 501.357499 
M 130.512578 484.157786 
L 122.698363 502.568056 
M 120.569388 485.37888 
L 112.755172 503.78915 
M 110.605285 486.401241 
L 102.157068 504.52933 
M 100.625717 487.276641 
L 92.1775 505.404731 
M 90.624609 487.845001 
L 81.548776 505.667157 
M 80.618235 488.305068 
L 70.923595 505.798322 
M 70.601887 488.480793 
L 60.907248 505.974048 
L 60.907248 505.974048 
" clip-path="url(#p123f89a84d)" style="fill: none; stroke: #e21a1a; stroke-width: 2"/>
      <path d="M 543.920862 10.250294 
L 543.624138 27.16353 
L 542.733968 44.076767 
L 541.250351 60.990004 
L 539.173286 77.903241 
L 539.173286 77.903241 
L 536.405666 94.816478 
L 533.023019 111.729714 
L 529.025344 128.642951 
L 524.412643 145.556188 
L 522.26005 152.520462 
L 519.068873 162.469425 
L 513.005637 179.382661 
L 506.304166 196.295898 
L 505.346813 198.501973 
L 498.714171 213.209135 
L 490.423369 230.122372 
L 488.433576 233.880869 
L 481.185046 247.035609 
L 471.520339 263.36563 
L 471.160483 263.948845 
L 460.004944 280.862082 
L 454.607103 288.549917 
L 447.841808 297.775319 
L 437.693866 310.822673 
L 434.547217 314.688556 
L 420.780629 330.687563 
L 419.955593 331.601792 
L 403.867392 348.515029 
L 403.867392 348.515029 
L 386.954155 364.60323 
L 386.039926 365.428266 
L 370.040919 379.194854 
L 366.175036 382.341503 
L 353.127682 392.489445 
L 343.90228 399.25474 
L 336.214445 404.652581 
L 319.301208 415.80812 
L 318.717993 416.167976 
L 302.387971 425.832683 
L 289.233232 433.081213 
L 285.474735 435.071006 
L 268.561498 443.361808 
L 253.854336 449.99445 
L 251.648261 450.951803 
L 234.735024 457.653274 
L 217.821788 463.71651 
L 207.872825 466.907687 
L 200.908551 469.06028 
L 183.995314 473.672981 
L 167.082077 477.670656 
L 150.16884 481.053303 
L 133.255604 483.820924 
L 133.255604 483.820924 
L 116.342367 485.897988 
L 99.42913 487.381605 
L 82.515893 488.271775 
L 65.602657 488.568499 
" clip-path="url(#p123f89a84d)" style="fill: none; stroke: #e21a1a; stroke-width: 2"/>
      <g id="PathCollection_56">
       <path d="M 572.99976 103.44568 
L 556.086523 110.349042 
L 552.703876 111.729714 
L 539.173286 117.487412 
L 522.26005 124.684534 
L 512.957769 128.642951 
L 505.346813 132.025598 
L 488.433576 139.542593 
L 474.902987 145.556188 
L 471.520339 147.129512 
L 454.607103 154.996134 
L 438.539528 162.469425 
L 437.693866 162.881943 
L 420.780629 171.132302 
L 403.867392 179.382661 
L 403.867392 179.382661 
L 386.954155 188.056116 
L 370.88658 196.295898 
L 370.040919 196.753013 
L 353.127682 205.895303 
L 339.597092 213.209135 
L 336.214445 215.142076 
L 319.301208 224.806783 
L 309.998928 230.122372 
L 302.387971 234.735073 
L 285.474735 244.985519 
L 282.092087 247.035609 
L 268.561498 255.765021 
L 255.87657 263.948845 
L 251.648261 266.864921 
L 234.735024 278.529222 
L 231.352377 280.862082 
L 217.821788 290.884741 
L 208.519507 297.775319 
L 200.908551 303.864084 
L 187.377961 314.688556 
L 183.995314 317.629988 
L 167.927739 331.601792 
L 167.082077 332.407185 
L 150.16884 348.515029 
L 150.16884 348.515029 
L 134.101266 365.428266 
L 133.255604 366.423162 
L 119.725014 382.341503 
L 116.342367 386.851699 
L 107.040087 399.25474 
L 99.42913 410.963904 
L 96.046483 416.167976 
L 86.744203 433.081213 
L 82.515893 442.477456 
L 79.133246 449.99445 
L 73.213613 466.907687 
L 68.985304 483.820924 
L 66.448318 500.73416 
L 65.602657 517.647397 
" clip-path="url(#p123f89a84d)" style="fill: none; stroke: #00a650; stroke-width: 2"/>
      </g>
      <g id="line2d_17">
       <defs>
        <path id="m3a7fa4f76b" d="M 0 5 
C 1.326016 5 2.597899 4.473168 3.535534 3.535534 
C 4.473168 2.597899 5 1.326016 5 0 
C 5 -1.326016 4.473168 -2.597899 3.535534 -3.535534 
C 2.597899 -4.473168 1.326016 -5 0 -5 
C -1.326016 -5 -2.597899 -4.473168 -3.535534 -3.535534 
C -4.473168 -2.597899 -5 -1.326016 -5 0 
C -5 1.326016 -4.473168 2.597899 -3.535534 3.535534 
C -2.597899 4.473168 -1.326016 5 0 5 
z
" style="stroke: #ffffff"/>
       </defs>
       <g>
        <use xlink:href="#m3a7fa4f76b" x="403.867392" y="179.382661" style="stroke: #ffffff"/>
       </g>
      </g>
      <g id="line2d_18">
       <path d="M 336.214445 44.076767 
L 471.520339 77.903241 
L 409.071465 158.194651 
L 403.842112 179.39468 
L 403.867392 179.382661 
" style="fill: none; stroke: #5a5758; stroke-width: 2; stroke-linecap: square"/>
       <defs>
        <path id="m5d41fc0b23" d="M 0 4 
C 1.060812 4 2.078319 3.578535 2.828427 2.828427 
C 3.578535 2.078319 4 1.060812 4 0 
C 4 -1.060812 3.578535 -2.078319 2.828427 -2.828427 
C 2.078319 -3.578535 1.060812 -4 0 -4 
C -1.060812 -4 -2.078319 -3.578535 -2.828427 -2.828427 
C -3.578535 -2.078319 -4 -1.060812 -4 0 
C -4 1.060812 -3.578535 2.078319 -2.828427 2.828427 
C -2.078319 3.578535 -1.060812 4 0 4 
z
" style="stroke: #ffffff"/>
       </defs>
       <g>
        <use xlink:href="#m5d41fc0b23" x="336.214445" y="44.076767" style="fill: #5a5758; stroke: #ffffff"/>
        <use xlink:href="#m5d41fc0b23" x="471.520339" y="77.903241" style="fill: #5a5758; stroke: #ffffff"/>
        <use xlink:href="#m5d41fc0b23" x="409.071465" y="158.194651" style="fill: #5a5758; stroke: #ffffff"/>
        <use xlink:href="#m5d41fc0b23" x="403.842112" y="179.39468" style="fill: #5a5758; stroke: #ffffff"/>
        <use xlink:href="#m5d41fc0b23" x="403.867392" y="179.382661" style="fill: #5a5758; stroke: #ffffff"/>
       </g>
      </g>
      <g id="patch_3">
       <path d="M 53.602657 517.647397 
L 53.602657 10.250294 
" style="fill: none; stroke: #5a5758; stroke-width: 0.8; stroke-linejoin: miter; stroke-linecap: square"/>
      </g>
      <g id="patch_4">
       <path d="M 65.602657 529.647397 
L 572.99976 529.647397 
" style="fill: none; stroke: #5a5758; stroke-width: 0.8; stroke-linejoin: miter; stroke-linecap: square"/>
      </g>
     </g>
    </g>
    <defs>
     <clipPath id="p123f89a84d">
      <rect x="65.602657" y="10.250294" width="507.397103" height="507.397103"/>
     </clipPath>
    </defs>
   </g>
  </g>
 </g>
</svg>
