<?xml version="1.0" encoding="utf-8" standalone="no"?>
<!DOCTYPE svg PUBLIC "-//W3C//DTD SVG 1.1//EN"
  "http://www.w3.org/Graphics/SVG/1.1/DTD/svg11.dtd">
<svg xmlns:xlink="http://www.w3.org/1999/xlink" width="576pt" height="360pt" viewBox="0 0 576 360" xmlns="http://www.w3.org/2000/svg" version="1.1">
 <metadata>
  <rdf:RDF xmlns:dc="http://purl.org/dc/elements/1.1/" xmlns:cc="http://creativecommons.org/ns#" xmlns:rdf="http://www.w3.org/1999/02/22-rdf-syntax-ns#">
   <cc:Work>
    <dc:type rdf:resource="http://purl.org/dc/dcmitype/StillImage"/>
    <dc:date>2023-01-24T01:48:13.938019</dc:date>
    <dc:format>image/svg+xml</dc:format>
    <dc:creator>
     <cc:Agent>
      <dc:title>Matplotlib v3.6.3, https://matplotlib.org/</dc:title>
     </cc:Agent>
    </dc:creator>
   </cc:Work>
  </rdf:RDF>
 </metadata>
 <defs>
  <style type="text/css">*{stroke-linejoin: round; stroke-linecap: butt}</style>
 </defs>
 <g id="figure_1">
  <g id="patch_1">
   <path d="M 0 360 
L 576 360 
L 576 0 
L 0 0 
z
" style="fill: #ffffff"/>
  </g>
  <g id="axes_1">
   <g id="patch_2">
    <path d="M 58.59999 301.557901 
L 559.002627 301.557901 
L 559.002627 8.210655 
L 58.59999 8.210655 
z
" style="fill: #ffffff"/>
   </g>
   <g id="matplotlib.axis_1">
    <g id="xtick_1">
     <g id="line2d_1">
      <defs>
       <path id="m04f0b63f96" d="M 0 0 
L 0 3.5 
" style="stroke: #5a5758; stroke-width: 0.8"/>
      </defs>
      <g>
       <use xlink:href="#m04f0b63f96" x="58.59999" y="313.557901" style="fill: #5a5758; stroke: #5a5758; stroke-width: 0.8"/>
      </g>
     </g>
     <g id="text_1">
      <!-- -5.00 -->
      <g style="fill: #5a5758" transform="translate(41.978907 330.978731) scale(0.14994 -0.14994)">
       <defs>
        <path id="CMUBright-Roman-2d" d="M 70 1350 
L 70 1670 
L 1862 1670 
L 1862 1350 
L 70 1350 
z
" transform="scale(0.015625)"/>
        <path id="CMUBright-Roman-35" d="M 301 518 
L 486 819 
Q 896 224 1581 224 
Q 1971 224 2268 473 
Q 2566 723 2566 1312 
Q 2566 1626 2489 1846 
Q 2413 2067 2285 2176 
Q 2157 2285 2032 2329 
Q 1907 2374 1773 2374 
Q 1210 2374 941 1901 
L 582 1901 
L 582 4192 
L 2797 4192 
L 2797 3853 
L 973 3853 
L 973 2381 
Q 1325 2701 1779 2701 
Q 2285 2701 2653 2291 
Q 3021 1882 3021 1306 
Q 3021 723 2601 307 
Q 2182 -109 1574 -109 
Q 813 -109 301 518 
z
" transform="scale(0.015625)"/>
        <path id="CMUBright-Roman-2e" d="M 678 0 
L 678 499 
L 1178 499 
L 1178 0 
L 678 0 
z
" transform="scale(0.015625)"/>
        <path id="CMUBright-Roman-30" d="M 333 1984 
L 333 2086 
Q 333 2291 339 2438 
Q 346 2586 371 2832 
Q 397 3078 461 3267 
Q 525 3456 621 3657 
Q 717 3859 880 4006 
Q 1043 4154 1261 4230 
Q 1446 4301 1677 4301 
Q 1856 4301 2025 4256 
Q 2195 4211 2380 4070 
Q 2566 3930 2704 3709 
Q 2842 3488 2931 3104 
Q 3021 2720 3021 2214 
Q 3021 1683 2982 1347 
Q 2944 1011 2803 685 
Q 2618 250 2307 70 
Q 1997 -109 1677 -109 
Q 1498 -109 1328 -64 
Q 1158 -19 972 121 
Q 787 262 649 483 
Q 512 704 422 1091 
Q 333 1478 333 1984 
z
M 742 2413 
Q 742 2374 745 2326 
Q 749 2278 749 2272 
L 749 2150 
Q 749 1779 758 1548 
Q 768 1318 838 1014 
Q 909 710 1037 538 
Q 1286 218 1677 218 
Q 2086 218 2330 557 
Q 2451 730 2518 1037 
Q 2586 1344 2595 1568 
Q 2605 1792 2605 2163 
L 2605 2272 
Q 2605 2278 2608 2323 
Q 2611 2368 2611 2406 
Q 2611 3302 2336 3661 
Q 2099 3981 1677 3981 
Q 1242 3981 1005 3642 
Q 742 3264 742 2413 
z
" transform="scale(0.015625)"/>
       </defs>
       <use xlink:href="#CMUBright-Roman-2d"/>
       <use xlink:href="#CMUBright-Roman-35" x="34.999985"/>
       <use xlink:href="#CMUBright-Roman-2e" x="87.499969"/>
       <use xlink:href="#CMUBright-Roman-30" x="116.699966"/>
       <use xlink:href="#CMUBright-Roman-30" x="169.199951"/>
      </g>
     </g>
    </g>
    <g id="xtick_2">
     <g id="line2d_2">
      <g>
       <use xlink:href="#m04f0b63f96" x="179.597848" y="313.557901" style="fill: #5a5758; stroke: #5a5758; stroke-width: 0.8"/>
      </g>
     </g>
     <g id="text_2">
      <!-- -2.58 -->
      <g style="fill: #5a5758" transform="translate(162.976765 330.978731) scale(0.14994 -0.14994)">
       <defs>
        <path id="CMUBright-Roman-32" d="M 275 3226 
Q 595 4301 1587 4301 
L 1594 4301 
Q 2214 4294 2617 3923 
Q 3021 3552 3021 2989 
Q 3021 2746 2937 2531 
Q 2854 2317 2668 2115 
Q 2483 1914 2384 1821 
Q 2285 1728 2061 1549 
Q 1754 1299 1642 1203 
Q 1530 1107 698 358 
L 3021 358 
L 3021 0 
L 333 0 
L 333 339 
L 1683 1562 
Q 2144 1965 2368 2278 
Q 2592 2592 2592 2982 
Q 2592 3418 2278 3690 
Q 1965 3962 1498 3962 
Q 1069 3962 854 3693 
Q 640 3424 512 2938 
L 275 3226 
z
" transform="scale(0.015625)"/>
        <path id="CMUBright-Roman-38" d="M 275 1158 
Q 275 1517 518 1817 
Q 762 2118 1248 2266 
Q 909 2349 640 2598 
Q 371 2848 371 3206 
Q 371 3642 745 3971 
Q 1120 4301 1677 4301 
Q 2221 4301 2601 3981 
Q 2982 3661 2982 3213 
Q 2982 2918 2787 2684 
Q 2592 2451 2285 2323 
L 2099 2266 
Q 2464 2176 2768 1885 
Q 3072 1594 3072 1158 
Q 3072 646 2665 268 
Q 2259 -109 1670 -109 
Q 1075 -109 675 275 
Q 275 659 275 1158 
z
M 698 1158 
Q 698 704 970 464 
Q 1242 224 1670 224 
Q 2118 224 2384 470 
Q 2650 717 2650 1165 
Q 2650 1619 2371 1862 
Q 2093 2106 1670 2106 
Q 1280 2106 989 1878 
Q 698 1651 698 1158 
z
M 755 3206 
Q 755 2886 982 2656 
Q 1210 2426 1670 2426 
Q 2093 2426 2342 2634 
Q 2592 2842 2592 3206 
Q 2592 3507 2387 3744 
Q 2182 3981 1683 3981 
Q 1171 3981 963 3744 
Q 755 3507 755 3206 
z
" transform="scale(0.015625)"/>
       </defs>
       <use xlink:href="#CMUBright-Roman-2d"/>
       <use xlink:href="#CMUBright-Roman-32" x="34.999985"/>
       <use xlink:href="#CMUBright-Roman-2e" x="87.499969"/>
       <use xlink:href="#CMUBright-Roman-35" x="116.699966"/>
       <use xlink:href="#CMUBright-Roman-38" x="169.199951"/>
      </g>
     </g>
    </g>
    <g id="xtick_3">
     <g id="line2d_3">
      <g>
       <use xlink:href="#m04f0b63f96" x="308.801308" y="313.557901" style="fill: #5a5758; stroke: #5a5758; stroke-width: 0.8"/>
      </g>
     </g>
     <g id="text_3">
      <!-- 0.00 -->
      <g style="fill: #5a5758" transform="translate(294.804175 330.978731) scale(0.14994 -0.14994)">
       <use xlink:href="#CMUBright-Roman-30"/>
       <use xlink:href="#CMUBright-Roman-2e" x="52.499985"/>
       <use xlink:href="#CMUBright-Roman-30" x="81.699982"/>
       <use xlink:href="#CMUBright-Roman-30" x="134.199966"/>
      </g>
     </g>
    </g>
    <g id="xtick_4">
     <g id="line2d_4">
      <g>
       <use xlink:href="#m04f0b63f96" x="438.004769" y="313.557901" style="fill: #5a5758; stroke: #5a5758; stroke-width: 0.8"/>
      </g>
     </g>
     <g id="text_4">
      <!-- 2.58 -->
      <g style="fill: #5a5758" transform="translate(424.007635 330.978731) scale(0.14994 -0.14994)">
       <use xlink:href="#CMUBright-Roman-32"/>
       <use xlink:href="#CMUBright-Roman-2e" x="52.499985"/>
       <use xlink:href="#CMUBright-Roman-35" x="81.699982"/>
       <use xlink:href="#CMUBright-Roman-38" x="134.199966"/>
      </g>
     </g>
    </g>
    <g id="xtick_5">
     <g id="line2d_5">
      <g>
       <use xlink:href="#m04f0b63f96" x="559.002627" y="313.557901" style="fill: #5a5758; stroke: #5a5758; stroke-width: 0.8"/>
      </g>
     </g>
     <g id="text_5">
      <!-- 5.00 -->
      <g style="fill: #5a5758" transform="translate(545.005493 330.978731) scale(0.14994 -0.14994)">
       <use xlink:href="#CMUBright-Roman-35"/>
       <use xlink:href="#CMUBright-Roman-2e" x="52.499985"/>
       <use xlink:href="#CMUBright-Roman-30" x="81.699982"/>
       <use xlink:href="#CMUBright-Roman-30" x="134.199966"/>
      </g>
     </g>
    </g>
    <g id="text_6">
     <!-- $x_1$ -->
     <g style="fill: #5a5758" transform="translate(301.061308 353.993198) scale(0.18 -0.18)">
      <defs>
       <path id="CMUBright-SemiBold-78" d="M 0 0 
L 1184 1562 
L 1184 1568 
L 38 3021 
L 698 3021 
L 1446 2022 
L 2163 3021 
L 2816 3021 
L 1709 1568 
L 1709 1562 
L 2931 0 
L 2272 0 
L 1446 1197 
L 1440 1197 
L 653 0 
L 0 0 
z
" transform="scale(0.015625)"/>
       <path id="CMUBright-SemiBold-31" d="M 570 3398 
L 570 3885 
Q 1459 3885 1914 4301 
L 2067 4301 
L 2067 480 
L 2893 480 
L 2893 0 
L 608 0 
L 608 480 
L 1446 480 
L 1446 3533 
Q 1062 3398 570 3398 
z
" transform="scale(0.015625)"/>
      </defs>
      <use xlink:href="#CMUBright-SemiBold-78" transform="translate(0 0.796875)"/>
      <use xlink:href="#CMUBright-SemiBold-31" transform="translate(46.626042 -13.364063) scale(0.7)"/>
     </g>
    </g>
   </g>
   <g id="matplotlib.axis_2">
    <g id="ytick_1">
     <g id="line2d_6">
      <defs>
       <path id="mffbd8d89da" d="M 0 0 
L -3.5 0 
" style="stroke: #5a5758; stroke-width: 0.8"/>
      </defs>
      <g>
       <use xlink:href="#mffbd8d89da" x="46.59999" y="301.557901" style="fill: #5a5758; stroke: #5a5758; stroke-width: 0.8"/>
      </g>
     </g>
     <g id="text_7">
      <!-- -5 -->
      <g style="fill: #5a5758" transform="translate(26.48024 306.768316) scale(0.14994 -0.14994)">
       <use xlink:href="#CMUBright-Roman-2d"/>
       <use xlink:href="#CMUBright-Roman-35" x="34.999985"/>
      </g>
     </g>
    </g>
    <g id="ytick_2">
     <g id="line2d_7">
      <g>
       <use xlink:href="#mffbd8d89da" x="46.59999" y="154.884278" style="fill: #5a5758; stroke: #5a5758; stroke-width: 0.8"/>
      </g>
     </g>
     <g id="text_8">
      <!-- 0 -->
      <g style="fill: #5a5758" transform="translate(31.72814 160.094693) scale(0.14994 -0.14994)">
       <use xlink:href="#CMUBright-Roman-30"/>
      </g>
     </g>
    </g>
    <g id="ytick_3">
     <g id="line2d_8">
      <g>
       <use xlink:href="#mffbd8d89da" x="46.59999" y="154.884278" style="fill: #5a5758; stroke: #5a5758; stroke-width: 0.8"/>
      </g>
     </g>
     <g id="text_9">
      <!-- 0 -->
      <g style="fill: #5a5758" transform="translate(31.72814 160.094693) scale(0.14994 -0.14994)">
       <use xlink:href="#CMUBright-Roman-30"/>
      </g>
     </g>
    </g>
    <g id="ytick_4">
     <g id="line2d_9">
      <g>
       <use xlink:href="#mffbd8d89da" x="46.59999" y="8.210655" style="fill: #5a5758; stroke: #5a5758; stroke-width: 0.8"/>
      </g>
     </g>
     <g id="text_10">
      <!-- 5 -->
      <g style="fill: #5a5758" transform="translate(31.72814 13.42107) scale(0.14994 -0.14994)">
       <use xlink:href="#CMUBright-Roman-35"/>
      </g>
     </g>
    </g>
    <g id="text_11">
     <!-- $x_2$ -->
     <g style="fill: #5a5758" transform="translate(3.00024 151.877715) scale(0.18 -0.18)">
      <defs>
       <path id="CMUBright-SemiBold-32" d="M 275 3373 
Q 602 4301 1581 4301 
Q 2240 4301 2630 3894 
Q 3021 3488 3021 2918 
Q 3021 2739 2957 2569 
Q 2893 2400 2822 2285 
Q 2752 2170 2573 2000 
Q 2394 1830 2298 1753 
Q 2202 1677 1952 1478 
Q 1773 1338 877 538 
L 3021 538 
L 3021 0 
L 333 0 
L 333 512 
Q 1158 1286 1574 1645 
Q 1984 1990 2182 2272 
Q 2381 2554 2381 2906 
Q 2381 3283 2134 3539 
Q 1888 3795 1491 3795 
Q 851 3795 627 2938 
L 275 3373 
z
" transform="scale(0.015625)"/>
      </defs>
      <use xlink:href="#CMUBright-SemiBold-78" transform="translate(0 0.796875)"/>
      <use xlink:href="#CMUBright-SemiBold-32" transform="translate(46.626042 -13.364063) scale(0.7)"/>
     </g>
    </g>
   </g>
   <g id="PathCollection_1">
    <path d="M 58.59999 8.210655 
L 58.59999 8.210655 
z
" clip-path="url(#p89d62f9a9f)" style="fill: none; stroke: #352a87; stroke-width: 2"/>
   </g>
   <g id="PathCollection_2">
    <path d="M 68.403556 8.210655 
L 66.10603 8.998124 
L 64.13328 9.677391 
L 63.604016 9.861212 
L 61.102003 10.736771 
L 59.945031 11.144127 
L 58.59999 11.621867 
" clip-path="url(#p89d62f9a9f)" style="fill: none; stroke: #363399; stroke-width: 2"/>
   </g>
   <g id="PathCollection_3">
    <path d="M 78.79729 8.210655 
L 78.616095 8.270106 
L 76.114082 9.097908 
L 74.370762 9.677391 
L 73.612069 9.931763 
L 71.110056 10.776589 
L 70.02846 11.144127 
L 68.608043 11.631031 
L 66.10603 12.493523 
L 65.768416 12.610864 
L 63.604016 13.369802 
L 61.595774 14.0776 
L 61.102003 14.253192 
L 58.59999 15.150028 
" clip-path="url(#p89d62f9a9f)" style="fill: none; stroke: #353dac; stroke-width: 2"/>
   </g>
   <g id="PathCollection_4">
    <path d="M 89.87426 8.210655 
L 88.624148 8.606589 
L 86.122135 9.403652 
L 85.268728 9.677391 
L 83.620122 10.210752 
L 81.118109 11.024257 
L 80.752432 11.144127 
L 78.616095 11.85054 
L 76.326932 12.610864 
L 76.114082 12.682184 
L 73.612069 13.527822 
L 71.994025 14.0776 
L 71.110056 14.380644 
L 68.608043 15.24452 
L 67.745936 15.544336 
L 66.10603 16.119825 
L 63.604016 17.002617 
L 63.580273 17.011072 
L 61.102003 17.901762 
L 59.508244 18.477809 
L 58.59999 18.809146 
" clip-path="url(#p89d62f9a9f)" style="fill: none; stroke: #2d48c3; stroke-width: 2"/>
   </g>
   <g id="PathCollection_5">
    <path d="M 101.735194 8.210655 
L 101.134214 8.392714 
L 98.632201 9.15631 
L 96.93285 9.677391 
L 96.130188 9.925624 
L 93.628175 10.704882 
L 92.225768 11.144127 
L 91.126161 11.491523 
L 88.624148 12.287098 
L 87.612771 12.610864 
L 86.122135 13.092249 
L 83.620122 13.904803 
L 83.092314 14.0776 
L 81.118109 14.72969 
L 78.663266 15.544336 
L 78.616095 15.560131 
L 76.114082 16.405791 
L 74.332446 17.011072 
L 73.612069 17.258049 
L 71.110056 18.122554 
L 70.089158 18.477809 
L 68.608043 18.997994 
L 66.10603 19.882048 
L 65.930774 19.944545 
L 63.604016 20.782089 
L 61.866376 21.411281 
L 61.102003 21.690696 
L 58.59999 22.612527 
" clip-path="url(#p89d62f9a9f)" style="fill: none; stroke: #1d54d5; stroke-width: 2"/>
   </g>
   <g id="PathCollection_6">
    <path d="M 114.523764 8.210655 
L 113.64428 8.465441 
L 111.142267 9.195124 
L 109.496471 9.677391 
L 108.640254 9.930424 
L 106.13824 10.674957 
L 104.569691 11.144127 
L 103.636227 11.425745 
L 101.134214 12.185795 
L 99.742989 12.610864 
L 98.632201 12.953218 
L 96.130188 13.729453 
L 95.015442 14.0776 
L 93.628175 14.5147 
L 91.126161 15.307799 
L 90.385689 15.544336 
L 88.624148 16.112103 
L 86.122135 16.922752 
L 85.851986 17.011072 
L 83.620122 17.747392 
L 81.417 18.477809 
L 81.118109 18.577817 
L 78.616095 19.422593 
L 77.079466 19.944545 
L 76.114082 20.275531 
L 73.612069 21.139796 
L 72.832371 21.411281 
L 71.110056 22.016673 
L 68.673898 22.878017 
L 68.608043 22.901526 
L 66.10603 23.803461 
L 64.613946 24.344754 
L 63.604016 24.714708 
L 61.102003 25.638191 
L 60.636639 25.81149 
L 58.59999 26.577434 
" clip-path="url(#p89d62f9a9f)" style="fill: none; stroke: #0462e1; stroke-width: 2"/>
   </g>
   <g id="PathCollection_7">
    <path d="M 128.408401 8.210655 
L 126.154346 8.835169 
L 123.652333 9.530378 
L 123.127276 9.677391 
L 121.15032 10.23561 
L 118.648306 10.944824 
L 117.95037 11.144127 
L 116.146293 11.663719 
L 113.64428 12.387614 
L 112.878351 12.610864 
L 111.142267 13.121288 
L 108.640254 13.860546 
L 107.91125 14.0776 
L 106.13824 14.610151 
L 103.636227 15.365459 
L 103.048518 15.544336 
L 101.134214 16.132191 
L 98.632201 16.904242 
L 98.289082 17.011072 
L 96.130188 17.68934 
L 93.631459 18.477809 
L 93.628175 18.478855 
L 91.126161 19.28359 
L 89.080985 19.944545 
L 88.624148 20.09356 
L 86.122135 20.916988 
L 84.629663 21.411281 
L 83.620122 21.748791 
L 81.118109 22.591648 
L 80.274842 22.878017 
L 78.616095 23.44672 
L 76.114082 24.309751 
L 76.013617 24.344754 
L 73.612069 25.189587 
L 71.855062 25.81149 
L 71.110056 26.077787 
L 68.608043 26.979714 
L 67.786783 27.278226 
L 66.10603 27.895256 
L 63.806949 28.744962 
L 63.604016 28.820723 
L 61.102003 29.764072 
L 59.923633 30.211698 
L 58.59999 30.719681 
" clip-path="url(#p89d62f9a9f)" style="fill: none; stroke: #036ae1; stroke-width: 2"/>
   </g>
   <g id="PathCollection_8">
    <path d="M 143.618531 8.210655 
L 141.166425 8.855018 
L 138.664412 9.513754 
L 138.047361 9.677391 
L 136.162399 10.181459 
L 133.660386 10.853093 
L 132.582908 11.144127 
L 131.158372 11.532176 
L 128.656359 12.217403 
L 127.227538 12.610864 
L 126.154346 12.908942 
L 123.652333 13.60846 
L 121.982784 14.0776 
L 121.15032 14.313567 
L 118.648306 15.02808 
L 116.849398 15.544336 
L 116.146293 15.747906 
L 113.64428 16.478121 
L 111.827413 17.011072 
L 111.142267 17.213859 
L 108.640254 17.960492 
L 106.916207 18.477809 
L 106.13824 18.713376 
L 103.636227 19.47715 
L 102.114575 19.944545 
L 101.134214 20.248464 
L 98.632201 21.03011 
L 97.42079 21.411281 
L 96.130188 21.821186 
L 93.628175 22.621444 
L 92.832677 22.878017 
L 91.126161 23.433669 
L 88.624148 24.253292 
L 88.347673 24.344754 
L 86.122135 25.088108 
L 83.968764 25.81149 
L 83.620122 25.929757 
L 81.118109 26.786772 
L 79.693307 27.278226 
L 78.616095 27.653483 
L 76.114082 28.532007 
L 75.513111 28.744962 
L 73.612069 29.425402 
L 71.429949 30.211698 
L 71.110056 30.328147 
L 68.608043 31.248017 
L 67.446428 31.678435 
L 66.10603 32.180258 
L 63.604016 33.123928 
L 63.548289 33.145171 
L 61.102003 34.087502 
L 59.750878 34.611907 
L 58.59999 35.063374 
" clip-path="url(#p89d62f9a9f)" style="fill: none; stroke: #0870df; stroke-width: 2"/>
   </g>
   <g id="PathCollection_9">
    <path d="M 160.45021 8.210655 
L 158.680517 8.648642 
L 156.178504 9.26986 
L 154.543348 9.677391 
L 153.676491 9.89523 
L 151.174478 10.527913 
L 148.742034 11.144127 
L 148.672465 11.1619 
L 146.170451 11.806771 
L 143.668438 12.452915 
L 143.061452 12.610864 
L 141.166425 13.1082 
L 138.664412 13.767497 
L 137.494921 14.0776 
L 136.162399 14.433997 
L 133.660386 15.10717 
L 132.044066 15.544336 
L 131.158372 15.785998 
L 128.656359 16.473773 
L 126.710688 17.011072 
L 126.154346 17.166079 
L 123.652333 17.869188 
L 121.495697 18.477809 
L 121.15032 18.57616 
L 118.648306 19.29534 
L 116.399187 19.944545 
L 116.146293 20.018213 
L 113.64428 20.754208 
L 111.420505 21.411281 
L 111.142267 21.494261 
L 108.640254 22.247823 
L 106.558335 22.878017 
L 106.13824 23.006383 
L 103.636227 23.778274 
L 101.810778 24.344754 
L 101.134214 24.556724 
L 98.632201 25.347715 
L 97.175427 25.81149 
L 96.130188 26.147493 
L 93.628175 26.958368 
L 92.649442 27.278226 
L 91.126161 27.780973 
L 88.624148 28.612528 
L 88.229628 28.744962 
L 86.122135 29.459523 
L 83.917678 30.211698 
L 83.620122 30.31426 
L 81.118109 31.185587 
L 79.713395 31.678435 
L 78.616095 32.067406 
L 76.114082 32.961698 
L 75.605784 33.145171 
L 73.612069 33.872366 
L 71.599221 34.611907 
L 71.110056 34.793545 
L 68.608043 35.731853 
L 67.691443 36.078643 
L 66.10603 36.684962 
L 63.873749 37.54538 
L 63.604016 37.650487 
L 61.102003 38.635742 
L 60.154571 39.012116 
L 58.59999 39.636567 
" clip-path="url(#p89d62f9a9f)" style="fill: none; stroke: #0f77db; stroke-width: 2"/>
   </g>
   <g id="PathCollection_10">
    <path d="M 179.274329 8.210655 
L 178.696623 8.344765 
L 176.19461 8.928993 
L 173.692596 9.513249 
L 172.993818 9.677391 
L 171.190583 10.104439 
L 168.68857 10.698583 
L 166.817447 11.144127 
L 166.186557 11.295602 
L 163.684544 11.900398 
L 161.182531 12.505944 
L 160.75236 12.610864 
L 158.680517 13.120462 
L 156.178504 13.737689 
L 154.807848 14.0776 
L 153.676491 14.360574 
L 151.174478 14.990235 
L 148.979638 15.544336 
L 148.672465 15.622559 
L 146.170451 16.26541 
L 143.668438 16.909924 
L 143.279268 17.011072 
L 141.166425 17.565077 
L 138.664412 18.22378 
L 137.706743 18.477809 
L 136.162399 18.891138 
L 133.660386 19.564784 
L 132.259031 19.944545 
L 131.158372 20.245538 
L 128.656359 20.934889 
L 126.937311 21.411281 
L 126.154346 21.630269 
L 123.652333 22.336091 
L 121.741818 22.878017 
L 121.15032 23.047375 
L 118.648306 23.770442 
L 116.671934 24.344754 
L 116.146293 24.498955 
L 113.64428 25.240051 
L 111.726279 25.81149 
L 111.142267 25.987171 
L 108.640254 26.747088 
L 106.902805 27.278226 
L 106.13824 27.51425 
L 103.636227 28.293792 
L 102.198887 28.744962 
L 101.134214 29.082489 
L 98.632201 29.882472 
L 97.611413 30.211698 
L 96.130188 30.694264 
L 93.628175 31.515519 
L 93.136866 31.678435 
L 91.126161 32.352033 
L 88.774111 33.145171 
L 88.624148 33.196268 
L 86.122135 34.058342 
L 84.52726 34.611907 
L 83.620122 34.930101 
L 81.118109 35.815836 
L 80.38287 36.078643 
L 78.616095 36.716964 
L 76.340478 37.54538 
L 76.114082 37.628697 
L 73.612069 38.559692 
L 72.406466 39.012116 
L 71.110056 39.504013 
L 68.608043 40.461238 
L 68.56253 40.478852 
L 66.10603 41.440257 
L 64.825696 41.945588 
L 63.604016 42.433287 
L 61.172714 43.412325 
L 61.102003 43.441129 
L 58.59999 44.472073 
" clip-path="url(#p89d62f9a9f)" style="fill: none; stroke: #137dd8; stroke-width: 2"/>
   </g>
   <g id="PathCollection_11">
    <path d="M 200.5788 8.210655 
L 198.712728 8.620234 
L 196.210715 9.169513 
L 193.895092 9.677391 
L 193.708702 9.718601 
L 191.206689 10.275358 
L 188.704676 10.831592 
L 187.303055 11.144127 
L 186.202662 11.391504 
L 183.700649 11.956378 
L 181.198636 12.52124 
L 180.804444 12.610864 
L 178.696623 13.094093 
L 176.19461 13.66872 
L 174.419823 14.0776 
L 173.692596 14.246558 
L 171.190583 14.831754 
L 168.68857 15.417708 
L 168.152015 15.544336 
L 166.186557 16.012179 
L 163.684544 16.609786 
L 162.012101 17.011072 
L 161.182531 17.211859 
L 158.680517 17.821911 
L 156.178504 18.433425 
L 155.998655 18.477809 
L 153.676491 19.055976 
L 151.174478 19.680988 
L 150.127143 19.944545 
L 148.672465 20.313911 
L 146.170451 20.953209 
L 144.387418 21.411281 
L 143.668438 21.597684 
L 141.166425 22.25206 
L 138.782482 22.878017 
L 138.664412 22.909308 
L 136.162399 23.579557 
L 133.660386 24.252401 
L 133.320486 24.344754 
L 131.158372 24.93777 
L 128.656359 25.627523 
L 127.995381 25.81149 
L 126.154346 26.328818 
L 123.652333 27.036286 
L 122.804515 27.278226 
L 121.15032 27.754884 
L 118.648306 28.480882 
L 117.746517 28.744962 
L 116.146293 29.218214 
L 113.64428 29.963566 
L 112.819239 30.211698 
L 111.142267 30.721123 
L 108.640254 31.486667 
L 108.019866 31.678435 
L 106.13824 32.266004 
L 103.636227 33.052591 
L 103.345025 33.145171 
L 101.134214 33.85533 
L 98.793909 34.611907 
L 98.632201 34.664735 
L 96.130188 35.491666 
L 94.367042 36.078643 
L 93.628175 36.327254 
L 91.126161 37.177668 
L 90.05423 37.54538 
L 88.624148 38.04128 
L 86.122135 38.916098 
L 85.850637 39.012116 
L 83.620122 39.809664 
L 81.763309 40.478852 
L 81.118109 40.713985 
L 78.616095 41.635374 
L 77.782035 41.945588 
L 76.114082 42.573019 
L 73.901768 43.412325 
L 73.612069 43.523501 
L 71.110056 44.494688 
L 70.129227 44.879061 
L 68.608043 45.482199 
L 66.449551 46.345797 
L 66.10603 46.484879 
L 63.604016 47.509308 
L 62.870938 47.812533 
L 61.102003 48.553107 
L 59.383932 49.279269 
L 58.59999 49.614699 
" clip-path="url(#p89d62f9a9f)" style="fill: none; stroke: #1484d4; stroke-width: 2"/>
   </g>
   <g id="PathCollection_12">
    <path d="M 224.922078 8.210655 
L 223.73286 8.458453 
L 221.230847 8.97964 
L 218.728834 9.498401 
L 217.867027 9.677391 
L 216.226821 10.020732 
L 213.724807 10.54411 
L 211.222794 11.065733 
L 210.848492 11.144127 
L 208.720781 11.593334 
L 206.218768 12.120908 
L 203.89159 12.610864 
L 203.716755 12.647973 
L 201.214741 13.182408 
L 198.712728 13.716083 
L 197.020779 14.0776 
L 196.210715 14.252123 
L 193.708702 14.793912 
L 191.206689 15.335501 
L 190.246882 15.544336 
L 188.704676 15.882728 
L 186.202662 16.433642 
L 183.700649 16.984878 
L 183.582792 17.011072 
L 181.198636 17.545529 
L 178.696623 18.107263 
L 177.053159 18.477809 
L 176.19461 18.673075 
L 173.692596 19.246151 
L 171.190583 19.820338 
L 170.653936 19.944545 
L 168.68857 20.403477 
L 166.186557 20.990136 
L 164.399231 21.411281 
L 163.684544 21.581204 
L 161.182531 22.181167 
L 158.680517 22.782962 
L 158.289191 22.878017 
L 156.178504 23.395431 
L 153.676491 24.011631 
L 152.333582 24.344754 
L 151.174478 24.634969 
L 148.672465 25.266401 
L 146.523407 25.81149 
L 146.170451 25.901863 
L 143.668438 26.549363 
L 141.166425 27.199611 
L 140.867246 27.278226 
L 138.664412 27.862655 
L 136.162399 28.530055 
L 135.364524 28.744962 
L 133.660386 29.208475 
L 131.158372 29.893868 
L 130.008367 30.211698 
L 128.656359 30.589081 
L 126.154346 31.293319 
L 124.797571 31.678435 
L 123.652333 32.006797 
L 121.15032 32.730744 
L 119.729971 33.145171 
L 118.648306 33.464024 
L 116.146293 34.208554 
L 114.802582 34.611907 
L 113.64428 34.963238 
L 111.142267 35.729242 
L 110.011722 36.078643 
L 108.640254 36.507005 
L 106.13824 37.295387 
L 105.353142 37.54538 
L 103.636227 38.097983 
L 101.134214 38.909666 
L 100.82214 39.012116 
L 98.632201 39.738929 
L 96.419314 40.478852 
L 96.130188 40.576604 
L 93.628175 41.432712 
L 92.142185 41.945588 
L 91.126161 42.300229 
L 88.624148 43.182315 
L 87.978873 43.412325 
L 86.122135 44.081776 
L 83.929652 44.879061 
L 83.620122 44.992935 
L 81.118109 45.924465 
L 79.997377 46.345797 
L 78.616095 46.871252 
L 76.164252 47.812533 
L 76.114082 47.832026 
L 73.612069 48.816502 
L 72.447169 49.279269 
L 71.110056 49.816973 
L 68.822103 50.746006 
L 68.608043 50.834011 
L 66.10603 51.875183 
L 65.303329 52.212742 
L 63.604016 52.936428 
L 61.876893 53.679478 
L 61.102003 54.017159 
L 58.59999 55.119056 
" clip-path="url(#p89d62f9a9f)" style="fill: none; stroke: #128bd3; stroke-width: 2"/>
   </g>
   <g id="PathCollection_13">
    <path d="M 252.766503 8.210655 
L 251.255005 8.518951 
L 248.752992 9.026135 
L 246.250979 9.528465 
L 245.507741 9.677391 
L 243.748966 10.032493 
L 241.246952 10.534885 
L 238.744939 11.033334 
L 238.188977 11.144127 
L 236.242926 11.53496 
L 233.740913 12.035132 
L 231.2389 12.532198 
L 230.843874 12.610864 
L 228.736886 13.033785 
L 226.234873 13.534141 
L 223.73286 14.032163 
L 223.505583 14.0776 
L 221.230847 14.536047 
L 218.728834 15.038847 
L 216.226821 15.540024 
L 216.205428 15.544336 
L 213.724807 16.048526 
L 211.222794 16.555898 
L 208.975985 17.011072 
L 208.720781 17.063208 
L 206.218768 17.577743 
L 203.716755 18.091704 
L 201.840032 18.477809 
L 201.214741 18.607553 
L 198.712728 19.130006 
L 196.210715 19.652473 
L 194.81799 19.944545 
L 193.708702 20.179206 
L 191.206689 20.711446 
L 188.704676 21.244248 
L 187.92599 21.411281 
L 186.202662 21.784231 
L 183.700649 22.328047 
L 181.198636 22.872939 
L 181.175562 22.878017 
L 178.696623 23.428572 
L 176.19461 23.985684 
L 174.591274 24.344754 
L 173.692596 24.547865 
L 171.190583 25.118078 
L 168.68857 25.690145 
L 168.163096 25.81149 
L 166.186557 26.272196 
L 163.684544 26.858534 
L 161.904743 27.278226 
L 161.182531 27.450151 
L 158.680517 28.051634 
L 156.178504 28.655684 
L 155.812837 28.744962 
L 153.676491 29.271607 
L 151.174478 29.891949 
L 149.895884 30.211698 
L 148.672465 30.520663 
L 146.170451 31.158176 
L 144.141874 31.678435 
L 143.668438 31.80107 
L 141.166425 32.45664 
L 138.664412 33.115688 
L 138.553897 33.145171 
L 136.162399 33.78968 
L 133.660386 34.467926 
L 133.135379 34.611907 
L 131.158372 35.159707 
L 128.656359 35.858053 
L 127.874652 36.078643 
L 126.154346 36.569206 
L 123.652333 37.288568 
L 122.768679 37.54538 
L 121.15032 38.020747 
L 118.648306 38.762054 
L 117.813545 39.012116 
L 116.146293 39.516991 
L 113.64428 40.28119 
L 113.004613 40.478852 
L 111.142267 41.060695 
L 108.640254 41.848751 
L 108.33667 41.945588 
L 106.13824 42.654726 
L 103.807582 43.412325 
L 103.636227 43.468661 
L 101.134214 44.302064 
L 99.416856 44.879061 
L 98.632201 45.14575 
L 96.130188 46.005814 
L 95.151725 46.345797 
L 93.628175 46.881431 
L 91.126161 47.769217 
L 91.005684 47.812533 
L 88.624148 48.679062 
L 86.989738 49.279269 
L 86.122135 49.601771 
L 83.620122 50.542154 
L 83.084197 50.746006 
L 81.118109 51.503143 
L 79.293536 52.212742 
L 78.616095 52.479534 
L 76.114082 53.476327 
L 75.610235 53.679478 
L 73.612069 54.495494 
L 72.035138 55.146214 
L 71.110056 55.53294 
L 68.608043 56.590239 
L 68.555 56.612951 
L 66.10603 57.67547 
L 65.184433 58.079687 
L 63.604016 58.782253 
L 61.903981 59.546423 
L 61.102003 59.911882 
L 58.712481 61.013159 
L 58.59999 61.065731 
" clip-path="url(#p89d62f9a9f)" style="fill: none; stroke: #0d92d2; stroke-width: 2"/>
   </g>
   <g id="PathCollection_14">
    <path d="M 58.59999 290.586181 
L 58.94919 291.290747 
L 59.655877 292.757484 
L 60.338767 294.22422 
L 60.997953 295.690956 
L 61.102003 295.929156 
L 61.641448 297.157692 
L 62.262493 298.624428 
L 62.859663 300.091165 
L 63.433105 301.557901 
" clip-path="url(#p89d62f9a9f)" style="fill: none; stroke: #089ad0; stroke-width: 2"/>
    <path d="M 283.985073 8.210655 
L 269.737267 11.144127 
L 251.255005 14.760876 
L 198.712728 24.915374 
L 180.367233 28.744962 
L 166.186557 31.909008 
L 151.174478 35.504998 
L 138.664412 38.731923 
L 127.070149 41.945588 
L 116.146293 45.199767 
L 106.13824 48.401185 
L 96.130188 51.84022 
L 87.18108 55.146214 
L 78.616095 58.54333 
L 71.110056 61.732175 
L 63.033397 65.413368 
L 58.59999 67.561891 
L 58.59999 67.561891 
" clip-path="url(#p89d62f9a9f)" style="fill: none; stroke: #089ad0; stroke-width: 2"/>
   </g>
   <g id="PathCollection_15">
    <path d="M 58.59999 271.309251 
L 59.18015 272.223176 
L 60.091513 273.689913 
L 60.979782 275.156649 
L 61.102003 275.362215 
L 61.85752 276.623385 
L 62.713439 278.090121 
L 63.545401 279.556857 
L 63.604016 279.662321 
L 64.365865 281.023594 
L 65.162679 282.49033 
L 65.934883 283.957066 
L 66.10603 284.290298 
L 66.6919 285.423802 
L 67.426585 286.890539 
L 68.136212 288.357275 
L 68.608043 289.364915 
L 68.82426 289.824011 
L 69.494418 291.290747 
L 70.139262 292.757484 
L 70.758941 294.22422 
L 71.110056 295.086619 
L 71.357347 295.690956 
L 71.935789 297.157692 
L 72.489031 298.624428 
L 73.017276 300.091165 
L 73.520737 301.557901 
" clip-path="url(#p89d62f9a9f)" style="fill: none; stroke: #06a0cd; stroke-width: 2"/>
    <path d="M 317.133176 8.210655 
L 308.801308 10.19637 
L 296.291242 12.949126 
L 283.510031 15.544336 
L 268.081693 18.477809 
L 246.250979 22.425402 
L 213.724807 28.292682 
L 195.981081 31.678435 
L 178.696623 35.219299 
L 166.186557 37.972227 
L 153.676491 40.923769 
L 141.166425 44.108587 
L 131.158372 46.849213 
L 121.15032 49.786549 
L 111.142267 52.946613 
L 101.134214 56.357809 
L 92.46781 59.546423 
L 83.620122 63.057134 
L 76.114082 66.265018 
L 68.395609 69.813577 
L 61.102003 73.444405 
L 58.59999 74.757048 
L 58.59999 74.757048 
" clip-path="url(#p89d62f9a9f)" style="fill: none; stroke: #06a0cd; stroke-width: 2"/>
   </g>
   <g id="PathCollection_16">
    <path d="M 58.59999 253.481608 
L 59.438171 254.622342 
L 60.498436 256.089078 
L 61.102003 256.936861 
L 61.547164 257.555814 
L 62.586573 259.02255 
L 63.604016 260.488362 
L 63.604664 260.489287 
L 64.619925 261.956023 
L 65.61256 263.422759 
L 66.10603 264.165642 
L 66.591237 264.889495 
L 67.5554 266.356231 
L 68.495592 267.822968 
L 68.608043 268.001484 
L 69.426361 269.289704 
L 70.334222 270.75644 
L 71.110056 272.043893 
L 71.218956 272.223176 
L 72.091951 273.689913 
L 72.93905 275.156649 
L 73.612069 276.356492 
L 73.76287 276.623385 
L 74.572055 278.090121 
L 75.354681 279.556857 
L 76.110824 281.023594 
L 76.114082 281.030075 
L 76.852934 282.49033 
L 77.568113 283.957066 
L 78.256446 285.423802 
L 78.616095 286.217207 
L 78.923093 286.890539 
L 79.568568 288.357275 
L 80.187047 289.824011 
L 80.778739 291.290747 
L 81.118109 292.167746 
L 81.347464 292.757484 
L 81.894708 294.22422 
L 82.415256 295.690956 
L 82.909372 297.157692 
L 83.377326 298.624428 
L 83.620122 299.42602 
L 83.822415 300.091165 
L 84.245087 301.557901 
" clip-path="url(#p89d62f9a9f)" style="fill: none; stroke: #06a6c7; stroke-width: 2"/>
    <path d="M 349.595621 8.210655 
L 343.829493 9.996155 
L 334.605325 12.610864 
L 326.315401 14.75307 
L 316.307348 17.101104 
L 306.299295 19.24703 
L 293.789229 21.69423 
L 278.77715 24.387098 
L 258.761045 27.740867 
L 213.724807 35.213943 
L 196.210715 38.388496 
L 181.198636 41.33607 
L 168.68857 43.994655 
L 156.178504 46.873231 
L 143.668438 50.009444 
L 133.660386 52.731161 
L 123.652333 55.669635 
L 113.64428 58.854031 
L 106.13824 61.423357 
L 98.632201 64.167666 
L 91.126161 67.109664 
L 83.620122 70.274977 
L 76.114082 73.692696 
L 69.102956 77.147258 
L 63.569685 80.08073 
L 58.59999 82.898003 
L 58.59999 82.898003 
" clip-path="url(#p89d62f9a9f)" style="fill: none; stroke: #06a6c7; stroke-width: 2"/>
   </g>
   <g id="PathCollection_17">
    <path d="M 58.59999 235.710397 
L 59.636108 237.021507 
L 60.783296 238.488243 
L 61.102003 238.898212 
L 61.93427 239.954979 
L 63.077122 241.421716 
L 63.604016 242.104222 
L 64.217086 242.888452 
L 65.351336 244.355188 
L 66.10603 245.343638 
L 66.475648 245.821924 
L 67.597095 247.28866 
L 68.608043 248.633159 
L 68.701029 248.755397 
L 69.805565 250.222133 
L 70.888936 251.688869 
L 71.110056 251.992041 
L 71.967997 253.155605 
L 73.02884 254.622342 
L 73.612069 255.443181 
L 74.075792 256.089078 
L 75.110402 257.555814 
L 76.114082 259.013217 
L 76.120574 259.02255 
L 77.125436 260.489287 
L 78.104422 261.956023 
L 78.616095 262.739788 
L 79.066064 263.422759 
L 80.010826 264.889495 
L 80.928466 266.356231 
L 81.118109 266.666001 
L 81.832391 267.822968 
L 82.711913 269.289704 
L 83.563369 270.75644 
L 83.620122 270.85651 
L 84.40116 272.223176 
L 85.211204 273.689913 
L 85.992532 275.156649 
L 86.122135 275.406867 
L 86.756634 276.623385 
L 87.493852 278.090121 
L 88.20198 279.556857 
L 88.624148 280.464563 
L 88.885775 281.023594 
L 89.547683 282.49033 
L 90.18038 283.957066 
L 90.784125 285.423802 
L 91.126161 286.292094 
L 91.363162 286.890539 
L 91.918989 288.357275 
L 92.446028 289.824011 
L 92.944604 291.290747 
L 93.415045 292.757484 
L 93.628175 293.459423 
L 93.861391 294.22422 
L 94.283153 295.690956 
L 94.677219 297.157692 
L 95.043961 298.624428 
L 95.383755 300.091165 
L 95.696975 301.557901 
" clip-path="url(#p89d62f9a9f)" style="fill: none; stroke: #07aac1; stroke-width: 2"/>
    <path d="M 379.212607 8.210655 
L 373.853651 10.538242 
L 366.347612 13.510653 
L 358.841572 16.183092 
L 351.335532 18.582105 
L 343.829493 20.748011 
L 333.82144 23.308335 
L 323.813387 25.559496 
L 313.805335 27.562674 
L 303.797282 29.3707 
L 289.62651 31.678435 
L 273.773124 34.04862 
L 218.728834 42.052207 
L 201.214741 44.93541 
L 185.429736 47.812533 
L 173.692596 50.16481 
L 163.684544 52.333089 
L 151.174478 55.294566 
L 140.464066 58.079687 
L 130.14123 61.013159 
L 120.67388 63.946632 
L 111.142267 67.171178 
L 103.636227 69.924478 
L 96.130188 72.896326 
L 88.624148 76.1166 
L 81.118109 79.619557 
L 74.440062 83.014203 
L 68.608043 86.23008 
L 63.604016 89.208364 
L 58.59999 92.423519 
L 58.59999 92.423519 
" clip-path="url(#p89d62f9a9f)" style="fill: none; stroke: #07aac1; stroke-width: 2"/>
   </g>
   <g id="PathCollection_18">
    <path d="M 58.59999 216.650325 
L 59.613936 217.953936 
L 60.753993 219.420672 
L 61.102003 219.86731 
L 61.909983 220.887408 
L 63.070022 222.354145 
L 63.604016 223.029735 
L 64.239428 223.820881 
L 65.414682 225.287617 
L 66.10603 226.153491 
L 66.593305 226.754353 
L 67.778888 228.221089 
L 68.608043 229.253464 
L 68.962214 229.687826 
L 70.153151 231.154562 
L 71.110056 232.344048 
L 71.336384 232.621298 
L 72.527657 234.088034 
L 73.612069 235.439646 
L 73.705752 235.554771 
L 74.892335 237.021507 
L 76.061259 238.488243 
L 76.114082 238.554988 
L 77.236947 239.954979 
L 78.39394 241.421716 
L 78.616095 241.706217 
L 79.551174 242.888452 
L 80.691445 244.355188 
L 81.118109 244.911642 
L 81.824704 245.821924 
L 82.943601 247.28866 
L 83.620122 248.19176 
L 84.047333 248.755397 
L 85.14038 250.222133 
L 86.122135 251.570795 
L 86.209053 251.688869 
L 87.271988 253.155605 
L 88.307061 254.622342 
L 88.624148 255.080706 
L 89.328954 256.089078 
L 90.328455 257.555814 
L 91.126161 258.759474 
L 91.302217 259.02255 
L 92.262578 260.489287 
L 93.192353 261.956023 
L 93.628175 262.662648 
L 94.101167 263.422759 
L 94.987534 264.889495 
L 95.842412 266.356231 
L 96.130188 266.864809 
L 96.676733 267.822968 
L 97.484691 269.289704 
L 98.260613 270.75644 
L 98.632201 271.484415 
L 99.012022 272.223176 
L 99.73826 273.689913 
L 100.432246 275.156649 
L 101.094287 276.623385 
L 101.134214 276.715204 
L 101.735787 278.090121 
L 102.345878 279.556857 
L 102.924177 281.023594 
L 103.471073 282.49033 
L 103.636227 282.955867 
L 103.993254 283.957066 
L 104.487051 285.423802 
L 104.949902 286.890539 
L 105.382253 288.357275 
L 105.784551 289.824011 
L 106.13824 291.21504 
L 106.157568 291.290747 
L 106.506843 292.757484 
L 106.826801 294.22422 
L 107.117923 295.690956 
L 107.380689 297.157692 
L 107.615578 298.624428 
L 107.823067 300.091165 
L 108.003629 301.557901 
" clip-path="url(#p89d62f9a9f)" style="fill: none; stroke: #0daeba; stroke-width: 2"/>
    <path d="M 405.266414 8.210655 
L 400.691753 11.144127 
L 395.789462 14.0776 
L 390.485287 17.011072 
L 386.363717 19.131482 
L 381.359691 21.503415 
L 374.734096 24.344754 
L 370.987204 25.81149 
L 366.347612 27.497087 
L 358.841572 29.932269 
L 351.335532 32.052554 
L 343.829493 33.901888 
L 336.323453 35.519271 
L 326.315401 37.379564 
L 316.066096 39.012116 
L 305.53281 40.478852 
L 293.72456 41.945588 
L 276.275137 43.924953 
L 238.744939 48.143652 
L 221.230847 50.378902 
L 208.348513 52.212742 
L 193.708702 54.551186 
L 181.198636 56.792897 
L 168.68857 59.303644 
L 158.680517 61.53167 
L 148.672465 63.973919 
L 137.916653 66.880104 
L 128.099934 69.813577 
L 118.648306 72.930384 
L 111.027692 75.680522 
L 103.556509 78.613994 
L 96.130188 81.797675 
L 88.624148 85.328173 
L 83.620122 87.882915 
L 78.616095 90.62493 
L 73.612069 93.585282 
L 68.608043 96.801257 
L 63.604016 100.318031 
L 59.41583 103.54851 
L 58.59999 104.213443 
L 58.59999 104.213443 
" clip-path="url(#p89d62f9a9f)" style="fill: none; stroke: #0daeba; stroke-width: 2"/>
   </g>
   <g id="PathCollection_19">
    <path d="M 58.59999 193.429754 
L 59.260848 194.486156 
L 60.19653 195.952892 
L 61.102003 197.348687 
L 61.148993 197.419629 
L 62.13953 198.886365 
L 63.143031 200.353101 
L 63.604016 201.01721 
L 64.17256 201.819837 
L 65.224367 203.286574 
L 66.10603 204.504615 
L 66.289669 204.75331 
L 67.38548 206.220046 
L 68.487212 207.686782 
L 68.608043 207.846061 
L 69.619196 209.153518 
L 70.757284 210.620255 
L 71.110056 211.072101 
L 71.917512 212.086991 
L 73.086886 213.553727 
L 73.612069 214.210606 
L 74.271616 215.020463 
L 75.466929 216.4872 
L 76.114082 217.281476 
L 76.671933 217.953936 
L 77.887595 219.420672 
L 78.616095 220.30226 
L 79.108177 220.887408 
L 80.338405 222.354145 
L 81.118109 223.288927 
L 81.569422 223.820881 
L 82.808288 225.287617 
L 83.620122 226.256512 
L 84.04419 226.754353 
L 85.285672 228.221089 
L 86.122135 229.219697 
L 86.520542 229.687826 
L 87.758587 231.154562 
L 88.624148 232.193386 
L 88.986197 232.621298 
L 90.214775 234.088034 
L 91.126161 235.193301 
L 91.428644 235.554771 
L 92.641812 237.021507 
L 93.628175 238.236671 
L 93.835277 238.488243 
L 95.027238 239.954979 
L 96.130188 241.343067 
L 96.193527 241.421716 
L 97.358687 242.888452 
L 98.494406 244.355188 
L 98.632201 244.53607 
L 99.624021 245.821924 
L 100.72559 247.28866 
L 101.134214 247.844665 
L 101.811461 248.755397 
L 102.874078 250.222133 
L 103.636227 251.304687 
L 103.909716 251.688869 
L 104.928944 253.155605 
L 105.913384 254.622342 
L 106.13824 254.966212 
L 106.879905 256.089078 
L 107.815712 257.555814 
L 108.640254 258.898101 
L 108.71742 259.02255 
L 109.601222 260.489287 
L 110.448337 261.956023 
L 111.142267 263.208986 
L 111.261655 263.422759 
L 112.053199 264.889495 
L 112.807816 266.356231 
L 113.525926 267.822968 
L 113.64428 268.074605 
L 114.219855 269.289704 
L 114.879552 270.75644 
L 115.503 272.223176 
L 116.090719 273.689913 
L 116.146293 273.835594 
L 116.653221 275.156649 
L 117.181195 276.623385 
L 117.674097 278.090121 
L 118.132521 279.556857 
L 118.557059 281.023594 
L 118.648306 281.361983 
L 118.953949 282.49033 
L 119.319065 283.957066 
L 119.651298 285.423802 
L 119.95128 286.890539 
L 120.219633 288.357275 
L 120.456977 289.824011 
L 120.663925 291.290747 
L 120.841084 292.757484 
L 120.989054 294.22422 
L 121.108427 295.690956 
L 121.15032 296.358444 
L 121.200598 297.157692 
L 121.265546 298.624428 
L 121.30317 300.091165 
L 121.314058 301.557901 
" clip-path="url(#p89d62f9a9f)" style="fill: none; stroke: #19b2b2; stroke-width: 2"/>
    <path d="M 428.019191 8.210655 
L 422.018946 14.0776 
L 418.862503 17.011072 
L 413.863811 21.411281 
L 408.460756 25.81149 
L 403.877809 29.251877 
L 398.873783 32.670663 
L 393.277043 36.078643 
L 388.86573 38.485694 
L 383.861704 40.901428 
L 377.812342 43.412325 
L 373.756957 44.879061 
L 368.849625 46.434272 
L 363.779414 47.812533 
L 357.335658 49.279269 
L 353.837546 49.969092 
L 346.331506 51.199992 
L 338.45193 52.212742 
L 331.319427 52.955469 
L 321.311374 53.768819 
L 308.801308 54.566063 
L 281.279163 55.982851 
L 261.263058 57.109628 
L 246.250979 58.149244 
L 231.2389 59.432259 
L 218.728834 60.724245 
L 206.218768 62.247026 
L 194.265176 63.946632 
L 185.203772 65.413368 
L 176.19461 67.036468 
L 166.186557 69.055571 
L 156.178504 71.314968 
L 146.170451 73.857496 
L 138.664412 75.963993 
L 130.076097 78.613994 
L 123.652333 80.783172 
L 116.146293 83.543415 
L 108.640254 86.583533 
L 103.422472 88.881148 
L 96.130188 92.402378 
L 91.126161 95.05031 
L 86.122135 97.926061 
L 81.118109 101.071785 
L 76.114082 104.539328 
L 73.522937 106.481982 
L 69.905779 109.415455 
L 66.10603 112.807153 
L 63.577294 115.2824 
L 60.848433 118.215872 
L 58.59999 120.879663 
L 58.59999 120.879663 
" clip-path="url(#p89d62f9a9f)" style="fill: none; stroke: #19b2b2; stroke-width: 2"/>
   </g>
   <g id="PathCollection_20">
    <path d="M 448.016945 8.210655 
L 441.783764 18.477809 
L 435.077475 30.211698 
L 431.220802 37.54538 
L 428.385951 43.412325 
L 426.395928 47.996304 
L 424.758614 52.212742 
L 423.350634 56.612951 
L 422.612671 59.546423 
L 422.08851 62.479895 
L 421.819452 65.413368 
L 421.858157 68.34684 
L 422.27284 71.280313 
L 422.64821 72.747049 
L 423.153469 74.213785 
L 424.572293 77.147258 
L 425.502398 78.613994 
L 427.841108 81.547466 
L 430.820361 84.480939 
L 434.37621 87.414411 
L 438.905994 90.682044 
L 443.91002 94.010668 
L 449.645854 97.681565 
L 458.922099 103.587444 
L 466.428139 108.629608 
L 473.533172 113.815664 
L 477.230521 116.749136 
L 481.440218 120.342625 
L 485.393739 124.082817 
L 488.209531 127.01629 
L 490.759445 129.949762 
L 493.040172 132.883235 
L 495.052795 135.816707 
L 496.802038 138.750179 
L 498.263103 141.683652 
L 499.451603 144.617124 
L 500.347385 147.550597 
L 500.961931 150.484069 
L 501.276767 153.417542 
L 501.276243 156.351014 
L 500.94782 159.284487 
L 500.282276 162.217959 
L 499.273832 165.151432 
L 498.624649 166.618168 
L 497.023932 169.55164 
L 496.070791 171.018376 
L 493.8235 173.951849 
L 491.070183 176.885321 
L 487.752309 179.818794 
L 485.864667 181.28553 
L 483.803828 182.752266 
L 481.440218 184.280691 
L 478.938205 185.752842 
L 473.934178 188.326021 
L 469.953521 190.085947 
L 466.215652 191.552684 
L 461.424113 193.185546 
L 456.420086 194.639545 
L 451.001577 195.952892 
L 446.412033 196.868108 
L 441.408007 197.682367 
L 436.403981 198.299772 
L 431.399954 198.737996 
L 426.395928 198.985638 
L 421.391902 199.041345 
L 416.08994 198.886365 
L 411.383849 198.547493 
L 406.379823 197.967443 
L 401.375796 197.138403 
L 396.115534 195.952892 
L 391.170431 194.486156 
L 386.363717 192.652521 
L 383.861704 191.514012 
L 381.144714 190.085947 
L 378.720075 188.619211 
L 376.355664 186.967798 
L 373.853651 184.92103 
L 371.60245 182.752266 
L 370.295573 181.28553 
L 368.080699 178.352058 
L 366.317615 175.418585 
L 364.941264 172.485113 
L 363.845598 169.488042 
L 363.064708 166.618168 
L 362.486915 163.684695 
L 362.102819 160.751223 
L 361.887929 157.81775 
L 361.836343 153.417542 
L 362.054155 149.017333 
L 362.486485 144.617124 
L 363.311893 138.750179 
L 364.606807 131.416498 
L 366.752002 119.682608 
L 367.381197 115.2824 
L 367.761362 110.882191 
L 367.805711 107.948719 
L 367.613204 105.015246 
L 367.099349 102.081774 
L 366.347612 99.684261 
L 366.151935 99.148301 
L 365.484748 97.681565 
L 364.644778 96.214829 
L 363.607788 94.748093 
L 362.366288 93.281356 
L 360.859802 91.81462 
L 358.841572 90.190184 
L 356.339559 88.516728 
L 353.837546 87.100411 
L 351.335532 85.866443 
L 346.331506 83.807874 
L 341.32748 82.101062 
L 336.323453 80.64754 
L 331.319427 79.384734 
L 323.813387 77.765216 
L 316.307348 76.408074 
L 308.801308 75.2631 
L 298.793256 74.016705 
L 288.785203 73.05379 
L 278.77715 72.342202 
L 268.769097 71.864762 
L 258.761045 71.60837 
L 248.752992 71.57061 
L 238.744939 71.749613 
L 228.736886 72.143915 
L 218.728834 72.752496 
L 208.720781 73.596608 
L 198.712728 74.670302 
L 188.704676 75.990995 
L 178.696623 77.576906 
L 168.68857 79.447098 
L 161.182531 81.051209 
L 153.001438 83.014203 
L 146.170451 84.844343 
L 137.582933 87.414411 
L 131.158372 89.558977 
L 124.993815 91.81462 
L 118.648306 94.369428 
L 113.64428 96.572952 
L 108.275664 99.148301 
L 102.730829 102.081774 
L 97.712374 105.015246 
L 93.165844 107.948719 
L 88.624148 111.206352 
L 85.336373 113.815664 
L 81.980684 116.749136 
L 78.616095 120.03787 
L 76.114082 122.776898 
L 73.612069 125.858376 
L 71.110056 129.406785 
L 69.86503 131.416498 
L 68.252599 134.349971 
L 66.889973 137.283443 
L 65.752567 140.216916 
L 64.845874 143.150388 
L 64.146437 146.083861 
L 63.604016 149.425396 
L 63.365131 151.950806 
L 63.271157 154.884278 
L 63.363235 157.81775 
L 63.636157 160.751223 
L 64.093945 163.684695 
L 64.721785 166.618168 
L 65.511048 169.55164 
L 66.462435 172.485113 
L 68.185988 176.885321 
L 69.525452 179.818794 
L 71.79651 184.219003 
L 74.373506 188.619211 
L 77.234404 193.01942 
L 80.352026 197.419629 
L 83.696515 201.819837 
L 88.624148 207.867079 
L 96.130188 216.50068 
L 111.142267 233.329366 
L 115.492804 238.488243 
L 120.098273 244.355188 
L 123.652333 249.357089 
L 126.154346 253.24107 
L 127.834895 256.089078 
L 130.13962 260.489287 
L 132.093269 264.889495 
L 133.197415 267.822968 
L 134.568275 272.223176 
L 135.595067 276.623385 
L 136.294399 281.023594 
L 136.691818 285.423802 
L 136.798968 289.824011 
L 136.637768 294.22422 
L 136.162399 299.135228 
L 135.832682 301.557901 
L 135.832682 301.557901 
" clip-path="url(#p89d62f9a9f)" style="fill: none; stroke: #24b5aa; stroke-width: 2"/>
   </g>
   <g id="PathCollection_21">
    <path d="M 465.790267 8.210655 
L 463.926126 13.939899 
L 463.044309 17.011072 
L 461.96551 21.411281 
L 461.115645 25.81149 
L 460.518961 30.211698 
L 460.214758 34.611907 
L 460.190467 37.54538 
L 460.321337 40.478852 
L 460.618916 43.412325 
L 461.095671 46.345797 
L 461.755951 49.279269 
L 462.607654 52.212742 
L 463.926126 55.753733 
L 464.937317 58.079687 
L 466.428343 61.013159 
L 468.113203 63.946632 
L 471.043843 68.34684 
L 474.404268 72.747049 
L 478.14484 77.147258 
L 483.611894 83.014203 
L 492.401579 91.81462 
L 501.456323 100.757966 
L 508.371527 107.948719 
L 512.329574 112.348927 
L 516.468403 117.295532 
L 519.418148 121.149345 
L 522.470279 125.549553 
L 524.3139 128.483026 
L 526.755881 132.883235 
L 528.800046 137.283443 
L 529.923358 140.216916 
L 530.864146 143.150388 
L 531.610842 146.083861 
L 532.142005 149.017333 
L 532.467466 151.950806 
L 532.577834 154.884278 
L 532.46497 157.81775 
L 532.122067 160.751223 
L 531.480482 163.929252 
L 530.700174 166.618168 
L 529.60457 169.55164 
L 528.233293 172.485113 
L 526.476455 175.586264 
L 524.612699 178.352058 
L 522.324167 181.28553 
L 519.691058 184.219003 
L 516.688421 187.152475 
L 513.966389 189.513349 
L 511.402077 191.552684 
L 507.285557 194.486156 
L 503.958337 196.625087 
L 500.105188 198.886365 
L 496.452297 200.846931 
L 491.448271 203.292374 
L 484.643843 206.220046 
L 478.938205 208.387866 
L 472.329588 210.620255 
L 466.428139 212.386452 
L 458.922099 214.355168 
L 451.41606 216.048352 
L 443.91002 217.485452 
L 436.403981 218.684129 
L 428.897941 219.660453 
L 421.391902 220.414301 
L 413.885862 220.960136 
L 406.379823 221.284812 
L 398.873783 221.395244 
L 391.367743 221.282156 
L 383.160991 220.887408 
L 376.355664 220.31993 
L 368.784822 219.420672 
L 361.343585 218.201352 
L 356.339559 217.169099 
L 351.335532 215.940639 
L 346.331506 214.476548 
L 341.32748 212.726823 
L 338.825467 211.725608 
L 336.308277 210.620255 
L 333.336678 209.153518 
L 330.699105 207.686782 
L 328.346397 206.220046 
L 326.239364 204.75331 
L 323.813387 202.83307 
L 321.114274 200.353101 
L 318.483115 197.419629 
L 316.307348 194.43535 
L 314.598203 191.552684 
L 313.188761 188.619211 
L 312.05769 185.685739 
L 311.159603 182.752266 
L 310.457742 179.818794 
L 309.703836 175.418585 
L 309.230621 171.018376 
L 308.964062 166.618168 
L 308.821407 160.751223 
L 308.56857 141.683652 
L 308.240619 137.283443 
L 307.682711 132.883235 
L 307.144875 129.949762 
L 306.299295 126.51334 
L 305.544926 124.082817 
L 304.413856 121.149345 
L 303.004414 118.215872 
L 301.26296 115.2824 
L 299.119501 112.348927 
L 297.870539 110.882191 
L 294.95379 107.948719 
L 293.252801 106.481982 
L 291.287216 104.960611 
L 288.785203 103.246333 
L 286.28319 101.726344 
L 283.781177 100.367034 
L 281.279163 99.141375 
L 276.275137 97.041733 
L 271.271111 95.292008 
L 266.267084 93.827917 
L 261.263058 92.599457 
L 256.259032 91.567204 
L 248.752992 90.338693 
L 241.246952 89.448626 
L 233.740913 88.83402 
L 226.234873 88.4864 
L 218.728834 88.373312 
L 211.222794 88.483744 
L 202.54665 88.881148 
L 196.210715 89.354254 
L 188.704676 90.108103 
L 181.198636 91.084427 
L 173.692596 92.283104 
L 166.186557 93.720204 
L 158.680517 95.413388 
L 151.174478 97.382104 
L 145.273029 99.148301 
L 138.664412 101.38069 
L 132.958774 103.54851 
L 128.656359 105.355137 
L 123.077985 107.948719 
L 117.497429 110.882191 
L 112.566681 113.815664 
L 108.197468 116.749136 
L 104.33562 119.682608 
L 100.914196 122.616081 
L 97.911559 125.549553 
L 95.27845 128.483026 
L 92.989918 131.416498 
L 91.020452 134.349971 
L 89.369324 137.283443 
L 87.998047 140.216916 
L 86.902443 143.150388 
L 86.058897 146.083861 
L 85.480549 149.017333 
L 85.137647 151.950806 
L 85.024783 154.884278 
L 85.135151 157.81775 
L 85.460612 160.751223 
L 86.122135 164.24738 
L 86.738471 166.618168 
L 87.679258 169.55164 
L 88.802571 172.485113 
L 90.846736 176.885321 
L 92.437699 179.818794 
L 94.189774 182.752266 
L 97.131236 187.152475 
L 100.412238 191.552684 
L 103.636227 195.520106 
L 107.885512 200.353101 
L 111.999078 204.75331 
L 117.762097 210.620255 
L 126.154346 218.900999 
L 131.158372 223.871947 
L 136.162399 229.035528 
L 139.457776 232.621298 
L 143.198349 237.021507 
L 146.558774 241.421716 
L 148.672465 244.538322 
L 150.362441 247.28866 
L 151.950022 250.222133 
L 153.676491 254.014823 
L 154.489757 256.089078 
L 155.446662 259.02255 
L 156.197216 261.956023 
L 156.768537 264.889495 
L 157.154085 267.822968 
L 157.366811 270.75644 
L 157.418712 273.689913 
L 157.219095 278.090121 
L 156.716494 282.49033 
L 155.945672 286.890539 
L 154.942586 291.290747 
L 153.676491 295.828657 
L 152.319647 300.091165 
L 151.812349 301.557901 
L 151.812349 301.557901 
" clip-path="url(#p89d62f9a9f)" style="fill: none; stroke: #34b8a0; stroke-width: 2"/>
   </g>
   <g id="PathCollection_22">
    <path d="M 481.769935 8.210655 
L 481.211273 12.610864 
L 480.882588 17.011072 
L 480.808498 21.411281 
L 481.009893 25.81149 
L 481.507843 30.211698 
L 482.311951 34.611907 
L 483.034342 37.54538 
L 484.405202 41.945588 
L 485.509348 44.879061 
L 487.462997 49.279269 
L 489.767721 53.679478 
L 492.409946 58.079687 
L 495.369685 62.479895 
L 498.95431 67.307534 
L 502.109813 71.280313 
L 507.066423 77.147258 
L 514.884602 85.947675 
L 525.355135 97.681565 
L 530.345117 103.54851 
L 533.982495 108.045531 
L 538.318068 113.815664 
L 541.488534 118.412828 
L 544.126291 122.616081 
L 546.603939 127.01629 
L 548.994574 131.918963 
L 550.600428 135.816707 
L 551.639277 138.750179 
L 552.880832 143.150388 
L 553.508672 146.083861 
L 553.9986 149.307384 
L 554.239381 151.950806 
L 554.331459 154.884278 
L 554.237485 157.81775 
L 553.950876 160.751223 
L 553.45618 163.684695 
L 552.756743 166.618168 
L 551.85005 169.55164 
L 550.712644 172.485113 
L 548.994574 176.101911 
L 547.737587 178.352058 
L 545.878995 181.28553 
L 543.755955 184.219003 
L 541.350391 187.152475 
L 538.644684 190.085947 
L 535.621933 193.01942 
L 532.266244 195.952892 
L 528.549953 198.886365 
L 523.974442 202.1314 
L 518.970416 205.312803 
L 513.966389 208.185706 
L 508.962363 210.802908 
L 503.172471 213.553727 
L 496.336636 216.4872 
L 488.674829 219.420672 
L 481.440218 221.896752 
L 473.934178 224.207752 
L 466.428139 226.280987 
L 458.593794 228.221089 
L 448.914047 230.321458 
L 441.408007 231.751191 
L 431.399954 233.405075 
L 421.391902 234.790886 
L 411.383849 235.926912 
L 401.375796 236.825466 
L 391.367743 237.492567 
L 381.359691 237.940502 
L 371.351638 238.173454 
L 361.343585 238.190042 
L 351.335532 237.98851 
L 341.32748 237.566596 
L 331.319427 236.918017 
L 321.311374 236.015295 
L 313.805335 235.165137 
L 305.872066 234.088034 
L 297.004871 232.621298 
L 288.785203 230.961136 
L 281.279163 229.121015 
L 276.275137 227.667494 
L 271.271111 225.960682 
L 268.769097 224.985538 
L 266.082933 223.820881 
L 263.151662 222.354145 
L 260.65381 220.887408 
L 258.537635 219.420672 
L 256.259032 217.487499 
L 255.236329 216.4872 
L 253.757018 214.686476 
L 252.957838 213.553727 
L 252.117869 212.086991 
L 251.255005 210.084295 
L 250.916314 209.153518 
L 250.199699 206.220046 
L 249.858924 203.286574 
L 249.793752 200.353101 
L 249.932336 197.419629 
L 250.409304 193.01942 
L 251.353488 187.152475 
L 254.932984 166.618168 
L 255.425662 162.217959 
L 255.720748 157.81775 
L 255.765517 153.417542 
L 255.626984 150.484069 
L 255.330355 147.550597 
L 254.852681 144.617124 
L 254.16775 141.683652 
L 253.234479 138.750179 
L 252.013388 135.816707 
L 250.451712 132.883235 
L 248.481915 129.949762 
L 246.000167 127.01629 
L 243.748966 124.847526 
L 241.246952 122.800758 
L 238.882542 121.149345 
L 236.242926 119.562881 
L 233.661915 118.215872 
L 230.367182 116.749136 
L 226.234873 115.216261 
L 221.230847 113.748797 
L 216.226821 112.630153 
L 211.222794 111.801113 
L 206.218768 111.221062 
L 201.214741 110.865219 
L 196.210715 110.72721 
L 191.206689 110.782918 
L 186.202662 111.03056 
L 181.198636 111.468784 
L 174.443531 112.348927 
L 171.190583 112.900448 
L 166.186557 113.905155 
L 160.620666 115.2824 
L 155.661489 116.749136 
L 151.174478 118.293485 
L 146.170451 120.311264 
L 141.166425 122.67086 
L 138.545405 124.082817 
L 136.062538 125.549553 
L 131.73795 128.483026 
L 129.850308 129.949762 
L 128.114926 131.416498 
L 125.100178 134.349971 
L 122.606632 137.283443 
L 120.578684 140.216916 
L 118.977968 143.150388 
L 118.328785 144.617124 
L 117.320341 147.550597 
L 116.654796 150.484069 
L 116.326373 153.417542 
L 116.32585 156.351014 
L 116.640686 159.284487 
L 117.255232 162.217959 
L 118.151013 165.151432 
L 119.339514 168.084904 
L 121.15032 171.645811 
L 122.549821 173.951849 
L 124.562445 176.885321 
L 126.843171 179.818794 
L 129.393085 182.752266 
L 132.208878 185.685739 
L 135.282104 188.619211 
L 138.664412 191.60947 
L 144.069444 195.952892 
L 148.672465 199.370502 
L 156.51365 204.75331 
L 163.684544 209.394756 
L 174.840543 216.4872 
L 181.250015 220.887408 
L 185.079445 223.820881 
L 188.340947 226.754353 
L 190.996245 229.687826 
L 192.100219 231.154562 
L 193.030324 232.621298 
L 194.449147 235.554771 
L 194.954406 237.021507 
L 195.329777 238.488243 
L 195.744459 241.421716 
L 195.783164 244.355188 
L 195.514106 247.28866 
L 194.989946 250.222133 
L 194.251982 253.155605 
L 192.844002 257.555814 
L 191.135559 261.956023 
L 189.216666 266.356231 
L 185.63819 273.689913 
L 182.525141 279.556857 
L 177.546181 288.357275 
L 171.392421 298.624428 
L 169.585672 301.557901 
L 169.585672 301.557901 
" clip-path="url(#p89d62f9a9f)" style="fill: none; stroke: #43bb97; stroke-width: 2"/>
   </g>
   <g id="PathCollection_23">
    <path d="M 559.002627 188.888893 
L 556.500614 191.83583 
L 553.9986 194.513245 
L 551.00866 197.419629 
L 547.696838 200.353101 
L 543.990548 203.355211 
L 538.986521 207.00692 
L 533.982495 210.306362 
L 528.978469 213.311284 
L 523.974442 216.068369 
L 518.970416 218.615785 
L 513.966389 220.985052 
L 506.46035 224.232771 
L 498.95431 227.174946 
L 491.448271 229.852774 
L 482.880802 232.621298 
L 473.934178 235.229242 
L 466.428139 237.218652 
L 456.420086 239.615099 
L 446.412033 241.751795 
L 436.403981 243.652478 
L 426.395928 245.342573 
L 416.387875 246.839024 
L 406.379823 248.158716 
L 393.869757 249.585211 
L 381.359691 250.790799 
L 366.347612 251.988572 
L 348.833519 253.113168 
L 326.315401 254.291362 
L 301.295269 255.655752 
L 288.785203 256.588751 
L 278.77715 257.59755 
L 271.271111 258.568564 
L 263.765071 259.799464 
L 256.259032 261.359266 
L 251.255005 262.621295 
L 246.250979 264.092443 
L 241.246952 265.800652 
L 236.141592 267.822968 
L 231.2389 270.034886 
L 226.234873 272.612032 
L 221.230847 275.51833 
L 216.226821 278.76352 
L 211.053015 282.49033 
L 205.492703 286.890539 
L 200.37333 291.290747 
L 195.583671 295.690956 
L 189.583426 301.557901 
L 189.583426 301.557901 
" clip-path="url(#p89d62f9a9f)" style="fill: none; stroke: #54bd8e; stroke-width: 2"/>
    <path d="M 496.288559 8.210655 
L 496.299447 9.677391 
L 496.337071 11.144127 
L 496.402018 12.610864 
L 496.452297 13.410112 
L 496.49419 14.0776 
L 496.613563 15.544336 
L 496.761533 17.011072 
L 496.938692 18.477809 
L 497.14564 19.944545 
L 497.382984 21.411281 
L 497.651337 22.878017 
L 497.951318 24.344754 
L 498.283552 25.81149 
L 498.648668 27.278226 
L 498.95431 28.406573 
L 499.045558 28.744962 
L 499.470096 30.211698 
L 499.928519 31.678435 
L 500.421422 33.145171 
L 500.949395 34.611907 
L 501.456323 35.932962 
L 501.511897 36.078643 
L 502.099617 37.54538 
L 502.723064 39.012116 
L 503.382762 40.478852 
L 503.958337 41.693951 
L 504.076691 41.945588 
L 504.794801 43.412325 
L 505.549418 44.879061 
L 506.340962 46.345797 
L 506.46035 46.55957 
L 507.15428 47.812533 
L 508.001395 49.279269 
L 508.885197 50.746006 
L 508.962363 50.870455 
L 509.786905 52.212742 
L 510.722712 53.679478 
L 511.464376 54.802344 
L 511.689232 55.146214 
L 512.673673 56.612951 
L 513.6929 58.079687 
L 513.966389 58.463869 
L 514.728539 59.546423 
L 515.791156 61.013159 
L 516.468403 61.923891 
L 516.877027 62.479895 
L 517.978596 63.946632 
L 518.970416 65.232486 
L 519.108211 65.413368 
L 520.24393 66.880104 
L 521.40909 68.34684 
L 521.472429 68.425489 
L 522.575378 69.813577 
L 523.767339 71.280313 
L 523.974442 71.531885 
L 524.960805 72.747049 
L 526.173973 74.213785 
L 526.476455 74.575254 
L 527.387842 75.680522 
L 528.61642 77.147258 
L 528.978469 77.57517 
L 529.84403 78.613994 
L 531.082074 80.08073 
L 531.480482 80.548859 
L 532.316945 81.547466 
L 533.558427 83.014203 
L 533.982495 83.512044 
L 534.794329 84.480939 
L 536.033194 85.947675 
L 536.484508 86.479629 
L 537.264212 87.414411 
L 538.49444 88.881148 
L 538.986521 89.466296 
L 539.715022 90.347884 
L 540.930684 91.81462 
L 541.488534 92.48708 
L 542.135688 93.281356 
L 543.331001 94.748093 
L 543.990548 95.55795 
L 544.51573 96.214829 
L 545.685105 97.681565 
L 546.492561 98.696455 
L 546.845332 99.148301 
L 547.983421 100.615037 
L 548.994574 101.922495 
L 549.115404 102.081774 
L 550.217137 103.54851 
L 551.312948 105.015246 
L 551.496587 105.263941 
L 552.37825 106.481982 
L 553.430057 107.948719 
L 553.9986 108.751346 
L 554.459586 109.415455 
L 555.463087 110.882191 
L 556.453623 112.348927 
L 556.500614 112.419869 
L 557.406087 113.815664 
L 558.341769 115.2824 
L 559.002627 116.338802 
" clip-path="url(#p89d62f9a9f)" style="fill: none; stroke: #54bd8e; stroke-width: 2"/>
   </g>
   <g id="PathCollection_24">
    <path d="M 559.002627 205.555113 
L 556.3356 207.686782 
L 551.496587 211.249699 
L 546.492561 214.609855 
L 541.488534 217.692909 
L 536.484508 220.539854 
L 531.480482 223.184686 
L 526.476455 225.655848 
L 518.970416 229.072808 
L 511.464376 232.193328 
L 503.958337 235.05518 
L 496.452297 237.69104 
L 488.946258 240.129376 
L 478.938205 243.100574 
L 468.82315 245.821924 
L 458.922099 248.236886 
L 448.914047 250.464911 
L 436.403981 252.975659 
L 426.395928 254.790427 
L 413.885862 256.844615 
L 401.375796 258.698589 
L 386.363717 260.699768 
L 366.347612 263.085146 
L 333.82144 266.676655 
L 316.307348 268.741448 
L 303.797282 270.422423 
L 292.273904 272.223176 
L 283.781177 273.758466 
L 276.275137 275.306969 
L 268.769097 277.071421 
L 261.263058 279.095685 
L 253.757018 281.420656 
L 246.615412 283.957066 
L 242.868521 285.423802 
L 238.744939 287.149847 
L 232.919363 289.824011 
L 228.736886 291.902479 
L 223.73286 294.594552 
L 218.728834 297.505256 
L 212.336203 301.557901 
L 212.336203 301.557901 
" clip-path="url(#p89d62f9a9f)" style="fill: none; stroke: #69be84; stroke-width: 2"/>
    <path d="M 509.598987 8.210655 
L 509.779549 9.677391 
L 509.987038 11.144127 
L 510.221928 12.610864 
L 510.484694 14.0776 
L 510.775816 15.544336 
L 511.095773 17.011072 
L 511.445049 18.477809 
L 511.464376 18.553516 
L 511.818066 19.944545 
L 512.220364 21.411281 
L 512.652715 22.878017 
L 513.115566 24.344754 
L 513.609363 25.81149 
L 513.966389 26.812689 
L 514.131544 27.278226 
L 514.678439 28.744962 
L 515.256739 30.211698 
L 515.866829 31.678435 
L 516.468403 33.053352 
L 516.50833 33.145171 
L 517.170371 34.611907 
L 517.864357 36.078643 
L 518.590595 37.54538 
L 518.970416 38.284141 
L 519.342004 39.012116 
L 520.117926 40.478852 
L 520.925884 41.945588 
L 521.472429 42.903747 
L 521.760205 43.412325 
L 522.615082 44.879061 
L 523.50145 46.345797 
L 523.974442 47.105908 
L 524.410264 47.812533 
L 525.340038 49.279269 
L 526.300399 50.746006 
L 526.476455 51.009082 
L 527.274162 52.212742 
L 528.273663 53.679478 
L 528.978469 54.68785 
L 529.295555 55.146214 
L 530.330629 56.612951 
L 531.393564 58.079687 
L 531.480482 58.197761 
L 532.462236 59.546423 
L 533.555284 61.013159 
L 533.982495 61.576796 
L 534.659015 62.479895 
L 535.777913 63.946632 
L 536.484508 64.856914 
L 536.911172 65.413368 
L 538.051443 66.880104 
L 538.986521 68.062339 
L 539.208676 68.34684 
L 540.365669 69.813577 
L 541.488534 71.213567 
L 541.541358 71.280313 
L 542.710282 72.747049 
L 543.896865 74.213785 
L 543.990548 74.32891 
L 545.07496 75.680522 
L 546.266233 77.147258 
L 546.492561 77.424507 
L 547.449465 78.613994 
L 548.640403 80.08073 
L 548.994574 80.515092 
L 549.823729 81.547466 
L 551.009312 83.014203 
L 551.496587 83.615064 
L 552.187934 84.480939 
L 553.363189 85.947675 
L 553.9986 86.738821 
L 554.532595 87.414411 
L 555.692633 88.881148 
L 556.500614 89.901246 
L 556.848624 90.347884 
L 557.98868 91.81462 
L 559.002627 93.118231 
" clip-path="url(#p89d62f9a9f)" style="fill: none; stroke: #69be84; stroke-width: 2"/>
   </g>
   <g id="PathCollection_25">
    <path d="M 559.002627 217.345037 
L 553.9986 220.560192 
L 548.50141 223.820881 
L 543.162555 226.754353 
L 536.484508 230.148999 
L 528.978469 233.651956 
L 521.472429 236.87223 
L 513.674544 239.954979 
L 505.634362 242.888452 
L 496.452297 245.975823 
L 486.444244 249.05604 
L 476.436192 251.879329 
L 465.829408 254.622342 
L 453.38176 257.555814 
L 441.408007 260.12235 
L 428.897941 262.575584 
L 416.061162 264.889495 
L 398.873783 267.716349 
L 381.359691 270.362766 
L 356.339559 273.935969 
L 331.319427 277.572598 
L 316.307348 279.972019 
L 303.797282 282.205882 
L 293.789229 284.20906 
L 283.781177 286.460221 
L 273.773124 289.020545 
L 265.92963 291.290747 
L 258.761045 293.585464 
L 251.255005 296.257903 
L 243.748966 299.230313 
L 238.390009 301.557901 
L 238.390009 301.557901 
" clip-path="url(#p89d62f9a9f)" style="fill: none; stroke: #7abf7c; stroke-width: 2"/>
    <path d="M 521.905641 8.210655 
L 522.218862 9.677391 
L 522.558656 11.144127 
L 522.925398 12.610864 
L 523.319464 14.0776 
L 523.741226 15.544336 
L 523.974442 16.309132 
L 524.187572 17.011072 
L 524.658013 18.477809 
L 525.156589 19.944545 
L 525.683628 21.411281 
L 526.239455 22.878017 
L 526.476455 23.476462 
L 526.818492 24.344754 
L 527.422237 25.81149 
L 528.054933 27.278226 
L 528.716842 28.744962 
L 528.978469 29.303993 
L 529.400637 30.211698 
L 530.108764 31.678435 
L 530.845983 33.145171 
L 531.480482 34.361689 
L 531.610085 34.611907 
L 532.391413 36.078643 
L 533.201456 37.54538 
L 533.982495 38.912046 
L 534.039247 39.012116 
L 534.890703 40.478852 
L 535.770226 41.945588 
L 536.484508 43.102555 
L 536.674151 43.412325 
L 537.59179 44.879061 
L 538.536553 46.345797 
L 538.986521 47.028768 
L 539.498194 47.812533 
L 540.477181 49.279269 
L 541.482043 50.746006 
L 541.488534 50.755339 
L 542.492214 52.212742 
L 543.526824 53.679478 
L 543.990548 54.325375 
L 544.573777 55.146214 
L 545.63462 56.612951 
L 546.492561 57.776515 
L 546.713681 58.079687 
L 547.797052 59.546423 
L 548.901587 61.013159 
L 548.994574 61.135397 
L 550.005522 62.479895 
L 551.126968 63.946632 
L 551.496587 64.424918 
L 552.25128 65.413368 
L 553.385531 66.880104 
L 553.9986 67.664334 
L 554.525495 68.34684 
L 555.668347 69.813577 
L 556.500614 70.870343 
L 556.819321 71.280313 
L 557.966509 72.747049 
L 559.002627 74.058159 
" clip-path="url(#p89d62f9a9f)" style="fill: none; stroke: #7abf7c; stroke-width: 2"/>
   </g>
   <g id="PathCollection_26">
    <path d="M 559.002627 226.870553 
L 553.9986 229.706639 
L 546.492561 233.637671 
L 539.47478 237.021507 
L 532.9236 239.954979 
L 525.909755 242.888452 
L 518.38465 245.821924 
L 508.962363 249.220203 
L 498.95431 252.539395 
L 488.946258 255.597013 
L 478.938205 258.423627 
L 468.930152 261.047115 
L 456.420086 264.075256 
L 443.91002 266.862 
L 431.399954 269.444159 
L 416.387875 272.315401 
L 396.37177 275.848381 
L 371.351638 279.989935 
L 338.582219 285.423802 
L 323.813387 288.074326 
L 311.303322 290.521526 
L 298.793256 293.231407 
L 288.604759 295.690956 
L 281.279163 297.621159 
L 272.724499 300.091165 
L 268.006996 301.557901 
L 268.006996 301.557901 
" clip-path="url(#p89d62f9a9f)" style="fill: none; stroke: #8dbf75; stroke-width: 2"/>
    <path d="M 533.35753 8.210655 
L 533.780202 9.677391 
L 533.982495 10.342536 
L 534.225291 11.144127 
L 534.693245 12.610864 
L 535.187361 14.0776 
L 535.707909 15.544336 
L 536.255153 17.011072 
L 536.484508 17.60081 
L 536.823877 18.477809 
L 537.41557 19.944545 
L 538.034049 21.411281 
L 538.679524 22.878017 
L 538.986521 23.551349 
L 539.34617 24.344754 
L 540.034504 25.81149 
L 540.749683 27.278226 
L 541.488534 28.738481 
L 541.491793 28.744962 
L 542.247936 30.211698 
L 543.030562 31.678435 
L 543.839747 33.145171 
L 543.990548 33.412064 
L 544.663567 34.611907 
L 545.510666 36.078643 
L 546.383661 37.54538 
L 546.492561 37.724663 
L 547.268395 39.012116 
L 548.176256 40.478852 
L 548.994574 41.767071 
L 549.107025 41.945588 
L 550.047217 43.412325 
L 551.011379 44.879061 
L 551.496587 45.602914 
L 551.990057 46.345797 
L 552.982692 47.812533 
L 553.997952 49.279269 
L 553.9986 49.280194 
L 555.016043 50.746006 
L 556.055453 52.212742 
L 556.500614 52.831695 
L 557.10418 53.679478 
L 558.164445 55.146214 
L 559.002627 56.286948 
" clip-path="url(#p89d62f9a9f)" style="fill: none; stroke: #8dbf75; stroke-width: 2"/>
   </g>
   <g id="PathCollection_27">
    <path d="M 559.002627 235.011508 
L 552.221529 238.488243 
L 546.089954 241.421716 
L 538.986521 244.599809 
L 531.480482 247.732532 
L 523.974442 250.662075 
L 516.468403 253.410746 
L 506.46035 256.821943 
L 496.452297 259.982007 
L 486.444244 262.919343 
L 476.436192 265.659969 
L 466.428139 268.227884 
L 453.918073 271.222792 
L 441.408007 274.013813 
L 426.395928 277.137093 
L 408.881836 280.540215 
L 388.86573 284.215835 
L 341.32748 292.82609 
L 326.315401 295.781768 
L 312.998622 298.624428 
L 303.797282 300.746413 
L 300.46944 301.557901 
L 300.46944 301.557901 
" clip-path="url(#p89d62f9a9f)" style="fill: none; stroke: #9cbf6f; stroke-width: 2"/>
    <path d="M 544.081879 8.210655 
L 544.58534 9.677391 
L 545.113586 11.144127 
L 545.666828 12.610864 
L 546.24527 14.0776 
L 546.492561 14.681937 
L 546.843676 15.544336 
L 547.463355 17.011072 
L 548.108198 18.477809 
L 548.778357 19.944545 
L 548.994574 20.403641 
L 549.466405 21.411281 
L 550.176032 22.878017 
L 550.910717 24.344754 
L 551.496587 25.478257 
L 551.667733 25.81149 
L 552.439938 27.278226 
L 553.236751 28.744962 
L 553.9986 30.106235 
L 554.057215 30.211698 
L 554.889178 31.678435 
L 555.745097 33.145171 
L 556.500614 34.406341 
L 556.622835 34.611907 
L 557.511104 36.078643 
L 558.422467 37.54538 
L 559.002627 38.459305 
" clip-path="url(#p89d62f9a9f)" style="fill: none; stroke: #9cbf6f; stroke-width: 2"/>
   </g>
   <g id="PathCollection_28">
    <path d="M 559.002627 242.206665 
L 551.429837 245.821924 
L 543.990548 249.123708 
L 536.484508 252.242364 
L 528.978469 255.170491 
L 521.472429 257.928336 
L 511.464376 261.367371 
L 501.456323 264.568789 
L 490.532468 267.822968 
L 478.938205 271.036632 
L 466.428139 274.263558 
L 453.918073 277.277844 
L 438.905994 280.659892 
L 423.299232 283.957066 
L 401.172989 288.357275 
L 340.638913 300.091165 
L 333.617544 301.557901 
L 333.617544 301.557901 
" clip-path="url(#p89d62f9a9f)" style="fill: none; stroke: #aabe69; stroke-width: 2"/>
    <path d="M 554.169512 8.210655 
L 554.742954 9.677391 
L 555.340124 11.144127 
L 555.961169 12.610864 
L 556.500614 13.8394 
L 556.604664 14.0776 
L 557.26385 15.544336 
L 557.946739 17.011072 
L 558.653427 18.477809 
L 559.002627 19.182375 
" clip-path="url(#p89d62f9a9f)" style="fill: none; stroke: #aabe69; stroke-width: 2"/>
   </g>
   <g id="PathCollection_29">
    <path d="M 559.002627 248.702825 
L 558.890135 248.755397 
L 556.500614 249.856674 
L 555.698635 250.222133 
L 553.9986 250.986303 
L 552.418183 251.688869 
L 551.496587 252.093086 
L 549.047617 253.155605 
L 548.994574 253.178316 
L 546.492561 254.235616 
L 545.567479 254.622342 
L 543.990548 255.273062 
L 541.992381 256.089078 
L 541.488534 256.292229 
L 538.986521 257.289022 
L 538.309081 257.555814 
L 536.484508 258.265413 
L 534.518419 259.02255 
L 533.982495 259.226402 
L 531.480482 260.166785 
L 530.612879 260.489287 
L 528.978469 261.089494 
L 526.596933 261.956023 
L 526.476455 261.999339 
L 523.974442 262.887125 
L 522.450892 263.422759 
L 521.472429 263.762742 
L 518.970416 264.622806 
L 518.185761 264.889495 
L 516.468403 265.466492 
L 513.966389 266.299895 
L 513.795035 266.356231 
L 511.464376 267.11383 
L 509.265947 267.822968 
L 508.962363 267.919805 
L 506.46035 268.707861 
L 504.598004 269.289704 
L 503.958337 269.487366 
L 501.456323 270.251565 
L 499.789072 270.75644 
L 498.95431 271.006502 
L 496.452297 271.747809 
L 494.833937 272.223176 
L 493.950284 272.479988 
L 491.448271 273.19935 
L 489.727965 273.689913 
L 488.946258 273.910503 
L 486.444244 274.608849 
L 484.467237 275.156649 
L 483.942231 275.30063 
L 481.440218 275.978876 
L 479.048719 276.623385 
L 478.938205 276.652868 
L 476.436192 277.311916 
L 473.934178 277.967486 
L 473.460743 278.090121 
L 471.432165 278.61038 
L 468.930152 279.247893 
L 467.706733 279.556857 
L 466.428139 279.876606 
L 463.926126 280.496949 
L 461.78978 281.023594 
L 461.424113 281.112872 
L 458.922099 281.716922 
L 456.420086 282.318405 
L 455.697873 282.49033 
L 453.918073 282.910022 
L 451.41606 283.496359 
L 449.439521 283.957066 
L 448.914047 284.078411 
L 446.412033 284.650478 
L 443.91002 285.22069 
L 443.011342 285.423802 
L 441.408007 285.782872 
L 438.905994 286.339984 
L 436.427054 286.890539 
L 436.403981 286.895617 
L 433.901968 287.440509 
L 431.399954 287.984325 
L 429.676626 288.357275 
L 428.897941 288.524308 
L 426.395928 289.05711 
L 423.893915 289.58935 
L 422.784627 289.824011 
L 421.391902 290.116083 
L 418.889888 290.63855 
L 416.387875 291.161003 
L 415.762584 291.290747 
L 413.885862 291.676852 
L 411.383849 292.190813 
L 408.881836 292.705348 
L 408.626631 292.757484 
L 406.379823 293.212658 
L 403.877809 293.72003 
L 401.397188 294.22422 
L 401.375796 294.228532 
L 398.873783 294.729709 
L 396.37177 295.232509 
L 394.097034 295.690956 
L 393.869757 295.736393 
L 391.367743 296.234415 
L 388.86573 296.734771 
L 386.758743 297.157692 
L 386.363717 297.236358 
L 383.861704 297.733424 
L 381.359691 298.233596 
L 379.41364 298.624428 
L 378.857678 298.735222 
L 376.355664 299.233671 
L 373.853651 299.736063 
L 372.094876 300.091165 
L 371.351638 300.240091 
L 368.849625 300.742421 
L 366.347612 301.249605 
L 364.836114 301.557901 
" clip-path="url(#p89d62f9a9f)" style="fill: none; stroke: #b9bd63; stroke-width: 2"/>
   </g>
   <g id="PathCollection_30">
    <path d="M 559.002627 254.6495 
L 556.500614 255.751397 
L 555.725724 256.089078 
L 553.9986 256.832128 
L 552.299288 257.555814 
L 551.496587 257.893373 
L 548.994574 258.934545 
L 548.780514 259.02255 
L 546.492561 259.951583 
L 545.155448 260.489287 
L 543.990548 260.952054 
L 541.488534 261.93653 
L 541.438365 261.956023 
L 538.986521 262.897304 
L 537.60524 263.422759 
L 536.484508 263.844091 
L 533.982495 264.775621 
L 533.672965 264.889495 
L 531.480482 265.68678 
L 529.623744 266.356231 
L 528.978469 266.58624 
L 526.476455 267.468327 
L 525.460432 267.822968 
L 523.974442 268.335844 
L 521.472429 269.191952 
L 521.183303 269.289704 
L 518.970416 270.029627 
L 516.780477 270.75644 
L 516.468403 270.85889 
L 513.966389 271.670573 
L 512.249474 272.223176 
L 511.464376 272.473169 
L 508.962363 273.261551 
L 507.590895 273.689913 
L 506.46035 274.039314 
L 503.958337 274.805318 
L 502.800035 275.156649 
L 501.456323 275.560002 
L 498.95431 276.304532 
L 497.872645 276.623385 
L 496.452297 277.037812 
L 493.950284 277.761759 
L 492.805046 278.090121 
L 491.448271 278.475237 
L 488.946258 279.179475 
L 487.594249 279.556857 
L 486.444244 279.874688 
L 483.942231 280.560081 
L 482.238093 281.023594 
L 481.440218 281.238501 
L 478.938205 281.905901 
L 476.73537 282.49033 
L 476.436192 282.568945 
L 473.934178 283.219193 
L 471.432165 283.866692 
L 471.07921 283.957066 
L 468.930152 284.502154 
L 466.428139 285.133587 
L 465.269034 285.423802 
L 463.926126 285.756925 
L 461.424113 286.373125 
L 459.313426 286.890539 
L 458.922099 286.985594 
L 456.420086 287.587389 
L 453.918073 288.187351 
L 453.203386 288.357275 
L 451.41606 288.77842 
L 448.914047 289.365079 
L 446.948681 289.824011 
L 446.412033 289.948218 
L 443.91002 290.522405 
L 441.408007 291.095481 
L 440.549458 291.290747 
L 438.905994 291.661293 
L 436.403981 292.223027 
L 434.019825 292.757484 
L 433.901968 292.783678 
L 431.399954 293.334914 
L 428.897941 293.885828 
L 427.355735 294.22422 
L 426.395928 294.433055 
L 423.893915 294.974644 
L 421.391902 295.516433 
L 420.581838 295.690956 
L 418.889888 296.052473 
L 416.387875 296.586148 
L 413.885862 297.120583 
L 413.711026 297.157692 
L 411.383849 297.647648 
L 408.881836 298.175222 
L 406.754125 298.624428 
L 406.379823 298.702823 
L 403.877809 299.224446 
L 401.375796 299.747824 
L 399.735589 300.091165 
L 398.873783 300.270155 
L 396.37177 300.788916 
L 393.869757 301.310103 
L 392.680539 301.557901 
" clip-path="url(#p89d62f9a9f)" style="fill: none; stroke: #c6bc5e; stroke-width: 2"/>
   </g>
   <g id="PathCollection_31">
    <path d="M 559.002627 260.153857 
L 558.218685 260.489287 
L 556.500614 261.215449 
L 554.731679 261.956023 
L 553.9986 262.259248 
L 551.496587 263.283677 
L 551.153066 263.422759 
L 548.994574 264.286357 
L 547.47339 264.889495 
L 546.492561 265.273868 
L 543.990548 266.245055 
L 543.700849 266.356231 
L 541.488534 267.195537 
L 539.820582 267.822968 
L 538.986521 268.133182 
L 536.484508 269.05457 
L 535.839307 269.289704 
L 533.982495 269.958892 
L 531.75198 270.75644 
L 531.480482 270.852458 
L 528.978469 271.727276 
L 527.548386 272.223176 
L 526.476455 272.590888 
L 523.974442 273.441302 
L 523.235575 273.689913 
L 521.472429 274.27689 
L 518.970416 275.103821 
L 518.808708 275.156649 
L 516.468403 275.913226 
L 514.257592 276.623385 
L 513.966389 276.715965 
L 511.464376 277.502552 
L 509.58275 278.090121 
L 508.962363 278.281889 
L 506.46035 279.047433 
L 504.783378 279.556857 
L 503.958337 279.80499 
L 501.456323 280.550342 
L 499.8561 281.023594 
L 498.95431 281.287674 
L 496.452297 282.013672 
L 494.798101 282.49033 
L 493.950284 282.73227 
L 491.448271 283.439738 
L 489.607236 283.957066 
L 488.946258 284.141033 
L 486.444244 284.830786 
L 484.28213 285.423802 
L 483.942231 285.516155 
L 481.440218 286.188999 
L 478.938205 286.859248 
L 478.820135 286.890539 
L 476.436192 287.516496 
L 473.934178 288.170872 
L 473.215198 288.357275 
L 471.432165 288.815347 
L 468.930152 289.454645 
L 467.475474 289.824011 
L 466.428139 290.087568 
L 463.926126 290.71258 
L 461.603962 291.290747 
L 461.424113 291.335131 
L 458.922099 291.946645 
L 456.420086 292.556697 
L 455.590516 292.757484 
L 453.918073 293.15877 
L 451.41606 293.756377 
L 449.450602 294.22422 
L 448.914047 294.350848 
L 446.412033 294.936802 
L 443.91002 295.521998 
L 443.182793 295.690956 
L 441.408007 296.099836 
L 438.905994 296.674463 
L 436.798173 297.157692 
L 436.403981 297.247316 
L 433.901968 297.812178 
L 431.399954 298.377052 
L 430.299562 298.624428 
L 428.897941 298.936964 
L 426.395928 299.493198 
L 423.893915 300.049955 
L 423.707524 300.091165 
L 421.391902 300.599043 
L 418.889888 301.148322 
L 417.023817 301.557901 
" clip-path="url(#p89d62f9a9f)" style="fill: none; stroke: #d4bb58; stroke-width: 2"/>
   </g>
   <g id="PathCollection_32">
    <path d="M 559.002627 265.296483 
L 556.500614 266.327427 
L 556.429902 266.356231 
L 553.9986 267.335269 
L 552.776921 267.822968 
L 551.496587 268.328299 
L 549.040086 269.289704 
L 548.994574 269.307318 
L 546.492561 270.264543 
L 545.196151 270.75644 
L 543.990548 271.208864 
L 541.488534 272.139859 
L 541.262139 272.223176 
L 538.986521 273.051592 
L 537.219747 273.689913 
L 536.484508 273.95272 
L 533.982495 274.838455 
L 533.075357 275.156649 
L 531.480482 275.710214 
L 528.978469 276.572288 
L 528.828506 276.623385 
L 526.476455 277.416523 
L 524.465751 278.090121 
L 523.974442 278.253037 
L 521.472429 279.074292 
L 519.991204 279.556857 
L 518.970416 279.886083 
L 516.468403 280.686067 
L 515.40373 281.023594 
L 513.966389 281.474764 
L 511.464376 282.254306 
L 510.699812 282.49033 
L 508.962363 283.021468 
L 506.46035 283.781385 
L 505.876338 283.957066 
L 503.958337 284.528505 
L 501.456323 285.269601 
L 500.930683 285.423802 
L 498.95431 285.998114 
L 496.452297 286.721181 
L 495.860799 286.890539 
L 493.950284 287.432465 
L 491.448271 288.138287 
L 490.665305 288.357275 
L 488.946258 288.833667 
L 486.444244 289.523018 
L 485.343585 289.824011 
L 483.942231 290.203771 
L 481.440218 290.877418 
L 479.895874 291.290747 
L 478.938205 291.544776 
L 476.436192 292.203479 
L 474.323349 292.757484 
L 473.934178 292.858632 
L 471.432165 293.503146 
L 468.930152 294.145997 
L 468.622979 294.22422 
L 466.428139 294.778321 
L 463.926126 295.407982 
L 462.794769 295.690956 
L 461.424113 296.030867 
L 458.922099 296.648093 
L 456.850256 297.157692 
L 456.420086 297.262612 
L 453.918073 297.868158 
L 451.41606 298.472954 
L 450.78517 298.624428 
L 448.914047 299.069973 
L 446.412033 299.664116 
L 444.608798 300.091165 
L 443.91002 300.255307 
L 441.408007 300.839563 
L 438.905994 301.423791 
L 438.328288 301.557901 
" clip-path="url(#p89d62f9a9f)" style="fill: none; stroke: #e0ba52; stroke-width: 2"/>
   </g>
   <g id="PathCollection_33">
    <path d="M 559.002627 270.131989 
L 557.448045 270.75644 
L 556.500614 271.132814 
L 553.9986 272.118069 
L 553.728867 272.223176 
L 551.496587 273.083594 
L 549.911174 273.689913 
L 548.994574 274.036703 
L 546.492561 274.975011 
L 546.003396 275.156649 
L 543.990548 275.89619 
L 541.996833 276.623385 
L 541.488534 276.806858 
L 538.986521 277.70115 
L 537.889222 278.090121 
L 536.484508 278.582969 
L 533.982495 279.454295 
L 533.684939 279.556857 
L 531.480482 280.309033 
L 529.372988 281.023594 
L 528.978469 281.156028 
L 526.476455 281.987583 
L 524.953175 282.49033 
L 523.974442 282.810188 
L 521.472429 283.621063 
L 520.42719 283.957066 
L 518.970416 284.420841 
L 516.468403 285.211832 
L 515.791838 285.423802 
L 513.966389 285.990282 
L 511.464376 286.762173 
L 511.044281 286.890539 
L 508.962363 287.520733 
L 506.46035 288.274295 
L 506.182112 288.357275 
L 503.958337 289.014348 
L 501.456323 289.750343 
L 501.20343 289.824011 
L 498.95431 290.473216 
L 496.452297 291.192396 
L 496.106919 291.290747 
L 493.950284 291.899368 
L 491.448271 292.602477 
L 490.891929 292.757484 
L 488.946258 293.294783 
L 486.444244 293.982558 
L 485.558551 294.22422 
L 483.942231 294.661386 
L 481.440218 295.334559 
L 480.107696 295.690956 
L 478.938205 296.001059 
L 476.436192 296.660356 
L 474.541165 297.157692 
L 473.934178 297.315641 
L 471.432165 297.961785 
L 468.930152 298.606656 
L 468.860583 298.624428 
L 466.428139 299.240643 
L 463.926126 299.873326 
L 463.059269 300.091165 
L 461.424113 300.498696 
L 458.922099 301.119914 
L 457.152407 301.557901 
" clip-path="url(#p89d62f9a9f)" style="fill: none; stroke: #ecb94c; stroke-width: 2"/>
   </g>
   <g id="PathCollection_34">
    <path d="M 559.002627 274.705182 
L 557.851739 275.156649 
L 556.500614 275.681053 
L 554.054328 276.623385 
L 553.9986 276.644628 
L 551.496587 277.588297 
L 550.156189 278.090121 
L 548.994574 278.520539 
L 546.492561 279.440409 
L 546.172668 279.556857 
L 543.990548 280.343154 
L 542.089506 281.023594 
L 541.488534 281.236549 
L 538.986521 282.115073 
L 537.90931 282.49033 
L 536.484508 282.981784 
L 533.982495 283.838799 
L 533.633853 283.957066 
L 531.480482 284.680448 
L 529.254944 285.423802 
L 528.978469 285.515264 
L 526.476455 286.334887 
L 524.76994 286.890539 
L 523.974442 287.147111 
L 521.472429 287.94737 
L 520.181826 288.357275 
L 518.970416 288.738446 
L 516.468403 289.520092 
L 515.488042 289.824011 
L 513.966389 290.291406 
L 511.464376 291.05518 
L 510.686409 291.290747 
L 508.962363 291.808064 
L 506.46035 292.554697 
L 505.775204 292.757484 
L 503.958337 293.290435 
L 501.456323 294.02065 
L 500.753219 294.22422 
L 498.95431 294.740476 
L 496.452297 295.454989 
L 495.619832 295.690956 
L 493.950284 296.160096 
L 491.448271 296.859614 
L 490.375079 297.157692 
L 488.946258 297.551152 
L 486.444244 298.23638 
L 485.019709 298.624428 
L 483.942231 298.915463 
L 481.440218 299.587097 
L 479.555256 300.091165 
L 478.938205 300.254801 
L 476.436192 300.913538 
L 473.984086 301.557901 
" clip-path="url(#p89d62f9a9f)" style="fill: none; stroke: #f9bb43; stroke-width: 2"/>
   </g>
   <g id="PathCollection_35">
    <path d="M 559.002627 279.048874 
L 557.678984 279.556857 
L 556.500614 280.004484 
L 553.9986 280.947832 
L 553.795667 281.023594 
L 551.496587 281.8733 
L 549.815834 282.49033 
L 548.994574 282.788842 
L 546.492561 283.690769 
L 545.747555 283.957066 
L 543.990548 284.578969 
L 541.589 285.423802 
L 541.488534 285.458805 
L 538.986521 286.321836 
L 537.327774 286.890539 
L 536.484508 287.176908 
L 533.982495 288.019765 
L 532.972954 288.357275 
L 531.480482 288.851568 
L 528.978469 289.674996 
L 528.521632 289.824011 
L 526.476455 290.484966 
L 523.974442 291.289701 
L 523.971157 291.290747 
L 521.472429 292.079216 
L 519.313534 292.757484 
L 518.970416 292.864314 
L 516.468403 293.636365 
L 514.554099 294.22422 
L 513.966389 294.403097 
L 511.464376 295.158405 
L 509.691367 295.690956 
L 508.962363 295.90801 
L 506.46035 296.647268 
L 504.724266 297.157692 
L 503.958337 297.380942 
L 501.456323 298.104837 
L 499.652247 298.624428 
L 498.95431 298.823732 
L 496.452297 299.532946 
L 494.475341 300.091165 
L 493.950284 300.238178 
L 491.448271 300.933387 
L 489.194215 301.557901 
" clip-path="url(#p89d62f9a9f)" style="fill: none; stroke: #fec13a; stroke-width: 2"/>
   </g>
   <g id="PathCollection_36">
    <path d="M 559.002627 283.191122 
L 556.965978 283.957066 
L 556.500614 284.130365 
L 553.9986 285.053848 
L 552.988671 285.423802 
L 551.496587 285.965095 
L 548.994574 286.86703 
L 548.928719 286.890539 
L 546.492561 287.751883 
L 544.770246 288.357275 
L 543.990548 288.628759 
L 541.488534 289.493025 
L 540.523151 289.824011 
L 538.986521 290.345963 
L 536.484508 291.190739 
L 536.185617 291.290747 
L 533.982495 292.021164 
L 531.750631 292.757484 
L 531.480482 292.845804 
L 528.978469 293.656453 
L 527.216928 294.22422 
L 526.476455 294.460757 
L 523.974442 295.253856 
L 522.587175 295.690956 
L 521.472429 296.039103 
L 518.970416 296.815338 
L 517.859628 297.157692 
L 516.468403 297.582761 
L 513.966389 298.34281 
L 513.032926 298.624428 
L 511.464376 299.093599 
L 508.962363 299.838132 
L 508.106146 300.091165 
L 506.46035 300.573432 
L 503.958337 301.303115 
L 503.078852 301.557901 
" clip-path="url(#p89d62f9a9f)" style="fill: none; stroke: #fdca31; stroke-width: 2"/>
   </g>
   <g id="PathCollection_37">
    <path d="M 559.002627 287.156029 
L 556.500614 288.07786 
L 555.736241 288.357275 
L 553.9986 288.986467 
L 551.671842 289.824011 
L 551.496587 289.886508 
L 548.994574 290.770562 
L 547.513459 291.290747 
L 546.492561 291.646002 
L 543.990548 292.510507 
L 543.270171 292.757484 
L 541.488534 293.362765 
L 538.986521 294.208425 
L 538.939351 294.22422 
L 536.484508 295.038866 
L 534.510303 295.690956 
L 533.982495 295.863753 
L 531.480482 296.676307 
L 529.989846 297.157692 
L 528.978469 297.481458 
L 526.476455 298.277033 
L 525.376848 298.624428 
L 523.974442 299.063674 
L 521.472429 299.842932 
L 520.669766 300.091165 
L 518.970416 300.612246 
L 516.468403 301.375842 
L 515.867422 301.557901 
" clip-path="url(#p89d62f9a9f)" style="fill: none; stroke: #fad22a; stroke-width: 2"/>
   </g>
   <g id="PathCollection_38">
    <path d="M 559.002627 290.95941 
L 558.094373 291.290747 
L 556.500614 291.866794 
L 554.022344 292.757484 
L 553.9986 292.765939 
L 551.496587 293.648731 
L 549.856681 294.22422 
L 548.994574 294.524036 
L 546.492561 295.387912 
L 545.608592 295.690956 
L 543.990548 296.240734 
L 541.488534 297.086372 
L 541.275685 297.157692 
L 538.986521 297.918015 
L 536.850184 298.624428 
L 536.484508 298.744299 
L 533.982495 299.557804 
L 532.333889 300.091165 
L 531.480482 300.364904 
L 528.978469 301.161967 
L 527.728356 301.557901 
" clip-path="url(#p89d62f9a9f)" style="fill: none; stroke: #f7da24; stroke-width: 2"/>
   </g>
   <g id="PathCollection_39">
    <path d="M 559.002627 294.618528 
L 556.500614 295.515364 
L 556.006843 295.690956 
L 553.9986 296.398754 
L 551.8342 297.157692 
L 551.496587 297.275033 
L 548.994574 298.137525 
L 547.574157 298.624428 
L 546.492561 298.991967 
L 543.990548 299.836793 
L 543.231855 300.091165 
L 541.488534 300.670648 
L 538.986521 301.49845 
L 538.805326 301.557901 
" clip-path="url(#p89d62f9a9f)" style="fill: none; stroke: #f5e41d; stroke-width: 2"/>
   </g>
   <g id="PathCollection_40">
    <path d="M 559.002627 298.146689 
L 557.657586 298.624428 
L 556.500614 299.031785 
L 553.9986 299.907343 
L 553.469337 300.091165 
L 551.496587 300.770432 
L 549.19906 301.557901 
" clip-path="url(#p89d62f9a9f)" style="fill: none; stroke: #f6ef16; stroke-width: 2"/>
   </g>
   <g id="PathCollection_41"/>
   <g id="line2d_10">
    <defs>
     <path id="mf94a46f805" d="M 0 6 
C 1.591219 6 3.117479 5.367802 4.242641 4.242641 
C 5.367802 3.117479 6 1.591219 6 0 
C 6 -1.591219 5.367802 -3.117479 4.242641 -4.242641 
C 3.117479 -5.367802 1.591219 -6 0 -6 
C -1.591219 -6 -3.117479 -5.367802 -4.242641 -4.242641 
C -5.367802 -3.117479 -6 -1.591219 -6 0 
C -6 1.591219 -5.367802 3.117479 -4.242641 4.242641 
C -3.117479 5.367802 -1.591219 6 0 6 
z
" style="stroke: #ffffff"/>
    </defs>
    <g>
     <use xlink:href="#mf94a46f805" x="438.004769" y="154.884278" style="fill: #5a5758; stroke: #ffffff"/>
    </g>
   </g>
   <g id="line2d_11">
    <g>
     <use xlink:href="#mf94a46f805" x="179.597848" y="154.884278" style="fill: #5a5758; stroke: #ffffff"/>
    </g>
   </g>
   <g id="patch_3">
    <path d="M 46.59999 301.557901 
L 46.59999 8.210655 
" style="fill: none; stroke: #5a5758; stroke-width: 0.8; stroke-linejoin: miter; stroke-linecap: square"/>
   </g>
   <g id="patch_4">
    <path d="M 58.59999 313.557901 
L 559.002627 313.557901 
" style="fill: none; stroke: #5a5758; stroke-width: 0.8; stroke-linejoin: miter; stroke-linecap: square"/>
   </g>
   <g id="text_12">
    <!-- Local Minimum -->
    <g style="fill: #5a5758" transform="translate(383.58431 142.379811) scale(0.14994 -0.14994)">
     <defs>
      <path id="CMUBright-Roman-4c" d="M 627 0 
L 627 4448 
L 1075 4448 
L 1075 339 
L 3347 339 
L 3347 0 
L 627 0 
z
" transform="scale(0.015625)"/>
      <path id="CMUBright-Roman-6f" d="M 256 1510 
Q 256 2182 675 2640 
Q 1094 3098 1677 3098 
Q 2272 3098 2681 2627 
Q 3091 2157 3091 1510 
Q 3091 838 2668 393 
Q 2246 -51 1677 -51 
Q 1088 -51 672 406 
Q 256 864 256 1510 
z
M 666 1587 
Q 666 1190 771 915 
Q 877 640 1046 512 
Q 1216 384 1369 333 
Q 1523 282 1677 282 
Q 1843 282 2006 342 
Q 2170 403 2330 537 
Q 2490 672 2586 937 
Q 2682 1203 2682 1568 
Q 2682 1914 2586 2163 
Q 2490 2413 2330 2541 
Q 2170 2669 2006 2723 
Q 1843 2778 1676 2778 
Q 1510 2778 1347 2723 
Q 1184 2669 1024 2544 
Q 864 2419 765 2172 
Q 666 1926 666 1587 
z
" transform="scale(0.015625)"/>
      <path id="CMUBright-Roman-63" d="M 294 1517 
Q 294 2157 691 2630 
Q 1088 3104 1709 3104 
Q 2042 3104 2250 3046 
Q 2458 2989 2758 2829 
L 2694 2477 
Q 2502 2592 2403 2640 
Q 2304 2688 2125 2729 
Q 1946 2771 1709 2771 
Q 1254 2771 982 2432 
Q 710 2093 710 1523 
Q 717 915 1008 598 
Q 1299 282 1696 282 
Q 1958 282 2192 365 
Q 2426 448 2525 518 
Q 2624 589 2765 710 
L 2797 352 
Q 2304 -51 1690 -51 
Q 1107 -51 700 403 
Q 294 858 294 1517 
z
" transform="scale(0.015625)"/>
      <path id="CMUBright-Roman-61" d="M 352 736 
Q 352 896 435 1046 
Q 518 1197 707 1347 
Q 896 1498 1283 1590 
Q 1670 1683 2214 1696 
L 2214 1965 
Q 2214 2381 2042 2579 
Q 1856 2803 1568 2803 
Q 1331 2803 1107 2736 
Q 883 2669 809 2624 
Q 736 2579 557 2470 
L 525 2829 
Q 1043 3104 1574 3104 
Q 2054 3104 2326 2806 
Q 2598 2509 2624 2144 
L 2630 1926 
L 2630 0 
L 2227 0 
L 2227 442 
Q 1830 -51 1107 -51 
L 1062 -51 
Q 710 -51 531 205 
Q 352 461 352 736 
z
M 749 749 
Q 749 518 950 393 
Q 1152 269 1408 269 
Q 1523 269 1644 297 
Q 1766 326 1904 390 
Q 2042 454 2128 595 
Q 2214 736 2214 928 
L 2214 1498 
Q 1568 1491 1158 1286 
Q 749 1082 749 749 
z
" transform="scale(0.015625)"/>
      <path id="CMUBright-Roman-6c" d="M 512 0 
L 512 4448 
L 915 4448 
L 915 0 
L 512 0 
z
" transform="scale(0.015625)"/>
      <path id="CMUBright-Roman-20" transform="scale(0.015625)"/>
      <path id="CMUBright-Roman-4d" d="M 646 0 
L 646 4448 
L 1235 4448 
L 2528 1274 
L 2822 518 
L 2912 774 
L 4397 4448 
L 4992 4448 
L 4992 0 
L 4589 0 
L 4589 4032 
L 4090 2752 
L 3008 109 
L 2624 109 
L 1280 3418 
L 1050 4032 
L 1050 0 
L 646 0 
z
" transform="scale(0.015625)"/>
      <path id="CMUBright-Roman-69" d="M 509 4019 
L 509 4422 
L 912 4422 
L 912 4019 
L 509 4019 
z
M 512 0 
L 512 3021 
L 915 3021 
L 915 0 
L 512 0 
z
" transform="scale(0.015625)"/>
      <path id="CMUBright-Roman-6e" d="M 512 0 
L 512 3021 
L 909 3021 
L 909 2400 
Q 1030 2682 1273 2877 
Q 1517 3072 1869 3072 
Q 2125 3072 2307 2992 
Q 2490 2912 2579 2809 
Q 2669 2707 2720 2540 
Q 2771 2374 2777 2272 
Q 2784 2170 2784 2016 
L 2784 0 
L 2374 0 
L 2374 1990 
Q 2374 2106 2371 2176 
Q 2368 2246 2329 2368 
Q 2291 2490 2220 2563 
Q 2150 2637 2006 2694 
Q 1862 2752 1658 2752 
Q 1370 2752 1149 2518 
Q 928 2285 928 1677 
L 928 0 
L 512 0 
z
" transform="scale(0.015625)"/>
      <path id="CMUBright-Roman-6d" d="M 512 0 
L 512 3021 
L 909 3021 
L 909 2400 
Q 1011 2650 1251 2861 
Q 1491 3072 1875 3072 
Q 2138 3072 2320 2998 
Q 2502 2925 2592 2797 
Q 2682 2669 2710 2595 
Q 2739 2522 2765 2413 
Q 2771 2394 2771 2387 
Q 2886 2650 3123 2861 
Q 3360 3072 3744 3072 
Q 4000 3072 4182 2992 
Q 4365 2912 4454 2813 
Q 4544 2714 4592 2544 
Q 4640 2374 4646 2272 
Q 4653 2170 4653 2016 
L 4653 0 
L 4243 0 
L 4243 1990 
Q 4243 2106 4236 2176 
Q 4230 2246 4192 2368 
Q 4154 2490 4083 2563 
Q 4013 2637 3869 2694 
Q 3725 2752 3520 2752 
Q 3174 2752 2982 2470 
Q 2790 2189 2790 1728 
L 2790 0 
L 2374 0 
L 2374 1990 
Q 2374 2106 2371 2176 
Q 2368 2246 2329 2368 
Q 2291 2490 2220 2563 
Q 2150 2637 2006 2694 
Q 1862 2752 1658 2752 
Q 1312 2752 1117 2470 
Q 922 2189 922 1728 
Q 922 1715 925 1702 
Q 928 1690 928 1677 
L 928 0 
L 512 0 
z
" transform="scale(0.015625)"/>
      <path id="CMUBright-Roman-75" d="M 512 851 
L 512 3021 
L 928 3021 
L 928 781 
Q 928 486 1037 368 
Q 1146 250 1517 250 
Q 1875 250 2124 477 
Q 2374 704 2374 1120 
L 2374 3021 
L 2784 3021 
L 2784 0 
L 2381 0 
L 2381 550 
Q 2214 269 1910 109 
Q 1606 -51 1254 -51 
Q 1005 -51 845 29 
Q 685 109 617 262 
Q 550 416 531 541 
Q 512 666 512 851 
z
" transform="scale(0.015625)"/>
     </defs>
     <use xlink:href="#CMUBright-Roman-4c"/>
     <use xlink:href="#CMUBright-Roman-6f" x="56.699997"/>
     <use xlink:href="#CMUBright-Roman-63" x="109.199982"/>
     <use xlink:href="#CMUBright-Roman-61" x="155.899979"/>
     <use xlink:href="#CMUBright-Roman-6c" x="205.099976"/>
     <use xlink:href="#CMUBright-Roman-20" x="227.59996"/>
     <use xlink:href="#CMUBright-Roman-4d" x="260.899948"/>
     <use xlink:href="#CMUBright-Roman-69" x="349.199936"/>
     <use xlink:href="#CMUBright-Roman-6e" x="371.699921"/>
     <use xlink:href="#CMUBright-Roman-69" x="423.399918"/>
     <use xlink:href="#CMUBright-Roman-6d" x="445.899902"/>
     <use xlink:href="#CMUBright-Roman-75" x="526.69989"/>
     <use xlink:href="#CMUBright-Roman-6d" x="578.399887"/>
    </g>
   </g>
   <g id="text_13">
    <!-- Local Maximum -->
    <g style="fill: #5a5758" transform="translate(128.618248 175.305108) scale(0.14994 -0.14994)">
     <defs>
      <path id="CMUBright-Roman-78" d="M 0 0 
L 1261 1555 
L 1261 1562 
L 38 3021 
L 499 3021 
L 1446 1850 
L 2362 3021 
L 2816 3021 
L 1626 1555 
L 2931 0 
L 2470 0 
L 1446 1325 
L 1440 1325 
L 454 0 
L 0 0 
z
" transform="scale(0.015625)"/>
     </defs>
     <use xlink:href="#CMUBright-Roman-4c"/>
     <use xlink:href="#CMUBright-Roman-6f" x="56.699997"/>
     <use xlink:href="#CMUBright-Roman-63" x="109.199982"/>
     <use xlink:href="#CMUBright-Roman-61" x="155.899979"/>
     <use xlink:href="#CMUBright-Roman-6c" x="205.099976"/>
     <use xlink:href="#CMUBright-Roman-20" x="227.59996"/>
     <use xlink:href="#CMUBright-Roman-4d" x="260.899948"/>
     <use xlink:href="#CMUBright-Roman-61" x="349.199936"/>
     <use xlink:href="#CMUBright-Roman-78" x="398.399933"/>
     <use xlink:href="#CMUBright-Roman-69" x="444.199921"/>
     <use xlink:href="#CMUBright-Roman-6d" x="466.699905"/>
     <use xlink:href="#CMUBright-Roman-75" x="547.499893"/>
     <use xlink:href="#CMUBright-Roman-6d" x="599.19989"/>
    </g>
   </g>
  </g>
 </g>
 <defs>
  <clipPath id="p89d62f9a9f">
   <rect x="58.59999" y="8.210655" width="500.402637" height="293.347246"/>
  </clipPath>
 </defs>
</svg>
